<svg width="72" height="72" viewBox="0 0 72 72" fill="none" xmlns="http://www.w3.org/2000/svg">
<rect width="72" height="72" rx="36" fill="#470FF4"/>
<path d="M31.2869 35.0573C32.7975 33.5467 35.4322 33.5467 36.9429 35.0573L37.8855 36L39.7709 34.1147L38.8282 33.172C37.5709 31.9133 35.8962 31.2187 34.1149 31.2187C32.3335 31.2187 30.6589 31.9133 29.4015 33.172L26.5722 36C25.3246 37.2516 24.624 38.9468 24.624 40.714C24.624 42.4812 25.3246 44.1764 26.5722 45.428C27.1907 46.0474 27.9255 46.5384 28.7343 46.873C29.5432 47.2075 30.4102 47.3789 31.2855 47.3773C32.1611 47.3791 33.0283 47.2079 33.8375 46.8733C34.6466 46.5388 35.3816 46.0476 36.0002 45.428L36.9429 44.4853L35.0575 42.6L34.1149 43.5427C33.3635 44.2907 32.3464 44.7106 31.2862 44.7106C30.226 44.7106 29.2089 44.2907 28.4575 43.5427C27.7089 42.7916 27.2885 41.7744 27.2885 40.714C27.2885 39.6535 27.7089 38.6364 28.4575 37.8853L31.2869 35.0573Z" fill="white"/>
<path d="M36.0002 26.572L35.0575 27.5147L36.9428 29.4L37.8855 28.4573C38.6369 27.7093 39.6539 27.2894 40.7142 27.2894C41.7744 27.2894 42.7915 27.7093 43.5428 28.4573C44.2915 29.2084 44.7119 30.2256 44.7119 31.286C44.7119 32.3465 44.2915 33.3637 43.5428 34.1147L40.7135 36.9427C39.2028 38.4533 36.5682 38.4533 35.0575 36.9427L34.1148 36L32.2295 37.8853L33.1722 38.828C34.4295 40.0867 36.1042 40.7813 37.8855 40.7813C39.6668 40.7813 41.3415 40.0867 42.5988 38.828L45.4282 36C46.6758 34.7484 47.3763 33.0532 47.3763 31.286C47.3763 29.5188 46.6758 27.8236 45.4282 26.572C44.1769 25.3238 42.4816 24.6227 40.7142 24.6227C38.9467 24.6227 37.2514 25.3238 36.0002 26.572Z" fill="white"/>
</svg>
