<svg width="72" height="72" viewBox="0 0 72 72" fill="none" xmlns="http://www.w3.org/2000/svg">
<rect width="72" height="72" rx="36" fill="#470FF4"/>
<path d="M39.7599 25.68C39.4951 26.1542 39.2591 26.644 39.0532 27.1467C37.0302 26.8267 34.9695 26.8267 32.9466 27.1467C32.7407 26.644 32.5047 26.1542 32.2399 25.68C30.3343 26.0056 28.4818 26.5887 26.7332 27.4133C23.6065 31.9257 22.1885 37.4039 22.7332 42.8667C24.7709 44.3985 27.0578 45.5668 29.4932 46.32C30.0478 45.5875 30.5427 44.8116 30.9732 44C30.1787 43.707 29.415 43.3363 28.6932 42.8933C28.8912 42.7616 29.0784 42.6145 29.2532 42.4533C31.3578 43.4671 33.6638 43.9935 35.9999 43.9935C38.3359 43.9935 40.6419 43.4671 42.7466 42.4533C42.9332 42.6133 43.1199 42.76 43.3066 42.8933C42.5809 43.3329 41.818 43.7076 41.0266 44.0133C41.4392 44.8434 41.9209 45.6373 42.4666 46.3867C44.8989 45.636 47.1819 44.4674 49.2132 42.9333C49.7711 37.4696 48.3519 31.9869 45.2132 27.48C43.4843 26.6383 41.6501 26.0329 39.7599 25.68ZM31.5732 39.7467C30.906 39.6988 30.2833 39.3942 29.8358 38.897C29.3883 38.3998 29.1508 37.7486 29.1732 37.08C29.1474 36.4105 29.3837 35.7574 29.8319 35.2595C30.2801 34.7615 30.9048 34.458 31.5732 34.4133C32.2417 34.458 32.8664 34.7615 33.3145 35.2595C33.7627 35.7574 33.999 36.4105 33.9732 37.08C33.999 37.7494 33.7627 38.4025 33.3145 38.9005C32.8664 39.3985 32.2417 39.702 31.5732 39.7467ZM40.4266 39.7467C39.7593 39.6988 39.1366 39.3942 38.6891 38.897C38.2416 38.3998 38.0042 37.7486 38.0266 37.08C38.0008 36.4105 38.2371 35.7574 38.6852 35.2595C39.1334 34.7615 39.7581 34.458 40.4266 34.4133C41.0963 34.4546 41.723 34.7572 42.1718 35.2559C42.6207 35.7546 42.8558 36.4097 42.8266 37.08C42.8558 37.7503 42.6207 38.4053 42.1718 38.9041C41.723 39.4028 41.0963 39.7054 40.4266 39.7467Z" fill="white"/>
</svg>
