<svg width="72" height="72" viewBox="0 0 72 72" fill="none" xmlns="http://www.w3.org/2000/svg">
<rect width="72" height="72" rx="36" fill="#470FF4"/>
<path d="M26.6439 29.596C28.2551 29.596 29.5612 28.2899 29.5612 26.6787C29.5612 25.0675 28.2551 23.7613 26.6439 23.7613C25.0327 23.7613 23.7266 25.0675 23.7266 26.6787C23.7266 28.2899 25.0327 29.596 26.6439 29.596Z" fill="white"/>
<path d="M32.3158 31.8067V47.992H37.3411V39.988C37.3411 37.876 37.7385 35.8307 40.3571 35.8307C42.9398 35.8307 42.9718 38.2453 42.9718 40.1213V47.9933H47.9998V39.1173C47.9998 34.7573 47.0611 31.4067 41.9651 31.4067C39.5185 31.4067 37.8785 32.7493 37.2078 34.02H37.1398V31.8067H32.3158ZM24.1265 31.8067H29.1598V47.992H24.1265V31.8067Z" fill="white"/>
</svg>
