<svg width="240" height="240" viewBox="0 0 240 240" fill="none" xmlns="http://www.w3.org/2000/svg">
<g clip-path="url(#clip0_386_75)">
<rect width="240" height="240" rx="120" fill="#F6CA73"/>
<g clip-path="url(#clip1_386_75)">
<path d="M63.2331 121.009L-34.9481 181.732" stroke="#262730" stroke-width="4" stroke-miterlimit="10"/>
<path d="M25.7308 140.923C33.6913 153.553 46.9596 159.325 56.1302 153.546L59.813 151.225C50.6424 157.004 37.3741 151.232 29.4136 138.602C21.4531 125.971 23.5472 110.528 30.9347 105.872L27.2519 108.193C19.8644 112.849 17.7755 128.3 25.7308 140.923Z" fill="#262730"/>
<path d="M29.4189 138.61C37.3794 151.241 50.6476 157.013 59.8182 151.233C68.9889 145.453 72.7698 130.057 64.8145 117.434C56.8592 104.812 40.1053 100.093 30.9347 105.872C23.5473 110.528 21.4583 125.979 29.4189 138.61Z" fill="#FA6257"/>
<path d="M48.6889 131.735C50.3047 130.716 62.4198 141.306 61.8461 143.575C61.464 145.099 56.7248 148.051 55.3757 147.653C52.7671 146.87 47.0732 132.753 48.6889 131.735Z" fill="#F79E4F"/>
<path d="M50.9554 129.313C50.9954 127.149 64.6197 124.757 66.0095 126.979C66.9427 128.459 66.7935 134.806 65.8455 135.657C64.0027 137.316 50.9154 131.476 50.9554 129.313Z" fill="#F79E4F"/>
<path d="M50.2826 125.518C48.7217 123.832 53.6007 110.275 55.8958 110.77C57.4383 111.104 61.9959 116.044 62.159 117.513C62.4727 120.366 51.8434 127.204 50.2826 125.518Z" fill="#F79E4F"/>
<path d="M47.1872 123.204C45.1946 123.27 37.6563 108.743 39.1371 107.14C40.1274 106.065 45.9575 105.892 47.1148 106.873C49.3481 108.771 49.1798 123.139 47.1872 123.204Z" fill="#F79E4F"/>
<path d="M43.9916 124.12C43.0729 125.89 28.7916 121.334 28.3359 118.836C28.0351 117.165 30.7415 112.004 32.0179 111.754C34.4897 111.271 44.9103 122.351 43.9864 124.112L43.9916 124.12Z" fill="#F79E4F"/>
<path d="M43.1042 127.569C43.9518 129.704 33.6789 138.56 31.6385 137.049C30.27 136.039 27.8157 129.773 28.2574 128.489C29.1034 125.991 42.2691 125.437 43.1115 127.564L43.1042 127.569Z" fill="#F79E4F"/>
<path d="M45.1968 130.954C47.1656 131.851 48.645 147.445 46.5459 148.052C45.1385 148.465 39.3694 145.814 38.6455 144.455C37.2302 141.823 43.2227 130.048 45.1916 130.945L45.1968 130.954Z" fill="#F79E4F"/>
<path d="M56.9268 99.7076L47.5972 102.363L73.9113 135.047L83.7843 131.737L56.9268 99.7076Z" fill="#7C3A25"/>
<path d="M46.6131 131.829L55.4223 135.835L64.3643 136.937L73.9113 135.046L74.0687 133.618L75.113 124.061L75.1795 121.488L75.327 116.333L72.5103 106.377L66.0622 102.455L59.2496 102.473L56.2652 102.481L56.0373 102.475L47.5951 102.375L45.4543 109.676L44.4741 113.01L45.2628 122.152L45.9012 126.731L46.6131 131.829Z" fill="#7C3A25"/>
<path d="M74.2425 133.636L83.7843 131.736L84.9984 120.755L85.2 113.023L82.3833 103.068L73.183 100.071L66.1455 99.1671L56.9267 99.7072L53.2853 111.017L52.9288 116.373L55.3534 127.223L65.3026 132.521L74.2425 133.636Z" fill="#F79E4F"/>
<path d="M69.5076 125.075L80.6809 128.943L85.9316 127.286L91.7139 125.456L101.948 120.428L101.755 119.186L99.9371 107.653L100.071 105.639L100.556 98.341L93.7748 86.7585L81.7998 85.8459L77.0735 88.27L73.309 90.2034L73.0657 90.3336L64.5113 92.1539L62.7592 100.62L65.6991 112.578L65.8267 113.087L69.5076 125.075Z" fill="#7C3A25"/>
<path d="M74.1571 86.0625L64.5061 92.1451L101.948 120.427L111.599 114.345L74.1571 86.0625Z" fill="#7C3A25"/>
<path d="M101.365 119.374L111.599 114.345L109.59 101.558L110.207 92.2582L103.433 80.6711L91.4456 79.7548L82.724 84.2462L74.1571 86.0628L72.4174 94.5327L75.4777 107.004L79.1659 118.987L90.3392 122.855L101.365 119.374Z" fill="#F79E4F"/>
<path d="M86.5585 105.176C94.7223 118.129 108.29 124.07 117.636 118.18L121.391 115.813C112.039 121.708 98.4779 115.762 90.3141 102.809C82.1502 89.8553 84.2502 74.0507 91.7832 69.3029L88.0276 71.6699C80.4946 76.4176 78.3999 92.2305 86.5585 105.176Z" fill="#262730"/>
<path d="M90.3193 102.816C98.4832 115.77 112.051 121.711 121.397 115.821C130.742 109.931 134.573 94.1794 126.41 81.2262C118.246 68.2729 101.129 63.4127 91.7832 69.3026C84.2502 74.0503 82.1555 89.8632 90.3193 102.816Z" fill="#FA6257"/>
<path d="M109.982 95.8219C111.626 94.7852 124.023 105.66 123.446 107.989C123.058 109.551 118.224 112.563 116.852 112.144C114.183 111.33 108.337 96.8586 109.982 95.8219Z" fill="#F79E4F"/>
<path d="M112.289 93.3503C112.324 91.1319 126.233 88.7225 127.652 91.0064C128.604 92.5329 128.471 99.019 127.507 99.8928C125.633 101.582 112.253 95.5687 112.289 93.3503Z" fill="#F79E4F"/>
<path d="M111.591 89.4676C109.991 87.7366 114.934 73.8615 117.285 74.3796C118.857 74.7291 123.525 79.7961 123.702 81.3027C124.025 84.2196 113.197 91.1941 111.591 89.4676Z" fill="#F79E4F"/>
<path d="M108.419 87.0985C106.387 87.1657 98.6464 72.27 100.153 70.6269C101.16 69.53 107.119 69.3685 108.292 70.3744C110.577 72.3209 110.444 87.0358 108.419 87.0985Z" fill="#F79E4F"/>
<path d="M105.164 88.0168C104.227 89.8211 89.6344 85.1264 89.1619 82.5696C88.8476 80.8607 91.6048 75.5865 92.9011 75.3359C95.4197 74.8464 106.095 86.2171 105.157 88.0214L105.164 88.0168Z" fill="#F79E4F"/>
<path d="M104.27 91.5511C105.141 93.7409 94.6762 102.775 92.5827 101.228C91.186 100.19 88.6577 93.7745 89.1056 92.4521C89.9671 89.8981 103.405 89.3568 104.27 91.5511Z" fill="#F79E4F"/>
<path d="M106.415 95.019C108.431 95.9438 109.982 111.909 107.841 112.53C106.407 112.949 100.506 110.219 99.7617 108.828C98.3119 106.124 104.398 94.0942 106.415 95.019Z" fill="#F79E4F"/>
<path d="M116.14 60.5746L106.169 66.2463L143.87 98.2483L154.3 91.6749L116.14 60.5746Z" fill="#7C3A25"/>
<path d="M112.089 101.682L123.06 104.117L133.488 103.058L143.87 98.2478L143.705 96.5023L142.613 84.8132L142.076 81.7189L141.01 75.5258L135.426 64.3907L127.17 61.4235L119.43 63.2618L116.043 64.0674L115.785 64.126L106.174 66.2541L105.577 74.3271L105.17 79.7961L108.248 90.4883L109.882 95.2599L112.089 101.682Z" fill="#7C3A25"/>
<path d="M143.912 96.4762L154.3 91.6748L153.05 78.2356L151.44 68.9528L145.863 57.8131L134.688 56.6853L126.475 57.4816L116.139 60.5745L114.703 75.0596L115.578 81.5465L120.927 93.8582L133.485 97.5353L143.912 96.4762Z" fill="#F79E4F"/>
<path d="M142.499 41.0834L132.354 49.384L160.975 89.7444L172.018 82.6111L142.499 41.0834Z" fill="#7C3A25"/>
<path d="M127.97 78.1507L136.91 85.2522L141.166 86.4066L150.45 88.9227L159.372 89.6216L160.975 89.7441L164.136 78.3671L168.233 69.313L166.837 57.2718L156.415 51.8208L142.544 50.5778L132.36 49.392L129.205 59.8284L127.681 67.6077L127.97 78.1507Z" fill="#7C3A25"/>
<path d="M159.329 81.4544L172.018 82.611L174.917 70.2205L178.537 61.7328L176.734 50.0633L166.754 44.473L153.409 42.8401L142.499 41.0833L139.004 52.2543L137.525 59.8315L138.527 70.376L147.156 78.1938L159.329 81.4544Z" fill="#F79E4F"/>
<path d="M190.941 39.3647C188.328 39.8669 186.014 40.7938 183.659 41.8161C182.138 42.4855 174.573 47.3113 172.991 48.2387C170.151 49.9597 167.373 51.78 164.57 53.546C161.761 55.3167 158.993 57.1535 156.238 58.994L158.261 62.2033C163.979 58.8192 169.611 55.3156 175.199 51.7247C176.754 50.6751 184.289 45.9953 185.595 44.872C187.533 43.1879 189.368 41.5001 190.943 39.3519L190.935 39.3564L190.941 39.3647Z" fill="#262730"/>
<path d="M141.166 86.4067L150.45 88.9228L159.372 89.6217C156.601 87.8548 154.638 80.69 151.403 83.1906C148.177 85.6866 146.519 84.6859 143.849 83.8377C141.171 82.9941 140.966 85.6542 140.966 85.6542L141.166 86.4067Z" fill="#262730"/>
<path d="M148.428 80.6966C147.473 82.004 149.002 83.3169 149.957 82.299C150.912 81.281 149.389 79.3976 148.428 80.6966Z" fill="#262730"/>
<path d="M145.4 53.9193C141.066 51.7339 139.051 57.8142 140.727 63.0027C142.115 67.2961 151.74 57.1147 145.4 53.9193Z" fill="#262730"/>
<path d="M166.521 47.7385C165.643 44.895 162.1 46.5917 160.522 49.5398C159.216 51.9792 167.808 51.8982 166.521 47.7385Z" fill="#262730"/>
<path d="M117.585 78.8255C116.233 78.4873 116.201 79.8248 117.088 80.8607C117.818 81.7294 119.56 79.314 117.585 78.8255Z" fill="#262730"/>
<path d="M87.47 85.9353C85.6765 85.4939 85.6185 87.3218 86.7898 88.7448C87.7528 89.9177 90.0993 86.5896 87.47 85.9353Z" fill="#262730"/>
<path d="M72.3831 110.387C70.5896 109.946 70.5316 111.774 71.7029 113.197C72.6659 114.37 75.0124 111.042 72.3831 110.387Z" fill="#262730"/>
<path d="M51.1109 123.864C49.6463 123.493 49.6283 124.868 50.5984 125.956C51.4018 126.859 53.2541 124.409 51.1109 123.864Z" fill="#262730"/>
<path d="M56.4179 111.47C54.5371 111.084 54.2952 113.975 55.4017 116.005C56.3216 117.691 59.1657 112.038 56.4179 111.47Z" fill="#262730"/>
<path d="M55.5735 117.665C54.257 117.513 54.3854 118.749 55.3459 119.612C56.1408 120.324 57.4988 117.897 55.5735 117.665Z" fill="#262730"/>
<path d="M75.7322 94.9516C73.4276 95.0866 73.9865 98.5713 75.8808 100.625C77.4469 102.319 79.1045 94.7678 75.7322 94.9516Z" fill="#262730"/>
<path d="M82.2426 115.511C80.6705 114.017 79.4718 115.697 79.8042 117.741C80.0759 119.431 84.5523 117.707 82.2426 115.511Z" fill="#262730"/>
<path d="M78.8312 101.724C78.827 100.039 78.0217 100.165 77.5259 101.379C77.1171 102.376 78.828 104.187 78.8312 101.724Z" fill="#262730"/>
<path d="M70.0256 107.389C69.5278 106.212 68.4641 107.703 69.2239 108.634C69.8543 109.393 70.9785 109.643 70.0256 107.389Z" fill="#262730"/>
<path d="M89.4807 88.6901C88.4554 88.4349 88.4234 89.449 89.0997 90.2478C89.6604 90.9114 90.9848 89.0597 89.4807 88.6901Z" fill="#262730"/>
<path d="M130.815 92.8151C129.149 92.3976 129.1 94.0465 130.2 95.3407C131.108 96.4098 133.255 93.427 130.815 92.8151Z" fill="#262730"/>
<path d="M147.55 90.4044C144.833 89.7243 141.883 95.7902 146.545 94.5051C148.502 93.9647 151.519 91.3932 147.55 90.4044Z" fill="#262730"/>
<path d="M128.724 93.8208C127.913 93.6153 127.889 94.4163 128.422 95.0515C128.861 95.5718 129.906 94.1157 128.724 93.8208Z" fill="#262730"/>
<path d="M145.068 64.8571C142.675 63.5193 142.23 65.4728 143.557 67.5738C144.651 69.3148 148.56 66.8117 145.068 64.8571Z" fill="#262730"/>
<path d="M158.561 50.7427C156.936 50.3106 156.968 51.5388 158.076 52.586C158.989 53.4548 160.932 51.3748 158.561 50.7427Z" fill="#262730"/>
<path d="M141.136 66.137C139.568 65.2532 139.296 66.4638 140.19 67.8168C140.934 68.9335 143.43 67.44 141.136 66.137Z" fill="#262730"/>
<path d="M115.32 68.8106C112.073 70.6608 112.241 80.4477 115.147 78.362C117.285 79.9153 118.377 70.6751 115.32 68.8106Z" fill="#262730"/>
<path d="M69.5076 125.074L80.6809 128.942L85.9316 127.286C85.1753 124.908 85.1832 122.048 81.7829 123.14C77.8802 124.386 76.1471 126.46 75.1129 124.061C74.0787 121.662 73.4701 115.065 70.8766 115.613C68.2884 116.169 68.9396 112.685 66.5387 112.441C66.2556 112.412 65.9727 112.463 65.6991 112.577L65.8267 113.087L69.5076 125.074Z" fill="#262730"/>
<path d="M109.882 95.2598C110.104 95.3859 110.321 95.4568 110.54 95.4808C114.667 95.9306 111.097 91.2006 109.531 89.217C107.961 87.2252 106.44 84.2311 110.464 82.7582C114.209 81.3916 109.595 77.7006 105.577 74.3271L105.17 79.7961L108.248 90.4882L109.882 95.2598Z" fill="#262730"/>
<path d="M45.9012 126.732C46.0597 126.112 46.1691 125.43 46.2953 124.807C46.6873 122.896 49.9886 125.068 49.4118 122.265C49.1281 120.896 47.9636 120.855 47.067 119.432C46.3163 118.241 49.4523 116.392 50.6138 114.088C52.2362 110.87 49.2823 110.2 45.4544 109.677L44.4742 113.011L45.2629 122.153L45.9012 126.732Z" fill="#262730"/>
</g>
<g clip-path="url(#clip2_386_75)">
<path d="M85.0866 184.64L-23.2521 224.51" stroke="#262730" stroke-width="4" stroke-miterlimit="10"/>
<path d="M44.3602 196.655C49.635 210.622 61.4815 218.931 71.6224 215.101L75.6949 213.563C65.5539 217.393 53.7075 209.084 48.4327 195.117C43.1579 181.15 48.297 166.438 56.4661 163.353L52.3936 164.891C44.2245 167.976 39.0889 182.697 44.3602 196.655Z" fill="#262730"/>
<path d="M48.4361 195.126C53.7109 209.093 65.5574 217.402 75.6983 213.572C85.8393 209.742 92.6219 195.412 87.3505 181.454C82.0792 167.496 66.607 159.523 56.466 163.353C48.2969 166.438 43.1613 181.159 48.4361 195.126Z" fill="#FA6257"/>
<path d="M68.6915 192.242C70.4783 191.568 80.2317 204.366 79.2161 206.474C78.5371 207.89 73.3034 209.836 72.0611 209.176C69.6616 207.887 66.9048 192.917 68.6915 192.242Z" fill="#F79E4F"/>
<path d="M71.3966 190.322C71.8682 188.211 85.6957 188.59 86.6135 191.045C87.2318 192.682 85.8168 198.871 84.7178 199.516C82.5806 200.772 70.925 192.434 71.3966 190.322Z" fill="#F79E4F"/>
<path d="M71.4959 186.47C70.3036 184.506 77.7944 172.198 79.9441 173.142C81.3888 173.777 84.8668 179.529 84.733 181.001C84.4699 183.859 72.6882 188.434 71.4959 186.47Z" fill="#F79E4F"/>
<path d="M68.9255 183.584C66.96 183.25 62.4779 167.51 64.2494 166.234C65.4346 165.379 71.1815 166.376 72.1193 167.568C73.9282 169.874 70.891 183.918 68.9255 183.584Z" fill="#F79E4F"/>
<path d="M65.6114 183.843C64.3575 185.393 51.2753 178.074 51.3281 175.536C51.3675 173.838 55.051 169.322 56.3517 169.333C58.8701 169.353 66.8653 182.293 65.6079 183.834L65.6114 183.843Z" fill="#F79E4F"/>
<path d="M64.0523 187.044C64.4559 189.306 52.62 195.929 50.9229 194.041C49.7838 192.778 48.6318 186.148 49.3212 184.978C50.6495 182.7 63.6602 184.789 64.0603 187.041L64.0523 187.044Z" fill="#F79E4F"/>
<path d="M65.426 190.779C67.1757 192.052 65.5077 207.627 63.3297 207.801C61.8682 207.925 56.7455 204.174 56.3078 202.698C55.4474 199.836 63.6728 189.497 65.4225 190.77L65.426 190.779Z" fill="#F79E4F"/>
<path d="M83.166 162.508L73.4938 163.245L92.7429 200.529L103.078 199.26L83.166 162.508Z" fill="#7C3A25"/>
<path d="M66.6388 191.921L74.4695 197.607L83.0106 200.474L92.7429 200.53L93.1827 199.162L96.1165 190.006L96.696 187.499L97.8712 182.477L97.1015 172.16L91.5676 167.028L84.889 165.683L81.9632 165.095L81.7412 165.043L73.4892 163.258L69.9322 169.983L68.3053 173.054L67.2505 182.169L66.9606 186.782L66.6388 191.921Z" fill="#7C3A25"/>
<path d="M93.3494 199.213L103.078 199.26L106.463 188.742L108.207 181.207L107.437 170.89L99.0213 166.114L92.3066 163.822L83.1659 162.508L77.337 172.861L75.917 178.038L76.1236 189.153L84.8129 196.334L93.3494 199.213Z" fill="#F79E4F"/>
<path d="M90.4216 189.879L100.596 195.902L106.072 195.329L112.103 194.692L123.136 191.811L123.195 190.555L123.72 178.892L124.254 176.945L126.188 169.891L121.859 157.187L110.308 153.899L105.193 155.329L101.118 156.471L100.853 156.55L92.1076 156.623L88.6983 164.568L89.1883 176.873L89.2116 177.397L90.4216 189.879Z" fill="#7C3A25"/>
<path d="M102.776 152.583L92.1041 156.613L123.136 191.81L133.808 187.78L102.776 152.583Z" fill="#7C3A25"/>
<path d="M122.776 190.661L133.808 187.78L134.396 174.849L136.86 165.861L132.539 153.153L120.977 149.859L111.533 152.516L102.776 152.583L99.3785 160.535L99.8837 173.366L101.102 185.845L111.276 191.868L122.776 190.661Z" fill="#F79E4F"/>
<path d="M111.107 173.79C116.516 188.114 128.623 196.647 138.957 192.745L143.11 191.176C132.767 195.082 120.669 186.545 115.26 172.221C109.85 157.898 115.067 142.832 123.397 139.686L119.244 141.254C110.914 144.4 105.701 159.475 111.107 173.79Z" fill="#262730"/>
<path d="M115.263 172.23C120.673 186.554 132.779 195.088 143.113 191.185C153.447 187.282 160.35 172.614 154.941 158.291C149.531 143.967 133.731 135.783 123.397 139.685C115.067 142.831 109.854 157.906 115.263 172.23Z" fill="#FA6257"/>
<path d="M135.927 169.307C137.746 168.62 147.718 181.754 146.687 183.919C145.994 185.373 140.656 187.357 139.395 186.673C136.943 185.342 134.108 169.994 135.927 169.307Z" fill="#F79E4F"/>
<path d="M138.681 167.347C139.16 165.181 153.269 165.6 154.203 168.122C154.83 169.808 153.404 176.136 152.284 176.8C150.11 178.081 138.203 169.513 138.681 167.347Z" fill="#F79E4F"/>
<path d="M138.773 163.403C137.552 161.388 145.169 148.781 147.369 149.758C148.84 150.415 152.401 156.313 152.273 157.825C152.006 160.747 140.003 165.416 138.773 163.403Z" fill="#F79E4F"/>
<path d="M136.14 160.447C134.135 160.107 129.529 143.964 131.333 142.655C132.539 141.782 138.411 142.815 139.359 144.035C141.208 146.399 138.136 160.79 136.14 160.447Z" fill="#F79E4F"/>
<path d="M132.767 160.697C131.488 162.277 118.128 154.76 118.176 152.161C118.21 150.423 121.966 145.807 123.286 145.82C125.852 145.844 134.038 159.119 132.759 160.7L132.767 160.697Z" fill="#F79E4F"/>
<path d="M131.184 163.981C131.6 166.301 119.54 173.06 117.798 171.126C116.637 169.83 115.443 163.038 116.146 161.832C117.5 159.502 130.776 161.658 131.184 163.981Z" fill="#F79E4F"/>
<path d="M132.592 167.806C134.383 169.116 132.711 185.069 130.489 185.25C129 185.373 123.765 181.518 123.313 180.006C122.433 177.067 130.801 166.497 132.592 167.806Z" fill="#F79E4F"/>
<path d="M149.007 136.003L138.103 139.567L168.646 178.459L180.179 174.104L149.007 136.003Z" fill="#7C3A25"/>
<path d="M136.82 175.471L147.083 180.05L157.512 181.097L168.646 178.46L168.834 176.716L170.1 165.045L170.193 161.906L170.386 155.625L167.141 143.598L159.644 139.04L151.693 139.294L148.214 139.406L147.949 139.412L138.107 139.576L135.908 147.367L134.416 152.644L135.294 163.735L135.941 168.737L136.82 175.471Z" fill="#7C3A25"/>
<path d="M169.042 176.731L180.179 174.103L181.641 160.685L181.92 151.268L178.682 139.238L167.958 135.899L159.752 135.038L149.007 136.002L144.703 149.907L144.264 156.438L147.044 169.571L158.613 175.684L169.042 176.731Z" fill="#F79E4F"/>
<path d="M178.73 122.175L167.131 128.28L187.105 173.547L199.351 168.765L178.73 122.175Z" fill="#7C3A25"/>
<path d="M157.084 155.59L164.424 164.335L168.364 166.317L176.957 170.639L185.559 173.107L187.105 173.548L192.477 163.032L198.302 154.98L199.341 142.903L190.219 135.478L176.877 131.487L167.135 128.289L161.957 137.885L158.909 145.202L157.084 155.59Z" fill="#7C3A25"/>
<path d="M187.151 165.096L199.351 168.765L204.669 157.205L209.913 149.612L210.48 137.818L201.818 130.345L189.07 126.077L178.73 122.175L173.073 132.422L170.109 139.55L168.983 150.082L175.875 159.467L187.151 165.096Z" fill="#F79E4F"/>
<path d="M226.538 130.175C223.878 130.145 221.425 130.591 218.913 131.121C217.289 131.473 208.912 134.689 207.177 135.282C204.05 136.4 200.964 137.628 197.865 138.798C194.758 139.972 191.679 141.218 188.612 142.471L189.952 146.02C196.231 143.847 202.45 141.54 208.643 139.139C210.377 138.421 218.695 135.342 220.199 134.503C222.435 133.24 224.57 131.953 226.542 130.163L226.534 130.166L226.538 130.175Z" fill="#262730"/>
<path d="M168.364 166.317L176.958 170.638L185.559 173.106C183.197 170.821 182.706 163.409 179.038 165.212C175.377 167.013 173.953 165.701 171.506 164.336C169.051 162.974 168.319 165.54 168.319 165.54L168.364 166.317Z" fill="#262730"/>
<path d="M176.621 162.174C175.423 163.264 176.659 164.856 177.798 164.049C178.938 163.243 177.822 161.093 176.621 162.174Z" fill="#262730"/>
<path d="M181.319 156.358C177.312 159.759 173.646 153.871 174.093 147.983C174.464 143.111 187.182 151.384 181.319 156.358Z" fill="#262730"/>
<path d="M197.313 155.418C192.945 155.041 192.339 160.641 194.902 164.321C197.023 167.366 203.705 155.968 197.313 155.418Z" fill="#262730"/>
<path d="M146.774 154.174C145.517 153.572 145.219 154.877 145.88 156.069C146.423 157.066 148.612 155.048 146.774 154.174Z" fill="#262730"/>
<path d="M115.846 155.121C114.177 154.33 113.755 156.109 114.618 157.738C115.327 159.079 118.291 156.288 115.846 155.121Z" fill="#262730"/>
<path d="M96.1753 176.063C94.5063 175.272 94.084 177.052 94.9472 178.68C95.6563 180.022 98.6207 177.23 96.1753 176.063Z" fill="#262730"/>
<path d="M72.6384 185.015C71.2776 184.358 70.985 185.702 71.7182 186.961C72.3247 188.007 74.6294 185.977 72.6384 185.015Z" fill="#262730"/>
<path d="M80.316 173.931C78.5504 173.177 77.7353 175.962 78.4137 178.172C78.9781 180.007 82.8948 175.037 80.316 173.931Z" fill="#262730"/>
<path d="M78.25 179.833C76.9906 179.42 76.8692 180.658 77.6379 181.695C78.2743 182.552 80.0902 180.445 78.25 179.833Z" fill="#262730"/>
<path d="M102.543 161.608C100.257 161.28 100.108 164.806 101.554 167.197C102.75 169.17 105.883 162.102 102.543 161.608Z" fill="#262730"/>
<path d="M104.812 183.055C103.57 181.277 102.059 182.683 101.976 184.752C101.905 186.462 106.635 185.668 104.812 183.055Z" fill="#262730"/>
<path d="M104.225 168.863C104.558 167.212 103.744 167.174 103.015 168.265C102.415 169.16 103.729 171.277 104.225 168.863Z" fill="#262730"/>
<path d="M94.4648 172.654C94.2123 171.401 92.8721 172.65 93.4303 173.714C93.8965 174.583 94.9478 175.053 94.4648 172.654Z" fill="#262730"/>
<path d="M117.265 158.221C116.312 157.766 116.078 158.753 116.581 159.671C116.997 160.434 118.665 158.884 117.265 158.221Z" fill="#262730"/>
<path d="M148.423 165.619C149.083 162.056 152.29 163.407 153.808 166.653C155.064 169.332 147.459 170.837 148.423 165.619Z" fill="#262730"/>
<path d="M173.82 171.51C171.294 170.3 167.191 175.654 172.015 175.327C174.041 175.189 177.511 173.272 173.82 171.51Z" fill="#262730"/>
<path d="M152.186 162.488C152.503 160.752 154.061 161.408 154.813 162.987C155.425 164.287 151.716 165.015 152.186 162.488Z" fill="#262730"/>
<path d="M177.996 144.558C175.816 146.574 174.852 144.63 175.716 142.081C176.425 139.971 181.175 141.613 177.996 144.558Z" fill="#262730"/>
<path d="M173.728 144.577C172.301 145.906 171.707 144.7 172.305 143.049C172.805 141.684 175.811 142.623 173.728 144.577Z" fill="#262730"/>
<path d="M146.558 143.909C143.006 145.073 141.214 154.696 144.478 153.233C146.263 155.183 149.18 146.347 146.558 143.909Z" fill="#262730"/>
<path d="M90.4217 189.878L100.596 195.902L106.072 195.328C105.806 192.847 106.386 190.047 102.836 190.436C98.763 190.877 96.6501 192.564 96.1164 190.006C95.5828 187.448 96.3052 180.863 93.6545 180.881C91.0073 180.909 92.342 177.625 90.0382 176.907C89.7668 176.821 89.4793 176.815 89.1884 176.872L89.2116 177.396L90.4217 189.878Z" fill="#262730"/>
<path d="M135.941 168.737C136.134 168.905 136.333 169.018 136.542 169.085C140.496 170.351 137.943 165.003 136.806 162.746C135.665 160.48 134.773 157.243 139.011 156.604C142.954 156.014 139.17 151.475 135.908 147.366L134.416 152.643L135.294 163.735L135.941 168.737Z" fill="#262730"/>
<path d="M66.9606 186.782C67.2398 186.207 67.4832 185.561 67.7314 184.976C68.4975 183.181 71.2979 185.97 71.2931 183.108C71.289 181.709 70.1561 181.437 69.562 179.863C69.0645 178.546 72.507 177.361 74.1056 175.336C76.3387 172.507 73.5781 171.261 69.9321 169.983L68.3052 173.054L67.2505 182.168L66.9606 186.782Z" fill="#262730"/>
</g>
</g>
<defs>
<clipPath id="clip0_386_75">
<rect width="240" height="240" rx="120" fill="white"/>
</clipPath>
<clipPath id="clip1_386_75">
<rect width="287.838" height="56.64" fill="white" transform="matrix(-0.845995 0.533191 0.533191 0.845995 175.452 14.79)"/>
</clipPath>
<clipPath id="clip2_386_75">
<rect width="287.838" height="56.64" fill="white" transform="matrix(-0.935509 0.353302 0.353302 0.935509 216.275 103)"/>
</clipPath>
</defs>
</svg>
