<svg width="240" height="240" viewBox="0 0 240 240" fill="none" xmlns="http://www.w3.org/2000/svg">
<rect width="240" height="240" rx="120" fill="#F6CA73"/>
<g clip-path="url(#clip0_370_336)">
<path d="M131.432 36.8958C128.971 32.6281 124.423 30 119.499 30C114.575 30 110.029 32.6281 107.568 36.8958L39.8465 154.313C37.3857 158.58 37.3857 163.836 39.8465 168.104C42.3074 172.372 46.8559 175 51.7776 175H187.222C192.144 175 196.692 172.372 199.153 168.104C201.614 163.836 201.614 158.58 199.153 154.313L131.432 36.8958Z" fill="#F79E4F"/>
<path d="M187.222 165.997H51.7777C50.0746 165.997 48.4864 165.08 47.6348 163.603C46.7833 162.126 46.7833 160.291 47.6348 158.814L115.356 41.3973C116.208 39.9205 117.796 39.0029 119.499 39.0029C121.202 39.0029 122.79 39.9205 123.642 41.3973L191.363 158.814C192.215 160.291 192.215 162.126 191.363 163.603C190.512 165.08 188.923 165.997 187.22 165.997H187.222ZM119.499 40.9184C118.477 40.9184 117.524 41.4682 117.013 42.3551L49.292 159.772C48.7811 160.657 48.7811 161.758 49.292 162.645C49.8029 163.532 50.7559 164.082 51.7777 164.082H187.222C188.244 164.082 189.197 163.532 189.708 162.645C190.219 161.758 190.219 160.657 189.708 159.772L121.985 42.3551C121.474 41.4682 120.521 40.9184 119.499 40.9184Z" fill="#262730"/>
<path d="M119.499 143.89C107.92 143.89 98.4995 134.46 98.4995 122.869C98.4995 111.279 107.92 101.847 119.499 101.847C129.189 101.847 137.575 108.419 139.89 117.828L130.228 120.211C129.011 115.263 124.599 111.807 119.499 111.807C113.406 111.807 108.45 116.768 108.45 122.869C108.45 128.97 113.406 133.93 119.499 133.93C124.599 133.93 129.011 130.474 130.228 125.528L139.89 127.911C137.575 137.32 129.189 143.89 119.499 143.89Z" fill="#262730"/>
<path d="M140.501 154.95H130.55C130.55 148.851 125.594 143.888 119.499 143.888C113.404 143.888 108.45 148.85 108.45 154.95H98.4995C98.4995 143.36 107.92 133.928 119.499 133.928C131.078 133.928 140.501 143.358 140.501 154.95Z" fill="#262730"/>
<path d="M119.499 111.808C107.92 111.808 98.4995 102.378 98.4995 90.7871H108.45C108.45 96.8861 113.406 101.847 119.499 101.847C125.592 101.847 130.55 96.8861 130.55 90.7871H140.501C140.501 102.378 131.08 111.808 119.499 111.808Z" fill="#262730"/>
</g>
<defs>
<clipPath id="clip0_370_336">
<rect width="163" height="145" fill="white" transform="translate(38 30)"/>
</clipPath>
</defs>
</svg>
