<svg width="240" height="240" viewBox="0 0 240 240" fill="none" xmlns="http://www.w3.org/2000/svg">
<g clip-path="url(#clip0_351_182)">
<rect width="240" height="240" rx="120" fill="#F6CA73"/>
<path d="M202.402 153.616C204.441 136.584 165.011 139.298 166.963 122.988C168.805 107.608 221.589 132.984 225.37 101.398C229.621 65.89 120.229 59.0602 127 2.49988C132.931 -47.043 196.005 -16.8596 203.641 -80.6499C208.304 -119.598 -1.46968 -147.022 -15 -33.9999C-27.6777 71.9004 150.772 96.2393 149.511 106.768C148.751 113.115 132.97 110.599 131.747 120.816C130.246 133.355 196.848 139.864 195.058 154.819C194.286 161.27 187.438 160.096 187.079 163.088C186.808 165.358 201.146 164.145 202.407 153.617L202.402 153.616Z" fill="#F7E9C1"/>
<path d="M26.199 155.554L174.997 181.685L178.298 163.041L29.4998 136.911L26.199 155.554Z" fill="#F7E9C1"/>
<path d="M181.842 173.278C182.753 168.131 181.164 163.55 178.294 163.046C175.423 162.541 172.357 166.305 171.446 171.452C170.534 176.599 172.123 181.18 174.994 181.684C177.864 182.188 180.93 178.425 181.842 173.278Z" fill="#FA6257"/>
<path d="M33.0461 147.145C33.9573 141.998 32.3688 137.417 29.498 136.913C26.6272 136.409 23.5612 140.172 22.65 145.319C21.7387 150.466 23.3273 155.047 26.1981 155.552C29.0689 156.056 32.1348 152.292 33.0461 147.145Z" fill="#F79E4F"/>
<path d="M26.3904 155.588L75.4759 164.208L78.7767 145.565L29.6912 136.945L26.3904 155.588Z" fill="#F79E4F"/>
<path d="M82.3277 155.8C83.239 150.653 81.6504 146.072 78.7796 145.568C75.9088 145.064 72.8428 148.828 71.9316 153.975C71.0203 159.122 72.6089 163.703 75.4797 164.207C78.3505 164.711 81.4165 160.947 82.3277 155.8Z" fill="#F7E9C1"/>
<g opacity="0.31">
<path d="M30.4831 151.757C30.1824 151.757 29.8865 151.614 29.7004 151.353L28.431 149.552C28.1303 149.124 28.2353 148.53 28.6648 148.225C29.0991 147.926 29.6909 148.031 29.9963 148.458L31.2658 150.26C31.5664 150.688 31.4614 151.282 31.0319 151.586C30.8649 151.7 30.674 151.757 30.4831 151.757Z" fill="#F6CA73"/>
<path d="M41.6171 153.71C41.3164 153.71 41.0205 153.567 40.8344 153.306L39.5649 151.505C39.2643 151.077 39.3693 150.483 39.7988 150.179C40.2331 149.879 40.8248 149.984 41.1303 150.412L42.3997 152.213C42.7004 152.641 42.5954 153.235 42.1659 153.539C41.9989 153.653 41.808 153.71 41.6171 153.71Z" fill="#F6CA73"/>
<path d="M52.751 155.664C52.4503 155.664 52.1545 155.522 51.9683 155.26L50.6989 153.459C50.3982 153.031 50.5032 152.437 50.9327 152.133C51.367 151.833 51.9588 151.938 52.2642 152.366L53.5337 154.167C53.8343 154.595 53.7293 155.189 53.2998 155.493C53.1328 155.607 52.9419 155.664 52.751 155.664Z" fill="#F6CA73"/>
<path d="M63.8849 157.622C63.5843 157.622 63.2884 157.48 63.1023 157.218L61.8328 155.417C61.5322 154.989 61.6372 154.395 62.0667 154.091C62.501 153.791 63.0927 153.896 63.3982 154.324L64.6676 156.125C64.9683 156.553 64.8633 157.147 64.4338 157.451C64.2667 157.565 64.0758 157.622 63.8849 157.622Z" fill="#F6CA73"/>
</g>
<g opacity="0.31">
<path d="M68.3185 150.997C68.0178 150.997 67.7219 150.855 67.5358 150.593C67.2352 150.165 67.3402 149.571 67.7697 149.267L69.5784 148.003C70.0127 147.703 70.6045 147.808 70.9099 148.236C71.2106 148.664 71.1056 149.258 70.6761 149.562L68.8673 150.826C68.7003 150.94 68.5094 150.997 68.3185 150.997Z" fill="#F6CA73"/>
<path d="M57.1846 149.039C56.8839 149.039 56.588 148.897 56.4019 148.635C56.1012 148.207 56.2062 147.613 56.6357 147.309L58.4445 146.045C58.8788 145.745 59.4705 145.85 59.776 146.278C60.0766 146.705 59.9716 147.3 59.5421 147.604L57.7334 148.868C57.5663 148.982 57.3755 149.039 57.1846 149.039Z" fill="#F6CA73"/>
<path d="M46.0506 147.085C45.7499 147.085 45.454 146.943 45.2679 146.681C44.9673 146.253 45.0722 145.659 45.5018 145.355L47.3105 144.091C47.7448 143.791 48.3366 143.896 48.642 144.324C48.9426 144.751 48.8377 145.346 48.4081 145.65L46.5994 146.914C46.4324 147.028 46.2415 147.085 46.0506 147.085Z" fill="#F6CA73"/>
<path d="M34.9166 145.132C34.616 145.132 34.3201 144.989 34.134 144.728C33.8333 144.3 33.9383 143.706 34.3678 143.402L36.1765 142.138C36.6108 141.838 37.2026 141.943 37.508 142.37C37.8087 142.798 37.7037 143.392 37.2742 143.697L35.4655 144.961C35.2984 145.075 35.1075 145.132 34.9166 145.132Z" fill="#F6CA73"/>
</g>
</g>
<defs>
<clipPath id="clip0_351_182">
<rect width="240" height="240" rx="120" fill="white"/>
</clipPath>
</defs>
</svg>
