<svg width="240" height="240" viewBox="0 0 240 240" fill="none" xmlns="http://www.w3.org/2000/svg">
<rect width="240" height="240" rx="120" fill="#F6CA73"/>
<path opacity="0.32" d="M170.407 177.274C167.016 190.823 166.793 190.998 152.904 190.998H85.7489C71.8599 190.998 71.6365 190.823 68.2455 177.274L59.6089 142.771H179.044L170.407 177.274Z" fill="white"/>
<path d="M120.298 172.941C120.365 172.616 119.869 172.194 119.932 171.89C120 171.565 120.819 171.409 120.88 171.107C120.945 170.78 120.451 170.353 120.508 170.051C120.571 169.722 120.629 169.411 120.681 169.109C120.735 168.778 120.81 168.469 120.848 168.167C120.891 167.831 121.087 167.529 121.105 167.227C121.126 166.887 121.178 166.555 121.162 166.256C121.146 165.915 121.09 165.579 121.022 165.287C120.947 164.964 120.248 164.941 120.104 164.662C119.959 164.383 119.907 164.195 119.686 163.95C119.485 163.727 119.436 163.416 119.163 163.214C118.924 163.037 118.594 163.048 118.299 162.88C118.039 162.733 118.08 161.975 117.773 161.832C117.502 161.705 117.008 162.05 116.697 161.925C116.417 161.811 116.232 161.414 115.921 161.3C115.636 161.196 115.393 160.919 115.079 160.812C114.79 160.713 114.339 161.071 114.026 160.969C113.734 160.874 113.349 161.053 113.035 160.955C112.742 160.862 112.462 160.703 112.148 160.608C111.853 160.517 111.578 160.34 111.264 160.245C110.968 160.156 110.806 159.582 110.492 159.491C110.179 159.4 109.834 159.505 109.522 159.414C109.211 159.323 108.793 159.668 108.482 159.578C108.171 159.487 108.015 158.931 107.704 158.84C107.392 158.749 106.977 159.087 106.666 158.996C106.355 158.906 106.276 158.084 105.964 157.993C105.653 157.902 105.398 157.684 105.087 157.594C104.775 157.503 104.299 158.036 103.988 157.943C103.676 157.85 103.489 157.403 103.18 157.308C102.871 157.212 102.67 156.738 102.366 156.647C102.061 156.556 101.59 156.994 101.285 156.908C100.98 156.822 100.637 156.82 100.333 156.733C100.028 156.647 99.8545 156.011 99.5499 155.93C99.2453 155.848 98.749 156.425 98.4421 156.345C98.1353 156.266 97.8375 156.089 97.5329 156.014C97.2283 155.939 96.9824 155.521 96.6756 155.448C96.3687 155.376 96.0935 155.056 95.7866 154.988C95.4798 154.92 94.9541 155.787 94.645 155.723C94.3359 155.66 94.0358 155.487 93.7267 155.428C93.4019 155.367 93.1514 154.965 92.8423 154.913C92.5174 154.858 92.1632 155.063 91.8541 155.017C91.527 154.97 91.2495 154.647 90.9381 154.611C90.6087 154.572 90.2725 154.747 89.9612 154.72C89.6295 154.69 89.3543 153.921 89.0429 153.905C88.709 153.887 88.3616 154.282 88.0525 154.279C87.7186 154.277 87.3756 153.955 87.0665 153.968C86.7326 153.984 86.4235 154.388 86.1167 154.425C85.7828 154.463 85.4872 154.656 85.1849 154.715C84.8555 154.781 84.4877 154.645 84.1922 154.733C83.8718 154.831 83.5649 154.972 83.2829 155.099C82.9783 155.235 82.6241 155.303 82.3601 155.471C82.0826 155.648 81.6449 155.687 81.408 155.896C81.1711 156.104 81.1914 156.645 80.9839 156.892C80.7763 157.14 80.8463 157.573 80.6703 157.848C80.4943 158.123 80.5484 158.47 80.404 158.765C80.2596 159.06 80.1897 159.323 80.0701 159.632C79.9506 159.941 79.8806 160.209 79.7791 160.524C79.6776 160.84 78.6329 160.844 78.5472 161.164C78.4615 161.484 78.4096 161.804 78.3329 162.124C78.2562 162.445 79.0549 162.953 78.9827 163.273C78.9105 163.593 78.5156 163.825 78.4457 164.145C78.3757 164.465 78.5811 164.83 78.5134 165.15C78.4457 165.47 78.4209 165.722 78.4209 166.031C78.4209 166.362 78.3667 166.61 78.4389 166.916C78.5111 167.223 78.1005 167.715 78.2449 168.006C78.3893 168.296 79.0549 168.228 79.2579 168.489C79.4474 168.735 79.1744 169.42 79.4158 169.647C79.6415 169.858 80.0882 169.851 80.3567 170.051C80.6048 170.235 81.126 169.999 81.408 170.171C81.672 170.335 81.469 171.356 81.7623 171.508C82.0375 171.654 82.5248 171.422 82.8227 171.561C83.1205 171.699 83.2784 172.133 83.583 172.258C83.8876 172.382 84.3975 171.919 84.7021 172.033C85.0066 172.146 85.0924 172.852 85.4015 172.957C85.7106 173.061 86.1776 172.632 86.4867 172.727C86.7958 172.823 86.9537 173.406 87.2651 173.497C87.5764 173.588 87.9306 173.497 88.2442 173.583C88.5578 173.67 88.8196 173.926 89.1332 174.005C89.4468 174.085 89.8529 173.758 90.1665 173.833C90.4801 173.908 90.6854 174.423 91.0013 174.496C91.3172 174.568 91.712 174.248 92.0256 174.319C92.3392 174.389 92.6551 174.432 92.9687 174.5C93.2823 174.568 93.6952 174.135 94.011 174.201C94.3269 174.266 94.451 175.252 94.7646 175.315C95.0782 175.379 95.4279 175.263 95.7415 175.327C96.0551 175.39 96.3281 175.665 96.644 175.726C96.9598 175.787 97.3705 175.338 97.6863 175.397C98.0022 175.456 98.2549 175.842 98.5685 175.901C98.8821 175.96 99.1754 176.139 99.4913 176.198C99.8071 176.257 100.195 175.926 100.509 175.987C100.822 176.048 101.118 176.216 101.429 176.278C101.741 176.339 102.066 176.364 102.379 176.425C102.693 176.487 102.986 176.657 103.297 176.72C103.609 176.784 104.06 176.201 104.371 176.266C104.683 176.332 104.976 176.457 105.276 176.518C105.576 176.58 105.881 176.707 106.183 176.766C106.485 176.825 106.837 176.693 107.14 176.75C107.456 176.809 107.708 177.147 108.008 177.199C108.324 177.256 108.642 177.238 108.942 177.286C109.26 177.338 109.594 177.19 109.894 177.233C110.215 177.281 110.393 178.309 110.693 178.346C111.016 178.386 111.334 178.468 111.634 178.498C111.959 178.529 112.351 177.581 112.652 177.601C112.979 177.622 113.261 178.184 113.561 178.191C113.89 178.198 114.208 178.173 114.506 178.162C114.835 178.148 115.21 178.554 115.503 178.516C115.833 178.475 116.094 177.967 116.381 177.894C116.704 177.812 117.017 177.724 117.29 177.603C117.588 177.472 117.66 177.006 117.902 176.825C118.143 176.643 118.716 176.784 118.915 176.541C119.113 176.298 118.892 175.785 119.043 175.497C119.181 175.231 119.355 174.997 119.461 174.684C119.555 174.4 120.3 174.266 120.374 173.944C120.44 173.651 120.248 173.272 120.298 172.948V172.941Z" fill="#F6CA73"/>
<path d="M83.9913 174.175C84.1132 174.486 84.7584 174.57 84.8712 174.861C84.9931 175.172 84.3952 175.758 84.5103 176.048C84.6343 176.361 85.2796 176.448 85.3992 176.734C85.5278 177.047 85.6474 177.344 85.7715 177.626C85.9068 177.937 86.0151 178.239 86.1482 178.513C86.2971 178.822 86.2994 179.185 86.4483 179.451C86.6175 179.75 86.7574 180.057 86.9356 180.302C87.1364 180.579 87.3688 180.831 87.5877 181.042C87.8268 181.274 88.427 180.904 88.7022 181.058C88.9775 181.212 89.1264 181.342 89.449 181.423C89.7423 181.498 89.9567 181.73 90.2973 181.748C90.5952 181.764 90.8682 181.571 91.2111 181.548C91.5112 181.528 91.8947 182.184 92.2331 182.134C92.5332 182.089 92.7588 181.528 93.0905 181.462C93.3883 181.401 93.7628 181.63 94.09 181.553C94.3878 181.482 94.7443 181.58 95.0691 181.496C95.367 181.419 95.5542 180.87 95.8746 180.781C96.1724 180.699 96.4003 180.336 96.7207 180.243C97.0185 180.157 97.3434 180.136 97.6615 180.043C97.9616 179.955 98.291 179.952 98.6091 179.857C98.9092 179.766 99.3581 180.157 99.674 180.061C99.9899 179.966 100.222 179.685 100.538 179.589C100.854 179.494 101.014 178.972 101.328 178.877C101.641 178.781 102.077 179.158 102.39 179.063C102.704 178.967 102.871 178.452 103.182 178.357C103.494 178.261 104.01 178.901 104.324 178.808C104.638 178.715 104.971 178.752 105.285 178.656C105.599 178.561 105.709 177.85 106.023 177.755C106.336 177.66 106.74 177.932 107.054 177.839C107.368 177.746 107.778 178.039 108.076 177.948C108.374 177.857 108.523 177.233 108.821 177.14C109.118 177.047 109.398 176.861 109.694 176.765C109.989 176.67 110.474 177.11 110.768 177.013C111.061 176.915 111.156 176.162 111.451 176.062C111.747 175.962 112.083 175.948 112.376 175.846C112.67 175.744 113.094 175.962 113.385 175.855C113.676 175.748 114.073 175.869 114.362 175.76C114.65 175.651 114.614 174.638 114.903 174.525C115.192 174.411 115.53 174.393 115.815 174.275C116.099 174.157 116.537 174.355 116.819 174.232C117.116 174.103 117.297 173.742 117.577 173.615C117.872 173.479 118.274 173.603 118.549 173.467C118.84 173.324 119.027 172.997 119.298 172.857C119.587 172.707 120.221 173.211 120.487 173.061C120.771 172.9 120.85 172.384 121.11 172.223C121.39 172.051 121.841 172.148 122.094 171.976C122.364 171.792 122.412 171.288 122.651 171.104C122.913 170.904 123.061 170.589 123.289 170.387C123.535 170.169 123.917 170.105 124.126 169.885C124.352 169.647 124.548 169.379 124.733 169.138C124.932 168.877 125.209 168.657 125.363 168.392C125.525 168.11 125.893 167.883 126.008 167.597C126.123 167.311 125.861 166.841 125.934 166.535C126.006 166.228 125.749 165.876 125.776 165.561C125.803 165.245 125.595 164.971 125.582 164.651C125.568 164.331 125.505 164.076 125.46 163.756C125.415 163.436 125.345 163.182 125.275 162.864C125.205 162.546 126.101 162.013 126.015 161.7C125.929 161.386 125.805 161.089 125.706 160.78C125.606 160.472 124.663 160.474 124.555 160.17C124.447 159.866 124.661 159.466 124.548 159.164C124.435 158.862 124.07 158.676 123.955 158.376C123.84 158.077 123.725 157.793 123.607 157.493C123.483 157.176 123.441 156.912 123.271 156.651C123.091 156.37 123.314 155.771 123.084 155.55C122.854 155.33 122.242 155.618 121.96 155.455C121.678 155.292 121.667 154.558 121.354 154.452C121.058 154.352 120.647 154.549 120.318 154.493C120.011 154.44 119.659 154.892 119.325 154.874C119.014 154.858 118.698 153.864 118.364 153.875C118.051 153.886 117.735 154.329 117.403 154.363C117.089 154.395 116.713 154.102 116.385 154.154C116.058 154.207 115.855 154.867 115.53 154.931C115.205 154.994 114.766 154.438 114.445 154.513C114.125 154.588 113.949 155.201 113.633 155.285C113.317 155.369 112.873 154.958 112.559 155.049C112.245 155.139 111.988 155.405 111.675 155.503C111.361 155.6 111 155.525 110.691 155.628C110.382 155.73 110.208 156.227 109.901 156.333C109.594 156.44 109.141 156.12 108.834 156.231C108.527 156.343 108.363 156.828 108.056 156.942C107.749 157.055 107.46 157.192 107.155 157.307C106.851 157.423 106.736 158.013 106.433 158.131C106.131 158.249 105.49 157.491 105.188 157.611C104.886 157.732 104.653 158.02 104.353 158.14C104.053 158.261 103.672 158.181 103.372 158.304C103.072 158.426 102.968 159.032 102.668 159.155C102.368 159.278 101.946 159.098 101.646 159.223C101.346 159.348 101.001 159.362 100.703 159.486C100.405 159.611 100.256 160.106 99.956 160.229C99.6559 160.351 99.3153 160.376 99.0174 160.499C98.7196 160.621 98.4331 160.783 98.1353 160.903C97.8375 161.023 97.4945 161.05 97.1967 161.171C96.8989 161.291 96.8402 162.031 96.5424 162.149C96.2446 162.267 95.9152 162.333 95.6151 162.449C95.3151 162.565 94.9992 162.624 94.7104 162.739C94.4216 162.855 94.1915 163.159 93.905 163.277C93.6184 163.395 93.2078 163.255 92.9235 163.375C92.6235 163.5 92.364 163.688 92.0797 163.811C91.7819 163.94 91.5743 164.247 91.2923 164.371C90.9945 164.505 90.2973 163.731 90.0176 163.861C89.722 163.999 89.4062 164.099 89.1309 164.235C88.8376 164.38 88.9933 165.397 88.7225 165.538C88.4315 165.69 87.8968 165.357 87.6328 165.509C87.3463 165.672 87.08 165.856 86.8251 166.017C86.5431 166.194 86.0241 166.019 85.7805 166.196C85.5097 166.392 85.5143 166.959 85.2864 167.152C85.0314 167.37 84.7833 167.586 84.5802 167.806C84.3523 168.053 84.4539 168.516 84.2892 168.768C84.1087 169.045 83.5288 169.1 83.4205 169.388C83.3122 169.676 83.6868 170.103 83.6484 170.421C83.61 170.739 83.5446 171.002 83.5739 171.329C83.6033 171.631 82.9941 172.087 83.0753 172.412C83.1498 172.704 84.147 172.727 84.2621 173.04C84.3681 173.324 83.8515 173.869 83.9891 174.171L83.9913 174.175Z" fill="#F7E9C1"/>
<path d="M185.702 140.829C185.702 139.758 184.838 138.889 183.773 138.889C182.489 138.889 181.449 137.842 181.449 136.551V131.965C181.449 130.894 180.585 130.024 179.52 130.024H59.4803C58.4153 130.024 57.5512 130.894 57.5512 131.965V136.551C57.5512 137.842 56.5111 138.889 55.2274 138.889C54.1625 138.889 53.2983 139.758 53.2983 140.829C53.2983 141.901 54.1625 142.77 55.2274 142.77H183.773C184.838 142.77 185.702 141.901 185.702 140.829Z" fill="#1E2675"/>
<path d="M74.8019 176.722C74.8019 177.049 75.3727 177.356 75.375 177.66C75.375 177.989 74.6079 178.309 74.6101 178.611C74.6146 178.942 75.1854 179.249 75.1945 179.551C75.2035 179.882 75.2125 180.193 75.2328 180.493C75.2554 180.826 75.2554 181.137 75.2915 181.432C75.3343 181.766 75.226 182.107 75.296 182.395C75.375 182.722 75.4359 183.053 75.5577 183.326C75.6908 183.623 75.8803 183.909 76.0789 184.15C76.2774 184.39 76.9024 184.079 77.1709 184.268C77.41 184.438 77.5634 184.597 77.8725 184.735C78.1388 184.853 78.3193 185.132 78.6419 185.23C78.9217 185.316 79.2443 185.205 79.5714 185.278C79.8602 185.341 80.0294 186.084 80.3566 186.14C80.6499 186.19 81.0357 185.732 81.3628 185.777C81.6606 185.818 81.9291 186.158 82.2563 186.195C82.5564 186.229 82.8497 186.442 83.1745 186.474C83.4746 186.504 83.8311 186.052 84.1537 186.081C84.456 186.109 84.7877 185.847 85.1103 185.872C85.4127 185.897 85.7172 185.99 86.0399 186.015C86.3445 186.038 86.649 186.152 86.9694 186.174C87.2898 186.197 87.5515 186.719 87.8719 186.74C88.1923 186.76 88.5036 186.581 88.824 186.601C89.1444 186.622 89.4715 186.193 89.7896 186.213C90.1078 186.233 90.3762 186.74 90.6966 186.762C91.017 186.785 91.3441 186.361 91.6645 186.381C91.9849 186.401 92.2353 187.185 92.5535 187.205C92.8716 187.225 93.1649 187.38 93.483 187.4C93.8011 187.421 94.1463 186.794 94.4644 186.817C94.7825 186.839 95.0601 187.234 95.3782 187.255C95.6963 187.275 95.9716 187.698 96.2897 187.72C96.6078 187.743 96.9688 187.214 97.2801 187.234C97.5915 187.255 97.9254 187.185 98.239 187.203C98.5526 187.221 98.8482 187.809 99.1618 187.827C99.4754 187.845 99.8364 187.178 100.15 187.191C100.464 187.205 100.784 187.318 101.098 187.332C101.411 187.346 101.727 187.704 102.038 187.716C102.35 187.727 102.675 187.988 102.988 187.995C103.302 188.002 103.649 187.051 103.961 187.057C104.272 187.064 104.597 187.175 104.911 187.178C105.224 187.18 105.551 187.53 105.863 187.53C106.174 187.53 106.501 187.266 106.812 187.259C107.124 187.253 107.462 187.527 107.771 187.516C108.08 187.505 108.403 187.282 108.714 187.266C109.042 187.25 109.407 187.977 109.716 187.954C110.043 187.931 110.334 187.5 110.641 187.471C110.968 187.439 111.325 187.732 111.632 187.693C111.959 187.654 112.23 187.232 112.534 187.185C112.861 187.135 113.148 186.935 113.45 186.876C113.775 186.812 114.134 186.962 114.432 186.889C114.754 186.812 115.061 186.703 115.354 186.615C115.672 186.517 116.02 186.513 116.304 186.404C116.616 186.283 117.028 186.358 117.299 186.222C117.599 186.074 117.71 185.561 117.965 185.396C118.244 185.214 118.303 184.783 118.536 184.583C118.784 184.367 118.815 184.029 119.014 183.791C119.212 183.553 119.323 183.323 119.483 183.049C119.643 182.774 119.727 182.545 119.844 182.247C119.961 181.95 121.004 181.964 121.085 181.65C121.166 181.337 121.205 180.985 121.256 180.663C121.308 180.341 120.46 179.925 120.489 179.598C120.519 179.271 120.875 179.006 120.891 178.679C120.907 178.352 120.641 178.043 120.647 177.719C120.654 177.394 120.652 177.09 120.654 176.765C120.656 176.441 120.735 176.132 120.735 175.807C120.735 175.483 121.241 175.088 121.162 174.79C121.076 174.477 120.41 174.439 120.241 174.166C120.072 173.894 120.388 173.238 120.151 173.009C119.93 172.797 119.474 172.809 119.194 172.625C118.939 172.457 118.448 172.741 118.147 172.598C117.872 172.466 117.958 171.429 117.647 171.313C117.358 171.206 116.904 171.499 116.588 171.408C116.293 171.322 116.056 170.911 115.736 170.836C115.433 170.766 114.991 171.299 114.668 171.238C114.346 171.177 114.152 170.496 113.829 170.446C113.507 170.396 113.123 170.9 112.803 170.859C112.482 170.818 112.232 170.271 111.909 170.239C111.587 170.207 111.257 170.357 110.937 170.33C110.616 170.303 110.314 170.096 109.994 170.076C109.673 170.055 109.335 170.45 109.012 170.432C108.69 170.414 108.399 169.946 108.076 169.935C107.753 169.924 107.426 170.31 107.104 170.3C106.781 170.291 106.467 170.307 106.147 170.3C105.827 170.294 105.506 170.795 105.186 170.791C104.865 170.786 104.561 169.842 104.24 169.84C103.92 169.837 103.602 170.017 103.282 170.017C102.961 170.017 102.643 169.799 102.325 169.799C102.007 169.799 101.691 170.323 101.373 170.325C101.055 170.328 100.734 170.003 100.414 170.005C100.094 170.008 99.7755 169.894 99.4573 169.899C99.1392 169.903 98.8256 170.31 98.5075 170.314C98.1894 170.319 97.869 170.214 97.5486 170.219C97.2282 170.223 96.9101 170.266 96.592 170.273C96.2739 170.28 95.9512 170.178 95.6331 170.182C95.315 170.187 95.0037 170.857 94.6878 170.859C94.3719 170.861 94.0493 170.804 93.7312 170.809C93.413 170.814 93.0904 170.752 92.7746 170.754C92.4587 170.757 92.1361 170.957 91.8202 170.959C91.5043 170.961 91.1794 170.675 90.8636 170.675C90.5477 170.675 90.2138 170.748 89.8979 170.75C89.5821 170.752 89.2482 170.952 88.9323 170.954C88.6164 170.957 88.2645 169.967 87.9509 169.974C87.6373 169.98 87.2921 169.94 86.9784 169.949C86.6468 169.958 86.3535 170.945 86.0399 170.957C85.7082 170.968 85.3653 170.432 85.0517 170.448C84.72 170.464 84.3974 170.505 84.0838 170.525C83.7521 170.546 83.3911 170.137 83.0798 170.164C82.7459 170.192 82.4593 170.675 82.1525 170.707C81.8186 170.743 81.4937 170.768 81.1869 170.811C80.8529 170.859 80.5957 171.274 80.2934 171.329C79.9595 171.39 79.5421 170.97 79.2443 171.043C78.9126 171.124 78.7321 171.662 78.4434 171.76C78.1162 171.869 77.8139 171.914 77.5409 172.046C77.2295 172.196 76.5775 171.787 76.3338 171.964C76.0586 172.164 76.4534 173.079 76.2549 173.32C76.0473 173.572 75.7608 173.665 75.6276 173.962C75.4945 174.259 75.3862 174.5 75.3231 174.831C75.2644 175.133 75.0929 175.419 75.0794 175.762C75.0681 176.068 74.7726 176.4 74.7929 176.743L74.8019 176.722Z" fill="#F79E4F"/>
<path d="M120.119 159.409C120.007 159.727 120.442 160.217 120.338 160.514C120.228 160.832 119.393 160.887 119.291 161.182C119.181 161.504 119.614 161.997 119.517 162.294C119.411 162.619 119.309 162.925 119.219 163.222C119.12 163.552 119.007 163.853 118.933 164.153C118.847 164.489 118.617 164.77 118.563 165.072C118.504 165.415 118.418 165.744 118.402 166.051C118.387 166.396 118.414 166.743 118.461 167.05C118.511 167.379 119.21 167.449 119.341 167.746C119.472 168.044 119.515 168.237 119.722 168.505C119.91 168.745 119.941 169.068 120.198 169.301C120.422 169.506 120.76 169.533 121.042 169.737C121.288 169.914 121.169 170.67 121.46 170.852C121.719 171.013 122.256 170.734 122.554 170.902C122.822 171.051 122.962 171.471 123.265 171.628C123.54 171.771 123.75 172.08 124.054 172.23C124.334 172.368 124.833 172.073 125.137 172.218C125.419 172.352 125.83 172.227 126.134 172.368C126.419 172.5 126.68 172.697 126.985 172.836C127.271 172.965 127.529 173.181 127.831 173.317C128.12 173.446 128.212 174.036 128.517 174.173C128.821 174.309 129.182 174.248 129.485 174.382C129.787 174.515 130.25 174.227 130.552 174.361C130.854 174.495 130.945 175.067 131.247 175.199C131.549 175.33 132.012 175.051 132.314 175.183C132.616 175.314 132.596 176.141 132.898 176.275C133.201 176.409 133.433 176.656 133.733 176.79C134.033 176.924 134.581 176.456 134.882 176.59C135.182 176.724 135.319 177.194 135.619 177.328C135.919 177.462 136.046 177.954 136.346 178.091C136.646 178.227 137.158 177.848 137.447 177.975C137.736 178.102 138.072 178.15 138.363 178.275C138.654 178.399 138.733 179.053 139.024 179.178C139.315 179.303 139.881 178.799 140.17 178.919C140.459 179.04 140.727 179.255 141.018 179.375C141.309 179.496 141.488 179.941 141.779 180.056C142.07 180.172 142.291 180.529 142.584 180.642C142.877 180.756 143.523 179.977 143.818 180.088C144.114 180.199 144.38 180.415 144.676 180.522C144.971 180.628 145.165 181.071 145.461 181.173C145.756 181.275 146.151 181.139 146.447 181.237C146.742 181.334 146.972 181.707 147.27 181.8C147.582 181.897 147.945 181.788 148.245 181.877C148.561 181.968 148.671 182.776 148.971 182.858C149.289 182.942 149.705 182.631 150.007 182.703C150.327 182.78 150.575 183.173 150.878 183.237C151.2 183.305 151.593 182.994 151.9 183.046C152.227 183.103 152.563 183.005 152.87 183.046C153.199 183.089 153.495 183.343 153.802 183.366C154.133 183.391 154.461 183.382 154.767 183.386C155.101 183.391 155.435 183.491 155.74 183.47C156.072 183.45 156.448 183.641 156.748 183.593C157.078 183.541 157.333 183.08 157.628 182.996C157.946 182.905 158.129 182.508 158.413 182.383C158.711 182.249 158.844 181.936 159.108 181.766C159.372 181.595 159.553 181.409 159.792 181.198C160.031 180.987 160.189 180.792 160.401 180.549C160.613 180.306 161.588 180.674 161.773 180.406C161.958 180.138 162.114 179.825 162.274 179.539C162.434 179.253 161.786 178.563 161.929 178.268C162.071 177.973 162.499 177.848 162.628 177.546C162.757 177.244 162.617 176.863 162.734 176.558C162.851 176.254 162.955 175.971 163.068 175.664C163.181 175.358 163.359 175.097 163.467 174.79C163.576 174.484 164.205 174.377 164.313 174.071C164.422 173.764 163.918 173.308 163.957 172.999C163.997 172.67 164.656 172.348 164.616 172.03C164.575 171.712 164.205 171.428 164.088 171.122C163.97 170.815 163.415 170.795 163.239 170.511C163.075 170.248 163.67 169.397 163.451 169.142C163.251 168.906 162.7 168.938 162.456 168.707C162.229 168.493 162.188 168.01 161.926 167.803C161.683 167.608 161.051 167.903 160.778 167.712C160.521 167.533 160.595 166.816 160.315 166.639C160.036 166.462 159.483 166.775 159.199 166.609C158.914 166.443 158.885 165.842 158.594 165.688C158.303 165.533 157.937 165.547 157.644 165.402C157.351 165.256 157.141 164.952 156.845 164.811C156.55 164.671 156.09 164.918 155.792 164.784C155.494 164.65 155.381 164.108 155.081 163.978C154.781 163.849 154.334 164.094 154.034 163.971C153.734 163.849 153.43 163.751 153.127 163.631C152.825 163.511 152.349 163.869 152.044 163.754C151.74 163.638 151.774 162.644 151.471 162.528C151.169 162.412 150.803 162.471 150.499 162.36C150.194 162.249 149.966 161.933 149.662 161.824C149.357 161.715 148.881 162.099 148.577 161.992C148.272 161.885 148.076 161.468 147.771 161.363C147.466 161.259 147.2 161.039 146.893 160.934C146.587 160.83 146.156 161.104 145.849 161C145.542 160.896 145.273 160.689 144.967 160.585C144.66 160.48 144.342 160.414 144.037 160.312C143.733 160.21 143.457 160.006 143.153 159.901C142.848 159.797 142.331 160.324 142.025 160.221C141.718 160.119 141.431 159.956 141.127 159.851C140.822 159.747 140.536 159.581 140.231 159.479C139.926 159.377 139.554 159.457 139.252 159.352C138.949 159.248 138.733 158.869 138.431 158.764C138.128 158.66 137.797 158.617 137.494 158.51C137.192 158.403 136.829 158.483 136.538 158.381C136.247 158.278 136.258 157.23 135.965 157.13C135.671 157.03 135.371 156.878 135.078 156.78C134.785 156.683 134.169 157.509 133.875 157.414C133.568 157.314 133.433 156.694 133.14 156.601C132.831 156.503 132.522 156.433 132.226 156.344C131.915 156.251 131.725 155.745 131.43 155.661C131.116 155.573 130.69 155.927 130.394 155.85C130.078 155.768 129.774 155.677 129.476 155.607C129.155 155.532 128.774 155.827 128.476 155.768C128.154 155.704 127.93 155.157 127.632 155.112C127.305 155.062 126.935 155.486 126.637 155.457C126.306 155.425 126.01 155.337 125.712 155.332C125.379 155.325 125.018 154.653 124.722 154.68C124.388 154.712 124.235 155.7 123.946 155.775C123.626 155.859 123.328 155.759 123.057 155.895C122.77 156.04 122.531 156.156 122.294 156.36C122.057 156.565 121.762 156.678 121.568 156.939C121.387 157.182 121.2 157.432 121.049 157.727C120.914 157.995 120.67 158.24 120.553 158.551C120.447 158.835 120.21 159.096 120.117 159.416L120.119 159.409Z" fill="#F6CA73"/>
<path d="M115.483 173.766C115.564 174.084 116.198 174.227 116.284 174.52C116.376 174.833 115.742 175.376 115.842 175.666C115.95 175.977 116.593 176.079 116.71 176.363C116.834 176.667 116.958 176.949 117.094 177.223C117.24 177.518 117.365 177.8 117.525 178.061C117.696 178.34 117.741 178.694 117.931 178.935C118.132 179.189 118.319 179.466 118.54 179.682C118.761 179.897 119.034 180.109 119.289 180.29C119.544 180.472 120.126 180.056 120.41 180.199C120.695 180.342 120.889 180.497 121.191 180.603C121.493 180.71 121.687 180.971 122.006 181.041C122.303 181.11 122.612 180.971 122.935 181.014C123.237 181.055 123.477 181.775 123.801 181.795C124.106 181.813 124.435 181.312 124.76 181.314C125.065 181.314 125.378 181.613 125.703 181.602C126.008 181.591 126.335 181.754 126.66 181.732C126.965 181.711 127.238 181.203 127.56 181.173C127.883 181.144 128.14 180.826 128.46 180.787C128.781 180.749 129.079 180.783 129.399 180.742C129.719 180.701 130.024 180.749 130.342 180.701C130.66 180.653 131.032 181.107 131.348 181.057C131.664 181.007 131.933 180.762 132.251 180.71C132.569 180.658 132.792 180.163 133.108 180.111C133.424 180.059 133.803 180.488 134.119 180.433C134.435 180.379 134.658 179.888 134.972 179.834C135.285 179.779 135.721 180.476 136.034 180.419C136.348 180.363 136.675 180.44 136.989 180.383C137.302 180.326 137.49 179.632 137.805 179.575C138.121 179.518 138.487 179.834 138.803 179.775C139.119 179.716 139.489 180.056 139.802 180C140.116 179.943 140.321 179.346 140.637 179.289C140.953 179.232 141.239 179.087 141.553 179.033C141.867 178.978 142.268 179.484 142.582 179.43C142.895 179.375 143.083 178.647 143.399 178.592C143.714 178.538 144.035 178.581 144.348 178.529C144.662 178.476 145.034 178.765 145.339 178.71C145.643 178.656 146.011 178.846 146.316 178.79C146.62 178.733 146.765 177.732 147.069 177.673C147.374 177.614 147.71 177.661 148.015 177.6C148.319 177.539 148.705 177.818 149.01 177.755C149.314 177.691 149.576 177.371 149.878 177.305C150.181 177.239 150.56 177.444 150.862 177.373C151.164 177.303 151.433 177.024 151.733 176.951C152.033 176.878 152.536 177.521 152.834 177.444C153.132 177.366 153.351 176.887 153.648 176.803C153.946 176.719 154.357 176.944 154.652 176.856C154.961 176.763 155.158 176.306 155.451 176.211C155.76 176.113 156.013 175.873 156.302 175.773C156.608 175.666 156.981 175.768 157.267 175.659C157.572 175.544 157.861 175.405 158.143 175.287C158.445 175.162 158.781 175.13 159.059 175.003C159.356 174.867 159.756 174.931 160.024 174.79C160.315 174.638 160.415 174.134 160.676 173.98C160.958 173.812 161.053 173.383 161.304 173.21C161.574 173.022 161.674 172.679 161.906 172.486C162.159 172.275 162.326 172.066 162.538 171.848C162.766 171.612 162.912 171.408 163.095 171.165C163.291 170.904 164.295 171.188 164.444 170.915C164.593 170.643 164.728 170.266 164.834 169.973C164.94 169.68 164.171 169.124 164.237 168.813C164.302 168.502 164.674 168.275 164.699 167.955C164.724 167.635 164.458 167.344 164.451 167.022C164.444 166.7 164.424 166.425 164.392 166.105C164.361 165.785 164.404 165.492 164.354 165.172C164.304 164.852 164.801 164.457 164.737 164.142C164.674 163.826 164.027 163.654 163.957 163.338C163.887 163.022 164.464 162.573 164.388 162.26C164.311 161.947 163.955 161.72 163.876 161.406C163.797 161.093 163.251 160.918 163.169 160.607C163.084 160.276 163.889 159.624 163.754 159.343C163.607 159.043 163.043 158.934 162.84 158.689C162.637 158.444 162.583 157.929 162.321 157.731C162.059 157.534 161.452 157.883 161.152 157.74C160.87 157.606 160.773 156.887 160.453 156.791C160.155 156.703 159.693 157.159 159.361 157.102C159.054 157.048 158.783 156.494 158.452 156.467C158.14 156.44 157.784 156.601 157.452 156.596C157.139 156.589 156.796 156.41 156.464 156.421C156.132 156.433 155.839 156.864 155.51 156.889C155.18 156.914 154.822 156.492 154.494 156.528C154.167 156.564 153.899 157 153.574 157.046C153.249 157.091 152.942 157.161 152.617 157.214C152.292 157.266 152.074 157.82 151.751 157.881C151.428 157.942 150.943 157.075 150.621 157.141C150.298 157.207 150.02 157.45 149.702 157.518C149.384 157.586 149.021 157.443 148.703 157.518C148.385 157.593 148.191 158.172 147.875 158.249C147.559 158.326 147.169 158.083 146.855 158.162C146.541 158.242 146.198 158.206 145.883 158.287C145.567 158.369 145.357 158.839 145.043 158.921C144.73 159.002 144.391 158.982 144.078 159.066C143.764 159.15 143.464 159.272 143.15 159.359C142.837 159.445 142.498 159.429 142.187 159.515C141.876 159.602 141.738 160.328 141.427 160.414C141.115 160.501 140.786 160.528 140.475 160.616C140.163 160.705 139.834 160.73 139.522 160.816C139.211 160.902 138.949 161.182 138.638 161.268C138.327 161.354 137.936 161.166 137.627 161.252C137.318 161.338 137.02 161.493 136.709 161.577C136.398 161.66 136.131 161.937 135.822 162.019C135.513 162.101 134.945 161.222 134.633 161.302C134.322 161.381 133.988 161.422 133.677 161.506C133.365 161.59 133.295 162.618 132.984 162.705C132.673 162.791 132.212 162.346 131.901 162.432C131.59 162.519 131.278 162.63 130.967 162.718C130.656 162.807 130.218 162.482 129.909 162.573C129.6 162.664 129.408 163.193 129.101 163.288C128.794 163.383 128.472 163.465 128.165 163.56C127.858 163.656 127.655 164.11 127.348 164.21C127.041 164.31 126.57 163.942 126.267 164.046C125.965 164.151 125.803 164.702 125.5 164.811C125.198 164.92 124.864 164.968 124.564 165.081C124.264 165.195 123.702 164.677 123.404 164.795C123.107 164.913 123.156 165.921 122.863 166.046C122.57 166.171 122.188 166.123 121.899 166.257C121.611 166.391 121.295 166.5 121.011 166.643C120.713 166.793 120.361 166.816 120.086 166.97C119.792 167.133 119.497 167.267 119.228 167.435C118.944 167.612 118.599 167.69 118.344 167.873C118.069 168.071 118.168 168.709 117.929 168.911C117.671 169.131 116.807 168.688 116.593 168.915C116.361 169.163 116.665 169.857 116.487 170.114C116.295 170.393 115.496 170.352 115.372 170.643C115.242 170.947 116.162 171.551 116.11 171.871C116.058 172.191 115.501 172.422 115.533 172.756C115.56 173.069 115.375 173.46 115.478 173.787L115.483 173.766Z" fill="#F7E9C1"/>
<path d="M164.568 180.334C164.568 180.007 163.998 179.7 163.995 179.396C163.995 179.069 164.762 178.749 164.76 178.445C164.758 178.116 164.185 177.807 164.178 177.505C164.169 177.174 164.162 176.863 164.146 176.563C164.128 176.23 164.133 175.919 164.101 175.623C164.065 175.29 164.183 174.954 164.126 174.663C164.061 174.334 164.016 174.003 163.914 173.726C163.799 173.417 163.634 173.117 163.465 172.865C163.296 172.614 162.639 172.856 162.393 172.65C162.166 172.459 162.037 172.296 161.739 172.144C161.48 172.01 161.319 171.728 161.001 171.617C160.726 171.522 160.403 171.626 160.079 171.547C159.792 171.476 159.639 170.732 159.311 170.673C159.02 170.618 158.63 171.074 158.303 171.025C158.007 170.981 157.741 170.639 157.416 170.6C157.118 170.564 156.825 170.348 156.503 170.316C156.202 170.285 155.846 170.734 155.521 170.704C155.219 170.677 154.887 170.936 154.564 170.909C154.262 170.884 153.96 170.788 153.637 170.761C153.333 170.736 153.03 170.623 152.71 170.598C152.405 170.575 152.13 170.051 151.81 170.028C151.489 170.005 151.178 170.182 150.86 170.16C150.542 170.137 150.21 170.566 149.892 170.543C149.574 170.521 149.308 170.012 148.989 169.989C148.671 169.967 148.34 170.387 148.022 170.364C147.703 170.341 147.458 169.558 147.139 169.533C146.821 169.508 146.53 169.354 146.212 169.331C145.894 169.308 145.544 169.933 145.226 169.908C144.908 169.883 144.635 169.485 144.317 169.463C143.999 169.44 143.708 169.016 143.396 168.993C143.085 168.97 142.722 169.499 142.41 169.479C142.099 169.458 141.767 169.531 141.456 169.513C141.145 169.495 140.849 168.909 140.538 168.893C140.226 168.877 139.868 169.547 139.556 169.533C139.245 169.52 138.922 169.411 138.613 169.399C138.304 169.388 137.984 169.032 137.672 169.025C137.361 169.018 137.034 168.759 136.723 168.757C136.411 168.755 136.077 169.71 135.768 169.71C135.459 169.71 135.134 169.601 134.823 169.608C134.512 169.615 134.178 169.27 133.869 169.279C133.544 169.29 133.241 169.558 132.932 169.574C132.607 169.59 132.278 169.327 131.971 169.349C131.646 169.372 131.351 169.608 131.046 169.638C130.721 169.669 130.32 168.961 130.015 169C129.69 169.041 129.424 169.49 129.122 169.54C128.797 169.594 128.413 169.331 128.115 169.395C127.793 169.463 127.558 169.908 127.265 169.987C126.944 170.071 126.685 170.305 126.396 170.4C126.083 170.507 125.706 170.414 125.428 170.534C125.124 170.666 124.839 170.834 124.573 170.981C124.284 171.143 123.944 171.238 123.698 171.42C123.434 171.617 123.005 171.683 122.789 171.901C122.561 172.132 122.628 172.661 122.448 172.915C122.267 173.17 122.373 173.596 122.234 173.882C122.094 174.168 122.191 174.498 122.089 174.802C121.988 175.106 121.961 175.365 121.891 175.683C121.821 176 121.8 176.264 121.755 176.586C121.71 176.908 120.688 177.101 120.661 177.426C120.634 177.75 120.65 178.073 120.636 178.4C120.623 178.727 121.507 179.056 121.503 179.38C121.498 179.705 121.155 180.005 121.155 180.329C121.155 180.654 121.428 180.96 121.428 181.285C121.428 181.625 121.46 181.852 121.532 182.152C121.611 182.472 121.622 182.713 121.778 182.992C121.933 183.271 121.681 183.852 121.909 184.093C122.123 184.317 122.75 184.065 123.023 184.258C123.276 184.435 123.206 185.173 123.504 185.325C123.779 185.466 124.208 185.339 124.519 185.459C124.808 185.573 125.255 185.21 125.573 185.307C125.87 185.398 125.925 186.438 126.247 186.517C126.552 186.59 126.967 186.249 127.292 186.313C127.617 186.376 127.869 186.762 128.194 186.812C128.519 186.862 128.912 186.297 129.237 186.338C129.562 186.379 129.801 187.048 130.126 187.082C130.45 187.116 130.814 186.594 131.139 186.619C131.464 186.644 131.741 187.18 132.066 187.2C132.391 187.221 132.718 187.057 133.043 187.073C133.368 187.089 133.679 187.284 134.004 187.296C134.329 187.307 134.658 186.901 134.981 186.91C135.304 186.919 135.615 187.377 135.938 187.382C136.26 187.386 136.585 186.991 136.908 186.994C137.23 186.996 137.548 186.973 137.871 186.973C138.194 186.973 138.51 186.465 138.832 186.463C139.155 186.46 139.48 187.4 139.802 187.398C140.125 187.396 140.443 187.209 140.766 187.207C141.088 187.205 141.411 187.418 141.734 187.414C142.056 187.409 142.37 186.883 142.69 186.878C143.011 186.873 143.34 187.196 143.66 187.189C143.981 187.182 144.306 187.296 144.628 187.291C144.951 187.287 145.265 186.88 145.587 186.873C145.91 186.867 146.232 186.973 146.553 186.969C146.873 186.964 147.196 186.921 147.516 186.919C147.837 186.917 148.161 187.019 148.48 187.016C148.798 187.014 149.123 186.349 149.441 186.349C149.759 186.349 150.097 186.41 150.418 186.408C150.738 186.406 151.076 186.467 151.395 186.465C151.713 186.463 152.049 186.258 152.367 186.251C152.701 186.245 153.033 186.522 153.351 186.513C153.687 186.501 154.007 186.417 154.323 186.404C154.659 186.388 154.968 186.174 155.284 186.156C155.62 186.136 156.015 187.105 156.331 187.08C156.669 187.053 157.012 187.069 157.324 187.035C157.662 186.998 157.87 185.988 158.179 185.945C158.517 185.897 158.921 186.39 159.226 186.331C159.564 186.267 159.885 186.174 160.185 186.099C160.521 186.013 160.986 186.329 161.274 186.227C161.604 186.111 161.764 185.552 162.037 185.412C162.348 185.253 162.646 185.082 162.887 184.892C163.156 184.681 163.106 184.206 163.298 183.952C163.49 183.698 164.076 183.652 164.201 183.344C164.316 183.051 163.955 182.61 164.013 182.27C164.065 181.963 164.162 181.673 164.174 181.326C164.183 181.015 164.6 180.683 164.58 180.338L164.568 180.334Z" fill="#F79E4F"/>
<path d="M131.157 179.358C131.157 179.031 130.586 178.718 130.583 178.407C130.583 178.078 131.353 177.757 131.351 177.449C131.351 177.12 130.78 176.804 130.778 176.495C130.775 176.164 130.775 175.846 130.768 175.54C130.762 175.208 130.782 174.891 130.768 174.584C130.757 174.25 130.906 173.924 130.888 173.619C130.868 173.283 130.888 172.959 130.854 172.659C130.818 172.323 130.762 172.001 130.71 171.706C130.651 171.37 129.947 171.234 129.864 170.948C129.769 170.623 129.749 170.385 129.618 170.117C129.471 169.819 129.516 169.522 129.316 169.286C129.115 169.05 128.824 169.034 128.557 168.846C128.312 168.671 128.402 167.926 128.095 167.786C127.824 167.663 127.35 168.031 127.028 167.929C126.743 167.838 126.529 167.465 126.2 167.388C125.909 167.32 125.631 167.077 125.302 167.016C125.006 166.962 124.616 167.384 124.287 167.334C123.986 167.288 123.641 167.529 123.314 167.484C123.012 167.443 122.714 167.334 122.387 167.293C122.084 167.257 121.784 167.127 121.46 167.091C121.155 167.055 120.898 166.521 120.573 166.485C120.268 166.451 119.93 166.614 119.607 166.578C119.3 166.544 118.937 166.957 118.614 166.921C118.292 166.884 118.046 166.367 117.723 166.33C117.401 166.294 117.051 166.7 116.728 166.664C116.406 166.628 116.191 165.833 115.871 165.795C115.551 165.756 115.264 165.588 114.944 165.55C114.623 165.511 114.231 166.119 113.919 166.085C113.608 166.051 113.319 165.645 113.008 165.615C112.697 165.586 112.396 165.157 112.087 165.132C111.778 165.107 111.401 165.634 111.09 165.613C110.779 165.593 110.443 165.665 110.134 165.652C109.824 165.638 109.506 165.055 109.197 165.048C108.87 165.039 108.541 165.72 108.229 165.718C107.902 165.718 107.589 165.622 107.277 165.631C106.95 165.64 106.616 165.304 106.307 165.323C105.98 165.341 105.63 165.116 105.323 165.146C104.996 165.177 104.793 166.167 104.489 166.21C104.161 166.258 103.855 166.199 103.552 166.26C103.227 166.326 102.853 166.054 102.557 166.135C102.237 166.224 102.025 166.56 101.738 166.666C101.427 166.782 101.039 166.639 100.764 166.775C100.468 166.921 100.306 167.252 100.046 167.422C99.7709 167.602 99.0535 167.211 98.8211 167.418C98.5887 167.624 98.6067 168.178 98.4014 168.419C98.1961 168.659 97.7201 168.762 97.5509 169.032C97.3816 169.302 97.5509 169.792 97.4132 170.087C97.2756 170.382 97.3027 170.725 97.1989 171.034C97.0951 171.343 96.7996 171.579 96.7228 171.899C96.6461 172.219 96.6078 172.53 96.5514 172.852C96.495 173.174 96.3461 173.47 96.3077 173.794C96.2694 174.119 96.0076 174.414 95.9806 174.738C95.9535 175.063 96.3235 175.404 96.3077 175.73C96.2919 176.057 96.5875 176.375 96.5762 176.7C96.5649 177.024 96.7725 177.335 96.768 177.66C96.7635 177.984 96.7996 178.291 96.7973 178.616C96.795 178.94 96.8176 179.249 96.8176 179.573C96.8176 179.898 95.8181 180.209 95.8181 180.534C95.8181 180.858 95.8723 181.233 95.9084 181.532C95.9467 181.859 96.8808 181.996 96.9597 182.288C97.0455 182.602 96.8199 182.972 96.9485 183.249C97.0771 183.525 97.4561 183.634 97.6343 183.889C97.8126 184.143 97.9795 184.329 98.2051 184.551C98.4308 184.774 98.5752 184.996 98.8369 185.183C99.0986 185.369 99.0602 186 99.3445 186.152C99.6288 186.304 100.148 185.879 100.446 186.002C100.743 186.125 100.802 186.853 101.109 186.949C101.416 187.044 101.792 186.844 102.104 186.919C102.415 186.994 102.799 186.576 103.112 186.633C103.426 186.69 103.568 187.718 103.884 187.761C104.2 187.804 104.563 187.425 104.879 187.459C105.195 187.493 105.477 187.857 105.793 187.882C106.109 187.907 106.456 187.309 106.774 187.328C107.092 187.346 107.374 187.995 107.69 188.006C108.006 188.018 108.331 187.471 108.647 187.477C108.963 187.484 109.269 188 109.585 188C109.901 188 110.215 187.818 110.528 187.816C110.842 187.813 111.16 187.993 111.474 187.988C111.787 187.984 112.094 187.561 112.408 187.555C112.721 187.548 113.046 187.995 113.36 187.986C113.673 187.977 113.978 187.571 114.292 187.564C114.605 187.557 114.919 187.523 115.232 187.516C115.546 187.509 115.848 186.992 116.162 186.985C116.476 186.978 116.81 187.913 117.123 187.906C117.437 187.9 117.746 187.716 118.057 187.711C118.369 187.707 118.684 187.925 118.994 187.925C119.303 187.925 119.634 187.403 119.943 187.398C120.268 187.393 120.593 187.716 120.902 187.709C121.229 187.7 121.557 187.809 121.863 187.795C122.191 187.782 122.491 187.364 122.795 187.344C123.122 187.321 123.449 187.405 123.752 187.375C124.079 187.344 124.395 187.269 124.695 187.228C125.022 187.182 125.36 187.237 125.658 187.18C125.985 187.119 126.141 186.404 126.432 186.327C126.755 186.24 127.037 186.218 127.317 186.111C127.63 185.993 127.901 185.941 128.165 185.795C128.456 185.637 128.544 185.339 128.779 185.146C129.027 184.94 129.394 184.969 129.586 184.719C129.778 184.47 129.852 184.211 129.992 183.918C130.123 183.641 130.026 183.337 130.116 183.019C130.198 182.726 131.229 182.624 131.278 182.295C131.323 181.996 131.407 181.639 131.427 181.305C131.448 181.001 130.486 180.647 130.486 180.313C130.486 180.007 131.161 179.687 131.148 179.356L131.157 179.358Z" fill="#F6CA73"/>
<path d="M72.4675 91.4662C76.7427 91.4662 80.2084 87.9792 80.2084 83.6779C80.2084 79.3766 76.7427 75.8896 72.4675 75.8896C68.1923 75.8896 64.7266 79.3766 64.7266 83.6779C64.7266 87.9792 68.1923 91.4662 72.4675 91.4662Z" fill="#FA6257"/>
<path d="M70.9537 118.356C70.0196 118.356 69.2638 117.595 69.2616 116.658C69.257 114.608 70.6085 113.575 71.5042 112.892C72.3051 112.281 72.4112 112.127 72.4112 111.843C72.4112 111.56 72.3029 111.407 71.4997 110.799C70.6017 110.118 69.2458 109.09 69.2413 107.042C69.2367 104.993 70.5882 103.96 71.4839 103.274C72.2848 102.661 72.3909 102.509 72.3909 102.225C72.3909 101.942 72.2826 101.787 71.4794 101.179C70.5814 100.498 69.2255 99.4697 69.2209 97.4199C69.2209 96.4801 69.9745 95.7152 70.9086 95.7129H70.9131C71.8471 95.7129 72.6029 96.4733 72.6052 97.4108C72.6052 97.6946 72.7135 97.8489 73.5167 98.4573C74.4147 99.1383 75.7706 100.167 75.7751 102.216C75.7796 104.266 74.4282 105.299 73.5325 105.984C72.7316 106.597 72.6255 106.749 72.6255 107.033C72.6255 107.317 72.7338 107.471 73.537 108.08C74.435 108.761 75.7909 109.789 75.7954 111.836C75.7999 113.886 74.4462 114.919 73.5528 115.602C72.7519 116.213 72.6458 116.367 72.6458 116.651C72.6458 117.591 71.8923 118.356 70.9582 118.358H70.9537V118.356Z" fill="#FA6257"/>
<path d="M44.473 87.0258C42.4424 87.0258 41.4181 85.6684 40.739 84.7695C40.1321 83.9636 39.9764 83.8615 39.6966 83.8569H39.6921C38.7581 83.8592 38 83.0988 38 82.159C38 81.2192 38.7536 80.4543 39.6876 80.452H39.6966C41.7272 80.452 42.7515 81.8094 43.4306 82.7083C44.0375 83.5142 44.2 83.6186 44.473 83.6209C44.755 83.6209 44.9061 83.5119 45.5108 82.7038C46.1876 81.8004 47.2097 80.4361 49.2448 80.4316H49.2538C51.2843 80.4316 52.3109 81.789 52.9878 82.6879C53.5969 83.4937 53.7391 83.5982 54.0301 83.6004C54.3121 83.6004 54.4655 83.4915 55.0702 82.6834C55.7471 81.7799 56.7691 80.4157 58.8064 80.4111H58.8109C59.7427 80.4111 60.5008 81.1716 60.5031 82.1091C60.5031 83.0488 59.7495 83.8138 58.8154 83.8161C58.5334 83.8161 58.38 83.925 57.7754 84.7331C57.0985 85.6366 56.0765 87.0008 54.0391 87.0054H54.0301C51.9995 87.0054 50.9752 85.6479 50.2961 84.749C49.687 83.9432 49.5426 83.8365 49.2538 83.8365C48.9718 83.8365 48.8206 83.9455 48.2159 84.7536C47.5391 85.657 46.5171 87.0213 44.482 87.0258H44.473Z" fill="#FA6257"/>
<path d="M74.0198 71.6449C73.0857 71.6449 72.3299 70.8844 72.3276 69.9469C72.3276 69.6632 72.2193 69.5088 71.4161 68.9005C70.5182 68.2195 69.1622 67.1912 69.1577 65.1414C69.1532 63.0916 70.5046 62.0588 71.4003 61.3733C72.2013 60.7604 72.3073 60.6083 72.3073 60.3245C72.3073 60.0408 72.199 59.8887 71.3981 59.2804C70.5001 58.5994 69.1442 57.5711 69.1397 55.5236C69.1351 53.4738 70.4866 52.441 71.3823 51.7577C72.1832 51.1471 72.2893 50.9927 72.2893 50.709C72.2893 49.7692 73.0428 49.0042 73.9769 49.002H73.9814C74.9155 49.002 75.6713 49.7624 75.6735 50.6999C75.678 52.7497 74.3243 53.7825 73.4309 54.4658C72.63 55.0764 72.5239 55.2307 72.5239 55.5145C72.5239 55.7982 72.6322 55.9503 73.4354 56.5609C74.3334 57.2419 75.6893 58.2702 75.6938 60.3177C75.6984 62.3675 74.3469 63.4003 73.4512 64.0859C72.6503 64.6988 72.5442 64.8509 72.5442 65.1346C72.5442 65.4183 72.6525 65.5727 73.4557 66.1811C74.3537 66.862 75.7096 67.8903 75.7141 69.9401C75.7141 70.8799 74.9606 71.6449 74.0265 71.6471H74.022L74.0198 71.6449Z" fill="#FA6257"/>
<path d="M86.1196 86.9418C85.1878 86.9418 84.4297 86.1814 84.4275 85.2439C84.4275 84.3041 85.1811 83.5392 86.1151 83.5369C86.3971 83.5369 86.5505 83.4279 87.1552 82.6198C87.8321 81.7164 88.8541 80.3521 90.8914 80.3476H90.9004C92.931 80.3476 93.9553 81.705 94.6344 82.6039C95.2436 83.4098 95.3925 83.5142 95.6768 83.5165C95.9588 83.5165 96.1099 83.4075 96.7146 82.5994C97.3915 81.6959 98.4135 80.3317 100.449 80.3271H100.458C102.488 80.3271 103.512 81.6846 104.192 82.5835C104.798 83.3893 104.961 83.496 105.234 83.496H105.238C106.17 83.496 106.928 84.2565 106.931 85.194C106.931 86.1337 106.177 86.8987 105.243 86.901H105.234C103.203 86.901 102.179 85.5435 101.5 84.6446C100.893 83.8388 100.74 83.7298 100.458 83.7321C100.176 83.7321 100.024 83.8411 99.4198 84.6492C98.7429 85.5526 97.7209 86.9169 95.6858 86.9214C93.6462 86.9214 92.6219 85.5662 91.9405 84.6651C91.3336 83.8615 91.1802 83.7525 90.9004 83.7525H90.8982C90.6162 83.7525 90.4628 83.8615 89.8581 84.6696C89.1812 85.573 88.1592 86.9373 86.1219 86.9418H86.1174H86.1196Z" fill="#FA6257"/>
<path d="M53.1503 103.286C52.7194 103.286 52.2862 103.12 51.9568 102.789C51.2935 102.126 51.2935 101.048 51.9523 100.38C53.2135 99.1068 54.583 99.1545 55.4877 99.1862C56.23 99.2112 56.3225 99.1794 56.5097 98.991C56.697 98.8026 56.7286 98.7073 56.6993 97.9605C56.6654 97.0479 56.6135 95.6701 57.8725 94.3966C59.1337 93.1232 60.5032 93.1708 61.4102 93.2003C62.1547 93.2253 62.2472 93.1935 62.4345 93.0051C63.0933 92.34 64.1649 92.3378 64.8283 93.0006C65.4916 93.6634 65.4916 94.7417 64.8328 95.409C63.5716 96.6825 62.2021 96.6348 61.2951 96.6053C60.5506 96.5803 60.458 96.6121 60.2708 96.8005C60.0835 96.9889 60.0519 97.0843 60.0813 97.8311C60.1151 98.7436 60.167 100.121 58.9081 101.395C57.6469 102.668 56.2774 102.621 55.3704 102.589C54.6281 102.564 54.5356 102.596 54.3483 102.784C54.0167 103.118 53.5835 103.286 53.1503 103.286Z" fill="#FA6257"/>
<path d="M62.0014 76.4934C61.5704 76.4934 61.1372 76.3277 60.8078 75.9963C59.5421 74.7274 59.5895 73.3495 59.6188 72.437C59.6437 71.6879 59.6121 71.5948 59.4248 71.4064C59.2376 71.218 59.145 71.1862 58.4005 71.2157C57.4958 71.2498 56.124 71.3043 54.8583 70.0353C53.5926 68.7664 53.64 67.3886 53.6716 66.476C53.6964 65.7292 53.6648 65.6362 53.4775 65.4477C52.8142 64.7849 52.8142 63.7067 53.473 63.0393C54.1318 62.3742 55.2035 62.3719 55.8668 63.0348C57.1325 64.3037 57.0852 65.6816 57.0536 66.5918C57.0288 67.3386 57.0603 67.4317 57.2476 67.6201C57.4349 67.8085 57.5296 67.8403 58.2719 67.8108C59.1789 67.7767 60.5484 67.7245 61.8141 68.9912C63.0798 70.2601 63.0324 71.6379 63.0031 72.5505C62.9783 73.2996 63.0099 73.3926 63.1971 73.581C63.8604 74.2439 63.8604 75.3221 63.2016 75.9895C62.8722 76.3232 62.4368 76.4911 62.0036 76.4911L62.0014 76.4934Z" fill="#FA6257"/>
<path d="M81.3005 74.8473C80.8695 74.8473 80.4363 74.6816 80.1069 74.3502C79.4436 73.6874 79.4436 72.6091 80.1024 71.9418C81.3636 70.6683 82.7331 70.716 83.6401 70.7455C84.3846 70.7705 84.4771 70.7387 84.6644 70.5503C84.8517 70.3619 84.8833 70.2665 84.8539 69.5197C84.8201 68.6072 84.7682 67.2293 86.0271 65.9559C87.2883 64.6824 88.6578 64.7301 89.5648 64.7619C90.3071 64.7868 90.3996 64.7551 90.5869 64.5667C91.2457 63.9016 92.3173 63.8993 92.9807 64.5621C93.644 65.2249 93.644 66.3032 92.9852 66.9705C91.724 68.244 90.3545 68.1963 89.4497 68.1645C88.7075 68.1396 88.6127 68.1714 88.4277 68.3598C88.2404 68.5482 88.2089 68.6435 88.2382 69.3903C88.272 70.3029 88.3239 71.6807 87.065 72.9542C85.8038 74.2276 84.4343 74.18 83.5273 74.1505C82.7828 74.1255 82.6903 74.1573 82.503 74.3457C82.1736 74.6794 81.7382 74.8473 81.305 74.8473H81.3005Z" fill="#FA6257"/>
<path d="M90.2643 104.813C89.8334 104.813 89.4002 104.648 89.0708 104.316C87.8051 103.047 87.8525 101.669 87.884 100.759C87.9089 100.012 87.8773 99.9193 87.69 99.7309C87.5027 99.5425 87.408 99.5108 86.6657 99.5403C85.761 99.5743 84.3892 99.6288 83.1235 98.3599C81.8578 97.091 81.9052 95.7131 81.9345 94.8006C81.9593 94.0515 81.9277 93.9584 81.7405 93.77C81.0772 93.1072 81.0772 92.0289 81.736 91.3616C82.3948 90.6965 83.4665 90.6942 84.1298 91.357C85.3955 92.6259 85.3481 94.0038 85.3188 94.9163C85.294 95.6654 85.3255 95.7585 85.5128 95.9469C85.7001 96.1353 85.7926 96.1671 86.5371 96.1376C87.4418 96.1035 88.8136 96.0491 90.0793 97.318C91.345 98.5869 91.2976 99.9647 91.266 100.877C91.2412 101.624 91.2728 101.717 91.4601 101.906C92.1234 102.568 92.1234 103.647 91.4646 104.314C91.1329 104.648 90.6997 104.816 90.2666 104.816L90.2643 104.813Z" fill="#FA6257"/>
<path d="M192.273 95.7611L186.338 92.3524L190.165 90.4677C190.887 90.1129 191.184 89.2403 190.827 88.519C190.469 87.7997 189.592 87.5049 188.869 87.8617L183.298 90.6054L179.387 88.36L184.481 84.676C185.284 84.0962 185.284 82.9057 184.481 82.3221L179.387 78.638L183.294 76.3927C189.296 79.3496 189.04 79.2876 189.512 79.2876C191.053 79.2876 191.54 77.209 190.161 76.5284L186.334 74.6437L192.269 71.235C192.968 70.8337 193.208 69.9437 192.803 69.2495C192.399 68.5534 191.507 68.3149 190.808 68.7163L184.898 72.1134L185.2 67.9911C185.258 67.1903 184.654 66.4942 183.849 66.4361C183.045 66.376 182.343 66.979 182.287 67.7798L181.841 73.8701L177.924 76.1193L177.263 69.8874C177.16 68.9083 176.124 68.3091 175.216 68.7124L169.464 71.2602V66.7618L174.541 63.3318C175.208 62.88 175.383 61.9764 174.929 61.3114C174.475 60.6463 173.567 60.4737 172.899 60.9236L169.464 63.2445V56.4542C169.464 55.6515 168.809 55 168.002 55C167.196 55 166.541 55.6515 166.541 56.4542V63.2736L162.989 60.9177C162.316 60.4718 161.41 60.654 160.962 61.3211C160.514 61.99 160.695 62.8916 161.368 63.3376L166.541 66.7676V71.2602L160.789 68.7124C159.875 68.3091 158.844 68.9121 158.741 69.8874L158.082 76.1193L154.174 73.874L153.774 67.7003C153.724 66.8975 153.026 66.2906 152.223 66.3411C151.417 66.3934 150.807 67.0856 150.857 67.8864L151.13 72.125L145.195 68.7163C144.497 68.3149 143.601 68.5534 143.2 69.2495C142.796 69.9437 143.036 70.8337 143.734 71.235L149.643 74.6302L145.906 76.4315C144.515 77.1024 144.998 79.1945 146.543 79.1945C147.005 79.1945 146.758 79.2527 152.701 76.3869L156.617 78.6361L151.524 82.3201C150.719 82.9038 150.723 84.0943 151.524 84.674L156.617 88.3581L152.701 90.6073L147.177 87.947C146.45 87.598 145.577 87.8986 145.224 88.6218C144.873 89.345 145.175 90.2137 145.902 90.5646L149.64 92.366L143.73 95.7611C142.436 96.5037 142.976 98.4757 144.462 98.4757C144.998 98.4757 144.741 98.5396 151.126 94.8711L150.853 99.1097C150.803 99.9105 151.413 100.603 152.219 100.653C153.046 100.704 153.722 100.079 153.77 99.2958L154.17 93.1241L158.078 90.8788L158.737 97.1106C158.84 98.0879 159.875 98.6889 160.785 98.2856L166.537 95.7378V100.23L161.364 103.66C160.16 104.459 160.738 106.325 162.176 106.325C162.767 106.325 162.671 106.288 166.537 103.724V110.546C166.537 111.349 167.192 112 167.998 112C168.805 112 169.46 111.349 169.46 110.546V103.754L172.895 106.074C173.563 106.524 174.471 106.352 174.925 105.689C175.379 105.024 175.204 104.12 174.538 103.668L169.46 100.24V95.7398C175.658 98.4854 175.371 98.4117 175.806 98.4117C176.556 98.4117 177.182 97.8474 177.26 97.1106L177.92 90.8788L181.837 93.128L182.283 99.2163C182.339 99.9822 182.98 100.566 183.738 100.566C183.773 100.566 183.81 100.566 183.846 100.562C184.65 100.502 185.256 99.8058 185.196 99.005L184.894 94.8847L190.804 98.2798C191.503 98.6812 192.398 98.4427 192.799 97.7485C193.202 97.0525 192.965 96.1625 192.265 95.7611H192.273ZM154.877 83.499L159.396 80.2299L165.083 83.499L159.396 86.7662L154.877 83.499ZM166.545 92.554L161.442 94.8149L160.857 89.2869L166.545 86.0197V92.556V92.554ZM166.545 80.9803L160.857 77.7131L161.442 72.1832L166.545 74.444V80.9822V80.9803ZM181.137 83.499L176.619 86.7662L170.929 83.499L176.619 80.2299L181.137 83.499ZM169.468 74.4421L174.571 72.1812L175.157 77.7112L169.468 80.9784V74.4401V74.4421ZM174.571 94.8129L169.468 92.5521V86.0158L175.157 89.283L174.571 94.811V94.8129Z" fill="#F7E9C1"/>
</svg>
