<svg width="240" height="240" viewBox="0 0 240 240" fill="none" xmlns="http://www.w3.org/2000/svg">
<rect width="240" height="240" rx="120" fill="#F6CA73"/>
<g clip-path="url(#clip0_386_80)">
<path d="M65.4358 158.051C63.6979 157.982 61.943 157.605 60.249 156.881C52.8151 153.719 49.3769 145.171 52.5613 137.798C67.9784 102.128 90.8184 77.95 124.453 61.7139C131.726 58.202 140.484 61.2062 144.023 68.4257C147.561 75.6453 144.529 84.3392 137.261 87.8514C109.95 101.033 92.1317 119.97 79.4846 149.251C77.0236 154.948 71.3344 158.278 65.4477 158.046L65.4358 158.051Z" fill="#F79E4F"/>
<path d="M128.427 77.1129C135.044 73.4624 135.361 73.5147 140.192 79.3044L191 140.224H73.8535C70.9547 140.224 70.4921 139.486 71.7453 136.893C83.9554 111.59 103.784 90.7095 128.433 77.1129H128.427Z" fill="#F7E9C1"/>
<path d="M140.473 79.6416C134.459 82.8155 127.355 87.3263 121.3 92.4882C113.664 98.9987 107.263 106.416 102.566 108.968C98.6953 111.078 94.8361 112.148 92.2301 114.275C88.9214 116.967 87.4866 120.501 85.9582 123.843C84.5878 126.854 83.4283 129.244 83.3873 131.9C83.3463 134.458 84.3712 137.26 83.1824 140.224H73.8535C70.9547 140.224 70.4862 139.486 71.7394 136.893C83.9495 111.59 103.778 90.7095 128.427 77.1129C135.044 73.4624 135.361 73.5147 140.192 79.3044L140.473 79.6416Z" fill="#FA6257"/>
<path d="M70.1876 140.225H191C191 151.787 190.086 152.693 178.439 152.693H70.1876V140.225Z" fill="#F79E4F"/>
<path d="M84.254 131.121H91.7324V145.316C91.7324 147.363 90.0575 149.025 87.9961 149.025C85.9348 149.025 84.2599 147.363 84.2599 145.316V131.121H84.254Z" fill="#F7E9C1"/>
<path d="M164.107 149.723C164.107 151.158 163.182 152.321 162.034 152.321C160.886 152.321 159.961 151.158 159.961 149.723C159.961 146.328 160.148 145.375 159.352 144.381C158.081 142.765 155.821 143.875 155.821 146.217V153.699C155.821 157.733 153.22 161 150.005 161C146.79 161 144.19 157.733 144.19 153.699V133.824H164.125C164.136 136.614 164.095 141.375 164.095 149.723H164.107Z" fill="#F7E9C1"/>
<path d="M118.723 126.372C118.723 117.409 111.403 110.137 102.367 110.137C93.3311 110.137 86.0109 117.403 86.0109 126.372C86.0109 132.238 89.1439 137.37 93.8347 140.225H110.888C115.579 137.37 118.712 132.238 118.712 126.372H118.723Z" fill="#F6CA73"/>
<path d="M134.371 114.467C143.013 114.467 150.019 107.513 150.019 98.9346C150.019 90.3564 143.013 83.4023 134.371 83.4023C125.729 83.4023 118.723 90.3564 118.723 98.9346C118.723 107.513 125.729 114.467 134.371 114.467Z" fill="#F6CA73"/>
<path d="M183.692 131.458C180.881 134.149 177.057 135.8 172.846 135.8C164.202 135.8 157.192 128.848 157.192 120.268C157.192 115.036 159.798 110.409 163.792 107.602L183.692 131.458Z" fill="#F79E4F"/>
<path d="M152.431 127.54C159.501 127.54 165.233 121.851 165.233 114.833C165.233 107.815 159.501 102.126 152.431 102.126C145.361 102.126 139.63 107.815 139.63 114.833C139.63 121.851 145.361 127.54 152.431 127.54Z" fill="#FA6257"/>
<path d="M133.007 140.224C132.96 133.243 127.25 127.599 120.205 127.599C113.16 127.599 107.45 133.243 107.403 140.224H133.007Z" fill="#FA6257"/>
<path d="M114.179 110.509C108.633 119.246 110.332 126.25 119.274 131.523C124.82 122.786 123.121 115.781 114.179 110.509Z" fill="#1E2675"/>
<path d="M155.869 123.889C145.574 122.395 139.811 126.778 138.582 137.027C148.877 138.521 154.639 134.143 155.869 123.889Z" fill="#1E2675"/>
<path d="M148.976 113.996C146.564 103.952 140.333 100.26 130.278 102.923C132.69 112.967 138.921 116.659 148.976 113.996Z" fill="#1E2675"/>
<path d="M121.558 95.8253C131.853 94.3546 136.128 88.5301 134.371 78.3516C124.076 79.8222 119.801 85.6468 121.558 95.8253Z" fill="#1E2675"/>
<path d="M110.296 106.015C113.133 106.015 115.432 103.733 115.432 100.917C115.432 98.1018 113.133 95.8193 110.296 95.8193C107.46 95.8193 105.161 98.1018 105.161 100.917C105.161 103.733 107.46 106.015 110.296 106.015Z" fill="#470FF4"/>
<path d="M132.128 129.766C134.965 129.766 137.264 127.484 137.264 124.668C137.264 121.853 134.965 119.57 132.128 119.57C129.292 119.57 126.992 121.853 126.992 124.668C126.992 127.484 129.292 129.766 132.128 129.766Z" fill="#470FF4"/>
<path d="M169.807 130.464C172.643 130.464 174.942 128.182 174.942 125.367C174.942 122.551 172.643 120.269 169.807 120.269C166.97 120.269 164.671 122.551 164.671 125.367C164.671 128.182 166.97 130.464 169.807 130.464Z" fill="#470FF4"/>
</g>
<defs>
<clipPath id="clip0_386_80">
<rect width="142" height="102" fill="white" transform="translate(49 59)"/>
</clipPath>
</defs>
</svg>
