<svg width="240" height="240" viewBox="0 0 240 240" fill="none" xmlns="http://www.w3.org/2000/svg">
<rect width="240" height="240" rx="120" fill="#F6CA73"/>
<g clip-path="url(#clip0_370_317)">
<path d="M80.1591 116.426C78.4296 119.167 77.1165 121.098 75.2269 121.873C76.266 116.09 74.6397 109.309 68.5224 106.083C59.2343 101.184 46.7576 101.987 43.3307 106.037C40.6225 109.235 42.6296 127.557 51.3875 132.12C56.8749 134.978 69.5259 134.168 73.4653 126.988C73.6824 126.592 73.8817 126.181 74.0703 125.753C78.7357 125.347 81.0879 121.618 83.1769 118.308C85.5825 114.495 87.8529 110.894 93.3866 110.894V107.356C85.8815 107.356 82.7107 112.386 80.1591 116.429V116.426Z" fill="#F7E9C1"/>
<path d="M196.673 106.034C193.242 101.987 180.769 101.181 171.481 106.08C165.364 109.306 163.738 116.09 164.777 121.87C162.887 121.095 161.574 119.16 159.844 116.423C157.296 112.38 154.122 107.35 146.617 107.35V110.887C152.154 110.887 154.425 114.488 156.827 118.301C158.916 121.615 161.271 125.34 165.933 125.747C166.118 126.175 166.321 126.585 166.538 126.981C170.478 134.162 183.129 134.975 188.616 132.114C197.374 127.551 199.381 109.228 196.673 106.03V106.034Z" fill="#F7E9C1"/>
<path d="M211.897 88.1715C210.762 78.3593 198.157 70.291 182.958 70.291C172.14 70.291 165.332 72.4593 156.61 72.4593C149.795 72.4593 142.414 59.0039 120.002 59.0039C97.5894 59.0039 90.2087 72.4593 83.3939 72.4593C74.6717 72.4593 67.864 70.291 57.0457 70.291C41.8431 70.2875 29.2384 78.3558 28.1032 88.1715C27.2099 95.8754 32.2597 100.587 35.3557 105.238C37.9393 109.122 43.9 129.999 47.4124 129.351C50.5333 128.775 42.8751 114.516 42.8751 114.516C42.8751 114.516 52.181 126.79 55.2343 124.742C56.1489 121.591 44.843 110.905 44.843 110.905C44.843 110.905 56.5261 119.96 58.2841 118.45C60.4442 117.109 49.181 108.348 49.181 108.348C49.181 108.348 59.4976 112.129 60.252 110.222C61.0064 108.316 50.9568 104.747 50.9568 104.747C50.9568 104.747 59.7502 105.917 60.4655 103.654C61.1773 101.39 43.5975 101.538 38.7969 94.2165C36.224 90.2938 36.0745 79.5584 60.4335 79.5584C73.9421 79.5584 81.6146 84.5211 85.0878 88.3483C89.5112 93.2261 88.6002 103.279 89.3902 110.265C90.2941 118.283 101.144 121.619 101.144 126.557C101.144 131.495 94.2051 132.963 94.2051 145.877C94.2051 168.002 110.045 175.95 110.045 182.936C110.045 190.527 109.016 200.997 110.045 200.997C115.194 200.997 113.582 194.977 120.002 194.977C126.422 194.977 124.809 200.997 129.959 200.997C130.987 200.997 129.959 190.523 129.959 182.936C129.959 175.954 145.798 168.006 145.798 145.877C145.798 132.963 138.859 131.314 138.859 126.557C138.859 121.799 149.709 118.283 150.613 110.265C151.4 103.282 150.492 93.2261 154.916 88.3483C158.385 84.5211 166.061 79.5584 179.57 79.5584C203.929 79.5584 203.779 90.2902 201.207 94.2165C196.41 101.535 178.826 101.39 179.538 103.654C180.25 105.917 189.047 104.747 189.047 104.747C189.047 104.747 178.997 108.319 179.751 110.222C180.506 112.129 190.822 108.348 190.822 108.348C190.822 108.348 179.559 117.109 181.719 118.45C183.477 119.957 195.16 110.905 195.16 110.905C195.16 110.905 183.855 121.591 184.769 124.742C187.822 126.79 197.128 114.516 197.128 114.516C197.128 114.516 189.47 128.775 192.591 129.351C196.107 129.999 202.064 109.122 204.648 105.238C207.744 100.587 212.79 95.8719 211.9 88.1715H211.897Z" fill="#FA6257"/>
<path d="M121.194 71.4229C131.486 71.4229 141.891 77.3936 146.617 77.574C151.343 77.7544 160.563 77.4537 160.019 79.5018C159.474 81.5498 141.667 84.1991 133.308 92.6282C124.948 101.057 123.866 122.454 123.859 122.493C123.859 130.982 123.105 143.928 124.92 143.928C126.735 143.928 133.368 135.679 136.82 136.22C140.272 136.762 128.094 143.847 127.735 164.398C127.799 177.082 127.19 191.552 125.553 193.356C122.425 196.812 116.525 196.809 114.76 193.006C112.995 189.204 112.934 177.673 112.379 165.392C111.66 149.51 99.205 140.196 103.201 136.22C105.276 134.158 111.707 145.523 114.529 144.89C117.351 144.257 115.255 128.032 114.066 119.712C113.393 115.011 114.529 99.7344 105.927 91.6661C97.3261 83.5978 80.4865 80.5877 80.4865 79.2648C80.4865 77.9419 89.6928 78.4229 95.8706 77.9419C102.048 77.4608 110.902 71.4299 121.194 71.4299V71.4229Z" fill="#F79E4F"/>
</g>
<defs>
<clipPath id="clip0_370_317">
<rect width="184" height="142" fill="white" transform="translate(28 59)"/>
</clipPath>
</defs>
</svg>
