<svg width="240" height="240" viewBox="0 0 240 240" fill="none" xmlns="http://www.w3.org/2000/svg">
<rect width="240" height="240" rx="120" fill="#F6CA73"/>
<path d="M112.365 80.1783C108.964 62.4101 105.601 37.7759 105.601 37.7759H85.1302C85.1302 37.7759 81.7671 62.4174 78.3662 80.1855C77.4437 85.0027 75.7673 91.9704 74.1942 98.208C69.981 114.897 67 111.337 67 128.608V192.836C67 199.575 67.4991 200.102 73.8844 200.102H116.847C123.232 200.102 123.731 199.575 123.731 192.836V128.608C123.731 111.504 120.709 114.737 116.54 98.208C114.967 91.9668 113.287 84.9954 112.365 80.1746V80.1783Z" fill="#FA6257"/>
<path d="M105.601 32.6426H85.1301V37.7758H105.601V32.6426Z" fill="#FA6257"/>
<path d="M83.1337 30.3065C83.1337 32.4717 83.2955 32.6424 85.347 32.6424H105.381C107.432 32.6424 107.594 32.4717 107.594 30.3065C107.594 20.6323 106.878 19.873 97.708 19.873H93.0163C83.8497 19.873 83.1302 20.6287 83.1302 30.3065H83.1337Z" fill="#F7E9C1"/>
<path d="M112.079 134.721L114.585 126.431C103.264 117.196 87.4639 117.196 76.1425 126.431L78.6484 134.721H71.7089L77.9565 183.586H112.778L119.026 134.721H112.083H112.079Z" fill="#F7E9C1"/>
<path d="M80.5141 180.422L75.2166 137.882H82.7516L79.6605 127.659C84.2937 124.426 89.7943 122.664 95.3638 122.664C100.933 122.664 106.434 124.426 111.067 127.659L107.976 137.882H115.511L110.214 180.422H80.5141Z" stroke="#F79E4F" stroke-width="2" stroke-miterlimit="10"/>
<path d="M94.4344 148.53C101.932 148.53 103.942 155.904 101.463 159.243C98.6684 163.003 89.4191 163.755 87.2505 157.924C86.2523 155.236 88.1868 148.53 94.4344 148.53Z" fill="#FA6257"/>
<path d="M95.5911 148.549L97.3673 146.002L97.8595 148.614L102.038 147.964L98.7338 150.463L100.978 153.289L97.6289 152.715L96.1315 155.356L95.5498 152.301L91.3709 152.566L94.1935 150.252L91.3709 148.418L95.5911 148.549Z" fill="#1E2675"/>
<path d="M90.3141 156.845C83.1199 156.845 81.1888 163.926 83.5708 167.126C86.2523 170.737 95.1298 171.456 97.2089 165.862C98.1658 163.283 96.3105 156.845 90.3141 156.845Z" fill="#F79E4F"/>
<path d="M91.5224 156.863L89.8185 154.418L89.3469 156.925L85.3367 156.3L88.507 158.698L86.3522 161.412L89.5672 160.863L91.0061 163.395L91.5637 160.463L95.5739 160.718L92.8649 158.494L95.5739 156.736L91.5224 156.863Z" fill="#1E2675"/>
<path d="M101.99 159.396C110.062 159.396 110.93 166.24 108.258 169.836C105.25 173.887 97.1021 174.09 94.7683 167.813C93.6943 164.917 95.2606 159.399 101.99 159.399V159.396Z" fill="#FA6257"/>
<path d="M102.479 158.89L103.615 155.85L105.054 159.112L108.84 158.76L105.928 160.961L107.577 163.497L104.486 162.966L102.682 165.502V161.989L98.4068 162.149L101.808 160.452L99.5668 158.098L102.479 158.89Z" fill="#1E2675"/>
<path d="M139.409 98.8569H170.516C172.763 98.8569 174.586 100.679 174.586 102.927V108.736C174.586 109.257 174.164 109.679 173.643 109.679H136.282C135.76 109.679 135.339 109.257 135.339 108.736V102.927C135.339 100.679 137.161 98.8569 139.409 98.8569Z" fill="#F7E9C1"/>
<path d="M175.853 194.121C175.372 199.987 175.034 200.288 169.148 200.288H140.77C134.901 200.288 134.556 199.977 134.065 194.128C133.286 184.784 131.925 167.02 131.925 156.65C131.925 144.12 133.831 121.008 134.426 114.116C134.59 112.22 134.697 112.126 136.6 112.126H173.332C175.228 112.126 175.338 112.223 175.502 114.113C176.097 120.928 178 143.605 178 155.908C178 166.489 176.632 184.644 175.853 194.118V194.121Z" fill="#FA6257"/>
<path d="M146.488 191.596C145.799 191.596 145.214 191.065 145.157 190.366C144.308 179.852 143.298 165.465 143.298 156.653C143.298 147.842 144.318 132.843 145.174 122.055C145.231 121.319 145.876 120.768 146.612 120.828C147.348 120.885 147.9 121.53 147.839 122.266C147.144 131.057 145.973 147.22 145.973 156.653C145.973 165.378 146.98 179.688 147.826 190.152C147.886 190.887 147.338 191.533 146.599 191.593C146.562 191.593 146.525 191.596 146.488 191.596Z" fill="#F79E4F"/>
<path d="M163.426 191.596C163.39 191.596 163.356 191.596 163.319 191.593C162.584 191.536 162.035 190.891 162.092 190.155C162.941 179.46 163.958 164.84 163.958 155.914C163.958 146.989 162.948 132.79 162.102 122.269C162.042 121.533 162.59 120.888 163.329 120.828C164.062 120.764 164.71 121.316 164.771 122.055C165.62 132.622 166.633 147.076 166.633 155.914C166.633 164.753 165.613 179.624 164.761 190.369C164.704 191.068 164.119 191.6 163.43 191.6L163.426 191.596Z" fill="#F79E4F"/>
<path d="M173.736 109.679H136.195V112.127H173.736V109.679Z" fill="#1E2675"/>
<path d="M167.53 98.8571H142.395L142.117 94.5866C141.957 92.102 142.188 91.8545 144.679 91.8545H165.245C167.737 91.8545 167.968 92.102 167.807 94.5866L167.53 98.8571Z" fill="#FA6257"/>
<path d="M158.999 91.8545H150.929L152.973 71.6191H156.955L158.999 91.8545Z" fill="#FA6257"/>
</svg>
