<svg width="240" height="240" viewBox="0 0 240 240" fill="none" xmlns="http://www.w3.org/2000/svg">
<rect width="240" height="240" rx="120" fill="#F6CA73"/>
<g clip-path="url(#clip0_370_375)">
<path d="M147.996 62H73.9625C63.4898 62 55 70.5695 55 81.1404V158.86C55 169.431 63.4898 178 73.9625 178H147.996C158.469 178 166.959 169.431 166.959 158.86V81.1404C166.959 70.5695 158.469 62 147.996 62Z" fill="#FA6257"/>
<path d="M168.037 62H94.0036C83.5308 62 75.041 70.5695 75.041 81.1404V158.86C75.041 169.431 83.5308 178 94.0036 178H168.037C178.51 178 187 169.431 187 158.86V81.1404C187 70.5695 178.51 62 168.037 62Z" fill="#F7E9C1"/>
<path d="M110.222 98.46H122.009C129.695 98.46 133.455 103.119 133.455 109.265C133.455 115.411 129.662 120.101 121.991 120.101H115.209V131.833H110.219V98.46H110.222ZM121.541 115.83C126.418 115.83 128.435 113.043 128.435 109.262C128.435 105.482 126.418 102.776 121.478 102.776H115.215V115.827H121.544L121.541 115.83Z" fill="#1E2675"/>
<path d="M137.463 98.46H142.29V110.862H142.58C143.437 109.313 145.099 106.478 149.7 106.478C155.688 106.478 160.112 111.251 160.112 119.368C160.112 127.485 155.753 132.324 149.747 132.324C145.226 132.324 143.451 129.536 142.58 127.939H142.177V131.833H137.463V98.46ZM148.666 128.167C152.977 128.167 155.238 124.338 155.238 119.317C155.238 114.296 153.042 110.614 148.666 110.614C144.29 110.614 142.192 114.086 142.192 119.317C142.192 124.548 144.518 128.167 148.666 128.167Z" fill="#1E2675"/>
<path d="M127.229 81.6813C127.224 80.3773 128.169 79.2857 129.389 79.0823V79.0106C128.323 78.7773 127.606 77.8292 127.612 76.6958C127.606 75.0838 129.069 73.8965 131.075 73.8965C133.081 73.8965 134.53 75.0898 134.536 76.6958C134.53 77.8263 133.804 78.7743 132.758 79.0106V79.0823C133.961 79.2857 134.915 80.3773 134.918 81.6813C134.912 83.38 133.312 84.6211 131.075 84.6211C128.838 84.6211 127.224 83.377 127.227 81.6813H127.229ZM132.995 81.5497C132.986 80.5568 132.178 79.842 131.075 79.842C129.973 79.842 129.146 80.5508 129.155 81.5497C129.146 82.5127 129.902 83.1646 131.075 83.1646C132.249 83.1646 132.983 82.5127 132.995 81.5497ZM132.711 76.8752C132.702 75.978 132.038 75.3769 131.075 75.3769C130.112 75.3769 129.428 75.978 129.44 76.8752C129.431 77.7814 130.115 78.4094 131.075 78.4094C132.035 78.4094 132.702 77.7874 132.711 76.8752Z" fill="#1E2675"/>
<path d="M136.017 83.1139L139.608 79.5609C140.628 78.5172 141.152 77.8951 141.152 77.0218C141.152 76.0379 140.42 75.4308 139.437 75.4308C138.453 75.4308 137.739 76.0977 137.739 77.1624H135.955C135.955 75.1796 137.41 73.8936 139.46 73.8936C141.511 73.8936 142.951 75.1736 142.951 76.9201C142.951 78.0985 142.394 79.0465 140.385 80.9935L138.601 82.8238V82.8955H143.105V84.4746H136.014V83.1079L136.017 83.1139Z" fill="#1E2675"/>
<path d="M124.782 146.789H126.032V152.696H129.069V153.754H124.782V146.792V146.789Z" fill="#1E2675"/>
<path d="M129.781 151.173C129.781 149.561 130.746 148.464 132.228 148.464C133.502 148.464 134.592 149.268 134.592 151.102V151.478H130.989C130.998 152.373 131.523 152.896 132.311 152.896C132.835 152.896 133.241 152.666 133.404 152.223L134.542 152.352C134.326 153.261 133.499 153.853 132.293 153.853C130.735 153.853 129.781 152.809 129.781 151.17V151.173ZM133.425 150.65C133.419 149.938 132.948 149.424 132.246 149.424C131.543 149.424 131.031 149.986 130.992 150.65H133.425Z" fill="#1E2675"/>
<path d="M135.283 152.286C135.283 151.111 136.243 150.806 137.247 150.698C138.16 150.599 138.527 150.581 138.527 150.228V150.208C138.527 149.693 138.216 149.403 137.65 149.403C137.054 149.403 136.711 149.708 136.589 150.067L135.452 149.902C135.721 148.951 136.557 148.461 137.644 148.461C138.631 148.461 139.745 148.877 139.745 150.255V153.751H138.571V153.034H138.53C138.308 153.473 137.822 153.856 137.01 153.856C136.023 153.856 135.28 153.312 135.28 152.286H135.283ZM138.53 151.879V151.263C138.37 151.392 137.733 151.476 137.413 151.517C136.868 151.595 136.459 151.793 136.459 152.265C136.459 152.738 136.823 152.953 137.33 152.953C138.065 152.953 138.53 152.459 138.53 151.879Z" fill="#1E2675"/>
<path d="M140.666 151.149C140.666 149.409 141.605 148.464 142.802 148.464C143.715 148.464 144.097 149.017 144.281 149.397H144.331V146.792H145.555V153.754H144.355V152.932H144.281C144.088 153.312 143.688 153.847 142.799 153.847C141.579 153.847 140.666 152.872 140.666 151.152V151.149ZM144.355 151.143C144.355 150.13 143.922 149.475 143.14 149.475C142.358 149.475 141.911 150.171 141.911 151.143C141.911 152.115 142.334 152.836 143.14 152.836C143.946 152.836 144.355 152.157 144.355 151.143Z" fill="#1E2675"/>
<path d="M123.434 165.798L125.828 163.43C126.509 162.733 126.859 162.317 126.859 161.737C126.859 161.079 126.37 160.675 125.712 160.675C125.055 160.675 124.581 161.121 124.581 161.833H123.393C123.393 160.511 124.361 159.652 125.73 159.652C127.099 159.652 128.056 160.505 128.056 161.671C128.056 162.458 127.686 163.089 126.347 164.387L125.158 165.607V165.655H128.163V166.71H123.434V165.798Z" fill="#1E2675"/>
<path d="M129.123 163.232C129.126 160.959 130.124 159.649 131.78 159.649C133.437 159.649 134.438 160.962 134.438 163.232C134.438 165.502 133.446 166.842 131.78 166.839C130.115 166.839 129.123 165.514 129.123 163.232ZM133.179 163.232C133.176 161.572 132.64 160.699 131.78 160.699C130.921 160.699 130.388 161.572 130.385 163.232C130.382 164.904 130.921 165.774 131.78 165.774C132.64 165.774 133.179 164.904 133.179 163.232Z" fill="#1E2675"/>
<path d="M138.456 160.846V160.798H135.052V159.745H139.751V160.822L136.82 166.707H135.523L138.456 160.846Z" fill="#1E2675"/>
<path d="M139.579 166.035C139.576 165.628 139.908 165.293 140.32 165.293C140.731 165.293 141.057 165.625 141.06 166.035C141.057 166.45 140.717 166.782 140.32 166.782C139.923 166.782 139.576 166.447 139.579 166.035Z" fill="#1E2675"/>
<path d="M142.216 165.798L144.61 163.43C145.291 162.733 145.641 162.317 145.641 161.737C145.641 161.079 145.152 160.675 144.494 160.675C143.836 160.675 143.362 161.121 143.362 161.833H142.174C142.174 160.511 143.143 159.652 144.512 159.652C145.881 159.652 146.841 160.505 146.841 161.671C146.841 162.458 146.471 163.089 145.131 164.387L143.943 165.607V165.655H146.948V166.71H142.219V165.798H142.216Z" fill="#1E2675"/>
</g>
<defs>
<clipPath id="clip0_370_375">
<rect width="132" height="116" fill="white" transform="translate(55 62)"/>
</clipPath>
</defs>
</svg>
