<svg width="240" height="240" viewBox="0 0 240 240" fill="none" xmlns="http://www.w3.org/2000/svg">
<g clip-path="url(#clip0_386_74)">
<rect width="240" height="240" rx="120" fill="#F6CA73"/>
<path d="M58.0748 119.285L44.0466 132.051L56.8032 146.098L70.8314 133.332L58.0748 119.285Z" fill="#F7E9C1"/>
<path d="M25.733 104.498C30.4286 101.352 31.5027 94.7151 28.1319 89.6739C24.7611 84.6327 18.222 83.096 13.5264 86.2417C8.83073 89.3874 7.75672 96.0242 11.1275 101.065C14.4983 106.107 21.0374 107.643 25.733 104.498Z" fill="#262730"/>
<path d="M33.9722 124.545C41.3372 119.612 42.8629 108.964 37.38 100.764C31.8971 92.5644 21.4819 89.9167 14.117 94.8506C6.75206 99.7845 5.22637 110.432 10.7092 118.632C16.1921 126.832 26.6073 129.479 33.9722 124.545Z" fill="#262730"/>
<path d="M56.2327 109.634C63.5977 104.7 65.1234 94.0533 59.6405 85.8533C54.1576 77.6533 43.7424 75.0055 36.3775 79.9394C29.0126 84.8733 27.4869 95.5205 32.9697 103.72C38.4526 111.92 48.8678 114.568 56.2327 109.634Z" fill="#262730"/>
<path d="M20.0375 123.935C12.7304 113.008 16.1205 99.6961 27.0066 92.4026C37.8974 85.1084 52.1609 86.5881 59.4679 97.5148C66.775 108.442 71.4825 125.21 56.2596 135.414C41.036 145.612 27.3397 134.862 20.0333 123.94L20.0375 123.935Z" fill="#F7E9C1"/>
<path d="M11.9903 87.9924C19.8144 82.7477 30.7128 109.629 40.5291 103.053C50.3454 96.4765 62.1382 96.7023 62.1382 96.7023C62.1382 96.7023 54.233 75.6885 37.2813 75.9157C20.3331 76.1326 11.9903 87.9924 11.9903 87.9924Z" fill="#262730"/>
<path d="M89.8688 128.794C106.426 147.025 106.299 149.749 88.0875 166.319C69.8812 182.888 67.1599 182.76 50.6025 164.525L49.7925 163.632C42.5778 155.688 42.7978 153.888 51.6812 147.884L63.9246 139.616L73.2211 128.298C80.0331 120.007 81.8496 119.962 89.0642 127.905L89.8682 128.789L89.8688 128.794Z" fill="#F79E4F"/>
<path d="M64.0702 140.273C64.9881 141.908 64.9314 142.106 63.3082 143.023L55.277 147.548C52.6918 149.003 52.3736 148.918 50.9136 146.316C49.1799 143.228 49.4768 142.525 52.887 141.635L61.8084 139.309C63.2922 138.922 63.3181 138.933 64.0756 140.277L64.0702 140.273Z" fill="#FA6257"/>
<path d="M64.3531 140.018C65.8882 141.088 66.0929 141.051 67.1573 139.52L72.422 131.946C74.1168 129.507 74.0594 129.183 71.6118 127.477C68.7083 125.456 67.9784 125.684 66.7693 128.996L63.6086 137.668C63.0834 139.113 63.0913 139.136 64.3579 140.017L64.3531 140.018Z" fill="#FA6257"/>
<path d="M44.5642 123.214C44.2159 123.27 43.8862 123.245 43.6101 123.111C42.8319 122.716 42.6099 121.848 42.3287 120.753C41.9489 119.281 41.376 117.05 39.2891 114.755C38.9526 114.385 38.979 113.811 39.3493 113.479C39.719 113.142 40.2926 113.169 40.6243 113.539C43.0138 116.17 43.6497 118.657 44.0727 120.308C44.1733 120.7 44.2935 121.167 44.3983 121.406C44.6189 121.343 44.9862 121.173 45.2783 120.875C45.6262 120.522 46.2002 120.514 46.5587 120.867C46.9124 121.22 46.9196 121.79 46.5674 122.149C46.0517 122.671 45.2765 123.11 44.5649 123.219L44.5642 123.214Z" fill="#262730"/>
<path d="M64.8732 138.21L62.3392 140.516L68.4656 147.262L70.9996 144.956L64.8732 138.21Z" fill="#FA6257"/>
<path d="M32.3149 113.419C30.1632 113.176 28.2234 114.721 27.9773 116.875C25.8255 116.633 23.8858 118.177 23.6396 120.332C23.3982 122.486 24.9414 124.428 27.0938 124.675L32.8623 125.332C34.7376 125.547 34.9002 125.414 35.1149 123.536L35.7692 117.762C36.0106 115.608 34.4673 113.666 32.3149 113.419Z" fill="#FA6257"/>
<path d="M48.7446 100.329C46.5929 100.086 44.6531 101.631 44.4069 103.785C42.2552 103.543 40.3154 105.088 40.0692 107.242C39.8278 109.396 41.3711 111.338 43.5235 111.585L49.292 112.242C51.1673 112.458 51.3299 112.324 51.5446 110.447L52.1989 104.672C52.4403 102.518 50.897 100.576 48.7446 100.329Z" fill="#FA6257"/>
<path d="M27.0394 126.512C28.8032 128.464 30.0796 132.847 28.2955 134.536C26.5072 136.231 22.3332 134.588 20.5699 132.641C18.8061 130.689 18.82 127.736 20.6089 126.045C22.3972 124.35 25.2755 124.56 27.0441 126.511L27.0394 126.512Z" fill="#F7E9C1"/>
<path d="M67.8877 102.191C66.7595 99.8138 64.0257 98.707 61.7812 99.716C59.5367 100.725 58.6327 103.469 59.7609 105.847C60.8891 108.225 64.4529 111.075 66.6974 110.066C68.9419 109.057 69.0207 104.569 67.8925 102.191L67.8877 102.191Z" fill="#F7E9C1"/>
<path d="M182.807 189.552C136.678 193.868 120.45 193.752 74.1175 189.552C67.5035 141.745 68.9249 106.693 76.1017 53.0425C76.1017 53.0425 109.682 48.0068 129.582 48.0068C149.482 48.0068 180.829 53.0425 180.829 53.0425C180.829 53.0425 187.159 107.913 187.159 131.157C187.159 154.401 182.813 189.552 182.813 189.552H182.807Z" fill="#F7E9C1"/>
<path d="M114.759 194.547C104.112 194.036 82.1992 193.113 71.3964 192.143C67.0625 125.006 67.5324 126.771 73.427 50.4983C121.93 43.36 138.233 43.5342 183.527 50.5563C187.878 103.957 189.433 122.415 188.899 138.428C188.249 159.03 187.153 184.563 184.826 191.626C178.108 192.561 136.382 195.639 114.759 194.547ZM180.788 187.473C180.365 187.711 179.999 188.46 180.005 188.745L180.017 188.681L180.098 188.158C187.42 140.949 185.691 121.416 182.21 87.3048C181.003 75.973 179.587 64.647 177.946 53.3733L180.365 55.8999C137.647 49.5748 123.154 49.1391 76.5309 55.8999L78.9735 53.4198C75.0051 74.9275 71.1295 106.634 71.0715 129.798C71.2281 151.509 74.0188 174.701 76.9893 189.151L74.3843 186.666C88.4941 188.443 111.887 190.569 128.48 190.731C147.266 190.633 175.555 187.723 182.129 186.718C181.734 186.764 181.061 187.037 180.794 187.473H180.788Z" fill="#E6C09E"/>
<path d="M155.15 109.317H101.774C101.774 120.359 108.464 129.832 118.008 133.903C116.517 134.711 115.13 135.681 113.871 136.796H143.054C141.795 135.681 140.408 134.711 138.917 133.903C148.461 129.832 155.15 120.359 155.15 109.317Z" fill="#FA6257"/>
<path d="M153.741 107.337C150.909 104.77 147.138 102.754 142.207 101.482C143.518 100.599 144.551 99.5247 145.241 98.2295H111.69C112.374 99.5189 113.407 100.599 114.724 101.482C109.792 102.754 106.021 104.764 103.19 107.337H153.747H153.741Z" fill="#FA6257"/>
<path d="M117.433 143.54C118.274 145.712 119.116 147.878 119.957 150.027C119.992 150.027 120.027 150.033 120.056 150.039C120.897 148.064 121.744 146.072 122.585 144.074C123.218 144.12 123.85 144.155 124.477 144.184V152.722C123.983 152.699 123.484 152.67 122.991 152.641V146.775C122.991 146.775 122.939 146.775 122.91 146.775C122.121 148.668 121.338 150.55 120.555 152.42C120.183 152.385 119.818 152.345 119.446 152.304C118.663 150.265 117.88 148.221 117.097 146.159L117.016 146.147C117.016 148.105 117.016 150.068 117.016 152.025C116.522 151.956 116.029 151.886 115.542 151.805V143.267C116.168 143.365 116.795 143.458 117.422 143.54H117.433Z" fill="#FA6257"/>
<path d="M129.199 145.457C128.23 145.468 127.656 145.927 127.65 146.572C127.644 147.286 128.404 147.588 129.106 147.745C129.373 147.809 129.64 147.873 129.907 147.937C131.195 148.216 132.413 148.831 132.419 150.307C132.419 151.811 131.224 152.909 129.176 152.932C127.186 152.949 125.921 151.944 125.857 150.248C126.368 150.266 126.873 150.277 127.383 150.283C127.447 151.178 128.196 151.625 129.164 151.613C130.174 151.602 130.87 151.091 130.87 150.359C130.87 149.697 130.255 149.429 129.333 149.209C129.008 149.127 128.683 149.046 128.358 148.965C126.948 148.599 126.078 147.867 126.078 146.642C126.078 145.131 127.424 144.173 129.217 144.15C131.038 144.127 132.268 145.079 132.297 146.52C131.798 146.543 131.305 146.56 130.806 146.578C130.725 145.852 130.116 145.445 129.193 145.457H129.199Z" fill="#FA6257"/>
<path d="M137.502 145.026C136.127 145.183 135.129 146.321 135.129 148.249C135.129 150.183 136.109 151.177 137.536 151.02C138.819 150.875 139.625 149.986 139.648 148.766C138.998 148.859 138.343 148.941 137.687 149.016V147.808C138.836 147.674 139.985 147.518 141.133 147.337V148.366C141.133 150.567 139.631 152.176 137.525 152.414C135.175 152.675 133.574 151.084 133.574 148.389C133.574 145.636 135.25 143.905 137.478 143.649C139.364 143.44 140.803 144.369 141.064 146.007C140.542 146.089 140.019 146.164 139.497 146.24C139.225 145.374 138.528 144.921 137.502 145.037V145.026Z" fill="#FA6257"/>
<path d="M96.663 77.5634C97.5507 77.4821 98.4441 77.4066 99.3318 77.3369C100.011 81.4723 100.695 85.6078 101.374 89.749C100.718 89.8013 100.063 89.8536 99.4014 89.9058C99.2796 89.0811 99.1636 88.2621 99.0417 87.4374C99.0417 87.449 99.0417 87.4606 99.0417 87.4722C98.2933 87.5361 97.5507 87.6 96.8023 87.6639C96.6804 88.4945 96.5644 89.325 96.4425 90.1556C95.8334 90.2079 95.2242 90.266 94.615 90.324C95.2938 86.0666 95.9726 81.815 96.6572 77.5634H96.663ZM98.8097 85.782C98.5196 83.7375 98.2237 81.6873 97.9336 79.6428H97.8988C97.6145 81.7395 97.3244 83.8363 97.0401 85.933C97.6319 85.8808 98.2237 85.8285 98.8155 85.782H98.8097Z" fill="#FA6257"/>
<path d="M101.873 89.7043V87.9095C102.064 87.9444 102.279 87.9502 102.517 87.9328C102.912 87.9037 103.202 87.7876 103.393 87.5727C103.585 87.3636 103.677 87.0557 103.677 86.6434V77.0018C104.333 76.9553 104.994 76.9088 105.65 76.8682C105.65 80.0627 105.65 83.263 105.65 86.4575C105.65 87.4855 105.412 88.2696 104.942 88.804C104.472 89.3383 103.747 89.6404 102.784 89.7101C102.424 89.7333 102.122 89.7333 101.867 89.7101L101.873 89.7043Z" fill="#FA6257"/>
<path d="M107.077 76.7802C107.733 76.7396 108.394 76.7047 109.05 76.6641V89.233C108.394 89.2678 107.733 89.3085 107.077 89.3492V76.7802Z" fill="#FA6257"/>
<path d="M110.233 81.9905C111.55 81.9209 112.867 81.8628 114.179 81.8047V83.5994C112.862 83.6517 111.545 83.7156 110.233 83.7853V81.9905Z" fill="#FA6257"/>
<path d="M115.362 76.3734C116.186 76.3443 117.016 76.3153 117.839 76.2862C118.478 78.7721 119.122 81.2639 119.76 83.7556C119.771 83.7556 119.783 83.7556 119.795 83.7556V76.2282C120.381 76.2107 120.967 76.1991 121.553 76.1875V88.7564C120.874 88.768 120.201 88.7855 119.522 88.8029C118.733 85.7652 117.944 82.7275 117.155 79.6956H117.12V88.8726C116.534 88.89 115.948 88.9133 115.362 88.9365V76.3676V76.3734Z" fill="#FA6257"/>
<path d="M123.659 88.077C123.142 87.5369 122.887 86.7644 122.887 85.7538V79.144C122.887 78.1392 123.142 77.3551 123.659 76.7975C124.175 76.2399 124.918 75.9553 125.886 75.9437C126.855 75.9321 127.598 76.2051 128.114 76.7569C128.631 77.3028 128.886 78.0869 128.886 79.0918V85.7015C128.886 86.7063 128.631 87.4846 128.114 88.0364C127.598 88.5882 126.855 88.8669 125.886 88.8786C124.918 88.8844 124.175 88.623 123.659 88.0828V88.077ZM126.908 85.8293V78.9698C126.908 78.145 126.565 77.7326 125.886 77.7384C125.202 77.7443 124.86 78.1624 124.865 78.9872V85.8467C124.865 86.6714 125.208 87.0838 125.886 87.0722C126.571 87.0664 126.908 86.654 126.908 85.8235V85.8293Z" fill="#FA6257"/>
<path d="M129.924 81.4971C131.241 81.4971 132.558 81.5087 133.875 81.5261V83.3208C132.558 83.3034 131.241 83.2976 129.924 83.2918V81.4971Z" fill="#FA6257"/>
<path d="M135.059 76.1533C135.999 76.1707 136.939 76.1882 137.879 76.2056C138.296 79.2142 138.714 82.2229 139.138 85.2315C139.149 85.2315 139.161 85.2315 139.172 85.2315C139.59 82.2461 140.008 79.2549 140.431 76.2695C141.371 76.2985 142.311 76.3276 143.251 76.3624V88.9313C142.63 88.9081 142.004 88.8849 141.383 88.8675V79.3478H141.348C140.867 82.5017 140.391 85.6613 139.909 88.821C139.358 88.8036 138.807 88.7919 138.256 88.7803C137.774 85.5974 137.298 82.4146 136.817 79.2317C136.805 79.2317 136.794 79.2317 136.782 79.2317V88.7513C136.208 88.7397 135.633 88.7281 135.059 88.7222V76.1533Z" fill="#FA6257"/>
<path d="M145.345 88.3787C144.829 87.8037 144.574 87.0196 144.574 86.009V79.3993C144.574 78.3944 144.829 77.6278 145.345 77.0992C145.862 76.5707 146.604 76.3267 147.573 76.379C148.542 76.4255 149.285 76.7449 149.795 77.3199C150.312 77.9007 150.567 78.6907 150.567 79.6955V86.3052C150.567 87.31 150.312 88.0709 149.795 88.5936C149.279 89.1164 148.542 89.3545 147.573 89.3022C146.604 89.2558 145.862 88.9479 145.345 88.3729V88.3787ZM148.594 86.3226V79.4632C148.594 78.6384 148.252 78.2028 147.573 78.1737C146.889 78.1389 146.552 78.5338 146.552 79.3644V86.2239C146.552 87.0486 146.895 87.4785 147.573 87.5133C148.252 87.5481 148.594 87.1532 148.594 86.3284V86.3226Z" fill="#FA6257"/>
<path d="M153.369 78.6852C152.685 78.6387 151.994 78.5981 151.31 78.5574V76.7627C153.34 76.8847 155.377 77.0241 157.407 77.1751V78.9698C156.723 78.9175 156.032 78.8653 155.348 78.8188C155.348 82.4083 155.348 86.0035 155.348 89.593C154.692 89.5465 154.031 89.5001 153.375 89.4594V78.6852H153.369Z" fill="#FA6257"/>
<path d="M158.904 89.2156C158.388 88.6232 158.133 87.8275 158.133 86.8227V80.213C158.133 79.2081 158.388 78.4473 158.904 77.9419C159.415 77.4308 160.157 77.2159 161.126 77.303C162.095 77.3844 162.832 77.7329 163.348 78.3253C163.859 78.9235 164.12 79.7251 164.12 80.7299V87.3396C164.12 88.3444 163.865 89.0995 163.348 89.6048C162.838 90.1101 162.095 90.3134 161.126 90.2321C160.157 90.1508 159.421 89.8139 158.904 89.2215V89.2156ZM162.147 87.2815V80.422C162.147 79.5973 161.805 79.1501 161.126 79.092C160.447 79.0339 160.105 79.4172 160.105 80.242C160.105 82.5304 160.105 84.813 160.105 87.1015C160.105 87.9262 160.447 88.3677 161.126 88.4257C161.805 88.4838 162.147 88.1005 162.147 87.2757V87.2815Z" fill="#FA6257"/>
<path d="M170.107 178.615C142.973 181.182 115.664 181.182 88.5289 178.615V170.176C115.664 172.743 142.973 172.743 170.107 170.176V178.615Z" fill="#FA6257"/>
<path d="M164.114 68.8751C140.913 65.396 117.718 72.3542 94.5164 68.8751C95.4272 67.8993 96.3323 66.9003 97.2432 65.8955C96.3323 64.6758 95.4272 63.4386 94.5164 62.1899C117.718 65.669 140.913 58.7108 164.114 62.1899C163.203 63.1657 162.298 64.1647 161.387 65.1695C162.298 66.3892 163.203 67.6263 164.114 68.8751Z" fill="#FA6257"/>
<path d="M98.0786 159.442C98.0264 159.442 97.9858 159.425 97.951 159.396C97.8813 159.337 97.8639 159.268 97.893 159.181C97.893 159.181 97.9104 159.123 97.9394 159.024C97.9684 158.925 98.009 158.809 98.0554 158.687C98.0786 158.611 98.096 158.548 98.1134 158.495C98.1308 158.443 98.1482 158.391 98.1598 158.35C98.0438 158.391 97.8988 158.449 97.7305 158.507C97.5623 158.571 97.3824 158.635 97.2025 158.704C97.0169 158.774 96.837 158.844 96.663 158.908C96.6166 158.925 96.5644 158.919 96.5179 158.896C96.4657 158.873 96.4309 158.832 96.4077 158.78C96.3903 158.733 96.3961 158.681 96.4193 158.635C96.4425 158.582 96.4831 158.548 96.5353 158.524C96.7326 158.455 96.9299 158.385 97.1387 158.304C97.3476 158.222 97.539 158.158 97.7189 158.089C97.8988 158.019 98.096 157.943 98.3223 157.856C98.3455 157.856 98.3629 157.851 98.3861 157.845C98.4093 157.845 98.4267 157.845 98.4441 157.856C98.5021 157.868 98.5485 157.897 98.5718 157.961C98.595 157.996 98.6008 158.042 98.6008 158.094C98.6008 158.147 98.5892 158.228 98.566 158.327C98.5544 158.385 98.5369 158.443 98.5195 158.513C98.5021 158.582 98.4731 158.658 98.4441 158.745C98.4441 158.762 98.4325 158.78 98.4325 158.791C98.4325 158.803 98.4209 158.82 98.4209 158.838C98.595 158.745 98.8096 158.64 99.0591 158.536C99.1055 158.513 99.1577 158.513 99.2041 158.536C99.2564 158.553 99.2854 158.588 99.3028 158.635C99.326 158.681 99.3318 158.733 99.3086 158.786C99.2854 158.838 99.2506 158.873 99.2041 158.896C99.0069 158.983 98.8328 159.064 98.682 159.146C98.5311 159.227 98.3571 159.308 98.1772 159.407C98.1482 159.43 98.1192 159.442 98.0786 159.442Z" fill="#1E2675"/>
<path d="M100.614 159.442C100.562 159.442 100.521 159.425 100.486 159.396C100.417 159.337 100.399 159.268 100.428 159.181C100.428 159.181 100.446 159.123 100.475 159.024C100.504 158.925 100.544 158.809 100.591 158.687C100.614 158.611 100.631 158.548 100.649 158.495C100.666 158.443 100.684 158.391 100.695 158.35C100.579 158.391 100.434 158.449 100.266 158.507C100.098 158.571 99.9177 158.635 99.7378 158.704C99.5522 158.774 99.3723 158.844 99.1983 158.908C99.1518 158.925 99.0996 158.919 99.0532 158.896C99.001 158.873 98.9662 158.832 98.943 158.78C98.9256 158.733 98.9314 158.681 98.9546 158.635C98.9778 158.582 99.0184 158.548 99.0706 158.524C99.2679 158.455 99.4651 158.385 99.674 158.304C99.8829 158.222 100.074 158.158 100.254 158.089C100.434 158.019 100.631 157.943 100.858 157.856C100.881 157.856 100.898 157.851 100.921 157.845C100.945 157.845 100.962 157.845 100.979 157.856C101.037 157.868 101.084 157.897 101.107 157.961C101.13 157.996 101.136 158.042 101.136 158.094C101.136 158.147 101.124 158.228 101.101 158.327C101.09 158.385 101.072 158.443 101.055 158.513C101.037 158.582 101.008 158.658 100.979 158.745C100.979 158.762 100.968 158.78 100.968 158.791C100.968 158.803 100.956 158.82 100.956 158.838C101.13 158.745 101.345 158.64 101.594 158.536C101.641 158.513 101.693 158.513 101.739 158.536C101.792 158.553 101.821 158.588 101.838 158.635C101.861 158.681 101.867 158.733 101.844 158.786C101.821 158.838 101.786 158.873 101.739 158.896C101.542 158.983 101.368 159.064 101.217 159.146C101.066 159.227 100.892 159.308 100.713 159.407C100.684 159.43 100.654 159.442 100.614 159.442Z" fill="#1E2675"/>
<path d="M103.95 159.378C103.921 159.378 103.892 159.378 103.863 159.366C103.782 159.349 103.724 159.297 103.689 159.215C103.666 159.14 103.671 159.058 103.712 158.966C103.753 158.873 103.811 158.774 103.88 158.658C103.909 158.617 103.932 158.576 103.956 158.536C103.979 158.495 104.002 158.454 104.019 158.42C104.025 158.408 104.037 158.396 104.037 158.385C104.037 158.373 104.049 158.362 104.049 158.356C103.921 158.332 103.77 158.327 103.596 158.338C103.422 158.35 103.23 158.385 103.022 158.437C102.836 158.483 102.633 158.547 102.418 158.623C102.204 158.698 101.977 158.791 101.739 158.896C101.693 158.913 101.647 158.913 101.594 158.896C101.548 158.878 101.513 158.844 101.49 158.797C101.467 158.751 101.461 158.698 101.484 158.646C101.507 158.594 101.542 158.553 101.589 158.536C101.832 158.425 102.064 158.332 102.291 158.251C102.517 158.17 102.726 158.106 102.923 158.059C103.457 157.926 103.892 157.903 104.234 157.996C104.333 158.025 104.402 158.083 104.443 158.176C104.484 158.274 104.472 158.379 104.414 158.495C104.356 158.611 104.292 158.733 104.211 158.861C104.211 158.873 104.199 158.878 104.194 158.896C104.182 158.907 104.176 158.925 104.165 158.942C104.263 158.919 104.414 158.878 104.605 158.815C104.797 158.751 105.07 158.652 105.412 158.53C105.458 158.513 105.511 158.518 105.557 158.542C105.609 158.565 105.638 158.605 105.656 158.658C105.679 158.704 105.679 158.756 105.656 158.803C105.632 158.855 105.598 158.89 105.54 158.913C105.342 158.983 105.157 159.047 104.994 159.105C104.832 159.163 104.681 159.21 104.553 159.25C104.379 159.302 104.246 159.337 104.153 159.361C104.06 159.378 103.99 159.39 103.944 159.39L103.95 159.378Z" fill="#1E2675"/>
<path d="M106.021 159.814C105.992 159.814 105.957 159.814 105.928 159.802C105.899 159.796 105.865 159.791 105.836 159.785C105.76 159.762 105.702 159.715 105.673 159.645C105.633 159.558 105.633 159.454 105.673 159.332C105.714 159.21 105.783 159.047 105.876 158.856C105.894 158.821 105.911 158.78 105.934 158.739C105.957 158.699 105.975 158.652 105.992 158.617C105.934 158.641 105.876 158.676 105.812 158.728C105.749 158.78 105.685 158.827 105.621 158.879C105.58 158.908 105.528 158.919 105.476 158.914C105.424 158.908 105.377 158.885 105.342 158.844C105.313 158.803 105.302 158.751 105.308 158.699C105.313 158.646 105.337 158.6 105.377 158.559C105.435 158.519 105.505 158.466 105.569 158.414C105.638 158.362 105.702 158.321 105.772 158.286C105.952 158.193 106.114 158.17 106.259 158.217C106.329 158.228 106.381 158.275 106.416 158.344C106.451 158.414 106.451 158.501 106.416 158.606C106.381 158.71 106.317 158.85 106.23 159.03C106.207 159.082 106.184 159.134 106.16 159.187C106.137 159.239 106.114 159.291 106.091 159.338C106.091 159.355 106.079 159.372 106.073 159.384C106.068 159.396 106.062 159.407 106.056 159.425C106.149 159.413 106.282 159.367 106.456 159.285C106.63 159.204 106.868 159.047 107.17 158.803C107.332 158.676 107.477 158.554 107.605 158.437C107.733 158.321 107.878 158.182 108.034 158.025C108.087 157.967 108.15 157.944 108.226 157.967C108.261 157.967 108.29 157.984 108.313 158.008C108.336 158.031 108.354 158.054 108.365 158.077C108.394 158.135 108.4 158.211 108.377 158.286C108.354 158.368 108.301 158.495 108.232 158.676C108.203 158.734 108.179 158.786 108.156 158.844C108.133 158.902 108.11 158.954 108.087 159.001C108.087 159.018 108.081 159.03 108.075 159.041C108.069 159.053 108.075 159.065 108.063 159.07C108.145 159.059 108.232 159.024 108.325 158.96C108.417 158.902 108.51 158.832 108.597 158.763C108.684 158.693 108.76 158.623 108.823 158.571C108.864 158.53 108.916 158.513 108.969 158.519C109.021 158.519 109.067 158.542 109.108 158.583C109.143 158.623 109.16 158.676 109.154 158.728C109.154 158.78 109.131 158.827 109.085 158.867C108.951 158.983 108.812 159.094 108.673 159.198C108.533 159.303 108.388 159.378 108.249 159.431C108.11 159.483 107.965 159.489 107.82 159.454C107.75 159.425 107.698 159.378 107.669 159.326C107.646 159.268 107.634 159.198 107.646 159.123C107.657 159.047 107.681 158.96 107.721 158.85C107.675 158.89 107.623 158.937 107.576 158.972C107.524 159.012 107.472 159.053 107.414 159.1C106.816 159.576 106.346 159.808 106.015 159.808L106.021 159.814Z" fill="#1E2675"/>
<path d="M110.448 159.442C110.396 159.442 110.355 159.425 110.32 159.396C110.251 159.337 110.233 159.268 110.262 159.181C110.262 159.181 110.28 159.123 110.309 159.024C110.338 158.925 110.378 158.809 110.425 158.687C110.448 158.611 110.465 158.548 110.483 158.495C110.5 158.443 110.517 158.391 110.529 158.35C110.413 158.391 110.268 158.449 110.1 158.507C109.932 158.571 109.752 158.635 109.572 158.704C109.386 158.774 109.206 158.844 109.032 158.908C108.986 158.925 108.934 158.919 108.887 158.896C108.835 158.873 108.8 158.832 108.777 158.78C108.76 158.733 108.765 158.681 108.789 158.635C108.812 158.582 108.852 158.548 108.905 158.524C109.102 158.455 109.299 158.385 109.508 158.304C109.717 158.222 109.908 158.158 110.088 158.089C110.268 158.019 110.465 157.943 110.692 157.856C110.715 157.856 110.732 157.851 110.755 157.845C110.779 157.845 110.796 157.845 110.813 157.856C110.871 157.868 110.918 157.897 110.941 157.961C110.964 157.996 110.97 158.042 110.97 158.094C110.97 158.147 110.958 158.228 110.935 158.327C110.924 158.385 110.906 158.443 110.889 158.513C110.871 158.582 110.842 158.658 110.813 158.745C110.813 158.762 110.802 158.78 110.802 158.791C110.802 158.803 110.79 158.82 110.79 158.838C110.964 158.745 111.179 158.64 111.428 158.536C111.475 158.513 111.527 158.513 111.573 158.536C111.626 158.553 111.655 158.588 111.672 158.635C111.695 158.681 111.701 158.733 111.678 158.786C111.655 158.838 111.62 158.873 111.573 158.896C111.376 158.983 111.202 159.064 111.051 159.146C110.9 159.227 110.726 159.308 110.547 159.407C110.517 159.43 110.488 159.442 110.448 159.442Z" fill="#1E2675"/>
<path d="M115.53 159.25C115.53 159.25 115.49 159.25 115.478 159.244C115.408 159.227 115.362 159.198 115.333 159.163C115.304 159.128 115.287 159.099 115.275 159.076C115.246 158.983 115.258 158.878 115.31 158.78C115.362 158.675 115.432 158.571 115.513 158.454C115.542 158.42 115.565 158.379 115.588 158.338C115.611 158.298 115.635 158.263 115.652 158.228C115.652 158.228 115.664 158.216 115.669 158.199C115.64 158.21 115.611 158.222 115.577 158.239C115.542 158.257 115.495 158.28 115.449 158.315C115.374 158.361 115.287 158.425 115.2 158.501C115.112 158.576 115.025 158.658 114.933 158.739C114.909 158.756 114.886 158.774 114.863 158.797C114.84 158.82 114.817 158.838 114.793 158.861C114.753 158.896 114.706 158.913 114.654 158.907C114.602 158.907 114.556 158.884 114.521 158.838C114.48 158.797 114.463 158.751 114.468 158.698C114.474 158.646 114.498 158.6 114.532 158.565C114.556 158.542 114.579 158.524 114.602 158.501C114.625 158.478 114.648 158.46 114.672 158.443C114.811 158.315 114.95 158.199 115.083 158.094C115.217 157.99 115.35 157.908 115.478 157.85C115.606 157.792 115.733 157.781 115.855 157.816C115.931 157.833 115.983 157.862 116.018 157.903C116.052 157.943 116.07 157.978 116.076 158.013C116.116 158.112 116.105 158.21 116.052 158.315C115.994 158.42 115.925 158.536 115.838 158.663C115.832 158.675 115.82 158.687 115.809 158.704C115.797 158.722 115.785 158.745 115.774 158.762C115.838 158.733 115.925 158.704 116.029 158.663C116.134 158.623 116.261 158.576 116.406 158.518C116.464 158.501 116.517 158.507 116.563 158.53C116.609 158.553 116.644 158.594 116.662 158.646C116.685 158.693 116.685 158.745 116.662 158.791C116.638 158.844 116.604 158.878 116.551 158.902C116.412 158.948 116.284 158.995 116.174 159.029C116.064 159.07 115.965 159.105 115.89 159.134C115.849 159.151 115.809 159.163 115.774 159.175C115.739 159.186 115.71 159.198 115.687 159.204C115.658 159.215 115.629 159.221 115.611 159.227C115.588 159.233 115.571 159.239 115.548 159.239L115.53 159.25Z" fill="#1E2675"/>
<path d="M118.739 159.378C118.71 159.378 118.681 159.378 118.652 159.366C118.57 159.349 118.512 159.297 118.477 159.215C118.454 159.14 118.46 159.058 118.501 158.966C118.541 158.873 118.599 158.774 118.669 158.658C118.698 158.617 118.721 158.576 118.744 158.536C118.768 158.495 118.791 158.454 118.808 158.42C118.814 158.408 118.826 158.396 118.826 158.385C118.826 158.373 118.837 158.362 118.837 158.356C118.71 158.332 118.559 158.327 118.385 158.338C118.211 158.35 118.019 158.385 117.81 158.437C117.625 158.483 117.422 158.547 117.207 158.623C116.992 158.698 116.766 158.791 116.528 158.896C116.482 158.913 116.435 158.913 116.383 158.896C116.337 158.878 116.302 158.844 116.279 158.797C116.255 158.751 116.25 158.698 116.273 158.646C116.296 158.594 116.331 158.553 116.377 158.536C116.621 158.425 116.853 158.332 117.079 158.251C117.306 158.17 117.514 158.106 117.712 158.059C118.245 157.926 118.681 157.903 119.023 157.996C119.121 158.025 119.191 158.083 119.232 158.176C119.272 158.274 119.261 158.379 119.203 158.495C119.145 158.611 119.081 158.733 119 158.861C119 158.873 118.988 158.878 118.982 158.896C118.971 158.907 118.965 158.925 118.953 158.942C119.052 158.919 119.203 158.878 119.394 158.815C119.586 158.751 119.858 158.652 120.201 158.53C120.247 158.513 120.299 158.518 120.346 158.542C120.398 158.565 120.427 158.605 120.444 158.658C120.467 158.704 120.467 158.756 120.444 158.803C120.421 158.855 120.386 158.89 120.328 158.913C120.131 158.983 119.945 159.047 119.783 159.105C119.62 159.163 119.47 159.21 119.342 159.25C119.168 159.302 119.034 159.337 118.942 159.361C118.849 159.378 118.779 159.39 118.733 159.39L118.739 159.378Z" fill="#1E2675"/>
<path d="M122.574 159.378C122.545 159.378 122.516 159.378 122.487 159.366C122.405 159.349 122.347 159.297 122.313 159.215C122.289 159.14 122.295 159.058 122.336 158.966C122.376 158.873 122.434 158.774 122.504 158.658C122.533 158.617 122.556 158.576 122.579 158.536C122.603 158.495 122.626 158.454 122.643 158.42C122.649 158.408 122.661 158.396 122.661 158.385C122.661 158.373 122.672 158.362 122.672 158.356C122.545 158.332 122.394 158.327 122.22 158.338C122.046 158.35 121.854 158.385 121.645 158.437C121.46 158.483 121.257 158.547 121.042 158.623C120.827 158.698 120.601 158.791 120.363 158.896C120.317 158.913 120.27 158.913 120.218 158.896C120.172 158.878 120.137 158.844 120.114 158.797C120.091 158.751 120.085 158.698 120.108 158.646C120.131 158.594 120.166 158.553 120.212 158.536C120.456 158.425 120.688 158.332 120.914 158.251C121.141 158.17 121.349 158.106 121.547 158.059C122.081 157.926 122.516 157.903 122.858 157.996C122.957 158.025 123.026 158.083 123.067 158.176C123.107 158.274 123.096 158.379 123.038 158.495C122.98 158.611 122.916 158.733 122.835 158.861C122.835 158.873 122.823 158.878 122.817 158.896C122.806 158.907 122.8 158.925 122.788 158.942C122.887 158.919 123.038 158.878 123.229 158.815C123.421 158.751 123.693 158.652 124.036 158.53C124.082 158.513 124.134 158.518 124.181 158.542C124.233 158.565 124.262 158.605 124.279 158.658C124.303 158.704 124.303 158.756 124.279 158.803C124.256 158.855 124.221 158.89 124.163 158.913C123.966 158.983 123.78 159.047 123.618 159.105C123.456 159.163 123.305 159.21 123.177 159.25C123.003 159.302 122.87 159.337 122.777 159.361C122.684 159.378 122.614 159.39 122.568 159.39L122.574 159.378Z" fill="#1E2675"/>
<path d="M124.947 159.831C124.947 159.831 124.906 159.831 124.883 159.831C124.86 159.831 124.836 159.831 124.813 159.819C124.761 159.802 124.72 159.767 124.686 159.709C124.668 159.674 124.657 159.628 124.657 159.564C124.657 159.5 124.674 159.401 124.715 159.262C124.755 159.122 124.819 158.913 124.906 158.64C124.813 158.675 124.703 158.716 124.575 158.762C124.453 158.809 124.326 158.855 124.192 158.907C124.146 158.925 124.094 158.919 124.047 158.896C123.995 158.872 123.96 158.832 123.937 158.78C123.92 158.733 123.926 158.681 123.949 158.634C123.972 158.582 124.013 158.547 124.065 158.524C124.25 158.454 124.424 158.39 124.587 158.327C124.749 158.268 124.935 158.199 125.144 158.117C125.184 158.1 125.231 158.1 125.266 158.112C125.324 158.123 125.364 158.158 125.388 158.21C125.411 158.251 125.417 158.286 125.411 158.315C125.405 158.344 125.399 158.379 125.388 158.414C125.376 158.431 125.37 158.448 125.37 158.472C125.37 158.489 125.359 158.512 125.353 158.541C125.324 158.617 125.289 158.704 125.26 158.814C125.231 158.925 125.196 159.029 125.161 159.14C125.138 159.198 125.121 159.25 125.109 159.296C125.097 159.343 125.086 159.378 125.074 159.413C125.155 159.395 125.277 159.343 125.434 159.262C125.567 159.186 125.712 159.105 125.869 159.006C126.026 158.907 126.182 158.803 126.339 158.698C126.374 158.675 126.409 158.658 126.449 158.634C126.484 158.611 126.519 158.588 126.548 158.565C126.594 158.536 126.647 158.524 126.699 158.536C126.751 158.547 126.797 158.576 126.826 158.623C126.855 158.663 126.867 158.716 126.855 158.768C126.844 158.82 126.815 158.861 126.768 158.89C126.734 158.919 126.699 158.942 126.658 158.965C126.623 158.989 126.583 159.012 126.542 159.041C126.38 159.151 126.217 159.256 126.061 159.355C125.904 159.453 125.759 159.54 125.62 159.616C125.335 159.761 125.115 159.837 124.947 159.837V159.831Z" fill="#1E2675"/>
<path d="M128.149 159.442C128.097 159.442 128.056 159.425 128.021 159.396C127.952 159.337 127.934 159.268 127.963 159.181C127.963 159.181 127.981 159.123 128.01 159.024C128.039 158.925 128.079 158.809 128.126 158.687C128.149 158.611 128.166 158.548 128.184 158.495C128.201 158.443 128.219 158.391 128.23 158.35C128.114 158.391 127.969 158.449 127.801 158.507C127.633 158.571 127.453 158.635 127.273 158.704C127.087 158.774 126.907 158.844 126.733 158.908C126.687 158.925 126.635 158.919 126.588 158.896C126.536 158.873 126.501 158.832 126.478 158.78C126.461 158.733 126.467 158.681 126.49 158.635C126.513 158.582 126.554 158.548 126.606 158.524C126.803 158.455 127 158.385 127.209 158.304C127.418 158.222 127.609 158.158 127.789 158.089C127.969 158.019 128.166 157.943 128.393 157.856C128.416 157.856 128.433 157.851 128.457 157.845C128.48 157.845 128.497 157.845 128.515 157.856C128.573 157.868 128.619 157.897 128.642 157.961C128.665 157.996 128.671 158.042 128.671 158.094C128.671 158.147 128.66 158.228 128.636 158.327C128.625 158.385 128.607 158.443 128.59 158.513C128.573 158.582 128.544 158.658 128.515 158.745C128.515 158.762 128.503 158.78 128.503 158.791C128.503 158.803 128.491 158.82 128.491 158.838C128.665 158.745 128.88 158.64 129.13 158.536C129.176 158.513 129.228 158.513 129.275 158.536C129.327 158.553 129.356 158.588 129.373 158.635C129.396 158.681 129.402 158.733 129.379 158.786C129.356 158.838 129.321 158.873 129.275 158.896C129.077 158.983 128.903 159.064 128.752 159.146C128.602 159.227 128.428 159.308 128.248 159.407C128.219 159.43 128.19 159.442 128.149 159.442Z" fill="#1E2675"/>
<path d="M132.889 159.814C132.86 159.814 132.825 159.814 132.796 159.802C132.767 159.796 132.732 159.791 132.703 159.785C132.628 159.762 132.57 159.715 132.541 159.645C132.5 159.558 132.5 159.454 132.541 159.332C132.582 159.21 132.651 159.047 132.744 158.856C132.761 158.821 132.779 158.78 132.802 158.739C132.825 158.699 132.843 158.652 132.86 158.617C132.802 158.641 132.744 158.676 132.68 158.728C132.616 158.78 132.553 158.827 132.489 158.879C132.448 158.908 132.396 158.919 132.344 158.914C132.292 158.908 132.245 158.885 132.21 158.844C132.181 158.803 132.17 158.751 132.176 158.699C132.181 158.646 132.205 158.6 132.245 158.559C132.303 158.519 132.373 158.466 132.437 158.414C132.506 158.362 132.57 158.321 132.64 158.286C132.82 158.193 132.982 158.17 133.127 158.217C133.197 158.228 133.249 158.275 133.284 158.344C133.318 158.414 133.318 158.501 133.284 158.606C133.249 158.71 133.185 158.85 133.098 159.03C133.075 159.082 133.052 159.134 133.028 159.187C133.005 159.239 132.982 159.291 132.959 159.338C132.959 159.355 132.947 159.372 132.941 159.384C132.936 159.396 132.93 159.407 132.924 159.425C133.017 159.413 133.15 159.367 133.324 159.285C133.498 159.204 133.736 159.047 134.038 158.803C134.2 158.676 134.345 158.554 134.473 158.437C134.601 158.321 134.746 158.182 134.902 158.025C134.955 157.967 135.018 157.944 135.094 157.967C135.129 157.967 135.158 157.984 135.181 158.008C135.204 158.031 135.221 158.054 135.233 158.077C135.262 158.135 135.268 158.211 135.245 158.286C135.221 158.368 135.169 158.495 135.1 158.676C135.071 158.734 135.047 158.786 135.024 158.844C135.001 158.902 134.978 158.954 134.955 159.001C134.955 159.018 134.949 159.03 134.943 159.041C134.937 159.053 134.943 159.065 134.931 159.07C135.013 159.059 135.1 159.024 135.192 158.96C135.285 158.902 135.378 158.832 135.465 158.763C135.552 158.693 135.628 158.623 135.691 158.571C135.732 158.53 135.784 158.513 135.836 158.519C135.889 158.519 135.935 158.542 135.976 158.583C136.01 158.623 136.028 158.676 136.022 158.728C136.022 158.78 135.999 158.827 135.952 158.867C135.819 158.983 135.68 159.094 135.541 159.198C135.401 159.303 135.256 159.378 135.117 159.431C134.978 159.483 134.833 159.489 134.688 159.454C134.618 159.425 134.566 159.378 134.537 159.326C134.514 159.268 134.502 159.198 134.514 159.123C134.525 159.047 134.548 158.96 134.589 158.85C134.543 158.89 134.49 158.937 134.444 158.972C134.392 159.012 134.34 159.053 134.282 159.1C133.684 159.576 133.214 159.808 132.883 159.808L132.889 159.814Z" fill="#1E2675"/>
<path d="M137.316 159.442C137.264 159.442 137.223 159.425 137.188 159.396C137.119 159.337 137.101 159.268 137.13 159.181C137.13 159.181 137.148 159.123 137.177 159.024C137.206 158.925 137.246 158.809 137.293 158.687C137.316 158.611 137.333 158.548 137.351 158.495C137.368 158.443 137.385 158.391 137.397 158.35C137.281 158.391 137.136 158.449 136.968 158.507C136.799 158.571 136.62 158.635 136.44 158.704C136.254 158.774 136.074 158.844 135.9 158.908C135.854 158.925 135.802 158.919 135.755 158.896C135.703 158.873 135.668 158.832 135.645 158.78C135.627 158.733 135.633 158.681 135.656 158.635C135.68 158.582 135.72 158.548 135.773 158.524C135.97 158.455 136.167 158.385 136.376 158.304C136.585 158.222 136.776 158.158 136.956 158.089C137.136 158.019 137.333 157.943 137.559 157.856C137.583 157.856 137.6 157.851 137.623 157.845C137.646 157.845 137.664 157.845 137.681 157.856C137.739 157.868 137.786 157.897 137.809 157.961C137.832 157.996 137.838 158.042 137.838 158.094C137.838 158.147 137.826 158.228 137.803 158.327C137.792 158.385 137.774 158.443 137.757 158.513C137.739 158.582 137.71 158.658 137.681 158.745C137.681 158.762 137.67 158.78 137.67 158.791C137.67 158.803 137.658 158.82 137.658 158.838C137.832 158.745 138.047 158.64 138.296 158.536C138.343 158.513 138.395 158.513 138.441 158.536C138.494 158.553 138.523 158.588 138.54 158.635C138.563 158.681 138.569 158.733 138.546 158.786C138.523 158.838 138.488 158.873 138.441 158.896C138.244 158.983 138.07 159.064 137.919 159.146C137.768 159.227 137.594 159.308 137.414 159.407C137.385 159.43 137.356 159.442 137.316 159.442Z" fill="#1E2675"/>
<path d="M139.851 159.442C139.799 159.442 139.758 159.425 139.724 159.396C139.654 159.337 139.637 159.268 139.666 159.181C139.666 159.181 139.683 159.123 139.712 159.024C139.741 158.925 139.782 158.809 139.828 158.687C139.851 158.611 139.869 158.548 139.886 158.495C139.904 158.443 139.921 158.391 139.933 158.35C139.816 158.391 139.671 158.449 139.503 158.507C139.335 158.571 139.155 158.635 138.975 158.704C138.79 158.774 138.61 158.844 138.436 158.908C138.389 158.925 138.337 158.919 138.291 158.896C138.238 158.873 138.204 158.832 138.18 158.78C138.163 158.733 138.169 158.681 138.192 158.635C138.215 158.582 138.256 158.548 138.308 158.524C138.505 158.455 138.703 158.385 138.911 158.304C139.12 158.222 139.312 158.158 139.492 158.089C139.671 158.019 139.869 157.943 140.095 157.856C140.118 157.856 140.136 157.851 140.159 157.845C140.182 157.845 140.199 157.845 140.217 157.856C140.275 157.868 140.321 157.897 140.344 157.961C140.368 157.996 140.373 158.042 140.373 158.094C140.373 158.147 140.362 158.228 140.339 158.327C140.327 158.385 140.31 158.443 140.292 158.513C140.275 158.582 140.246 158.658 140.217 158.745C140.217 158.762 140.205 158.78 140.205 158.791C140.205 158.803 140.194 158.82 140.194 158.838C140.368 158.745 140.582 158.64 140.832 158.536C140.878 158.513 140.93 158.513 140.977 158.536C141.029 158.553 141.058 158.588 141.075 158.635C141.099 158.681 141.104 158.733 141.081 158.786C141.058 158.838 141.023 158.873 140.977 158.896C140.78 158.983 140.606 159.064 140.455 159.146C140.304 159.227 140.13 159.308 139.95 159.407C139.921 159.43 139.892 159.442 139.851 159.442Z" fill="#1E2675"/>
<path d="M142.381 159.442C142.329 159.442 142.288 159.425 142.253 159.396C142.183 159.337 142.166 159.268 142.195 159.181C142.195 159.181 142.212 159.123 142.241 159.024C142.27 158.925 142.311 158.809 142.358 158.687C142.381 158.611 142.398 158.548 142.416 158.495C142.433 158.443 142.45 158.391 142.462 158.35C142.346 158.391 142.201 158.449 142.033 158.507C141.864 158.571 141.685 158.635 141.505 158.704C141.319 158.774 141.139 158.844 140.965 158.908C140.919 158.925 140.866 158.919 140.82 158.896C140.768 158.873 140.733 158.832 140.71 158.78C140.692 158.733 140.698 158.681 140.721 158.635C140.745 158.582 140.785 158.548 140.837 158.524C141.035 158.455 141.232 158.385 141.441 158.304C141.65 158.222 141.841 158.158 142.021 158.089C142.201 158.019 142.398 157.943 142.624 157.856C142.648 157.856 142.665 157.851 142.688 157.845C142.711 157.845 142.729 157.845 142.746 157.856C142.804 157.868 142.851 157.897 142.874 157.961C142.897 157.996 142.903 158.042 142.903 158.094C142.903 158.147 142.891 158.228 142.868 158.327C142.856 158.385 142.839 158.443 142.822 158.513C142.804 158.582 142.775 158.658 142.746 158.745C142.746 158.762 142.735 158.78 142.735 158.791C142.735 158.803 142.723 158.82 142.723 158.838C142.897 158.745 143.112 158.64 143.361 158.536C143.408 158.513 143.46 158.513 143.506 158.536C143.558 158.553 143.587 158.588 143.605 158.635C143.628 158.681 143.634 158.733 143.611 158.786C143.587 158.838 143.553 158.873 143.506 158.896C143.309 158.983 143.135 159.064 142.984 159.146C142.833 159.227 142.659 159.308 142.479 159.407C142.45 159.43 142.421 159.442 142.381 159.442Z" fill="#1E2675"/>
<path d="M145.717 159.378C145.688 159.378 145.659 159.378 145.63 159.366C145.548 159.349 145.49 159.297 145.456 159.215C145.432 159.14 145.438 159.058 145.479 158.966C145.519 158.873 145.577 158.774 145.647 158.658C145.676 158.617 145.699 158.576 145.723 158.536C145.746 158.495 145.769 158.454 145.786 158.42C145.792 158.408 145.804 158.396 145.804 158.385C145.804 158.373 145.815 158.362 145.815 158.356C145.688 158.332 145.537 158.327 145.363 158.338C145.189 158.35 144.997 158.385 144.788 158.437C144.603 158.483 144.4 158.547 144.185 158.623C143.97 158.698 143.744 158.791 143.506 158.896C143.46 158.913 143.413 158.913 143.361 158.896C143.315 158.878 143.28 158.844 143.257 158.797C143.234 158.751 143.228 158.698 143.251 158.646C143.274 158.594 143.309 158.553 143.355 158.536C143.599 158.425 143.831 158.332 144.057 158.251C144.284 158.17 144.493 158.106 144.69 158.059C145.224 157.926 145.659 157.903 146.001 157.996C146.1 158.025 146.169 158.083 146.21 158.176C146.25 158.274 146.239 158.379 146.181 158.495C146.123 158.611 146.059 158.733 145.978 158.861C145.978 158.873 145.966 158.878 145.96 158.896C145.949 158.907 145.943 158.925 145.931 158.942C146.03 158.919 146.181 158.878 146.372 158.815C146.564 158.751 146.836 158.652 147.179 158.53C147.225 158.513 147.277 158.518 147.324 158.542C147.376 158.565 147.405 158.605 147.422 158.658C147.446 158.704 147.446 158.756 147.422 158.803C147.399 158.855 147.364 158.89 147.306 158.913C147.109 158.983 146.923 159.047 146.761 159.105C146.599 159.163 146.448 159.21 146.32 159.25C146.146 159.302 146.013 159.337 145.92 159.361C145.827 159.378 145.757 159.39 145.711 159.39L145.717 159.378Z" fill="#1E2675"/>
<path d="M152.719 159.378C152.69 159.378 152.661 159.378 152.632 159.366C152.551 159.349 152.493 159.297 152.458 159.215C152.435 159.14 152.441 159.058 152.482 158.966C152.522 158.873 152.58 158.774 152.65 158.658C152.679 158.617 152.702 158.576 152.725 158.536C152.748 158.495 152.772 158.454 152.789 158.42C152.795 158.408 152.806 158.396 152.806 158.385C152.806 158.373 152.818 158.362 152.818 158.356C152.69 158.332 152.54 158.327 152.366 158.338C152.191 158.35 152 158.385 151.791 158.437C151.605 158.483 151.402 158.547 151.188 158.623C150.973 158.698 150.747 158.791 150.509 158.896C150.463 158.913 150.416 158.913 150.364 158.896C150.317 158.878 150.283 158.844 150.259 158.797C150.236 158.751 150.23 158.698 150.254 158.646C150.277 158.594 150.312 158.553 150.358 158.536C150.602 158.425 150.834 158.332 151.06 158.251C151.286 158.17 151.495 158.106 151.692 158.059C152.226 157.926 152.661 157.903 153.004 157.996C153.102 158.025 153.172 158.083 153.213 158.176C153.253 158.274 153.242 158.379 153.184 158.495C153.126 158.611 153.062 158.733 152.98 158.861C152.98 158.873 152.969 158.878 152.963 158.896C152.951 158.907 152.946 158.925 152.934 158.942C153.033 158.919 153.184 158.878 153.375 158.815C153.566 158.751 153.839 158.652 154.181 158.53C154.228 158.513 154.28 158.518 154.326 158.542C154.379 158.565 154.408 158.605 154.425 158.658C154.448 158.704 154.448 158.756 154.425 158.803C154.402 158.855 154.367 158.89 154.309 158.913C154.112 158.983 153.926 159.047 153.764 159.105C153.601 159.163 153.45 159.21 153.323 159.25C153.149 159.302 153.015 159.337 152.922 159.361C152.83 159.378 152.76 159.39 152.714 159.39L152.719 159.378Z" fill="#1E2675"/>
<path d="M155.139 159.25C155.139 159.25 155.098 159.25 155.087 159.244C155.017 159.227 154.971 159.198 154.942 159.163C154.913 159.128 154.895 159.099 154.884 159.076C154.855 158.983 154.866 158.878 154.918 158.78C154.971 158.675 155.04 158.571 155.121 158.454C155.15 158.42 155.174 158.379 155.197 158.338C155.22 158.298 155.243 158.263 155.261 158.228C155.261 158.228 155.272 158.216 155.278 158.199C155.249 158.21 155.22 158.222 155.185 158.239C155.15 158.257 155.104 158.28 155.058 158.315C154.982 158.361 154.895 158.425 154.808 158.501C154.721 158.576 154.634 158.658 154.541 158.739C154.518 158.756 154.495 158.774 154.472 158.797C154.448 158.82 154.425 158.838 154.402 158.861C154.361 158.896 154.315 158.913 154.263 158.907C154.211 158.907 154.164 158.884 154.129 158.838C154.089 158.797 154.071 158.751 154.077 158.698C154.083 158.646 154.106 158.6 154.141 158.565C154.164 158.542 154.187 158.524 154.211 158.501C154.234 158.478 154.257 158.46 154.28 158.443C154.419 158.315 154.559 158.199 154.692 158.094C154.826 157.99 154.959 157.908 155.087 157.85C155.214 157.792 155.342 157.781 155.464 157.816C155.539 157.833 155.591 157.862 155.626 157.903C155.661 157.943 155.678 157.978 155.684 158.013C155.725 158.112 155.713 158.21 155.661 158.315C155.603 158.42 155.533 158.536 155.446 158.663C155.441 158.675 155.429 158.687 155.417 158.704C155.406 158.722 155.394 158.745 155.383 158.762C155.446 158.733 155.533 158.704 155.638 158.663C155.742 158.623 155.87 158.576 156.015 158.518C156.073 158.501 156.125 158.507 156.172 158.53C156.218 158.553 156.253 158.594 156.27 158.646C156.293 158.693 156.293 158.745 156.27 158.791C156.247 158.844 156.212 158.878 156.16 158.902C156.021 158.948 155.893 158.995 155.783 159.029C155.673 159.07 155.574 159.105 155.499 159.134C155.458 159.151 155.417 159.163 155.383 159.175C155.348 159.186 155.319 159.198 155.296 159.204C155.267 159.215 155.237 159.221 155.22 159.227C155.197 159.233 155.179 159.239 155.156 159.239L155.139 159.25Z" fill="#1E2675"/>
<path d="M158.347 159.378C158.318 159.378 158.289 159.378 158.26 159.366C158.179 159.349 158.121 159.297 158.086 159.215C158.063 159.14 158.069 159.058 158.109 158.966C158.15 158.873 158.208 158.774 158.278 158.658C158.307 158.617 158.33 158.576 158.353 158.536C158.376 158.495 158.399 158.454 158.417 158.42C158.423 158.408 158.434 158.396 158.434 158.385C158.434 158.373 158.446 158.362 158.446 158.356C158.318 158.332 158.167 158.327 157.993 158.338C157.819 158.35 157.628 158.385 157.419 158.437C157.233 158.483 157.03 158.547 156.816 158.623C156.601 158.698 156.375 158.791 156.137 158.896C156.09 158.913 156.044 158.913 155.992 158.896C155.945 158.878 155.91 158.844 155.887 158.797C155.864 158.751 155.858 158.698 155.881 158.646C155.905 158.594 155.939 158.553 155.986 158.536C156.23 158.425 156.462 158.332 156.688 158.251C156.914 158.17 157.123 158.106 157.32 158.059C157.854 157.926 158.289 157.903 158.632 157.996C158.73 158.025 158.8 158.083 158.84 158.176C158.881 158.274 158.869 158.379 158.811 158.495C158.753 158.611 158.69 158.733 158.608 158.861C158.608 158.873 158.597 158.878 158.591 158.896C158.579 158.907 158.573 158.925 158.562 158.942C158.661 158.919 158.811 158.878 159.003 158.815C159.194 158.751 159.467 158.652 159.809 158.53C159.856 158.513 159.908 158.518 159.954 158.542C160.007 158.565 160.036 158.605 160.053 158.658C160.076 158.704 160.076 158.756 160.053 158.803C160.03 158.855 159.995 158.89 159.937 158.913C159.74 158.983 159.554 159.047 159.392 159.105C159.229 159.163 159.078 159.21 158.951 159.25C158.777 159.302 158.643 159.337 158.55 159.361C158.457 159.378 158.388 159.39 158.341 159.39L158.347 159.378Z" fill="#1E2675"/>
<path d="M100.858 164.89C100.829 164.89 100.794 164.89 100.765 164.878C100.736 164.873 100.701 164.867 100.672 164.861C100.597 164.838 100.539 164.791 100.51 164.722C100.469 164.635 100.469 164.53 100.51 164.408C100.55 164.286 100.62 164.123 100.713 163.932C100.73 163.897 100.747 163.856 100.771 163.816C100.794 163.775 100.811 163.728 100.829 163.694C100.771 163.717 100.713 163.752 100.649 163.804C100.585 163.856 100.521 163.903 100.457 163.955C100.417 163.984 100.364 163.996 100.312 163.99C100.26 163.984 100.214 163.961 100.179 163.92C100.15 163.879 100.138 163.827 100.144 163.775C100.15 163.723 100.173 163.676 100.214 163.636C100.272 163.595 100.341 163.543 100.405 163.49C100.475 163.438 100.539 163.397 100.608 163.363C100.788 163.27 100.95 163.246 101.096 163.293C101.165 163.304 101.217 163.351 101.252 163.421C101.287 163.49 101.287 163.577 101.252 163.682C101.217 163.787 101.154 163.926 101.067 164.106C101.043 164.158 101.02 164.211 100.997 164.263C100.974 164.315 100.95 164.367 100.927 164.414C100.927 164.431 100.916 164.449 100.91 164.46C100.904 164.472 100.898 164.484 100.892 164.501C100.985 164.489 101.119 164.443 101.293 164.362C101.467 164.28 101.705 164.123 102.006 163.879C102.169 163.752 102.314 163.63 102.442 163.514C102.569 163.397 102.714 163.258 102.871 163.101C102.923 163.043 102.987 163.02 103.062 163.043C103.097 163.043 103.126 163.061 103.149 163.084C103.173 163.107 103.19 163.13 103.202 163.153C103.231 163.212 103.236 163.287 103.213 163.363C103.19 163.444 103.138 163.572 103.068 163.752C103.039 163.81 103.016 163.862 102.993 163.92C102.969 163.978 102.946 164.03 102.923 164.077C102.923 164.094 102.917 164.106 102.911 164.118C102.906 164.129 102.911 164.141 102.9 164.147C102.981 164.135 103.068 164.1 103.161 164.036C103.254 163.978 103.347 163.909 103.434 163.839C103.521 163.769 103.596 163.699 103.66 163.647C103.7 163.606 103.753 163.589 103.805 163.595C103.857 163.595 103.904 163.618 103.944 163.659C103.979 163.699 103.996 163.752 103.991 163.804C103.991 163.856 103.967 163.903 103.921 163.943C103.788 164.06 103.648 164.17 103.509 164.274C103.37 164.379 103.225 164.454 103.086 164.507C102.946 164.559 102.801 164.565 102.656 164.53C102.587 164.501 102.534 164.454 102.505 164.402C102.482 164.344 102.471 164.274 102.482 164.199C102.494 164.123 102.517 164.036 102.558 163.926C102.511 163.967 102.459 164.013 102.413 164.048C102.36 164.089 102.308 164.129 102.25 164.176C101.652 164.652 101.183 164.884 100.852 164.884L100.858 164.89Z" fill="#1E2675"/>
<path d="M105.29 164.518C105.238 164.518 105.197 164.501 105.163 164.472C105.093 164.414 105.076 164.344 105.105 164.257C105.105 164.257 105.122 164.199 105.151 164.1C105.18 164.001 105.221 163.885 105.267 163.763C105.29 163.688 105.308 163.624 105.325 163.571C105.342 163.519 105.36 163.467 105.372 163.426C105.255 163.467 105.11 163.525 104.942 163.583C104.774 163.647 104.594 163.711 104.414 163.781C104.229 163.85 104.049 163.92 103.875 163.984C103.828 164.001 103.776 163.995 103.73 163.972C103.677 163.949 103.643 163.908 103.619 163.856C103.602 163.81 103.608 163.757 103.631 163.711C103.654 163.659 103.695 163.624 103.747 163.6C103.944 163.531 104.142 163.461 104.35 163.38C104.559 163.298 104.751 163.235 104.931 163.165C105.11 163.095 105.308 163.02 105.534 162.933C105.557 162.933 105.575 162.927 105.598 162.921C105.621 162.921 105.638 162.921 105.656 162.933C105.714 162.944 105.76 162.973 105.783 163.037C105.807 163.072 105.812 163.118 105.812 163.171C105.812 163.223 105.801 163.304 105.778 163.403C105.766 163.461 105.749 163.519 105.731 163.589C105.714 163.659 105.685 163.734 105.656 163.821C105.656 163.839 105.644 163.856 105.644 163.868C105.644 163.879 105.633 163.897 105.633 163.914C105.807 163.821 106.021 163.717 106.271 163.612C106.317 163.589 106.369 163.589 106.416 163.612C106.468 163.629 106.497 163.664 106.514 163.711C106.538 163.757 106.543 163.81 106.52 163.862C106.497 163.914 106.462 163.949 106.416 163.972C106.219 164.059 106.045 164.141 105.894 164.222C105.743 164.303 105.569 164.385 105.389 164.483C105.36 164.507 105.331 164.518 105.29 164.518Z" fill="#1E2675"/>
<path d="M106.857 164.89C106.828 164.89 106.793 164.89 106.764 164.878C106.735 164.873 106.7 164.867 106.671 164.861C106.596 164.838 106.538 164.791 106.509 164.722C106.468 164.635 106.468 164.53 106.509 164.408C106.549 164.286 106.619 164.123 106.712 163.932C106.729 163.897 106.746 163.856 106.77 163.816C106.793 163.775 106.81 163.728 106.828 163.694C106.77 163.717 106.712 163.752 106.648 163.804C106.584 163.856 106.52 163.903 106.456 163.955C106.416 163.984 106.364 163.996 106.311 163.99C106.259 163.984 106.213 163.961 106.178 163.92C106.149 163.879 106.137 163.827 106.143 163.775C106.149 163.723 106.172 163.676 106.213 163.636C106.271 163.595 106.34 163.543 106.404 163.49C106.474 163.438 106.538 163.397 106.607 163.363C106.787 163.27 106.949 163.246 107.095 163.293C107.164 163.304 107.216 163.351 107.251 163.421C107.286 163.49 107.286 163.577 107.251 163.682C107.216 163.787 107.153 163.926 107.066 164.106C107.042 164.158 107.019 164.211 106.996 164.263C106.973 164.315 106.949 164.367 106.926 164.414C106.926 164.431 106.915 164.449 106.909 164.46C106.903 164.472 106.897 164.484 106.891 164.501C106.984 164.489 107.118 164.443 107.292 164.362C107.466 164.28 107.704 164.123 108.005 163.879C108.168 163.752 108.313 163.63 108.441 163.514C108.568 163.397 108.713 163.258 108.87 163.101C108.922 163.043 108.986 163.02 109.061 163.043C109.096 163.043 109.125 163.061 109.148 163.084C109.172 163.107 109.189 163.13 109.201 163.153C109.23 163.212 109.235 163.287 109.212 163.363C109.189 163.444 109.137 163.572 109.067 163.752C109.038 163.81 109.015 163.862 108.992 163.92C108.969 163.978 108.945 164.03 108.922 164.077C108.922 164.094 108.916 164.106 108.91 164.118C108.905 164.129 108.91 164.141 108.899 164.147C108.98 164.135 109.067 164.1 109.16 164.036C109.253 163.978 109.346 163.909 109.433 163.839C109.52 163.769 109.595 163.699 109.659 163.647C109.7 163.606 109.752 163.589 109.804 163.595C109.856 163.595 109.903 163.618 109.943 163.659C109.978 163.699 109.995 163.752 109.99 163.804C109.99 163.856 109.966 163.903 109.92 163.943C109.787 164.06 109.647 164.17 109.508 164.274C109.369 164.379 109.224 164.454 109.085 164.507C108.945 164.559 108.8 164.565 108.655 164.53C108.586 164.501 108.533 164.454 108.504 164.402C108.481 164.344 108.47 164.274 108.481 164.199C108.493 164.123 108.516 164.036 108.557 163.926C108.51 163.967 108.458 164.013 108.412 164.048C108.359 164.089 108.307 164.129 108.249 164.176C107.652 164.652 107.182 164.884 106.851 164.884L106.857 164.89Z" fill="#1E2675"/>
<path d="M112.09 164.449C112.061 164.449 112.032 164.449 112.003 164.438C111.922 164.42 111.864 164.368 111.829 164.287C111.806 164.211 111.811 164.13 111.852 164.037C111.893 163.944 111.951 163.845 112.02 163.729C112.049 163.688 112.072 163.648 112.096 163.607C112.119 163.566 112.142 163.526 112.16 163.491C112.165 163.479 112.177 163.468 112.177 163.456C112.177 163.444 112.189 163.433 112.189 163.427C112.061 163.404 111.91 163.398 111.736 163.41C111.562 163.421 111.37 163.456 111.162 163.508C110.976 163.555 110.773 163.619 110.558 163.694C110.344 163.77 110.117 163.863 109.879 163.967C109.833 163.985 109.787 163.985 109.734 163.967C109.688 163.95 109.653 163.915 109.63 163.868C109.607 163.822 109.601 163.77 109.624 163.717C109.647 163.665 109.682 163.624 109.729 163.607C109.972 163.497 110.204 163.404 110.431 163.322C110.657 163.241 110.866 163.177 111.063 163.131C111.597 162.997 112.032 162.974 112.374 163.067C112.473 163.096 112.542 163.154 112.583 163.247C112.624 163.346 112.612 163.45 112.554 163.566C112.496 163.683 112.432 163.805 112.351 163.932C112.351 163.944 112.339 163.95 112.334 163.967C112.322 163.979 112.316 163.996 112.305 164.014C112.403 163.99 112.554 163.95 112.745 163.886C112.937 163.822 113.21 163.723 113.552 163.601C113.598 163.584 113.651 163.59 113.697 163.613C113.749 163.636 113.778 163.677 113.796 163.729C113.819 163.775 113.819 163.828 113.796 163.874C113.772 163.926 113.738 163.961 113.68 163.985C113.482 164.054 113.297 164.118 113.134 164.176C112.972 164.234 112.821 164.281 112.693 164.321C112.519 164.374 112.386 164.409 112.293 164.432C112.2 164.449 112.131 164.461 112.084 164.461L112.09 164.449Z" fill="#1E2675"/>
<path d="M115.124 164.518C115.072 164.518 115.031 164.501 114.997 164.472C114.927 164.414 114.909 164.344 114.938 164.257C114.938 164.257 114.956 164.199 114.985 164.1C115.014 164.001 115.055 163.885 115.101 163.763C115.124 163.688 115.142 163.624 115.159 163.571C115.176 163.519 115.194 163.467 115.205 163.426C115.089 163.467 114.944 163.525 114.776 163.583C114.608 163.647 114.428 163.711 114.248 163.781C114.062 163.85 113.883 163.92 113.709 163.984C113.662 164.001 113.61 163.995 113.563 163.972C113.511 163.949 113.476 163.908 113.453 163.856C113.436 163.81 113.442 163.757 113.465 163.711C113.488 163.659 113.529 163.624 113.581 163.6C113.778 163.531 113.975 163.461 114.184 163.38C114.393 163.298 114.585 163.235 114.764 163.165C114.944 163.095 115.142 163.02 115.368 162.933C115.391 162.933 115.408 162.927 115.432 162.921C115.455 162.921 115.472 162.921 115.49 162.933C115.548 162.944 115.594 162.973 115.617 163.037C115.641 163.072 115.646 163.118 115.646 163.171C115.646 163.223 115.635 163.304 115.611 163.403C115.6 163.461 115.582 163.519 115.565 163.589C115.548 163.659 115.519 163.734 115.49 163.821C115.49 163.839 115.478 163.856 115.478 163.868C115.478 163.879 115.466 163.897 115.466 163.914C115.64 163.821 115.855 163.717 116.105 163.612C116.151 163.589 116.203 163.589 116.25 163.612C116.302 163.629 116.331 163.664 116.348 163.711C116.372 163.757 116.377 163.81 116.354 163.862C116.331 163.914 116.296 163.949 116.25 163.972C116.052 164.059 115.878 164.141 115.728 164.222C115.577 164.303 115.403 164.385 115.223 164.483C115.194 164.507 115.165 164.518 115.124 164.518Z" fill="#1E2675"/>
<path d="M119.858 164.89C119.829 164.89 119.795 164.89 119.766 164.878C119.737 164.873 119.702 164.867 119.673 164.861C119.597 164.838 119.539 164.791 119.51 164.722C119.47 164.635 119.47 164.53 119.51 164.408C119.551 164.286 119.621 164.123 119.713 163.932C119.731 163.897 119.748 163.856 119.771 163.816C119.795 163.775 119.812 163.728 119.829 163.694C119.771 163.717 119.713 163.752 119.65 163.804C119.586 163.856 119.522 163.903 119.458 163.955C119.417 163.984 119.365 163.996 119.313 163.99C119.261 163.984 119.214 163.961 119.18 163.92C119.151 163.879 119.139 163.827 119.145 163.775C119.151 163.723 119.174 163.676 119.214 163.636C119.272 163.595 119.342 163.543 119.406 163.49C119.475 163.438 119.539 163.397 119.609 163.363C119.789 163.27 119.951 163.246 120.096 163.293C120.166 163.304 120.218 163.351 120.253 163.421C120.288 163.49 120.288 163.577 120.253 163.682C120.218 163.787 120.154 163.926 120.067 164.106C120.044 164.158 120.021 164.211 119.998 164.263C119.974 164.315 119.951 164.367 119.928 164.414C119.928 164.431 119.916 164.449 119.911 164.46C119.905 164.472 119.899 164.484 119.893 164.501C119.986 164.489 120.119 164.443 120.294 164.362C120.468 164.28 120.705 164.123 121.007 163.879C121.17 163.752 121.315 163.63 121.442 163.514C121.57 163.397 121.715 163.258 121.872 163.101C121.924 163.043 121.988 163.02 122.063 163.043C122.098 163.043 122.127 163.061 122.15 163.084C122.173 163.107 122.191 163.13 122.202 163.153C122.231 163.212 122.237 163.287 122.214 163.363C122.191 163.444 122.138 163.572 122.069 163.752C122.04 163.81 122.017 163.862 121.993 163.92C121.97 163.978 121.947 164.03 121.924 164.077C121.924 164.094 121.918 164.106 121.912 164.118C121.906 164.129 121.912 164.141 121.901 164.147C121.982 164.135 122.069 164.1 122.162 164.036C122.254 163.978 122.347 163.909 122.434 163.839C122.521 163.769 122.597 163.699 122.661 163.647C122.701 163.606 122.753 163.589 122.806 163.595C122.858 163.595 122.904 163.618 122.945 163.659C122.98 163.699 122.997 163.752 122.991 163.804C122.991 163.856 122.968 163.903 122.922 163.943C122.788 164.06 122.649 164.17 122.51 164.274C122.371 164.379 122.225 164.454 122.086 164.507C121.947 164.559 121.802 164.565 121.657 164.53C121.587 164.501 121.535 164.454 121.506 164.402C121.483 164.344 121.471 164.274 121.483 164.199C121.494 164.123 121.518 164.036 121.558 163.926C121.512 163.967 121.46 164.013 121.413 164.048C121.361 164.089 121.309 164.129 121.251 164.176C120.653 164.652 120.183 164.884 119.853 164.884L119.858 164.89Z" fill="#1E2675"/>
<path d="M124.291 164.518C124.239 164.518 124.198 164.501 124.163 164.472C124.094 164.414 124.076 164.344 124.105 164.257C124.105 164.257 124.123 164.199 124.152 164.1C124.181 164.001 124.221 163.885 124.268 163.763C124.291 163.688 124.308 163.624 124.326 163.571C124.343 163.519 124.361 163.467 124.372 163.426C124.256 163.467 124.111 163.525 123.943 163.583C123.775 163.647 123.595 163.711 123.415 163.781C123.229 163.85 123.049 163.92 122.875 163.984C122.829 164.001 122.777 163.995 122.73 163.972C122.678 163.949 122.643 163.908 122.62 163.856C122.603 163.81 122.608 163.757 122.632 163.711C122.655 163.659 122.695 163.624 122.748 163.6C122.945 163.531 123.142 163.461 123.351 163.38C123.56 163.298 123.751 163.235 123.931 163.165C124.111 163.095 124.308 163.02 124.535 162.933C124.558 162.933 124.575 162.927 124.598 162.921C124.622 162.921 124.639 162.921 124.656 162.933C124.714 162.944 124.761 162.973 124.784 163.037C124.807 163.072 124.813 163.118 124.813 163.171C124.813 163.223 124.801 163.304 124.778 163.403C124.767 163.461 124.749 163.519 124.732 163.589C124.714 163.659 124.685 163.734 124.656 163.821C124.656 163.839 124.645 163.856 124.645 163.868C124.645 163.879 124.633 163.897 124.633 163.914C124.807 163.821 125.022 163.717 125.271 163.612C125.318 163.589 125.37 163.589 125.416 163.612C125.469 163.629 125.498 163.664 125.515 163.711C125.538 163.757 125.544 163.81 125.521 163.862C125.498 163.914 125.463 163.949 125.416 163.972C125.219 164.059 125.045 164.141 124.894 164.222C124.743 164.303 124.569 164.385 124.39 164.483C124.361 164.507 124.332 164.518 124.291 164.518Z" fill="#1E2675"/>
<path d="M126.821 164.518C126.768 164.518 126.728 164.501 126.693 164.472C126.623 164.414 126.606 164.344 126.635 164.257C126.635 164.257 126.652 164.199 126.681 164.1C126.71 164.001 126.751 163.885 126.797 163.763C126.821 163.688 126.838 163.624 126.855 163.571C126.873 163.519 126.89 163.467 126.902 163.426C126.786 163.467 126.641 163.525 126.472 163.583C126.304 163.647 126.124 163.711 125.944 163.781C125.759 163.85 125.579 163.92 125.405 163.984C125.359 164.001 125.306 163.995 125.26 163.972C125.208 163.949 125.173 163.908 125.15 163.856C125.132 163.81 125.138 163.757 125.161 163.711C125.184 163.659 125.225 163.624 125.277 163.6C125.475 163.531 125.672 163.461 125.881 163.38C126.09 163.298 126.281 163.235 126.461 163.165C126.641 163.095 126.838 163.02 127.064 162.933C127.087 162.933 127.105 162.927 127.128 162.921C127.151 162.921 127.169 162.921 127.186 162.933C127.244 162.944 127.29 162.973 127.314 163.037C127.337 163.072 127.343 163.118 127.343 163.171C127.343 163.223 127.331 163.304 127.308 163.403C127.296 163.461 127.279 163.519 127.261 163.589C127.244 163.659 127.215 163.734 127.186 163.821C127.186 163.839 127.174 163.856 127.174 163.868C127.174 163.879 127.163 163.897 127.163 163.914C127.337 163.821 127.552 163.717 127.801 163.612C127.847 163.589 127.9 163.589 127.946 163.612C127.998 163.629 128.027 163.664 128.045 163.711C128.068 163.757 128.074 163.81 128.051 163.862C128.027 163.914 127.993 163.949 127.946 163.972C127.749 164.059 127.575 164.141 127.424 164.222C127.273 164.303 127.099 164.385 126.919 164.483C126.89 164.507 126.861 164.518 126.821 164.518Z" fill="#1E2675"/>
<path d="M130.157 164.449C130.128 164.449 130.099 164.449 130.07 164.438C129.988 164.42 129.93 164.368 129.895 164.287C129.872 164.211 129.878 164.13 129.919 164.037C129.959 163.944 130.017 163.845 130.087 163.729C130.116 163.688 130.139 163.648 130.162 163.607C130.186 163.566 130.209 163.526 130.226 163.491C130.232 163.479 130.244 163.468 130.244 163.456C130.244 163.444 130.255 163.433 130.255 163.427C130.128 163.404 129.977 163.398 129.803 163.41C129.629 163.421 129.437 163.456 129.228 163.508C129.043 163.555 128.84 163.619 128.625 163.694C128.41 163.77 128.184 163.863 127.946 163.967C127.9 163.985 127.853 163.985 127.801 163.967C127.755 163.95 127.72 163.915 127.697 163.868C127.673 163.822 127.668 163.77 127.691 163.717C127.714 163.665 127.749 163.624 127.795 163.607C128.039 163.497 128.271 163.404 128.497 163.322C128.724 163.241 128.932 163.177 129.13 163.131C129.663 162.997 130.099 162.974 130.441 163.067C130.539 163.096 130.609 163.154 130.65 163.247C130.69 163.346 130.679 163.45 130.621 163.566C130.563 163.683 130.499 163.805 130.418 163.932C130.418 163.944 130.406 163.95 130.4 163.967C130.389 163.979 130.383 163.996 130.371 164.014C130.47 163.99 130.621 163.95 130.812 163.886C131.004 163.822 131.276 163.723 131.619 163.601C131.665 163.584 131.717 163.59 131.764 163.613C131.816 163.636 131.845 163.677 131.862 163.729C131.885 163.775 131.885 163.828 131.862 163.874C131.839 163.926 131.804 163.961 131.746 163.985C131.549 164.054 131.363 164.118 131.201 164.176C131.038 164.234 130.888 164.281 130.76 164.321C130.586 164.374 130.452 164.409 130.36 164.432C130.267 164.449 130.197 164.461 130.151 164.461L130.157 164.449Z" fill="#1E2675"/>
<path d="M132.228 164.89C132.199 164.89 132.164 164.89 132.135 164.878C132.106 164.873 132.071 164.867 132.042 164.861C131.967 164.838 131.909 164.791 131.88 164.722C131.839 164.635 131.839 164.53 131.88 164.408C131.92 164.286 131.99 164.123 132.083 163.932C132.1 163.897 132.117 163.856 132.141 163.816C132.164 163.775 132.181 163.728 132.199 163.694C132.141 163.717 132.083 163.752 132.019 163.804C131.955 163.856 131.891 163.903 131.827 163.955C131.787 163.984 131.734 163.996 131.682 163.99C131.63 163.984 131.584 163.961 131.549 163.92C131.52 163.879 131.508 163.827 131.514 163.775C131.52 163.723 131.543 163.676 131.584 163.636C131.642 163.595 131.711 163.543 131.775 163.49C131.845 163.438 131.909 163.397 131.978 163.363C132.158 163.27 132.32 163.246 132.466 163.293C132.535 163.304 132.587 163.351 132.622 163.421C132.657 163.49 132.657 163.577 132.622 163.682C132.587 163.787 132.524 163.926 132.436 164.106C132.413 164.158 132.39 164.211 132.367 164.263C132.344 164.315 132.32 164.367 132.297 164.414C132.297 164.431 132.286 164.449 132.28 164.46C132.274 164.472 132.268 164.484 132.262 164.501C132.355 164.489 132.489 164.443 132.663 164.362C132.837 164.28 133.075 164.123 133.376 163.879C133.539 163.752 133.684 163.63 133.812 163.514C133.939 163.397 134.084 163.258 134.241 163.101C134.293 163.043 134.357 163.02 134.432 163.043C134.467 163.043 134.496 163.061 134.519 163.084C134.543 163.107 134.56 163.13 134.572 163.153C134.601 163.212 134.606 163.287 134.583 163.363C134.56 163.444 134.508 163.572 134.438 163.752C134.409 163.81 134.386 163.862 134.363 163.92C134.339 163.978 134.316 164.03 134.293 164.077C134.293 164.094 134.287 164.106 134.281 164.118C134.276 164.129 134.281 164.141 134.27 164.147C134.351 164.135 134.438 164.1 134.531 164.036C134.624 163.978 134.717 163.909 134.804 163.839C134.891 163.769 134.966 163.699 135.03 163.647C135.07 163.606 135.123 163.589 135.175 163.595C135.227 163.595 135.274 163.618 135.314 163.659C135.349 163.699 135.366 163.752 135.361 163.804C135.361 163.856 135.337 163.903 135.291 163.943C135.158 164.06 135.018 164.17 134.879 164.274C134.74 164.379 134.595 164.454 134.456 164.507C134.316 164.559 134.171 164.565 134.026 164.53C133.957 164.501 133.904 164.454 133.875 164.402C133.852 164.344 133.841 164.274 133.852 164.199C133.864 164.123 133.887 164.036 133.928 163.926C133.881 163.967 133.829 164.013 133.783 164.048C133.73 164.089 133.678 164.129 133.62 164.176C133.022 164.652 132.553 164.884 132.222 164.884L132.228 164.89Z" fill="#1E2675"/>
<path d="M135.697 164.89C135.668 164.89 135.633 164.89 135.604 164.878C135.575 164.873 135.54 164.867 135.511 164.861C135.436 164.838 135.378 164.791 135.349 164.722C135.308 164.635 135.308 164.53 135.349 164.408C135.39 164.286 135.459 164.123 135.552 163.932C135.569 163.897 135.587 163.856 135.61 163.816C135.633 163.775 135.651 163.728 135.668 163.694C135.61 163.717 135.552 163.752 135.488 163.804C135.424 163.856 135.361 163.903 135.297 163.955C135.256 163.984 135.204 163.996 135.152 163.99C135.1 163.984 135.053 163.961 135.018 163.92C134.989 163.879 134.978 163.827 134.984 163.775C134.989 163.723 135.013 163.676 135.053 163.636C135.111 163.595 135.181 163.543 135.245 163.49C135.314 163.438 135.378 163.397 135.448 163.363C135.628 163.27 135.79 163.246 135.935 163.293C136.005 163.304 136.057 163.351 136.092 163.421C136.126 163.49 136.126 163.577 136.092 163.682C136.057 163.787 135.993 163.926 135.906 164.106C135.883 164.158 135.86 164.211 135.836 164.263C135.813 164.315 135.79 164.367 135.767 164.414C135.767 164.431 135.755 164.449 135.749 164.46C135.744 164.472 135.738 164.484 135.732 164.501C135.825 164.489 135.958 164.443 136.132 164.362C136.306 164.28 136.544 164.123 136.846 163.879C137.008 163.752 137.153 163.63 137.281 163.514C137.409 163.397 137.554 163.258 137.71 163.101C137.763 163.043 137.826 163.02 137.902 163.043C137.937 163.043 137.966 163.061 137.989 163.084C138.012 163.107 138.029 163.13 138.041 163.153C138.07 163.212 138.076 163.287 138.053 163.363C138.029 163.444 137.977 163.572 137.908 163.752C137.879 163.81 137.855 163.862 137.832 163.92C137.809 163.978 137.786 164.03 137.763 164.077C137.763 164.094 137.757 164.106 137.751 164.118C137.745 164.129 137.751 164.141 137.739 164.147C137.821 164.135 137.908 164.1 138 164.036C138.093 163.978 138.186 163.909 138.273 163.839C138.36 163.769 138.436 163.699 138.499 163.647C138.54 163.606 138.592 163.589 138.644 163.595C138.697 163.595 138.743 163.618 138.784 163.659C138.818 163.699 138.836 163.752 138.83 163.804C138.83 163.856 138.807 163.903 138.76 163.943C138.627 164.06 138.488 164.17 138.349 164.274C138.209 164.379 138.064 164.454 137.925 164.507C137.786 164.559 137.641 164.565 137.496 164.53C137.426 164.501 137.374 164.454 137.345 164.402C137.322 164.344 137.31 164.274 137.322 164.199C137.333 164.123 137.356 164.036 137.397 163.926C137.351 163.967 137.298 164.013 137.252 164.048C137.2 164.089 137.148 164.129 137.09 164.176C136.492 164.652 136.022 164.884 135.691 164.884L135.697 164.89Z" fill="#1E2675"/>
<path d="M140.924 164.449C140.895 164.449 140.866 164.449 140.837 164.438C140.756 164.42 140.698 164.368 140.663 164.287C140.64 164.211 140.646 164.13 140.687 164.037C140.727 163.944 140.785 163.845 140.855 163.729C140.884 163.688 140.907 163.648 140.93 163.607C140.953 163.566 140.977 163.526 140.994 163.491C141 163.479 141.012 163.468 141.012 163.456C141.012 163.444 141.023 163.433 141.023 163.427C140.895 163.404 140.745 163.398 140.571 163.41C140.397 163.421 140.205 163.456 139.996 163.508C139.811 163.555 139.607 163.619 139.393 163.694C139.178 163.77 138.952 163.863 138.714 163.967C138.668 163.985 138.621 163.985 138.569 163.967C138.523 163.95 138.488 163.915 138.465 163.868C138.441 163.822 138.436 163.77 138.459 163.717C138.482 163.665 138.517 163.624 138.563 163.607C138.807 163.497 139.039 163.404 139.265 163.322C139.491 163.241 139.7 163.177 139.898 163.131C140.431 162.997 140.866 162.974 141.209 163.067C141.307 163.096 141.377 163.154 141.418 163.247C141.458 163.346 141.447 163.45 141.389 163.566C141.331 163.683 141.267 163.805 141.186 163.932C141.186 163.944 141.174 163.95 141.168 163.967C141.157 163.979 141.151 163.996 141.139 164.014C141.238 163.99 141.389 163.95 141.58 163.886C141.772 163.822 142.044 163.723 142.387 163.601C142.433 163.584 142.485 163.59 142.532 163.613C142.584 163.636 142.613 163.677 142.63 163.729C142.653 163.775 142.653 163.828 142.63 163.874C142.607 163.926 142.572 163.961 142.514 163.985C142.317 164.054 142.131 164.118 141.969 164.176C141.806 164.234 141.656 164.281 141.528 164.321C141.354 164.374 141.22 164.409 141.128 164.432C141.035 164.449 140.965 164.461 140.919 164.461L140.924 164.449Z" fill="#1E2675"/>
<path d="M142.996 164.89C142.967 164.89 142.932 164.89 142.903 164.878C142.874 164.873 142.839 164.867 142.81 164.861C142.735 164.838 142.677 164.791 142.648 164.722C142.607 164.635 142.607 164.53 142.648 164.408C142.688 164.286 142.758 164.123 142.851 163.932C142.868 163.897 142.885 163.856 142.909 163.816C142.932 163.775 142.949 163.728 142.967 163.694C142.909 163.717 142.851 163.752 142.787 163.804C142.723 163.856 142.659 163.903 142.595 163.955C142.555 163.984 142.503 163.996 142.45 163.99C142.398 163.984 142.352 163.961 142.317 163.92C142.288 163.879 142.276 163.827 142.282 163.775C142.288 163.723 142.311 163.676 142.352 163.636C142.41 163.595 142.479 163.543 142.543 163.49C142.613 163.438 142.677 163.397 142.746 163.363C142.926 163.27 143.089 163.246 143.234 163.293C143.303 163.304 143.355 163.351 143.39 163.421C143.425 163.49 143.425 163.577 143.39 163.682C143.355 163.787 143.292 163.926 143.205 164.106C143.181 164.158 143.158 164.211 143.135 164.263C143.112 164.315 143.089 164.367 143.065 164.414C143.065 164.431 143.054 164.449 143.048 164.46C143.042 164.472 143.036 164.484 143.031 164.501C143.123 164.489 143.257 164.443 143.431 164.362C143.605 164.28 143.843 164.123 144.144 163.879C144.307 163.752 144.452 163.63 144.58 163.514C144.707 163.397 144.852 163.258 145.009 163.101C145.061 163.043 145.125 163.02 145.2 163.043C145.235 163.043 145.264 163.061 145.287 163.084C145.311 163.107 145.328 163.13 145.34 163.153C145.369 163.212 145.374 163.287 145.351 163.363C145.328 163.444 145.276 163.572 145.206 163.752C145.177 163.81 145.154 163.862 145.131 163.92C145.108 163.978 145.084 164.03 145.061 164.077C145.061 164.094 145.055 164.106 145.05 164.118C145.044 164.129 145.05 164.141 145.038 164.147C145.119 164.135 145.206 164.1 145.299 164.036C145.392 163.978 145.485 163.909 145.572 163.839C145.659 163.769 145.734 163.699 145.798 163.647C145.839 163.606 145.891 163.589 145.943 163.595C145.995 163.595 146.042 163.618 146.082 163.659C146.117 163.699 146.134 163.752 146.129 163.804C146.129 163.856 146.105 163.903 146.059 163.943C145.926 164.06 145.786 164.17 145.647 164.274C145.508 164.379 145.363 164.454 145.224 164.507C145.084 164.559 144.939 164.565 144.794 164.53C144.725 164.501 144.672 164.454 144.643 164.402C144.62 164.344 144.609 164.274 144.62 164.199C144.632 164.123 144.655 164.036 144.696 163.926C144.649 163.967 144.597 164.013 144.551 164.048C144.498 164.089 144.446 164.129 144.388 164.176C143.791 164.652 143.321 164.884 142.99 164.884L142.996 164.89Z" fill="#1E2675"/>
<path d="M148.229 164.449C148.2 164.449 148.171 164.449 148.142 164.438C148.061 164.42 148.003 164.368 147.968 164.287C147.945 164.211 147.95 164.13 147.991 164.037C148.032 163.944 148.09 163.845 148.159 163.729C148.188 163.688 148.212 163.648 148.235 163.607C148.258 163.566 148.281 163.526 148.299 163.491C148.304 163.479 148.316 163.468 148.316 163.456C148.316 163.444 148.328 163.433 148.328 163.427C148.2 163.404 148.049 163.398 147.875 163.41C147.701 163.421 147.51 163.456 147.301 163.508C147.115 163.555 146.912 163.619 146.697 163.694C146.483 163.77 146.256 163.863 146.018 163.967C145.972 163.985 145.926 163.985 145.873 163.967C145.827 163.95 145.792 163.915 145.769 163.868C145.746 163.822 145.74 163.77 145.763 163.717C145.786 163.665 145.821 163.624 145.868 163.607C146.111 163.497 146.343 163.404 146.57 163.322C146.796 163.241 147.005 163.177 147.202 163.131C147.736 162.997 148.171 162.974 148.513 163.067C148.612 163.096 148.681 163.154 148.722 163.247C148.763 163.346 148.751 163.45 148.693 163.566C148.635 163.683 148.571 163.805 148.49 163.932C148.49 163.944 148.478 163.95 148.473 163.967C148.461 163.979 148.455 163.996 148.444 164.014C148.542 163.99 148.693 163.95 148.885 163.886C149.076 163.822 149.349 163.723 149.691 163.601C149.737 163.584 149.79 163.59 149.836 163.613C149.888 163.636 149.917 163.677 149.935 163.729C149.958 163.775 149.958 163.828 149.935 163.874C149.911 163.926 149.877 163.961 149.819 163.985C149.621 164.054 149.436 164.118 149.273 164.176C149.111 164.234 148.96 164.281 148.832 164.321C148.658 164.374 148.525 164.409 148.432 164.432C148.339 164.449 148.27 164.461 148.223 164.461L148.229 164.449Z" fill="#1E2675"/>
<path d="M150.596 164.901C150.596 164.901 150.555 164.901 150.532 164.901C150.509 164.901 150.486 164.901 150.463 164.89C150.41 164.872 150.37 164.837 150.335 164.779C150.318 164.744 150.306 164.698 150.306 164.634C150.306 164.57 150.323 164.471 150.364 164.332C150.405 164.193 150.468 163.983 150.555 163.71C150.463 163.745 150.352 163.786 150.225 163.832C150.103 163.879 149.975 163.925 149.842 163.978C149.795 163.995 149.743 163.989 149.697 163.966C149.645 163.943 149.61 163.902 149.587 163.85C149.569 163.803 149.575 163.751 149.598 163.705C149.621 163.652 149.662 163.618 149.714 163.594C149.9 163.525 150.074 163.461 150.236 163.397C150.399 163.339 150.584 163.269 150.793 163.188C150.834 163.17 150.88 163.17 150.915 163.182C150.973 163.194 151.014 163.228 151.037 163.281C151.06 163.321 151.066 163.356 151.06 163.385C151.054 163.414 151.049 163.449 151.037 163.484C151.025 163.501 151.02 163.519 151.02 163.542C151.02 163.559 151.008 163.583 151.002 163.612C150.973 163.687 150.938 163.774 150.909 163.885C150.88 163.995 150.846 164.1 150.811 164.21C150.787 164.268 150.77 164.32 150.758 164.367C150.747 164.413 150.735 164.448 150.724 164.483C150.805 164.466 150.927 164.413 151.083 164.332C151.217 164.256 151.362 164.175 151.519 164.076C151.675 163.978 151.832 163.873 151.988 163.769C152.023 163.745 152.058 163.728 152.099 163.705C152.134 163.681 152.168 163.658 152.197 163.635C152.244 163.606 152.296 163.594 152.348 163.606C152.4 163.618 152.447 163.647 152.476 163.693C152.505 163.734 152.516 163.786 152.505 163.838C152.493 163.891 152.464 163.931 152.418 163.96C152.383 163.989 152.348 164.013 152.308 164.036C152.273 164.059 152.232 164.082 152.192 164.111C152.029 164.222 151.867 164.326 151.71 164.425C151.553 164.524 151.408 164.611 151.269 164.686C150.985 164.831 150.764 164.907 150.596 164.907V164.901Z" fill="#1E2675"/>
<path d="M154.605 164.449C154.576 164.449 154.547 164.449 154.518 164.438C154.437 164.42 154.379 164.368 154.344 164.287C154.321 164.211 154.327 164.13 154.367 164.037C154.408 163.944 154.466 163.845 154.535 163.729C154.564 163.688 154.588 163.648 154.611 163.607C154.634 163.566 154.657 163.526 154.675 163.491C154.68 163.479 154.692 163.468 154.692 163.456C154.692 163.444 154.704 163.433 154.704 163.427C154.576 163.404 154.425 163.398 154.251 163.41C154.077 163.421 153.886 163.456 153.677 163.508C153.491 163.555 153.288 163.619 153.073 163.694C152.859 163.77 152.632 163.863 152.395 163.967C152.348 163.985 152.302 163.985 152.25 163.967C152.203 163.95 152.168 163.915 152.145 163.868C152.122 163.822 152.116 163.77 152.139 163.717C152.162 163.665 152.197 163.624 152.244 163.607C152.487 163.497 152.719 163.404 152.946 163.322C153.172 163.241 153.381 163.177 153.578 163.131C154.112 162.997 154.547 162.974 154.889 163.067C154.988 163.096 155.058 163.154 155.098 163.247C155.139 163.346 155.127 163.45 155.069 163.566C155.011 163.683 154.947 163.805 154.866 163.932C154.866 163.944 154.854 163.95 154.849 163.967C154.837 163.979 154.831 163.996 154.82 164.014C154.918 163.99 155.069 163.95 155.261 163.886C155.452 163.822 155.725 163.723 156.067 163.601C156.113 163.584 156.166 163.59 156.212 163.613C156.264 163.636 156.293 163.677 156.311 163.729C156.334 163.775 156.334 163.828 156.311 163.874C156.288 163.926 156.253 163.961 156.195 163.985C155.997 164.054 155.812 164.118 155.649 164.176C155.487 164.234 155.336 164.281 155.208 164.321C155.034 164.374 154.901 164.409 154.808 164.432C154.715 164.449 154.646 164.461 154.599 164.461L154.605 164.449Z" fill="#1E2675"/>
<g clip-path="url(#clip1_386_74)">
<path d="M213 195H155L155.036 194.673L155.641 194.497L156.071 194.129L156.446 193.702L156.864 193.322L157.215 192.877L157.911 192.801L158.286 192.38L158.661 191.965L159.018 191.515L159.411 191.111L159.811 190.713L160.331 190.444L160.845 190.164L161.166 189.684L161.517 189.234L162.08 189.012L162.57 188.713L162.739 188.064L163.417 187.965L163.556 187.292L164.307 187.275L164.7 186.871L165.16 186.544L165.402 185.977L166.007 185.801L166.231 185.216L166.642 184.83L167.09 184.468L167.387 183.953L167.968 183.749L168.264 183.234L168.7 182.865L169.39 182.784L169.704 182.292L170.025 181.807L170.473 181.456L171.005 181.205L171.459 180.865L171.992 180.614L172.191 179.988L172.681 179.684L173.081 179.292L173.522 178.942L174.17 178.836L174.678 178.567L174.817 177.836L175.338 177.573L176.003 177.515L176.397 177.099L176.905 176.83L177.202 176.263L177.903 176.304L178.236 175.766L178.775 175.567L179.235 175.216L179.81 175.088L180.257 174.684L180.766 174.38L181.322 174.211L181.958 174.327L182.484 174L183.083 174.064L183.67 174.392L184.227 174.368L184.796 174.287L185.377 174.205L185.958 174.251L186.502 174.439L186.95 174.889L187.609 174.76L188.039 175.193L188.553 175.421L189.074 175.661L189.606 175.871L190.266 175.889L190.526 176.538L191.18 176.585L191.404 177.251L192.124 177.222L192.541 177.62L192.777 178.234L193.413 178.345L193.757 178.819L194.211 179.158L194.859 179.269L195.083 179.877L195.458 180.304L196.093 180.439L196.353 181.006L197.122 180.994L197.231 181.719L197.763 181.982L198.205 182.339L198.665 182.678L199.24 182.895L199.452 183.503L200.081 183.655L200.293 184.263L200.88 184.474L201.097 185.076L201.69 185.287L202.235 185.52L202.435 186.14L202.985 186.386L203.5 186.661L203.978 186.977L204.389 187.368L204.668 187.901L205.055 188.316L205.66 188.497L205.811 189.164L206.604 189.14L206.979 189.561L207.403 189.936L207.621 190.532L208.183 190.754L208.601 191.129L208.897 191.637L209.285 192.035L209.987 192.111L210.12 192.801L210.537 193.175L211.209 193.281L211.723 193.561L212.098 193.982L212.346 194.538L212.897 194.778L213 195Z" fill="white"/>
</g>
</g>
<defs>
<clipPath id="clip0_386_74">
<rect width="240" height="240" rx="120" fill="white"/>
</clipPath>
<clipPath id="clip1_386_74">
<rect width="58" height="21" fill="white" transform="translate(155 174)"/>
</clipPath>
</defs>
</svg>
