<svg width="240" height="240" viewBox="0 0 240 240" fill="none" xmlns="http://www.w3.org/2000/svg">
<g clip-path="url(#clip0_229_2625)">
<rect width="240" height="240" rx="120" fill="#F6CA73"/>
<g clip-path="url(#clip1_229_2625)">
<path d="M183 248.742C183 287.933 179.927 291 140.663 291H99.3368C60.0732 291 57 287.933 57 248.742V102.258C57 63.0674 60.0732 60 99.3368 60H140.663C179.927 60 183 63.0674 183 102.258V248.742Z" fill="#1E2675"/>
<path d="M99.3368 284.484C81.5987 284.484 71.8922 283.784 68.0607 279.96C64.2293 276.136 63.5283 266.447 63.5283 248.742V102.258C63.5283 84.5528 64.2293 74.8644 68.0607 71.0401C71.8922 67.2158 81.5987 66.5161 99.3368 66.5161H140.663C158.401 66.5161 168.108 67.2158 171.939 71.0401C175.771 74.8644 176.472 84.5528 176.472 102.258V248.742C176.472 266.447 175.771 276.136 171.939 279.96C168.108 283.784 158.401 284.484 140.663 284.484H99.3368Z" fill="#F7E9C1"/>
<path d="M143.137 64.3198C143.137 74.4411 142.342 75.2341 132.202 75.2341H107.8C97.6598 75.2341 96.8652 74.4411 96.8652 64.3198H143.137Z" fill="#1E2675"/>
<path d="M102.826 72.144C104.299 72.144 105.493 70.9525 105.493 69.4827C105.493 68.0128 104.299 66.8213 102.826 66.8213C101.354 66.8213 100.16 68.0128 100.16 69.4827C100.16 70.9525 101.354 72.144 102.826 72.144Z" fill="#470FF4"/>
<path d="M159.429 110.542H80.5712C75.0458 110.542 70.5667 115.012 70.5667 120.527V199.238C70.5667 204.753 75.0458 209.224 80.5712 209.224H159.429C164.954 209.224 169.433 204.753 169.433 199.238V120.527C169.433 115.012 164.954 110.542 159.429 110.542Z" fill="#F6CA73"/>
<path d="M119.451 157.171C119.82 157.171 119.82 156.599 119.451 156.599C119.082 156.599 119.082 157.171 119.451 157.171Z" fill="#1E2675"/>
<path d="M109.481 182.507L105.699 177.196C109.231 174.691 113.087 170.257 116.299 165.107C116.005 164.615 115.717 164.124 115.436 163.63C111.815 157.272 107.951 148.428 110.113 142.415C110.886 140.265 113.133 136.656 119.481 136.656C121.838 136.656 123.853 137.222 125.471 138.341C127.072 139.449 128.21 141.029 128.854 143.042C129.702 145.696 129.65 149.049 128.697 153.013C127.889 156.37 126.428 160.149 124.468 163.942C124.291 164.286 124.109 164.629 123.926 164.97C127.303 170.041 131.188 174.628 134.486 177.341L130.334 182.37C127.148 179.749 123.519 175.657 120.209 171.052C116.893 175.867 113.123 179.928 109.483 182.511L109.481 182.507ZM119.481 143.17C116.777 143.17 116.427 144.146 116.257 144.615C115.583 146.491 116.212 151.127 119.951 158.284C122.444 152.723 123.489 147.694 122.635 145.019C122.348 144.123 121.846 143.168 119.481 143.168V143.17Z" fill="#FA6257"/>
<path d="M78.1837 105.419C82.3905 105.419 85.8007 102.015 85.8007 97.8157C85.8007 93.6168 82.3905 90.2129 78.1837 90.2129C73.9769 90.2129 70.5667 93.6168 70.5667 97.8157C70.5667 102.015 73.9769 105.419 78.1837 105.419Z" fill="#FA6257"/>
<path d="M95.9868 100.785C95.8252 100.785 95.6904 100.738 95.5827 100.643C95.3671 100.469 95.3065 100.247 95.4008 99.9779C95.4008 99.9644 95.448 99.8031 95.5423 99.4938C95.65 99.1846 95.7713 98.835 95.906 98.4451C95.9733 98.2165 96.0339 98.0215 96.0878 97.8602C96.1417 97.6854 96.1889 97.5308 96.2293 97.3963C95.8656 97.5308 95.421 97.6988 94.8957 97.9005C94.3703 98.0888 93.818 98.2905 93.2388 98.5056C92.673 98.7207 92.1207 98.9291 91.5818 99.1308C91.4337 99.1846 91.2855 99.1779 91.1373 99.1106C90.9757 99.03 90.8612 98.909 90.7938 98.7476C90.7399 98.5997 90.7534 98.4518 90.8342 98.3039C90.9016 98.1426 91.0161 98.0283 91.1777 97.961C91.7839 97.7459 92.4103 97.5241 93.0569 97.2955C93.7035 97.0535 94.303 96.8316 94.8553 96.6299C95.4076 96.4148 95.8588 96.24 96.2091 96.1055C96.5593 95.9711 96.7344 95.9038 96.7344 95.9038C96.8018 95.8904 96.8691 95.8837 96.9365 95.8837C97.0038 95.8702 97.0645 95.877 97.1183 95.9038C97.3069 95.9307 97.4416 96.0383 97.5225 96.2265C97.5898 96.3341 97.6168 96.4753 97.6033 96.6501C97.6033 96.8114 97.5696 97.0467 97.5023 97.356C97.4619 97.5308 97.408 97.7257 97.3406 97.9409C97.2867 98.1426 97.2126 98.3779 97.1183 98.6468C97.1049 98.7006 97.0914 98.7476 97.0779 98.7879C97.0645 98.8283 97.051 98.8753 97.0375 98.9291C97.5764 98.6333 98.2364 98.3241 99.0177 98.0014C99.1659 97.9341 99.3141 97.9341 99.4623 98.0014C99.6239 98.0552 99.7317 98.156 99.7856 98.3039C99.8664 98.4518 99.8731 98.6064 99.8058 98.7678C99.7384 98.9291 99.6307 99.0434 99.4825 99.1106C98.8763 99.3796 98.3307 99.635 97.8458 99.877C97.3743 100.119 96.9971 100.314 96.7142 100.462C96.4313 100.61 96.2899 100.684 96.2899 100.684C96.2091 100.751 96.108 100.785 95.9868 100.785Z" fill="#262730"/>
<path d="M103.84 100.785C103.679 100.785 103.544 100.738 103.436 100.643C103.221 100.469 103.16 100.247 103.254 99.9779C103.254 99.9644 103.302 99.8031 103.396 99.4938C103.504 99.1846 103.625 98.835 103.76 98.4451C103.827 98.2165 103.888 98.0215 103.941 97.8602C103.995 97.6854 104.042 97.5308 104.083 97.3963C103.719 97.5308 103.275 97.6988 102.749 97.9005C102.224 98.0888 101.672 98.2905 101.092 98.5056C100.527 98.7207 99.9743 98.9291 99.4354 99.1308C99.2873 99.1846 99.1391 99.1779 98.9909 99.1106C98.8292 99.03 98.7147 98.909 98.6474 98.7476C98.5935 98.5997 98.607 98.4518 98.6878 98.3039C98.7552 98.1426 98.8697 98.0283 99.0313 97.961C99.6375 97.7459 100.264 97.5241 100.91 97.2955C101.557 97.0535 102.157 96.8316 102.709 96.6299C103.261 96.4148 103.712 96.24 104.063 96.1055C104.413 95.9711 104.588 95.9038 104.588 95.9038C104.655 95.8904 104.723 95.8837 104.79 95.8837C104.857 95.8702 104.918 95.877 104.972 95.9038C105.161 95.9307 105.295 96.0383 105.376 96.2265C105.443 96.3341 105.47 96.4753 105.457 96.6501C105.457 96.8114 105.423 97.0467 105.356 97.356C105.315 97.5308 105.262 97.7257 105.194 97.9409C105.14 98.1426 105.066 98.3779 104.972 98.6468C104.958 98.7006 104.945 98.7476 104.932 98.7879C104.918 98.8283 104.905 98.8753 104.891 98.9291C105.43 98.6333 106.09 98.3241 106.871 98.0014C107.019 97.9341 107.168 97.9341 107.316 98.0014C107.478 98.0552 107.585 98.156 107.639 98.3039C107.72 98.4518 107.727 98.6064 107.659 98.7678C107.592 98.9291 107.484 99.0434 107.336 99.1106C106.73 99.3796 106.184 99.635 105.699 99.877C105.228 100.119 104.851 100.314 104.568 100.462C104.285 100.61 104.143 100.684 104.143 100.684C104.063 100.751 103.962 100.785 103.84 100.785Z" fill="#262730"/>
<path d="M114.179 100.583C114.085 100.583 113.997 100.57 113.917 100.543C113.661 100.489 113.479 100.334 113.371 100.079C113.29 99.8502 113.31 99.5947 113.432 99.3123C113.566 99.03 113.742 98.714 113.957 98.3644C114.038 98.2434 114.112 98.1224 114.179 98.0014C114.26 97.8669 114.328 97.7459 114.381 97.6383C114.408 97.598 114.429 97.5644 114.442 97.5375C114.455 97.4972 114.469 97.4635 114.482 97.4367C114.078 97.3694 113.607 97.356 113.068 97.3963C112.543 97.4232 111.95 97.5241 111.29 97.6988C110.711 97.8467 110.084 98.0417 109.411 98.2837C108.751 98.5123 108.05 98.7879 107.309 99.1106C107.161 99.1644 107.013 99.1644 106.865 99.1106C106.717 99.0569 106.609 98.956 106.541 98.8081C106.461 98.6602 106.454 98.5056 106.521 98.3442C106.589 98.1694 106.696 98.0552 106.844 98.0014C107.599 97.6652 108.32 97.3761 109.007 97.1341C109.707 96.8787 110.367 96.677 110.987 96.5291C112.644 96.1123 113.997 96.045 115.048 96.3274C115.358 96.4081 115.574 96.5963 115.695 96.8921C115.816 97.1879 115.789 97.5173 115.614 97.8804C115.439 98.2434 115.23 98.6199 114.988 99.0098C114.974 99.0367 114.954 99.0703 114.927 99.1106C114.9 99.151 114.873 99.198 114.846 99.2518C115.156 99.1846 115.614 99.0501 116.22 98.8485C116.826 98.6468 117.662 98.351 118.726 97.961C118.874 97.9073 119.022 97.9207 119.17 98.0014C119.332 98.0686 119.44 98.1829 119.494 98.3442C119.561 98.4921 119.561 98.6468 119.494 98.8081C119.426 98.956 119.305 99.0636 119.13 99.1308C118.51 99.3459 117.944 99.5409 117.433 99.7157C116.921 99.8905 116.463 100.038 116.059 100.159C115.52 100.321 115.109 100.435 114.826 100.502C114.543 100.556 114.328 100.583 114.179 100.583Z" fill="#262730"/>
<path d="M123.593 100.785C123.431 100.785 123.296 100.738 123.189 100.643C122.973 100.469 122.912 100.247 123.007 99.9779C123.007 99.9644 123.054 99.8031 123.148 99.4938C123.256 99.1846 123.377 98.835 123.512 98.4451C123.579 98.2165 123.64 98.0215 123.694 97.8602C123.748 97.6854 123.795 97.5308 123.835 97.3963C123.472 97.5308 123.027 97.6988 122.502 97.9005C121.976 98.0888 121.424 98.2905 120.845 98.5056C120.279 98.7207 119.727 98.9291 119.188 99.1308C119.04 99.1846 118.891 99.1779 118.743 99.1106C118.582 99.03 118.467 98.909 118.4 98.7476C118.346 98.5997 118.359 98.4518 118.44 98.3039C118.508 98.1426 118.622 98.0283 118.784 97.961C119.39 97.7459 120.016 97.5241 120.663 97.2955C121.309 97.0535 121.909 96.8316 122.461 96.6299C123.014 96.4148 123.465 96.24 123.815 96.1055C124.165 95.9711 124.34 95.9038 124.34 95.9038C124.408 95.8904 124.475 95.8837 124.542 95.8837C124.61 95.8702 124.67 95.877 124.724 95.9038C124.913 95.9307 125.048 96.0383 125.128 96.2265C125.196 96.3341 125.223 96.4753 125.209 96.6501C125.209 96.8114 125.176 97.0467 125.108 97.356C125.068 97.5308 125.014 97.7257 124.947 97.9409C124.893 98.1426 124.819 98.3779 124.724 98.6468C124.711 98.7006 124.697 98.7476 124.684 98.7879C124.67 98.8283 124.657 98.8753 124.643 98.9291C125.182 98.6333 125.842 98.3241 126.624 98.0014C126.772 97.9341 126.92 97.9341 127.068 98.0014C127.23 98.0552 127.338 98.156 127.392 98.3039C127.472 98.4518 127.479 98.6064 127.412 98.7678C127.344 98.9291 127.237 99.0434 127.088 99.1106C126.482 99.3796 125.937 99.635 125.452 99.877C124.98 100.119 124.603 100.314 124.32 100.462C124.037 100.61 123.896 100.684 123.896 100.684C123.815 100.751 123.714 100.785 123.593 100.785Z" fill="#262730"/>
</g>
</g>
<defs>
<clipPath id="clip0_229_2625">
<rect width="240" height="240" rx="120" fill="white"/>
</clipPath>
<clipPath id="clip1_229_2625">
<rect width="126" height="231" fill="white" transform="translate(57 60)"/>
</clipPath>
</defs>
</svg>
