<svg width="240" height="240" viewBox="0 0 240 240" fill="none" xmlns="http://www.w3.org/2000/svg">
<rect width="240" height="240" rx="120" fill="#F6CA73"/>
<g clip-path="url(#clip0_303_1826)">
<path d="M200.877 102.826C199.923 104.433 198.747 106.034 197.363 107.635C189.589 116.647 175.426 125.504 158.901 133.207C146.554 138.959 132.862 144.449 119.124 148.537C117.867 148.915 116.605 149.275 115.342 149.63C109.558 151.236 103.786 152.586 98.1246 153.581C80.6743 156.646 64.6787 156.857 53.2391 153.501C51.4644 152.986 49.8061 152.386 48.2641 151.688C43.708 149.652 40.211 146.839 38.0639 143.197C35.5153 138.874 39.4488 134.053 46.3963 129.421C47.1818 128.901 48.0139 128.404 48.8751 127.929C51.4004 126.528 54.205 125.287 56.9514 123.989C58.8716 123.08 60.7627 122.142 62.5141 121.107C68.1117 117.796 72.4408 114.142 74.4133 111.026C74.8323 110.374 75.1407 109.745 75.3385 109.145C76.0426 107 76.8514 104.953 77.5322 102.86C78.0151 101.368 78.4341 99.8526 78.7017 98.2686C79.2894 94.7691 78.9985 90.8292 80.8547 87.0495C82.3093 84.0989 85.3467 81.6858 88.4888 78.4722C96.0997 70.6897 111.118 64.3254 128.353 62.1982C130.494 61.9351 132.664 61.7407 134.846 61.6206C138.279 61.4319 141.753 61.4148 145.21 61.5463C154.485 61.9066 163.684 63.3475 171.952 65.469C188.419 69.689 201.808 77.6831 203.635 91.727C204.112 95.3752 203.1 99.0978 200.877 102.826Z" fill="#F7E9C1"/>
<path d="M200.877 102.826C199.923 104.433 198.747 106.034 197.363 107.635C189.589 116.647 175.426 125.504 158.901 133.207C146.554 138.959 132.862 144.449 119.124 148.537C117.867 148.915 116.605 149.275 115.342 149.63C109.558 151.236 103.786 152.586 98.1246 153.581C80.6743 156.646 64.6787 156.857 53.2391 153.501C51.4644 152.986 49.8061 152.386 48.2641 151.688C43.708 149.652 40.211 146.839 38.0639 143.197C35.5153 138.874 39.4488 134.053 46.3963 129.421C47.1818 128.901 48.0139 128.404 48.8751 127.929C51.4004 126.528 54.205 125.287 56.9514 123.989C58.8716 123.08 60.7627 122.142 62.5141 121.107C68.1117 117.796 72.4408 114.142 74.4133 111.026C74.8323 110.374 75.1407 109.745 75.3385 109.145C76.0426 107 76.8514 104.953 77.5322 102.86C78.0151 101.368 78.4341 99.8526 78.7017 98.2686C79.2894 94.7691 78.9985 90.8292 80.8547 87.0495C82.3093 84.0989 85.3467 81.6858 88.4888 78.4722C96.0997 70.6897 111.118 64.3254 128.353 62.1982C130.494 61.9351 132.664 61.7407 134.846 61.6206C138.279 61.4319 141.753 61.4148 145.21 61.5463C154.485 61.9066 163.684 63.3475 171.952 65.469C188.419 69.689 201.808 77.6831 203.635 91.727C204.112 95.3752 203.1 99.0978 200.877 102.826Z" fill="#FA6257"/>
<path d="M209 93.6826V113.365C209 119.695 206.044 126.191 200.185 132.732C189.537 144.62 168.618 156.892 142.806 166.39C117.565 175.676 91.5146 181 71.3353 181H71.3237C51.4296 181 38.3724 175.962 32.5246 166.029C31.6169 164.497 30.9361 162.593 31.0059 160.397V141.412C31.0815 143.317 31.7158 144.981 32.5246 146.347C33.473 147.954 34.6077 149.435 35.9402 150.785C42.7771 157.778 54.6531 161.318 71.3237 161.318H71.3353C91.5146 161.318 117.565 155.994 142.806 146.708C168.618 137.204 189.537 124.938 200.185 113.05C203.158 109.728 205.387 106.417 206.853 103.135C208.284 99.9555 209 96.799 209 93.6826Z" fill="#F79E4F"/>
<path d="M157.01 88.0332C164.493 88.0332 174.559 91.7786 174.42 94.7178C174.28 97.6569 169.386 105.279 158.779 105.279C148.171 105.279 140.689 101.534 140.956 97.2567C141.23 92.9795 149.527 88.0332 157.01 88.0332Z" fill="#F7E9C1"/>
<path d="M148.166 95.9185C148.166 101.134 154.694 102.066 157.551 101.803C160.408 101.54 168.159 100.333 168.025 95.9185C167.891 91.5041 158.505 91.6413 155.782 91.9101C153.059 92.1788 148.166 93.5169 148.166 95.9185Z" fill="#FA6257"/>
<path d="M130.36 134.236C129.307 136.158 127.381 137.456 125.717 138.828C124.111 140.166 122.214 141.253 121.318 143.174C120.521 144.809 119.945 146.696 119.124 148.538C117.867 148.915 116.605 149.275 115.342 149.63C115.773 149.092 116.18 148.532 116.564 147.949C118.129 145.707 119.066 142.991 121.073 140.995C123.96 138.433 127.998 137.358 130.36 134.236Z" fill="#F7E9C1"/>
<path d="M78.888 137.342C71.539 142.517 64.0852 147.612 56.1834 151.998C55.2175 152.501 54.24 153.021 53.2392 153.501C51.4644 152.987 49.8061 152.386 48.2642 151.689C50.4753 150.997 52.7271 150.185 54.8451 149.299C63.0902 145.822 71.0677 141.693 78.888 137.342Z" fill="#F7E9C1"/>
<path d="M146.373 98.1258C144.389 100.819 141.91 103.101 139.251 105.096C133.159 109.476 126.136 112.987 118.519 113.828C112.584 114.034 106.666 112.25 101.168 110.306C95.157 108.087 89.0997 105.891 82.6992 106.8C79.6909 107.086 76.6012 108.053 74.4133 111.026C74.8323 110.374 75.1407 109.745 75.3385 109.145C76.0426 107 76.8514 104.953 77.5322 102.86C79.1381 102.855 80.7441 102.746 82.449 102.7C89.3907 102.5 95.9891 105.256 102.128 107.847C105.154 109.042 108.191 110.1 111.333 110.729C114.434 111.352 117.489 111.878 120.672 111.243C126.98 110.054 133.025 107.401 138.338 103.861C140.997 102.054 143.47 99.9499 145.436 97.4453L146.373 98.1258Z" fill="#F7E9C1"/>
<path d="M200.877 102.826C199.923 104.433 198.747 106.034 197.363 107.635C196.245 107.544 195.134 107.469 194.075 107.349C190.921 106.921 187.831 105.977 185.068 104.61C178.981 101.374 175.211 99.3954 168.083 100.699L167.984 100.139C180.709 97.9944 183.229 104.679 194.255 104.387C196.484 104.376 198.8 104.067 200.877 102.826Z" fill="#F7E9C1"/>
<path d="M203.815 108.962C203.722 108.922 203.635 108.882 203.542 108.842C203.612 108.745 203.682 108.648 203.746 108.551L203.815 108.962Z" fill="#F7E9C1"/>
<path d="M208.831 91.0756C203.007 46.3192 110.821 48.7037 85.9577 74.1326C74.169 86.1865 76.1415 98.5207 72.9005 106.629C67.3494 120.37 31 128.164 31 141.413C31.0058 144.924 33.4555 148.269 35.9343 150.785C64.7252 180.234 181.728 142.031 203.74 108.55C207.679 102.867 209.588 96.9882 208.825 91.0756H208.831ZM197.363 107.636C181.885 125.579 141.317 141.933 119.124 148.538C96.6233 155.291 49.8061 163.114 38.0639 143.197C35.5153 138.874 39.4488 134.054 46.3963 129.422C51.732 125.888 72.3012 118.351 75.3385 109.145C76.0426 107.001 76.8514 104.954 77.5322 102.861C79.9353 95.4272 78.4224 92.002 80.8547 87.05C82.3093 84.0994 85.3467 81.6863 88.4888 78.4727C96.0997 70.6902 111.118 64.3258 128.353 62.1987C142.69 60.4375 158.296 61.9642 171.952 65.4695C188.419 69.6895 201.808 77.6836 203.635 91.7275C204.403 97.5829 201.249 103.141 197.363 107.636Z" fill="#F7E9C1"/>
<path d="M150.9 91.7956H150.318C150.365 88.0502 149.306 84.362 147.642 81.0225C145.582 76.9454 142.836 73.5374 140.52 69.4889C139.461 67.4189 138 65.326 136.342 63.399C135.894 62.8443 135.428 62.2554 134.846 61.6206C138.279 61.4319 141.753 61.4148 145.21 61.5463C143.295 63.1074 142.731 65.8292 143.679 68.1508C144.651 71.3016 146.292 74.4809 147.584 77.6431C148.357 79.4043 149.207 81.6973 149.702 83.5614C150.446 86.2547 150.83 89.0166 150.9 91.7956Z" fill="#F7E9C1"/>
<path d="M75.1406 127.615C72.9993 128.495 70.5497 127.78 68.3386 127.569C66.0867 127.237 63.8465 126.94 61.6238 126.791C57.2714 126.408 53.0703 126.991 48.875 127.929C51.4003 126.528 54.2049 125.287 56.9514 123.989C58.6388 124.167 60.3146 124.464 61.9205 124.807C64.184 125.304 66.3777 125.968 68.5539 126.608C70.6951 127.129 72.9179 128.164 75.1406 127.615Z" fill="#F7E9C1"/>
</g>
<defs>
<clipPath id="clip0_303_1826">
<rect width="178" height="125" fill="white" transform="translate(31 56)"/>
</clipPath>
</defs>
</svg>
