<svg width="240" height="240" viewBox="0 0 240 240" fill="none" xmlns="http://www.w3.org/2000/svg">
<rect width="240" height="240" rx="120" fill="#F6CA73"/>
<g clip-path="url(#clip0_386_78)">
<path d="M144.303 113.898C146.282 130.744 160.887 143.268 177.898 142.709C194.909 142.157 208.655 128.702 209.519 111.761C186.411 117.762 167.501 119.543 144.303 113.898Z" fill="#FA6257"/>
<path d="M144.303 113.897C167.501 119.543 186.411 117.762 209.519 111.761C200.792 103.021 188.811 98.2849 176.447 98.6889C164.077 99.0982 152.437 104.605 144.303 113.897Z" fill="#F7E9C1"/>
<path d="M176.911 116.024C183.268 116.024 188.422 110.888 188.422 104.553C188.422 98.217 183.268 93.0811 176.911 93.0811C170.553 93.0811 165.4 98.217 165.4 104.553C165.4 110.888 170.553 116.024 176.911 116.024Z" fill="#262730"/>
<path d="M144.303 113.897C152.437 104.605 164.077 99.098 176.447 98.6887C188.811 98.2847 200.792 103.021 209.519 111.76C182.48 78.9191 167.395 87.1002 144.303 113.897Z" fill="#F79E4F"/>
<path d="M144.303 113.898C171.859 128.272 187.057 125.651 209.519 111.761C186.411 117.762 167.501 119.543 144.303 113.898Z" fill="#1E2675"/>
<path d="M152.56 57.9324C148.431 65.6351 148.933 67.6391 161.335 73.8799C174.9 80.429 189.43 85.0431 204.638 87.4512C213.824 88.7961 214.48 88.3017 215.573 82.4809C216.688 76.5378 216.155 76.3358 207.689 74.1723C193.676 70.4193 180.607 64.6463 168.728 57.2627C157.932 50.3042 156.779 49.98 152.56 57.9378V57.9324Z" fill="#262730"/>
<path d="M174.905 154.325C164.984 154.325 155.739 150.614 148.911 143.741C147.877 142.699 147.882 141.014 148.927 139.983C149.973 138.951 151.664 138.957 152.699 139.998C159.66 147.005 169.635 150.152 180.053 148.626C191.079 147.01 200.691 140.371 205.764 130.861C206.457 129.564 208.068 129.074 209.37 129.76C210.671 130.451 211.162 132.057 210.474 133.354C204.606 144.352 193.522 152.023 180.826 153.883C178.836 154.176 176.852 154.319 174.905 154.319V154.325Z" fill="#1E2675"/>
<path d="M95.6973 113.898C93.7183 130.744 79.1132 143.268 62.1024 142.709C45.0915 142.157 31.3452 128.702 30.4811 111.761C53.5889 117.762 72.4988 119.543 95.6973 113.898Z" fill="#FA6257"/>
<path d="M95.6973 113.897C72.4988 119.543 53.5889 117.762 30.4811 111.761C39.2079 103.021 51.1885 98.2849 63.5533 98.6889C75.9233 99.0982 87.5626 104.605 95.6973 113.897Z" fill="#F7E9C1"/>
<path d="M63.0892 116.024C69.4467 116.024 74.6004 110.888 74.6004 104.553C74.6004 98.217 69.4467 93.0811 63.0892 93.0811C56.7317 93.0811 51.5779 98.217 51.5779 104.553C51.5779 110.888 56.7317 116.024 63.0892 116.024Z" fill="#262730"/>
<path d="M95.6973 113.897C87.5626 104.605 75.9233 99.098 63.5533 98.6887C51.1885 98.2847 39.2079 103.021 30.4811 111.76C57.5203 78.9191 72.6054 87.1002 95.6973 113.897Z" fill="#F79E4F"/>
<path d="M95.6973 113.898C68.1407 128.272 52.9435 125.651 30.4811 111.761C53.5889 117.762 72.4988 119.543 95.6973 113.898Z" fill="#1E2675"/>
<path d="M87.4399 57.9324C91.5686 65.6351 91.0672 67.6391 78.6651 73.8799C65.1002 80.429 50.5698 85.0431 35.3619 87.4512C26.1764 88.7961 25.5203 88.3017 24.4267 82.4809C23.3119 76.5378 23.8453 76.3358 32.3107 74.1723C46.3237 70.4193 59.3926 64.6463 71.2719 57.2627C82.0684 50.3042 83.2205 49.98 87.4399 57.9378V57.9324Z" fill="#262730"/>
<path d="M65.1002 154.325C75.0219 154.325 84.2661 150.614 91.0939 143.741C92.1287 142.699 92.1234 141.014 91.0779 139.983C90.0324 138.951 88.3414 138.957 87.3066 139.998C80.3454 147.005 70.3704 150.152 59.9527 148.626C48.9268 147.01 39.3146 140.371 34.2417 130.861C33.5483 129.564 31.9373 129.074 30.6358 129.76C29.3342 130.451 28.8435 132.057 29.5316 133.354C35.3992 144.352 46.4838 152.023 59.1792 153.883C61.1689 154.176 63.1532 154.319 65.1002 154.319V154.325Z" fill="#1E2675"/>
<path d="M128.348 188C128.289 188 128.231 188 128.172 188L115.834 187.436C110.825 187.208 106.488 186.761 104.115 183.609C101.741 180.457 102.53 176.177 103.715 171.319C107.347 156.392 113.78 128.266 116.031 107.593C116.255 105.551 118.101 104.073 120.144 104.297C122.192 104.52 123.675 106.354 123.451 108.395C121.152 129.483 114.644 157.965 110.969 173.068C109.94 177.299 109.966 178.681 110.1 179.133C110.494 179.388 111.817 179.803 116.175 179.999L128.513 180.563C130.572 180.659 132.167 182.397 132.071 184.449C131.981 186.442 130.327 188 128.343 188H128.348Z" fill="#262730"/>
</g>
<defs>
<clipPath id="clip0_386_78">
<rect width="192" height="136" fill="white" transform="translate(24 52)"/>
</clipPath>
</defs>
</svg>
