<svg width="240" height="240" viewBox="0 0 240 240" fill="none" xmlns="http://www.w3.org/2000/svg">
<rect width="240" height="240" rx="120" fill="#F6CA73"/>
<g clip-path="url(#clip0_386_79)">
<path d="M188.148 97.3533C193.464 97.2441 194.364 100.366 189.796 103.089C178.813 109.639 163.39 119.701 162.799 124.867C162.191 130.185 174.782 143.264 184.001 152.06C187.861 155.742 186.275 158.608 181.106 157.285C168.761 154.128 150.994 150.381 146.806 153.715C142.739 156.953 142.378 175.362 142.644 188.149C142.753 193.469 139.631 194.362 136.906 189.792C130.355 178.809 120.293 163.389 115.129 162.798C109.811 162.19 96.7314 174.78 87.935 183.999C84.2525 187.859 81.3868 186.273 82.7093 181.105C85.867 168.759 89.6135 150.994 86.2801 146.806C83.0417 142.739 64.632 142.378 51.8444 142.644C46.5238 142.753 45.6311 139.631 50.2015 136.906C61.1846 130.356 76.6052 120.294 77.1964 115.131C77.8042 109.813 65.2137 96.7337 55.9946 87.9376C52.1341 84.2554 53.7201 81.3898 58.8887 82.7122C71.2347 85.8698 89.001 89.6161 93.1891 86.2829C97.2561 83.0446 97.617 64.6381 97.3511 51.8511C97.2419 46.5355 100.364 45.6357 103.087 50.2035C109.638 61.1861 119.7 76.6084 124.866 77.1995C130.184 77.8073 143.264 65.2174 152.06 55.9987C155.743 52.1384 158.608 53.7243 157.286 58.8927C154.128 71.2381 150.382 89.0036 153.715 93.1915C157.049 97.3794 175.361 97.6192 188.148 97.3533Z" fill="#FA6257"/>
<path d="M191.095 122.631C198.025 128.195 197.686 130.928 189.613 134.651C181.608 138.342 171.809 143.558 169.342 147.912C166.804 152.392 167.367 163.332 168.338 172.019C169.309 180.706 167.13 182.593 158.784 179.49C150.588 176.444 140.106 173.251 135.144 174.631C130.322 175.97 122.888 184.22 117.368 191.095C111.803 198.025 109.07 197.686 105.348 189.614C101.656 181.608 96.4395 171.81 92.0851 169.343C87.605 166.806 76.6646 167.368 67.9773 168.339C59.1286 169.329 57.4025 167.131 60.5056 158.786C63.5518 150.59 66.7451 140.109 65.3657 135.147C64.0266 130.325 55.7786 122.894 48.9052 117.377C41.982 111.819 42.3143 109.074 50.3748 105.356C58.3807 101.665 68.1839 96.4488 70.6507 92.0923C73.1887 87.6124 72.626 76.6725 71.655 67.9856C70.6649 59.1373 72.8635 57.4114 81.2088 60.5143C89.4046 63.5603 99.8868 66.7535 104.849 65.3741C109.811 63.9948 117.105 55.7851 122.625 48.9097C128.19 41.9796 130.923 42.3191 134.645 50.3911C138.337 58.3966 143.554 68.1946 147.908 70.6613C152.388 73.1992 163.328 72.6365 172.016 71.6655C180.864 70.6755 182.59 72.8739 179.487 81.2189C176.441 89.4143 173.248 99.896 174.627 104.858C176.007 109.82 184.217 117.113 191.093 122.633L191.095 122.631Z" fill="#F79E4F"/>
<path d="M119.996 167.276C146.107 167.276 167.274 146.11 167.274 120C167.274 93.8906 146.107 72.7246 119.996 72.7246C93.8856 72.7246 72.7186 93.8906 72.7186 120C72.7186 146.11 93.8856 167.276 119.996 167.276Z" fill="#F7E9C1"/>
</g>
<defs>
<clipPath id="clip0_386_79">
<rect width="152" height="152" fill="white" transform="translate(44 44)"/>
</clipPath>
</defs>
</svg>
