<svg width="240" height="240" viewBox="0 0 240 240" fill="none" xmlns="http://www.w3.org/2000/svg">
<rect width="240" height="240" rx="120" fill="#F6CA73"/>
<g clip-path="url(#clip0_316_59)">
<path d="M174.894 143.417C167.76 159.434 158.16 175.793 153.144 180.033C143.426 188.239 129.81 181.169 123.921 181.169C118.033 181.169 104.414 188.239 94.6986 180.033C86.0924 172.761 64 129.811 64 114.131C64 94.132 77.214 71.4092 98.6587 71.4092C110.438 71.4092 113.881 78.2388 123.924 78.2388C133.968 78.2388 137.408 71.4092 149.187 71.4092C160.174 71.4092 169.002 77.3725 174.997 85.8813C168.68 85.0832 163.028 90.0615 163.028 96.5114C163.028 101.558 166.5 105.771 171.155 106.916C162.499 113.805 164.063 127.574 174.447 132.172C172.235 135.626 172.403 140.126 174.894 143.417Z" fill="#FA6257"/>
<path d="M123.921 88.4512C149.359 90.0711 164.465 77.2485 172.229 56.0032C149.702 55.7926 133.178 65.8857 123.921 88.4512Z" fill="#1E2675"/>
<path d="M120.266 61.9453L124.788 88.7089L123.058 89.1035L115.649 62.9926L120.266 61.9453Z" fill="#262730"/>
<path d="M124.35 90.3765C118.61 90.3765 112.727 89.3174 106.744 87.1991L107.729 84.4014C119.027 88.4006 129.907 88.4066 140.075 84.4192L141.152 87.1813C135.722 89.3114 130.108 90.3765 124.353 90.3765H124.35Z" fill="#262730"/>
<path d="M174.893 143.417C171.643 141.014 169.671 137.08 169.975 132.686C162.197 132.686 156.037 126.391 156.037 118.739C156.037 111.957 160.863 106.305 167.257 105.048C164.743 103.175 163.028 100.031 163.028 96.512C163.028 90.0621 168.674 85.0898 175 85.8819C165.625 88.4927 165.199 101.766 174.447 104.935C173.364 105.404 172.196 106.089 171.158 106.917H171.155C162.487 113.814 164.078 127.58 174.447 132.173C172.235 135.626 172.403 140.127 174.893 143.417Z" fill="#F7E9C1"/>
<path d="M83.0964 92.946C79.8698 94.1772 77.0366 97.0194 75.7501 100.227C71.2784 111.367 77.0129 122.822 84.306 119.324C86.604 118.22 85.7848 115.749 85.8587 113.743C86.1249 106.531 93.1371 99.7964 91.821 95.9692C90.6853 92.6642 86.2432 91.7445 83.0964 92.946Z" fill="#F7E9C1"/>
<path d="M83.966 125.239C85.9475 123.863 88.6151 122.925 89.1061 125.426C89.597 127.927 87.9467 129.775 85.7937 129.372C83.6406 128.968 81.9845 126.613 83.966 125.236V125.239Z" fill="#F7E9C1"/>
</g>
<defs>
<clipPath id="clip0_316_59">
<rect width="111" height="128" fill="white" transform="translate(64 56)"/>
</clipPath>
</defs>
</svg>
