<svg width="240" height="240" viewBox="0 0 240 240" fill="none" xmlns="http://www.w3.org/2000/svg">
<rect width="240" height="240" rx="120" fill="#F6CA73"/>
<g clip-path="url(#clip0_620_2207)">
<path d="M174.897 171.798C174.495 176.775 174.203 177.046 169.221 177.046H118.188L110.486 81.5312H182.175L174.897 171.798Z" fill="#FA6257"/>
<path d="M146.33 55.6348C124.419 55.6348 106.66 63.2881 106.66 72.7325V85.2169C106.66 94.6578 124.422 102.315 146.33 102.315C168.238 102.315 186 94.6614 186 85.2169V72.7325C186 63.2917 168.238 55.6348 146.33 55.6348Z" fill="#F7EEC1"/>
<path d="M149.533 71.305C149.533 72.6287 149.43 72.7322 148.109 72.7322H144.55C143.23 72.7322 143.127 72.6287 143.127 71.305V51.8452L171.519 32.5103C172.612 31.7681 172.754 31.7931 173.498 32.8885L175.498 35.8392C176.238 36.9346 176.213 37.0773 175.121 37.823L149.533 55.249V71.305Z" fill="#262730"/>
<path d="M132.069 165.331C130.24 175.489 122.283 178.126 112.396 179.136C100.033 180.395 86.7231 180.174 72.1676 179.136C63.9111 178.547 56.0283 173.748 54.7009 167.165L53.918 163.283H132.422L132.069 165.331Z" fill="#F79E4F"/>
<path d="M92.3428 172.806C116.28 172.806 135.686 164.837 135.686 155.006C135.686 145.175 116.28 137.205 92.3428 137.205C68.4052 137.205 49 145.175 49 155.006C49 164.837 68.4052 172.806 92.3428 172.806Z" fill="#7C3A25"/>
<path d="M55.3711 153.994L67.8056 169.193C70.9587 173.047 71.489 173.1 75.3574 169.971L79.3575 166.735C85.5178 161.754 84.2295 162.303 92.0945 161.408C103.006 160.163 122.996 157.39 125.455 153.548C131.786 143.654 74.6741 151.018 74.6741 151.018L55.3711 153.994Z" fill="#F6CA73"/>
<path d="M50.4023 144.148V151.017C50.4023 154.81 68.2249 157.885 90.2112 157.885C112.198 157.885 130.02 154.81 130.02 151.017V144.148H50.4023Z" fill="#FA6257"/>
<path d="M90.2112 151.018C112.197 151.018 130.02 147.943 130.02 144.15C130.02 140.356 112.197 137.281 90.2112 137.281C68.2254 137.281 50.4023 140.356 50.4023 144.15C50.4023 147.943 68.2254 151.018 90.2112 151.018Z" fill="#FA6257"/>
<path d="M140.416 140.666C140.416 145.611 133.789 144.577 131.344 145.708C129.059 146.764 128.49 150.114 124.935 151.613C122.041 152.833 117.963 149.661 114.404 150.492C111.262 151.227 109.329 156.69 104.311 156.847C101.034 156.95 101.336 154.578 96.9589 154.578C93.4605 154.578 87.7415 159.405 84.4817 159.056C80.9478 158.681 80.8979 155.498 77.4815 154.246C74.065 152.993 70.4386 158.317 65.9972 156.487C61.0789 154.46 60.4704 149.308 58.1607 147.406C56.7799 146.268 49.2637 145.23 49.2637 139C49.2637 134.105 53.6339 133.651 56.7265 130.983C58.9935 129.027 60.8512 125.295 64.4029 123.797C67.2962 122.576 71.2322 123.743 74.791 122.912C77.9335 122.177 80.9407 119.319 84.4746 118.944C87.7344 118.598 91.2541 120.732 94.7524 120.732C98.2507 120.732 101.77 118.598 105.03 118.944C108.564 119.319 111.575 122.18 114.717 122.912C118.276 123.743 122.212 122.576 125.106 123.797C128.661 125.295 130.472 126.052 132.739 128.007C135.835 130.676 140.416 133.348 140.416 140.666Z" fill="#1E2675"/>
<path d="M126.151 139.339C126.151 141.351 123.656 143.206 119.538 144.698C115.762 146.068 115.791 146.025 115.791 150.05V156.176C115.791 158.013 114.307 159.501 112.478 159.501C110.648 159.501 109.161 158.013 109.161 156.176C109.161 153.339 109.31 152.876 108.723 152.287C107.787 151.348 106.175 152.012 106.175 153.343V153.921C106.175 155.109 105.214 156.069 104.033 156.069C102.851 156.069 101.89 155.109 101.89 153.921C101.89 148.573 101.442 148.134 96.1071 148.23C95.4451 148.241 94.7796 148.248 94.1141 148.248C77.0212 148.248 62.2734 145.608 62.2734 137.201C62.2734 132.281 76.1279 130.426 93.2209 130.426C110.314 130.426 126.151 134.415 126.151 139.335V139.339Z" fill="#F7EEC1"/>
<path d="M134.775 130.987C131.266 112.351 114.302 98.2148 93.8989 98.2148C72.4571 98.2148 54.8089 113.832 52.5918 133.877C52.0864 138.433 52.1683 138.551 56.7022 139.975C74.4785 145.558 113.035 145.583 131.149 140.078C135.985 138.608 136.156 138.348 135.252 133.549L134.772 130.99L134.775 130.987Z" fill="#F79E4F"/>
<path d="M74.855 108.487C74.8763 107.873 75.0507 107.774 75.6272 108.038C76.9547 108.644 77.3782 109.604 77.4707 111.035C77.5134 111.702 77.2821 111.845 76.6735 111.52C75.4529 110.874 74.798 110.039 74.855 108.487Z" fill="#F7EEC1"/>
<path d="M113.109 111.116C113.056 110.606 112.881 110.513 112.326 110.702C111.052 111.137 110.686 111.911 110.664 113.096C110.657 113.649 110.892 113.777 111.476 113.538C112.643 113.064 113.244 112.404 113.109 111.116Z" fill="#F7EEC1"/>
<path d="M92.6521 110.782C92.4528 110.3 92.257 110.264 91.7837 110.611C90.6912 111.413 90.563 112.273 90.8904 113.429C91.0435 113.968 91.3068 114.025 91.7944 113.622C92.7731 112.816 93.1574 111.995 92.6521 110.782Z" fill="#F7EEC1"/>
<path d="M102.721 113.114C103.376 112.008 103.465 111.087 102.586 110.07C102.237 109.667 102.038 109.696 101.707 110.188C100.942 111.326 101.109 112.204 101.803 113.224C102.127 113.699 102.394 113.667 102.721 113.114Z" fill="#F7EEC1"/>
<path d="M84.532 102.503C84.2223 102.025 84.0195 102.025 83.6423 102.506C82.7703 103.616 82.8558 104.583 83.4536 105.771C83.7312 106.324 84.0017 106.328 84.3825 105.782C85.1405 104.69 85.3185 103.712 84.532 102.503Z" fill="#F7EEC1"/>
<path d="M81.2173 117.343C80.9148 116.897 80.7155 116.9 80.3311 117.361C79.445 118.413 79.5161 119.316 80.0962 120.418C80.3667 120.932 80.6372 120.932 81.0215 120.418C81.7938 119.384 81.9824 118.47 81.2173 117.346V117.343Z" fill="#F7EEC1"/>
<path d="M94.4672 122.784C95.6203 122.152 96.2003 121.374 96.0117 119.972C95.937 119.415 95.7555 119.33 95.2074 119.59C93.9441 120.19 93.606 121.071 93.6344 122.373C93.6487 122.98 93.8907 123.098 94.4672 122.784Z" fill="#F7EEC1"/>
<path d="M119.856 113.529C119.547 113.062 119.347 113.062 118.967 113.536C118.091 114.628 118.169 115.57 118.76 116.73C119.034 117.269 119.308 117.272 119.689 116.737C120.454 115.663 120.636 114.71 119.856 113.529Z" fill="#F7EEC1"/>
<path d="M111.652 118.173C111.524 117.66 111.342 117.595 110.844 117.892C109.695 118.577 109.463 119.44 109.623 120.66C109.698 121.228 109.944 121.317 110.463 120.967C111.503 120.264 111.976 119.476 111.652 118.173Z" fill="#F7EEC1"/>
<path d="M97.0765 100.513C96.685 100.152 96.4929 100.199 96.2153 100.727C95.5783 101.94 95.8416 102.796 96.6459 103.731C97.0196 104.166 97.2829 104.106 97.5463 103.52C98.0765 102.35 98.0623 101.426 97.0765 100.513Z" fill="#F7EEC1"/>
<path d="M106.899 103.293C106.614 102.932 106.429 102.947 106.08 103.357C105.283 104.295 105.361 105.055 105.913 105.958C106.169 106.379 106.418 106.361 106.767 105.905C107.461 104.988 107.621 104.203 106.899 103.296V103.293Z" fill="#F7EEC1"/>
</g>
<defs>
<clipPath id="clip0_620_2207">
<rect width="137" height="148" fill="white" transform="translate(49 32)"/>
</clipPath>
</defs>
</svg>
