<svg width="240" height="240" viewBox="0 0 240 240" fill="none" xmlns="http://www.w3.org/2000/svg">
<rect width="240" height="240" rx="120" fill="#F6CA73"/>
<g clip-path="url(#clip0_620_3194)">
<path d="M113.334 85.9042L112.424 64.4434H83.6791L82.7808 85.9042L60.5035 101.931C46.5503 110.796 46.7179 110.424 49.4727 127.038L61.7252 201.066C62.348 204.857 62.4917 204.977 66.2285 204.977H129.839C133.575 204.977 133.719 204.857 134.342 201.066L146.594 127.027C149.349 110.412 149.517 110.796 135.576 101.919L113.334 85.8922V85.9042Z" fill="#F79E4F"/>
<path d="M112.364 56.334H83.6191V59.5729H112.364V56.334Z" fill="#262730"/>
<path d="M115.383 61.096C115.383 64.203 115.132 64.4429 111.898 64.4429H84.1591C80.9253 64.4429 80.6738 64.203 80.6738 61.096C80.6738 59.6805 80.7936 59.5605 82.2668 59.5605H113.79C115.264 59.5605 115.383 59.6685 115.383 61.096Z" fill="#F79E4F"/>
<path d="M116.736 36.7801C117.083 26.1276 116.676 25 112.364 25H83.4514C79.1516 25 78.7324 26.1276 79.0798 36.7801L80.1817 52.3629C80.505 56.1296 80.7326 56.3336 84.673 56.3336H111.142C115.083 56.3336 115.31 56.1296 115.634 52.3629L116.736 36.7801Z" fill="#262730"/>
<path d="M48.7539 122.684C48.9575 124.003 49.1971 125.443 49.4725 127.062L58.9823 184.535H137.085L146.594 127.062C146.858 125.455 147.097 124.003 147.313 122.696H48.7539V122.684Z" fill="#262730"/>
<path d="M133.6 180.276H62.456L53.6289 126.93H142.439L133.612 180.276H133.6ZM63.2105 179.376H132.833L141.361 127.829H54.6829L63.2105 179.376Z" fill="#F79E4F"/>
<path d="M73.5234 137.773H75.4637L76.362 147.886H76.3979L77.3441 137.773H79.5359L80.4821 147.886H80.518L81.4163 137.773H83.153L81.8595 150.921H79.3563L78.446 142.056H78.4101L77.4998 150.921H74.8289L73.5354 137.773H73.5234Z" fill="#F7EEC1"/>
<path d="M84.1836 137.773H86.1957V143.124H88.3516V137.773H90.3637V150.921H88.3516V145.007H86.1957V150.921H84.1836V137.773Z" fill="#F7EEC1"/>
<path d="M91.8594 137.773H93.8715V150.921H91.8594V137.773Z" fill="#F7EEC1"/>
<path d="M95.7641 150.25C95.261 149.674 95.0215 148.858 95.0215 147.802V147.047H96.9258V147.946C96.9258 148.798 97.2732 149.23 97.9678 149.23C98.3152 149.23 98.5667 149.122 98.7463 148.918C98.926 148.714 99.0098 148.378 99.0098 147.91C99.0098 147.358 98.8901 146.879 98.6386 146.459C98.387 146.039 97.9439 145.535 97.2851 144.947C96.4587 144.192 95.8838 143.52 95.5485 142.908C95.2251 142.296 95.0574 141.612 95.0574 140.857C95.0574 139.813 95.3089 139.009 95.8239 138.445C96.339 137.882 97.0815 137.594 98.0517 137.594C99.0218 137.594 99.7404 137.882 100.232 138.445C100.723 139.021 100.974 139.837 100.974 140.893V141.432H99.0697V140.761C99.0697 140.305 98.9859 139.981 98.8182 139.777C98.6505 139.573 98.399 139.465 98.0756 139.465C97.4049 139.465 97.0696 139.885 97.0696 140.725C97.0696 141.205 97.1893 141.648 97.4408 142.056C97.6924 142.464 98.1475 142.968 98.8062 143.556C99.6446 144.312 100.22 144.995 100.543 145.607C100.854 146.219 101.022 146.939 101.022 147.766C101.022 148.846 100.758 149.674 100.243 150.25C99.7285 150.825 98.9739 151.113 97.9918 151.113C97.0097 151.113 96.2791 150.825 95.776 150.262L95.7641 150.25Z" fill="#F7EEC1"/>
<path d="M102.16 137.774H104.172V143.316L106.735 137.774H108.748L106.352 142.596L108.783 150.921H106.687L104.987 145.055L104.184 146.723V150.909H102.172V137.762L102.16 137.774Z" fill="#F7EEC1"/>
<path d="M109.73 137.773H115.216V139.657H111.743V143.136H114.497V145.019H111.743V149.062H115.216V150.945H109.73V137.797V137.773Z" fill="#F7EEC1"/>
<path d="M118.211 145.319L115.779 137.762H117.923L119.289 142.584H119.325L120.69 137.762H122.642L120.211 145.319V150.921H118.199V145.319H118.211Z" fill="#F7EEC1"/>
<path d="M75.6544 160.639C75.6544 160.639 75.5945 160.639 75.5705 160.627C75.4867 160.603 75.4268 160.555 75.3909 160.471C75.3669 160.387 75.3669 160.303 75.4148 160.207C75.4627 160.111 75.5107 160.003 75.5945 159.871C75.6185 159.823 75.6424 159.787 75.6783 159.739C75.7023 159.691 75.7262 159.655 75.7382 159.619C75.7382 159.607 75.7502 159.595 75.7622 159.583C75.7622 159.583 75.7622 159.559 75.7742 159.547C75.6424 159.523 75.4747 159.523 75.2951 159.535C75.1154 159.547 74.9118 159.583 74.6842 159.643C74.4926 159.691 74.277 159.763 74.0495 159.847C73.8219 159.931 73.5824 160.027 73.3308 160.135C73.2829 160.159 73.235 160.159 73.1871 160.135C73.1392 160.111 73.1033 160.087 73.0793 160.027C73.0554 159.979 73.0434 159.919 73.0793 159.859C73.1152 159.799 73.1392 159.763 73.1871 159.739C73.4386 159.619 73.6901 159.523 73.9297 159.427C74.1692 159.343 74.3848 159.271 74.6004 159.223C75.1633 159.079 75.6185 159.055 75.9778 159.151C76.0856 159.175 76.1574 159.247 76.1933 159.355C76.2293 159.463 76.2293 159.571 76.1694 159.703C76.1095 159.835 76.0376 159.955 75.9538 160.099C75.9538 160.099 75.9538 160.123 75.9299 160.135C75.9059 160.147 75.9179 160.171 75.9059 160.183C76.0137 160.159 76.1694 160.111 76.373 160.039C76.5766 159.967 76.8641 159.871 77.2234 159.727C77.2713 159.703 77.3192 159.715 77.3791 159.727C77.439 159.739 77.4629 159.799 77.4869 159.847C77.5108 159.895 77.5108 159.955 77.4869 160.003C77.4629 160.051 77.427 160.099 77.3671 160.123C77.1515 160.195 76.9599 160.267 76.7922 160.327C76.6125 160.387 76.4568 160.435 76.3251 160.483C76.1454 160.543 76.0017 160.579 75.9059 160.603C75.8101 160.627 75.7382 160.639 75.6903 160.639H75.6544Z" fill="#F7EEC1"/>
<path d="M78.2057 160.507C78.2057 160.507 78.1697 160.507 78.1458 160.507C78.0739 160.483 78.026 160.459 77.9901 160.423C77.9541 160.387 77.9422 160.351 77.9302 160.327C77.8943 160.219 77.9062 160.111 77.9661 160.003C78.026 159.895 78.0859 159.775 78.1817 159.655C78.2057 159.619 78.2296 159.571 78.2655 159.535C78.2895 159.487 78.3135 159.451 78.3254 159.415L78.3494 159.391C78.3494 159.391 78.2895 159.415 78.2536 159.439C78.2176 159.463 78.1697 159.487 78.1218 159.523C78.038 159.571 77.9541 159.643 77.8583 159.727C77.7625 159.811 77.6787 159.895 77.5829 159.979C77.5589 160.003 77.5349 160.015 77.511 160.039C77.487 160.063 77.4631 160.087 77.4391 160.111C77.4032 160.147 77.3433 160.171 77.2954 160.159C77.2355 160.159 77.1876 160.135 77.1517 160.087C77.1158 160.039 77.0918 159.991 77.0918 159.931C77.0918 159.871 77.1158 159.823 77.1637 159.787C77.1876 159.763 77.2116 159.739 77.2355 159.715C77.2595 159.691 77.2834 159.667 77.3074 159.655C77.4511 159.523 77.5948 159.391 77.7386 159.283C77.8823 159.163 78.014 159.079 78.1578 159.019C78.3015 158.959 78.4332 158.947 78.553 158.983C78.6368 159.007 78.6847 159.031 78.7207 159.079C78.7566 159.127 78.7686 159.163 78.7806 159.199C78.8285 159.307 78.8165 159.415 78.7566 159.523C78.6967 159.631 78.6249 159.763 78.529 159.895C78.529 159.895 78.5051 159.919 78.4931 159.943C78.4931 159.967 78.4692 159.979 78.4572 160.003C78.529 159.979 78.6129 159.943 78.7207 159.895C78.8285 159.847 78.9602 159.799 79.1159 159.739C79.1758 159.715 79.2357 159.727 79.2836 159.739C79.3315 159.751 79.3674 159.811 79.3914 159.859C79.4153 159.907 79.4153 159.967 79.3914 160.015C79.3674 160.063 79.3315 160.111 79.2836 160.135C79.1399 160.183 79.0081 160.231 78.8884 160.279C78.7686 160.327 78.6728 160.363 78.5889 160.387C78.541 160.411 78.5051 160.423 78.4692 160.435L78.3733 160.471C78.3733 160.471 78.3135 160.483 78.2895 160.495C78.2655 160.495 78.2416 160.495 78.2176 160.495L78.2057 160.507Z" fill="#F7EEC1"/>
<path d="M79.7258 161.119C79.7258 161.119 79.666 161.119 79.63 161.119C79.5941 161.119 79.5701 161.107 79.5342 161.107C79.4504 161.083 79.3905 161.035 79.3665 160.963C79.3306 160.867 79.3306 160.759 79.3665 160.615C79.4144 160.483 79.4863 160.315 79.5821 160.1C79.5941 160.064 79.618 160.016 79.642 159.968C79.666 159.92 79.6779 159.872 79.7019 159.836C79.642 159.86 79.5821 159.896 79.5103 159.956C79.4384 160.016 79.3785 160.064 79.3066 160.124C79.2587 160.16 79.2108 160.172 79.1509 160.16C79.0911 160.16 79.0431 160.124 79.0072 160.088C78.9713 160.04 78.9593 159.992 78.9713 159.932C78.9833 159.872 79.0072 159.824 79.0432 159.788C79.103 159.74 79.1749 159.692 79.2468 159.632C79.3186 159.572 79.3905 159.524 79.4623 159.488C79.654 159.392 79.8217 159.368 79.9774 159.416C80.0492 159.428 80.1091 159.476 80.145 159.56C80.181 159.632 80.181 159.728 80.145 159.848C80.1091 159.968 80.0372 160.112 79.9534 160.303C79.9295 160.363 79.9055 160.411 79.8815 160.471C79.8576 160.531 79.8336 160.579 79.8097 160.627C79.8097 160.651 79.8097 160.663 79.7977 160.675V160.723C79.8815 160.711 80.0133 160.663 80.2049 160.567C80.3966 160.471 80.6361 160.303 80.9595 160.052C81.1272 159.92 81.2829 159.788 81.4146 159.656C81.5464 159.524 81.7021 159.38 81.8697 159.212C81.9296 159.14 81.9895 159.128 82.0733 159.152C82.1093 159.152 82.1332 159.176 82.1572 159.2C82.1811 159.224 82.1931 159.248 82.2171 159.272C82.253 159.332 82.253 159.416 82.2171 159.5C82.1931 159.584 82.1452 159.728 82.0614 159.92C82.0374 159.98 82.0135 160.04 81.9775 160.1C81.9536 160.16 81.9296 160.219 81.9057 160.267V160.315C81.9057 160.315 81.8937 160.339 81.8817 160.351C81.9655 160.339 82.0614 160.303 82.1572 160.231C82.253 160.172 82.3488 160.1 82.4446 160.016C82.5404 159.932 82.6123 159.872 82.6842 159.812C82.7321 159.764 82.78 159.752 82.8399 159.752C82.8998 159.752 82.9477 159.776 82.9836 159.824C83.0195 159.872 83.0315 159.92 83.0315 159.98C83.0315 160.04 83.0076 160.088 82.9596 160.124C82.8159 160.255 82.6722 160.375 82.5285 160.483C82.3847 160.591 82.229 160.675 82.0853 160.735C81.9416 160.795 81.7859 160.795 81.6422 160.759C81.5703 160.723 81.5104 160.675 81.4865 160.615C81.4625 160.555 81.4505 160.471 81.4625 160.399C81.4625 160.315 81.4984 160.22 81.5464 160.1C81.4984 160.148 81.4505 160.196 81.3906 160.231C81.3427 160.279 81.2829 160.315 81.223 160.375C80.5882 160.891 80.0971 161.143 79.7498 161.143L79.7258 161.119Z" fill="#F7EEC1"/>
<path d="M85.2247 160.639C85.2247 160.639 85.1648 160.639 85.1409 160.627C85.057 160.603 84.9971 160.555 84.9612 160.471C84.9372 160.387 84.9372 160.303 84.9852 160.207C85.0331 160.111 85.081 160.003 85.1648 159.871C85.1888 159.823 85.2127 159.787 85.2486 159.739C85.2726 159.691 85.2966 159.655 85.3085 159.619C85.3085 159.607 85.3205 159.595 85.3325 159.583C85.3325 159.583 85.3325 159.559 85.3445 159.547C85.2127 159.523 85.045 159.523 84.8654 159.535C84.6857 159.547 84.4821 159.583 84.2546 159.643C84.0629 159.691 83.8473 159.763 83.6198 159.847C83.3922 159.931 83.1527 160.027 82.9011 160.135C82.8532 160.159 82.8053 160.159 82.7574 160.135C82.7095 160.111 82.6736 160.087 82.6496 160.027C82.6257 159.979 82.6137 159.919 82.6496 159.859C82.6856 159.799 82.7095 159.763 82.7574 159.739C83.0089 159.619 83.2605 159.523 83.5 159.427C83.7395 159.343 83.9551 159.271 84.1707 159.223C84.7336 159.079 85.1888 159.055 85.5481 159.151C85.6559 159.175 85.7277 159.247 85.7637 159.355C85.7996 159.463 85.7996 159.571 85.7397 159.703C85.6798 159.835 85.608 159.955 85.5241 160.099C85.5241 160.099 85.5241 160.123 85.5002 160.135C85.4762 160.147 85.4882 160.171 85.4762 160.183C85.584 160.159 85.7397 160.111 85.9433 160.039C86.1469 159.967 86.4344 159.871 86.7937 159.727C86.8416 159.703 86.8895 159.715 86.9494 159.727C87.0093 159.739 87.0332 159.799 87.0572 159.847C87.0811 159.895 87.0811 159.955 87.0572 160.003C87.0332 160.051 86.9973 160.099 86.9374 160.123C86.7218 160.195 86.5302 160.267 86.3625 160.327C86.1829 160.387 86.0272 160.435 85.8954 160.483C85.7158 160.543 85.572 160.579 85.4762 160.603C85.3804 160.627 85.3085 160.639 85.2606 160.639H85.2247Z" fill="#F7EEC1"/>
<path d="M87.4036 161.119C87.4036 161.119 87.3437 161.119 87.3078 161.119C87.2718 161.119 87.2479 161.107 87.2119 161.107C87.1281 161.083 87.0682 161.035 87.0443 160.963C87.0083 160.867 87.0083 160.759 87.0443 160.615C87.0922 160.483 87.164 160.315 87.2599 160.1C87.2718 160.064 87.2958 160.016 87.3197 159.968C87.3437 159.92 87.3557 159.872 87.3796 159.836C87.3197 159.86 87.2599 159.896 87.188 159.956C87.1161 160.016 87.0562 160.064 86.9844 160.124C86.9365 160.16 86.8886 160.172 86.8287 160.16C86.7688 160.16 86.7209 160.124 86.685 160.088C86.649 160.04 86.637 159.992 86.649 159.932C86.661 159.872 86.685 159.824 86.7209 159.788C86.7808 159.74 86.8526 159.692 86.9245 159.632C86.9964 159.572 87.0682 159.524 87.1401 159.488C87.3317 159.392 87.4994 159.368 87.6551 159.416C87.727 159.428 87.7868 159.476 87.8228 159.56C87.8587 159.632 87.8587 159.728 87.8228 159.848C87.7868 159.968 87.715 160.112 87.6311 160.303C87.6072 160.363 87.5832 160.411 87.5593 160.471C87.5353 160.531 87.5114 160.579 87.4874 160.627C87.4874 160.651 87.4874 160.663 87.4754 160.675V160.723C87.5593 160.711 87.691 160.663 87.8827 160.567C88.0743 160.471 88.3138 160.303 88.6372 160.052C88.8049 159.92 88.9606 159.788 89.0923 159.656C89.2241 159.524 89.3798 159.38 89.5475 159.212C89.6074 159.14 89.6672 159.128 89.7511 159.152C89.787 159.152 89.811 159.176 89.8349 159.2C89.8589 159.224 89.8708 159.248 89.8948 159.272C89.9307 159.332 89.9307 159.416 89.8948 159.5C89.8708 159.584 89.8229 159.728 89.7391 159.92C89.7151 159.98 89.6912 160.04 89.6553 160.1C89.6313 160.16 89.6074 160.219 89.5834 160.267V160.315C89.5834 160.315 89.5714 160.339 89.5594 160.351C89.6433 160.339 89.7391 160.303 89.8349 160.231C89.9307 160.172 90.0265 160.1 90.1224 160.016C90.2182 159.932 90.29 159.872 90.3619 159.812C90.4098 159.764 90.4577 159.752 90.5176 159.752C90.5775 159.752 90.6254 159.776 90.6613 159.824C90.6973 159.872 90.7092 159.92 90.7092 159.98C90.7092 160.04 90.6853 160.088 90.6374 160.124C90.4937 160.255 90.3499 160.375 90.2062 160.483C90.0625 160.591 89.9068 160.675 89.7631 160.735C89.6193 160.795 89.4636 160.795 89.3199 160.759C89.248 160.723 89.1882 160.675 89.1642 160.615C89.1402 160.555 89.1283 160.471 89.1402 160.399C89.1402 160.315 89.1762 160.22 89.2241 160.1C89.1762 160.148 89.1283 160.196 89.0684 160.231C89.0205 160.279 88.9606 160.315 88.9007 160.375C88.2659 160.891 87.7749 161.143 87.4275 161.143L87.4036 161.119Z" fill="#F7EEC1"/>
<path d="M94.386 161.119C94.386 161.119 94.3261 161.119 94.2902 161.119C94.2543 161.119 94.2303 161.107 94.1944 161.107C94.1105 161.083 94.0506 161.035 94.0267 160.963C93.9908 160.867 93.9908 160.759 94.0267 160.615C94.0746 160.483 94.1465 160.315 94.2423 160.1C94.2543 160.064 94.2782 160.016 94.3022 159.968C94.3261 159.92 94.3381 159.872 94.362 159.836C94.3022 159.86 94.2423 159.896 94.1704 159.956C94.0985 160.016 94.0387 160.064 93.9668 160.124C93.9189 160.16 93.871 160.172 93.8111 160.16C93.7512 160.16 93.7033 160.124 93.6674 160.088C93.6314 160.04 93.6195 159.992 93.6314 159.932C93.6434 159.872 93.6674 159.824 93.7033 159.788C93.7632 159.74 93.8351 159.692 93.9069 159.632C93.9788 159.572 94.0506 159.524 94.1225 159.488C94.3141 159.392 94.4818 159.368 94.6375 159.416C94.7094 159.428 94.7693 159.476 94.8052 159.56C94.8411 159.632 94.8411 159.728 94.8052 159.848C94.7693 159.968 94.6974 160.112 94.6136 160.303C94.5896 160.363 94.5657 160.411 94.5417 160.471C94.5177 160.531 94.4938 160.579 94.4698 160.627C94.4698 160.651 94.4698 160.663 94.4579 160.675V160.723C94.5417 160.711 94.6734 160.663 94.8651 160.567C95.0567 160.471 95.2963 160.303 95.6196 160.052C95.7873 159.92 95.943 159.788 96.0748 159.656C96.2065 159.524 96.3622 159.38 96.5299 159.212C96.5898 159.14 96.6497 159.128 96.7335 159.152C96.7694 159.152 96.7934 159.176 96.8173 159.2C96.8413 159.224 96.8533 159.248 96.8772 159.272C96.9132 159.332 96.9132 159.416 96.8772 159.5C96.8533 159.584 96.8054 159.728 96.7215 159.92C96.6976 159.98 96.6736 160.04 96.6377 160.1C96.6137 160.16 96.5898 160.219 96.5658 160.267V160.315C96.5658 160.315 96.5538 160.339 96.5419 160.351C96.6257 160.339 96.7215 160.303 96.8173 160.231C96.9132 160.172 97.009 160.1 97.1048 160.016C97.2006 159.932 97.2725 159.872 97.3443 159.812C97.3922 159.764 97.4401 159.752 97.5 159.752C97.5599 159.752 97.6078 159.776 97.6438 159.824C97.6797 159.872 97.6917 159.92 97.6917 159.98C97.6917 160.04 97.6677 160.088 97.6198 160.124C97.4761 160.255 97.3324 160.375 97.1886 160.483C97.0449 160.591 96.8892 160.675 96.7455 160.735C96.6018 160.795 96.4461 160.795 96.3023 160.759C96.2305 160.723 96.1706 160.675 96.1466 160.615C96.1227 160.555 96.1107 160.471 96.1227 160.399C96.1227 160.315 96.1586 160.22 96.2065 160.1C96.1586 160.148 96.1107 160.196 96.0508 160.231C96.0029 160.279 95.943 160.315 95.8831 160.375C95.2483 160.891 94.7573 161.143 94.41 161.143L94.386 161.119Z" fill="#F7EEC1"/>
<path d="M99.8849 160.639C99.8849 160.639 99.825 160.639 99.801 160.627C99.7172 160.603 99.6573 160.555 99.6214 160.471C99.5974 160.387 99.5974 160.303 99.6453 160.207C99.6932 160.111 99.7411 160.003 99.825 159.871C99.8489 159.823 99.8729 159.787 99.9088 159.739C99.9328 159.691 99.9567 159.655 99.9687 159.619C99.9687 159.607 99.9807 159.595 99.9926 159.583C99.9926 159.583 99.9926 159.559 100.005 159.547C99.8729 159.523 99.7052 159.523 99.5255 159.535C99.3459 159.547 99.1423 159.583 98.9147 159.643C98.7231 159.691 98.5075 159.763 98.2799 159.847C98.0524 159.931 97.8128 160.027 97.5613 160.135C97.5134 160.159 97.4655 160.159 97.4176 160.135C97.3697 160.111 97.3337 160.087 97.3098 160.027C97.2858 159.979 97.2739 159.919 97.3098 159.859C97.3457 159.799 97.3697 159.763 97.4176 159.739C97.6691 159.619 97.9206 159.523 98.1602 159.427C98.3997 159.343 98.6153 159.271 98.8309 159.223C99.3938 159.079 99.8489 159.055 100.208 159.151C100.316 159.175 100.388 159.247 100.424 159.355C100.46 159.463 100.46 159.571 100.4 159.703C100.34 159.835 100.268 159.955 100.184 160.099C100.184 160.099 100.184 160.123 100.16 160.135C100.136 160.147 100.148 160.171 100.136 160.183C100.244 160.159 100.4 160.111 100.603 160.039C100.807 159.967 101.095 159.871 101.454 159.727C101.502 159.703 101.55 159.715 101.61 159.727C101.669 159.739 101.693 159.799 101.717 159.847C101.741 159.895 101.741 159.955 101.717 160.003C101.693 160.051 101.657 160.099 101.598 160.123C101.382 160.195 101.19 160.267 101.023 160.327C100.843 160.387 100.687 160.435 100.556 160.483C100.376 160.543 100.232 160.579 100.136 160.603C100.041 160.627 99.9687 160.639 99.9208 160.639H99.8849Z" fill="#F7EEC1"/>
<path d="M102.064 161.119C102.064 161.119 102.004 161.119 101.968 161.119C101.932 161.119 101.908 161.107 101.872 161.107C101.788 161.083 101.728 161.035 101.704 160.963C101.668 160.867 101.668 160.759 101.704 160.615C101.752 160.483 101.824 160.315 101.92 160.1C101.932 160.064 101.956 160.016 101.98 159.968C102.004 159.92 102.016 159.872 102.04 159.836C101.98 159.86 101.92 159.896 101.848 159.956C101.776 160.016 101.716 160.064 101.645 160.124C101.597 160.16 101.549 160.172 101.489 160.16C101.429 160.16 101.381 160.124 101.345 160.088C101.309 160.04 101.297 159.992 101.309 159.932C101.321 159.872 101.345 159.824 101.381 159.788C101.441 159.74 101.513 159.692 101.585 159.632C101.657 159.572 101.728 159.524 101.8 159.488C101.992 159.392 102.16 159.368 102.315 159.416C102.387 159.428 102.447 159.476 102.483 159.56C102.519 159.632 102.519 159.728 102.483 159.848C102.447 159.968 102.375 160.112 102.291 160.303C102.267 160.363 102.243 160.411 102.219 160.471C102.195 160.531 102.172 160.579 102.148 160.627C102.148 160.651 102.148 160.663 102.136 160.675V160.723C102.219 160.711 102.351 160.663 102.543 160.567C102.734 160.471 102.974 160.303 103.297 160.052C103.465 159.92 103.621 159.788 103.752 159.656C103.884 159.524 104.04 159.38 104.208 159.212C104.268 159.14 104.327 159.128 104.411 159.152C104.447 159.152 104.471 159.176 104.495 159.2C104.519 159.224 104.531 159.248 104.555 159.272C104.591 159.332 104.591 159.416 104.555 159.5C104.531 159.584 104.483 159.728 104.399 159.92C104.375 159.98 104.351 160.04 104.315 160.1C104.291 160.16 104.268 160.219 104.244 160.267V160.315C104.244 160.315 104.232 160.339 104.22 160.351C104.303 160.339 104.399 160.303 104.495 160.231C104.591 160.172 104.687 160.1 104.783 160.016C104.878 159.932 104.95 159.872 105.022 159.812C105.07 159.764 105.118 159.752 105.178 159.752C105.238 159.752 105.286 159.776 105.321 159.824C105.357 159.872 105.369 159.92 105.369 159.98C105.369 160.04 105.345 160.088 105.298 160.124C105.154 160.255 105.01 160.375 104.866 160.483C104.723 160.591 104.567 160.675 104.423 160.735C104.279 160.795 104.124 160.795 103.98 160.759C103.908 160.723 103.848 160.675 103.824 160.615C103.8 160.555 103.788 160.471 103.8 160.399C103.8 160.315 103.836 160.22 103.884 160.1C103.836 160.148 103.788 160.196 103.729 160.231C103.681 160.279 103.621 160.315 103.561 160.375C102.926 160.891 102.435 161.143 102.088 161.143L102.064 161.119Z" fill="#F7EEC1"/>
<path d="M110.053 160.711C110.053 160.711 109.957 160.699 109.921 160.663C109.849 160.603 109.825 160.519 109.861 160.435C109.861 160.435 109.873 160.375 109.909 160.267C109.945 160.159 109.981 160.039 110.029 159.895C110.053 159.811 110.077 159.751 110.089 159.691C110.113 159.631 110.125 159.583 110.137 159.535C110.017 159.583 109.861 159.643 109.682 159.703C109.502 159.775 109.322 159.847 109.119 159.919C108.915 159.991 108.735 160.063 108.556 160.135C108.508 160.159 108.46 160.147 108.4 160.135C108.34 160.123 108.304 160.063 108.292 160.015C108.28 159.967 108.28 159.907 108.292 159.859C108.316 159.811 108.352 159.763 108.412 159.739C108.616 159.667 108.831 159.583 109.047 159.499C109.262 159.415 109.466 159.343 109.658 159.271C109.849 159.199 110.053 159.115 110.292 159.02C110.316 159.02 110.34 159.02 110.364 159.02C110.388 159.02 110.412 159.02 110.424 159.02C110.484 159.02 110.532 159.068 110.556 159.127C110.58 159.163 110.592 159.211 110.592 159.271C110.592 159.331 110.58 159.415 110.556 159.523C110.544 159.583 110.52 159.655 110.508 159.727C110.484 159.799 110.46 159.883 110.424 159.979C110.424 160.003 110.424 160.015 110.412 160.027C110.4 160.039 110.412 160.063 110.4 160.075C110.58 159.967 110.807 159.859 111.071 159.751C111.119 159.727 111.167 159.727 111.227 159.751C111.286 159.775 111.31 159.811 111.334 159.859C111.358 159.907 111.37 159.967 111.334 160.015C111.298 160.063 111.274 160.111 111.227 160.135C111.023 160.231 110.831 160.315 110.676 160.399C110.508 160.483 110.34 160.579 110.149 160.687C110.125 160.711 110.089 160.723 110.041 160.723L110.053 160.711Z" fill="#F7EEC1"/>
<path d="M112.016 161.13C112.016 161.13 111.968 161.13 111.944 161.13C111.92 161.13 111.896 161.13 111.872 161.13C111.812 161.106 111.776 161.07 111.74 161.01C111.716 160.974 111.716 160.927 111.716 160.855C111.716 160.783 111.74 160.687 111.776 160.531C111.812 160.387 111.884 160.159 111.98 159.859C111.884 159.895 111.764 159.943 111.633 159.991C111.501 160.039 111.369 160.099 111.237 160.147C111.189 160.171 111.142 160.159 111.082 160.147C111.022 160.135 110.986 160.075 110.974 160.027C110.962 159.979 110.962 159.919 110.974 159.871C110.998 159.823 111.034 159.775 111.094 159.751C111.285 159.679 111.477 159.607 111.645 159.535C111.812 159.475 112.016 159.391 112.231 159.307C112.279 159.283 112.315 159.283 112.363 159.307C112.423 159.319 112.471 159.355 112.495 159.415C112.519 159.463 112.531 159.499 112.519 159.523L112.495 159.631C112.495 159.631 112.483 159.667 112.471 159.691C112.471 159.715 112.471 159.739 112.447 159.763C112.411 159.847 112.387 159.943 112.351 160.051C112.315 160.171 112.279 160.279 112.243 160.399C112.219 160.459 112.207 160.519 112.184 160.567C112.16 160.615 112.16 160.651 112.148 160.699C112.231 160.675 112.363 160.627 112.519 160.531C112.663 160.447 112.818 160.363 112.974 160.255C113.142 160.147 113.297 160.039 113.477 159.919C113.513 159.895 113.549 159.871 113.585 159.847C113.621 159.823 113.657 159.799 113.693 159.775C113.741 159.739 113.8 159.727 113.848 159.739C113.896 159.751 113.944 159.787 113.98 159.835C114.016 159.883 114.028 159.931 114.016 159.991C114.004 160.051 113.968 160.087 113.92 160.123C113.884 160.147 113.848 160.183 113.812 160.207C113.776 160.231 113.729 160.255 113.693 160.291C113.513 160.411 113.345 160.519 113.19 160.627C113.022 160.735 112.866 160.831 112.722 160.915C112.423 161.07 112.195 161.154 112.016 161.154V161.13Z" fill="#F7EEC1"/>
<path d="M114.376 161.119C114.376 161.119 114.316 161.119 114.28 161.119C114.244 161.119 114.221 161.107 114.185 161.107C114.101 161.083 114.041 161.035 114.017 160.963C113.981 160.867 113.981 160.759 114.017 160.615C114.065 160.483 114.137 160.315 114.233 160.1C114.244 160.064 114.268 160.016 114.292 159.968C114.316 159.92 114.328 159.872 114.352 159.836C114.292 159.86 114.233 159.896 114.161 159.956C114.089 160.016 114.029 160.064 113.957 160.124C113.909 160.16 113.861 160.172 113.801 160.16C113.741 160.16 113.694 160.124 113.658 160.088C113.622 160.04 113.61 159.992 113.622 159.932C113.634 159.872 113.658 159.824 113.694 159.788C113.753 159.74 113.825 159.692 113.897 159.632C113.969 159.572 114.041 159.524 114.113 159.488C114.304 159.392 114.472 159.368 114.628 159.416C114.7 159.428 114.759 159.476 114.795 159.56C114.831 159.632 114.831 159.728 114.795 159.848C114.759 159.968 114.688 160.112 114.604 160.303C114.58 160.363 114.556 160.411 114.532 160.471C114.508 160.531 114.484 160.579 114.46 160.627C114.46 160.651 114.46 160.663 114.448 160.675V160.723C114.532 160.711 114.664 160.663 114.855 160.567C115.047 160.471 115.286 160.303 115.61 160.052C115.778 159.92 115.933 159.788 116.065 159.656C116.197 159.524 116.352 159.38 116.52 159.212C116.58 159.14 116.64 159.128 116.724 159.152C116.76 159.152 116.784 159.176 116.808 159.2C116.832 159.224 116.844 159.248 116.867 159.272C116.903 159.332 116.903 159.416 116.867 159.5C116.844 159.584 116.796 159.728 116.712 159.92C116.688 159.98 116.664 160.04 116.628 160.1C116.604 160.16 116.58 160.219 116.556 160.267V160.315C116.556 160.315 116.544 160.339 116.532 160.351C116.616 160.339 116.712 160.303 116.808 160.231C116.903 160.172 116.999 160.1 117.095 160.016C117.191 159.932 117.263 159.872 117.335 159.812C117.382 159.764 117.43 159.752 117.49 159.752C117.55 159.752 117.598 159.776 117.634 159.824C117.67 159.872 117.682 159.92 117.682 159.98C117.682 160.04 117.658 160.088 117.61 160.124C117.466 160.255 117.323 160.375 117.179 160.483C117.035 160.591 116.879 160.675 116.736 160.735C116.592 160.795 116.436 160.795 116.293 160.759C116.221 160.723 116.161 160.675 116.137 160.615C116.113 160.555 116.101 160.471 116.113 160.399C116.113 160.315 116.149 160.22 116.197 160.1C116.149 160.148 116.101 160.196 116.041 160.231C115.993 160.279 115.933 160.315 115.873 160.375C115.239 160.891 114.748 161.143 114.4 161.143L114.376 161.119Z" fill="#F7EEC1"/>
<path d="M119.035 160.711C119.035 160.711 118.939 160.699 118.903 160.663C118.832 160.603 118.808 160.519 118.844 160.435C118.844 160.435 118.856 160.375 118.892 160.267C118.927 160.159 118.963 160.039 119.011 159.895C119.035 159.811 119.059 159.751 119.071 159.691C119.095 159.631 119.107 159.583 119.119 159.535C118.999 159.583 118.844 159.643 118.664 159.703C118.484 159.775 118.305 159.847 118.101 159.919C117.897 159.991 117.718 160.063 117.538 160.135C117.49 160.159 117.442 160.147 117.382 160.135C117.323 160.123 117.287 160.063 117.275 160.015C117.263 159.967 117.263 159.907 117.275 159.859C117.299 159.811 117.334 159.763 117.394 159.739C117.598 159.667 117.814 159.583 118.029 159.499C118.245 159.415 118.448 159.343 118.64 159.271C118.832 159.199 119.035 159.115 119.275 159.02C119.299 159.02 119.323 159.02 119.347 159.02C119.371 159.02 119.395 159.02 119.407 159.02C119.466 159.02 119.514 159.068 119.538 159.127C119.562 159.163 119.574 159.211 119.574 159.271C119.574 159.331 119.562 159.415 119.538 159.523C119.526 159.583 119.502 159.655 119.49 159.727C119.466 159.799 119.442 159.883 119.407 159.979C119.407 160.003 119.407 160.015 119.395 160.027C119.383 160.039 119.395 160.063 119.383 160.075C119.562 159.967 119.79 159.859 120.053 159.751C120.101 159.727 120.149 159.727 120.209 159.751C120.269 159.775 120.293 159.811 120.317 159.859C120.341 159.907 120.353 159.967 120.317 160.015C120.281 160.063 120.257 160.111 120.209 160.135C120.005 160.231 119.814 160.315 119.658 160.399C119.49 160.483 119.323 160.579 119.131 160.687C119.107 160.711 119.071 160.723 119.023 160.723L119.035 160.711Z" fill="#F7EEC1"/>
<path d="M121 161.13C121 161.13 120.952 161.13 120.928 161.13C120.904 161.13 120.88 161.13 120.856 161.13C120.797 161.106 120.761 161.07 120.725 161.01C120.701 160.974 120.701 160.927 120.701 160.855C120.701 160.783 120.725 160.687 120.761 160.531C120.797 160.387 120.868 160.159 120.964 159.859C120.868 159.895 120.749 159.943 120.617 159.991C120.485 160.039 120.353 160.099 120.222 160.147C120.174 160.171 120.126 160.159 120.066 160.147C120.006 160.135 119.97 160.075 119.958 160.027C119.946 159.979 119.946 159.919 119.958 159.871C119.982 159.823 120.018 159.775 120.078 159.751C120.27 159.679 120.461 159.607 120.629 159.535C120.797 159.475 121 159.391 121.216 159.307C121.264 159.283 121.3 159.283 121.348 159.307C121.407 159.319 121.455 159.355 121.479 159.415C121.503 159.463 121.515 159.499 121.503 159.523L121.479 159.631C121.479 159.631 121.467 159.667 121.455 159.691C121.455 159.715 121.455 159.739 121.431 159.763C121.395 159.847 121.371 159.943 121.336 160.051C121.3 160.171 121.264 160.279 121.228 160.399C121.204 160.459 121.192 160.519 121.168 160.567C121.144 160.615 121.144 160.651 121.132 160.699C121.216 160.675 121.348 160.627 121.503 160.531C121.647 160.447 121.803 160.363 121.958 160.255C122.126 160.147 122.282 160.039 122.461 159.919C122.497 159.895 122.533 159.871 122.569 159.847C122.605 159.823 122.641 159.799 122.677 159.775C122.725 159.739 122.785 159.727 122.833 159.739C122.881 159.751 122.929 159.787 122.964 159.835C123 159.883 123.012 159.931 123 159.991C122.988 160.051 122.952 160.087 122.905 160.123C122.869 160.147 122.833 160.183 122.797 160.207C122.761 160.231 122.713 160.255 122.677 160.291C122.497 160.411 122.33 160.519 122.174 160.627C122.006 160.735 121.851 160.831 121.707 160.915C121.407 161.07 121.18 161.154 121 161.154V161.13Z" fill="#F7EEC1"/>
<path d="M79.3674 166.996C79.3674 166.996 79.3195 166.996 79.2955 166.996C79.2716 166.996 79.2476 166.996 79.2237 166.996C79.1638 166.972 79.1279 166.936 79.0919 166.876C79.068 166.84 79.068 166.792 79.068 166.72C79.068 166.648 79.0919 166.552 79.1279 166.396C79.1638 166.252 79.2356 166.024 79.3315 165.724C79.2356 165.76 79.1159 165.808 78.9841 165.856C78.8524 165.904 78.7206 165.964 78.5889 166.012C78.541 166.036 78.4931 166.024 78.4332 166.012C78.3733 166 78.3374 165.94 78.3254 165.892C78.3134 165.844 78.3134 165.784 78.3254 165.736C78.3493 165.688 78.3853 165.64 78.4452 165.616C78.6368 165.544 78.8284 165.472 78.9961 165.4C79.1638 165.34 79.3674 165.256 79.583 165.172C79.6309 165.148 79.6668 165.148 79.7147 165.172C79.7746 165.184 79.8225 165.22 79.8465 165.28C79.8704 165.328 79.8824 165.364 79.8704 165.388L79.8465 165.496C79.8465 165.496 79.8345 165.532 79.8225 165.556C79.8225 165.58 79.8225 165.604 79.7986 165.628C79.7626 165.712 79.7387 165.808 79.7027 165.916C79.6668 166.036 79.6309 166.144 79.595 166.264C79.571 166.324 79.559 166.384 79.5351 166.432C79.5111 166.48 79.5111 166.516 79.4991 166.564C79.583 166.54 79.7147 166.492 79.8704 166.396C80.0142 166.312 80.1699 166.228 80.3256 166.12C80.4932 166.012 80.6489 165.904 80.8286 165.784C80.8645 165.76 80.9005 165.736 80.9364 165.712C80.9723 165.688 81.0082 165.664 81.0442 165.64C81.0921 165.604 81.152 165.592 81.1999 165.604C81.2478 165.616 81.2957 165.652 81.3316 165.7C81.3676 165.748 81.3795 165.796 81.3676 165.856C81.3556 165.916 81.3197 165.952 81.2717 165.988C81.2358 166.012 81.1999 166.048 81.1639 166.072C81.128 166.096 81.0801 166.12 81.0442 166.156C80.8645 166.276 80.6968 166.384 80.5411 166.492C80.3735 166.6 80.2178 166.696 80.074 166.78C79.7746 166.936 79.547 167.02 79.3674 167.02V166.996Z" fill="#F7EEC1"/>
<path d="M81.7258 166.984C81.7258 166.984 81.666 166.984 81.63 166.984C81.5941 166.984 81.5701 166.972 81.5342 166.972C81.4504 166.948 81.3905 166.9 81.3665 166.828C81.3306 166.733 81.3306 166.625 81.3665 166.481C81.4144 166.349 81.4863 166.181 81.5821 165.965C81.5941 165.929 81.618 165.881 81.642 165.833C81.666 165.785 81.6779 165.737 81.7019 165.701C81.642 165.725 81.5821 165.761 81.5103 165.821C81.4384 165.881 81.3785 165.929 81.3066 165.989C81.2587 166.025 81.2108 166.037 81.1509 166.025C81.0911 166.025 81.0431 165.989 81.0072 165.953C80.9713 165.905 80.9593 165.857 80.9713 165.797C80.9833 165.737 81.0072 165.689 81.0432 165.653C81.103 165.605 81.1749 165.557 81.2468 165.497C81.3186 165.437 81.3905 165.389 81.4623 165.353C81.654 165.257 81.8217 165.233 81.9774 165.281C82.0492 165.293 82.1091 165.341 82.145 165.425C82.181 165.497 82.181 165.593 82.145 165.713C82.1091 165.833 82.0372 165.977 81.9534 166.169C81.9295 166.229 81.9055 166.277 81.8815 166.337C81.8576 166.397 81.8336 166.445 81.8097 166.493C81.8097 166.517 81.8097 166.529 81.7977 166.541V166.589C81.8815 166.577 82.0133 166.529 82.2049 166.433C82.3966 166.337 82.6361 166.169 82.9595 165.917C83.1272 165.785 83.2829 165.653 83.4146 165.521C83.5464 165.389 83.7021 165.245 83.8697 165.077C83.9296 165.005 83.9895 164.993 84.0733 165.017C84.1093 165.017 84.1332 165.041 84.1572 165.065C84.1811 165.089 84.1931 165.113 84.2171 165.137C84.253 165.197 84.253 165.281 84.2171 165.365C84.1931 165.449 84.1452 165.593 84.0614 165.785C84.0374 165.845 84.0135 165.905 83.9775 165.965C83.9536 166.025 83.9296 166.085 83.9057 166.133V166.181C83.9057 166.181 83.8937 166.205 83.8817 166.217C83.9655 166.205 84.0614 166.169 84.1572 166.097C84.253 166.037 84.3488 165.965 84.4446 165.881C84.5404 165.797 84.6123 165.737 84.6842 165.677C84.7321 165.629 84.78 165.617 84.8399 165.617C84.8998 165.617 84.9477 165.641 84.9836 165.689C85.0195 165.737 85.0315 165.785 85.0315 165.845C85.0315 165.905 85.0076 165.953 84.9596 165.989C84.8159 166.121 84.6722 166.241 84.5285 166.349C84.3847 166.457 84.229 166.541 84.0853 166.601C83.9416 166.661 83.7859 166.661 83.6422 166.625C83.5703 166.589 83.5104 166.541 83.4865 166.481C83.4625 166.421 83.4505 166.337 83.4625 166.265C83.4625 166.181 83.4984 166.085 83.5464 165.965C83.4984 166.013 83.4505 166.061 83.3906 166.097C83.3427 166.145 83.2829 166.181 83.223 166.241C82.5882 166.757 82.0971 167.008 81.7498 167.008L81.7258 166.984Z" fill="#F7EEC1"/>
<path d="M87.2247 166.516C87.2247 166.516 87.1648 166.516 87.1409 166.504C87.057 166.48 86.9971 166.432 86.9612 166.348C86.9372 166.264 86.9372 166.18 86.9852 166.084C87.0331 165.988 87.081 165.88 87.1648 165.748C87.1888 165.7 87.2127 165.664 87.2486 165.616C87.2726 165.568 87.2966 165.532 87.3085 165.496C87.3085 165.484 87.3205 165.472 87.3325 165.46C87.3325 165.46 87.3325 165.436 87.3445 165.424C87.2127 165.4 87.045 165.4 86.8654 165.412C86.6857 165.424 86.4821 165.46 86.2546 165.52C86.0629 165.568 85.8473 165.64 85.6198 165.724C85.3922 165.808 85.1527 165.904 84.9011 166.012C84.8532 166.036 84.8053 166.036 84.7574 166.012C84.7095 165.988 84.6736 165.964 84.6496 165.904C84.6257 165.856 84.6137 165.796 84.6496 165.736C84.6856 165.676 84.7095 165.64 84.7574 165.616C85.0089 165.496 85.2605 165.4 85.5 165.304C85.7395 165.22 85.9551 165.148 86.1707 165.1C86.7336 164.956 87.1888 164.932 87.5481 165.028C87.6559 165.052 87.7277 165.124 87.7637 165.232C87.7996 165.34 87.7996 165.448 87.7397 165.58C87.6798 165.712 87.608 165.832 87.5241 165.976C87.5241 165.976 87.5241 166 87.5002 166.012C87.4762 166.024 87.4882 166.048 87.4762 166.06C87.584 166.036 87.7397 165.988 87.9433 165.916C88.1469 165.844 88.4344 165.748 88.7937 165.604C88.8416 165.58 88.8895 165.592 88.9494 165.604C89.0093 165.616 89.0332 165.676 89.0572 165.724C89.0811 165.772 89.0811 165.832 89.0572 165.88C89.0332 165.928 88.9973 165.976 88.9374 166C88.7218 166.072 88.5302 166.144 88.3625 166.204C88.1829 166.264 88.0272 166.312 87.8954 166.36C87.7158 166.42 87.572 166.456 87.4762 166.48C87.3804 166.504 87.3085 166.516 87.2606 166.516H87.2247Z" fill="#F7EEC1"/>
<path d="M89.776 166.372C89.776 166.372 89.74 166.372 89.7161 166.372C89.6442 166.348 89.5963 166.324 89.5604 166.288C89.5245 166.252 89.5125 166.216 89.5005 166.192C89.4646 166.084 89.4765 165.976 89.5364 165.868C89.5963 165.76 89.6562 165.64 89.752 165.52C89.776 165.484 89.7999 165.436 89.8359 165.4C89.8598 165.352 89.8838 165.316 89.8957 165.28L89.9197 165.256C89.9197 165.256 89.8598 165.28 89.8239 165.304C89.7879 165.328 89.74 165.352 89.6921 165.388C89.6083 165.436 89.5245 165.508 89.4286 165.592C89.3328 165.676 89.249 165.76 89.1532 165.844C89.1292 165.868 89.1053 165.88 89.0813 165.904C89.0573 165.928 89.0334 165.952 89.0094 165.976C88.9735 166.012 88.9136 166.036 88.8657 166.024C88.8058 166.024 88.7579 166 88.722 165.952C88.6861 165.904 88.6621 165.856 88.6621 165.796C88.6621 165.736 88.6861 165.688 88.734 165.652C88.7579 165.628 88.7819 165.604 88.8058 165.58C88.8298 165.556 88.8537 165.532 88.8777 165.52C89.0214 165.388 89.1651 165.256 89.3089 165.148C89.4526 165.028 89.5843 164.944 89.7281 164.884C89.8718 164.824 90.0035 164.812 90.1233 164.848C90.2071 164.872 90.2551 164.896 90.291 164.944C90.3269 164.992 90.3389 165.028 90.3509 165.064C90.3988 165.172 90.3868 165.28 90.3269 165.388C90.267 165.496 90.1952 165.628 90.0994 165.76C90.0994 165.76 90.0754 165.784 90.0634 165.808C90.0634 165.832 90.0395 165.844 90.0275 165.868C90.0994 165.844 90.1832 165.808 90.291 165.76C90.3988 165.712 90.5305 165.664 90.6862 165.604C90.7461 165.58 90.806 165.592 90.8539 165.604C90.9018 165.616 90.9377 165.676 90.9617 165.724C90.9857 165.772 90.9857 165.832 90.9617 165.88C90.9377 165.928 90.9018 165.976 90.8539 166C90.7102 166.048 90.5784 166.096 90.4587 166.144C90.3389 166.192 90.2431 166.228 90.1592 166.252C90.1113 166.276 90.0754 166.288 90.0395 166.3L89.9437 166.336C89.9437 166.336 89.8838 166.348 89.8598 166.36C89.8359 166.36 89.8119 166.36 89.7879 166.36L89.776 166.372Z" fill="#F7EEC1"/>
<path d="M91.2962 166.984C91.2962 166.984 91.2363 166.984 91.2003 166.984C91.1644 166.984 91.1405 166.972 91.1045 166.972C91.0207 166.948 90.9608 166.9 90.9368 166.828C90.9009 166.733 90.9009 166.625 90.9368 166.481C90.9847 166.349 91.0566 166.181 91.1524 165.965C91.1644 165.929 91.1884 165.881 91.2123 165.833C91.2363 165.785 91.2482 165.737 91.2722 165.701C91.2123 165.725 91.1524 165.761 91.0806 165.821C91.0087 165.881 90.9488 165.929 90.877 165.989C90.829 166.025 90.7811 166.037 90.7213 166.025C90.6614 166.025 90.6135 165.989 90.5775 165.953C90.5416 165.905 90.5296 165.857 90.5416 165.797C90.5536 165.737 90.5775 165.689 90.6135 165.653C90.6734 165.605 90.7452 165.557 90.8171 165.497C90.8889 165.437 90.9608 165.389 91.0327 165.353C91.2243 165.257 91.392 165.233 91.5477 165.281C91.6195 165.293 91.6794 165.341 91.7154 165.425C91.7513 165.497 91.7513 165.593 91.7154 165.713C91.6794 165.833 91.6076 165.977 91.5237 166.169C91.4998 166.229 91.4758 166.277 91.4519 166.337C91.4279 166.397 91.4039 166.445 91.38 166.493C91.38 166.517 91.38 166.529 91.368 166.541V166.589C91.4519 166.577 91.5836 166.529 91.7752 166.433C91.9669 166.337 92.2064 166.169 92.5298 165.917C92.6975 165.785 92.8532 165.653 92.9849 165.521C93.1167 165.389 93.2724 165.245 93.44 165.077C93.4999 165.005 93.5598 164.993 93.6437 165.017C93.6796 165.017 93.7035 165.041 93.7275 165.065C93.7514 165.089 93.7634 165.113 93.7874 165.137C93.8233 165.197 93.8233 165.281 93.7874 165.365C93.7634 165.449 93.7155 165.593 93.6317 165.785C93.6077 165.845 93.5838 165.905 93.5478 165.965C93.5239 166.025 93.4999 166.085 93.476 166.133V166.181C93.476 166.181 93.464 166.205 93.452 166.217C93.5359 166.205 93.6317 166.169 93.7275 166.097C93.8233 166.037 93.9191 165.965 94.0149 165.881C94.1108 165.797 94.1826 165.737 94.2545 165.677C94.3024 165.629 94.3503 165.617 94.4102 165.617C94.4701 165.617 94.518 165.641 94.5539 165.689C94.5898 165.737 94.6018 165.785 94.6018 165.845C94.6018 165.905 94.5779 165.953 94.53 165.989C94.3862 166.121 94.2425 166.241 94.0988 166.349C93.9551 166.457 93.7994 166.541 93.6556 166.601C93.5119 166.661 93.3562 166.661 93.2125 166.625C93.1406 166.589 93.0807 166.541 93.0568 166.481C93.0328 166.421 93.0208 166.337 93.0328 166.265C93.0328 166.181 93.0688 166.085 93.1167 165.965C93.0688 166.013 93.0208 166.061 92.961 166.097C92.9131 166.145 92.8532 166.181 92.7933 166.241C92.1585 166.757 91.6674 167.008 91.3201 167.008L91.2962 166.984Z" fill="#F7EEC1"/>
<path d="M96.7931 166.516C96.7931 166.516 96.7332 166.516 96.7092 166.504C96.6254 166.48 96.5655 166.432 96.5296 166.348C96.5056 166.264 96.5056 166.18 96.5535 166.084C96.6014 165.988 96.6493 165.88 96.7332 165.748C96.7571 165.7 96.7811 165.664 96.817 165.616C96.841 165.568 96.8649 165.532 96.8769 165.496C96.8769 165.484 96.8889 165.472 96.9008 165.46C96.9008 165.46 96.9008 165.436 96.9128 165.424C96.7811 165.4 96.6134 165.4 96.4337 165.412C96.2541 165.424 96.0505 165.46 95.8229 165.52C95.6313 165.568 95.4157 165.64 95.1881 165.724C94.9606 165.808 94.721 165.904 94.4695 166.012C94.4216 166.036 94.3737 166.036 94.3258 166.012C94.2779 165.988 94.2419 165.964 94.218 165.904C94.194 165.856 94.1821 165.796 94.218 165.736C94.2539 165.676 94.2779 165.64 94.3258 165.616C94.5773 165.496 94.8288 165.4 95.0684 165.304C95.3079 165.22 95.5235 165.148 95.7391 165.1C96.302 164.956 96.7571 164.932 97.1164 165.028C97.2242 165.052 97.2961 165.124 97.332 165.232C97.368 165.34 97.3679 165.448 97.3081 165.58C97.2482 165.712 97.1763 165.832 97.0925 165.976C97.0925 165.976 97.0925 166 97.0685 166.012C97.0446 166.024 97.0565 166.048 97.0446 166.06C97.1524 166.036 97.3081 165.988 97.5117 165.916C97.7153 165.844 98.0027 165.748 98.362 165.604C98.41 165.58 98.4579 165.592 98.5177 165.604C98.5776 165.616 98.6016 165.676 98.6255 165.724C98.6495 165.772 98.6495 165.832 98.6255 165.88C98.6016 165.928 98.5657 165.976 98.5058 166C98.2902 166.072 98.0986 166.144 97.9309 166.204C97.7512 166.264 97.5955 166.312 97.4638 166.36C97.2841 166.42 97.1404 166.456 97.0446 166.48C96.9488 166.504 96.8769 166.516 96.829 166.516H96.7931Z" fill="#F7EEC1"/>
<path d="M99.3326 166.372C99.3326 166.372 99.2967 166.372 99.2727 166.372C99.2009 166.348 99.153 166.324 99.117 166.288C99.0811 166.252 99.0691 166.216 99.0571 166.192C99.0212 166.084 99.0332 165.976 99.0931 165.868C99.153 165.76 99.2128 165.64 99.3087 165.52C99.3326 165.484 99.3566 165.436 99.3925 165.4C99.4165 165.352 99.4404 165.316 99.4524 165.28L99.4763 165.256C99.4763 165.256 99.4165 165.28 99.3805 165.304C99.3446 165.328 99.2967 165.352 99.2488 165.388C99.1649 165.436 99.0811 165.508 98.9853 165.592C98.8895 165.676 98.8056 165.76 98.7098 165.844C98.6859 165.868 98.6619 165.88 98.6379 165.904C98.614 165.928 98.59 165.952 98.5661 165.976C98.5302 166.012 98.4703 166.036 98.4224 166.024C98.3625 166.024 98.3146 166 98.2786 165.952C98.2427 165.904 98.2188 165.856 98.2188 165.796C98.2188 165.736 98.2427 165.688 98.2906 165.652C98.3146 165.628 98.3385 165.604 98.3625 165.58C98.3864 165.556 98.4104 165.532 98.4343 165.52C98.5781 165.388 98.7218 165.256 98.8655 165.148C99.0092 165.028 99.141 164.944 99.2847 164.884C99.4284 164.824 99.5602 164.812 99.68 164.848C99.7638 164.872 99.8117 164.896 99.8476 164.944C99.8836 164.992 99.8955 165.028 99.9075 165.064C99.9554 165.172 99.9434 165.28 99.8836 165.388C99.8237 165.496 99.7518 165.628 99.656 165.76C99.656 165.76 99.632 165.784 99.6201 165.808C99.6201 165.832 99.5961 165.844 99.5841 165.868C99.656 165.844 99.7398 165.808 99.8476 165.76C99.9554 165.712 100.087 165.664 100.243 165.604C100.303 165.58 100.363 165.592 100.411 165.604C100.458 165.616 100.494 165.676 100.518 165.724C100.542 165.772 100.542 165.832 100.518 165.88C100.494 165.928 100.458 165.976 100.411 166C100.267 166.048 100.135 166.096 100.015 166.144C99.8955 166.192 99.7997 166.228 99.7159 166.252C99.668 166.276 99.632 166.288 99.5961 166.3L99.5003 166.336C99.5003 166.336 99.4404 166.348 99.4165 166.36C99.3925 166.36 99.3685 166.36 99.3446 166.36L99.3326 166.372Z" fill="#F7EEC1"/>
<path d="M101.871 166.588C101.871 166.588 101.775 166.576 101.739 166.54C101.668 166.48 101.644 166.396 101.68 166.312C101.68 166.312 101.692 166.252 101.727 166.144C101.763 166.036 101.799 165.916 101.847 165.772C101.871 165.688 101.895 165.628 101.907 165.568C101.931 165.508 101.943 165.46 101.955 165.412C101.835 165.46 101.68 165.52 101.5 165.58C101.32 165.652 101.141 165.724 100.937 165.796C100.733 165.868 100.554 165.94 100.374 166.012C100.326 166.036 100.278 166.024 100.218 166.012C100.158 166 100.123 165.94 100.111 165.892C100.099 165.844 100.099 165.784 100.111 165.736C100.134 165.688 100.17 165.64 100.23 165.616C100.434 165.544 100.65 165.46 100.865 165.376C101.081 165.292 101.284 165.22 101.476 165.148C101.668 165.076 101.871 164.992 102.111 164.896C102.135 164.896 102.159 164.896 102.183 164.896C102.207 164.896 102.23 164.896 102.242 164.896C102.302 164.896 102.35 164.944 102.374 165.004C102.398 165.04 102.41 165.088 102.41 165.148C102.41 165.208 102.398 165.292 102.374 165.4C102.362 165.46 102.338 165.532 102.326 165.604C102.302 165.676 102.278 165.76 102.242 165.856C102.242 165.88 102.242 165.892 102.23 165.904C102.219 165.916 102.23 165.94 102.219 165.952C102.398 165.844 102.626 165.736 102.889 165.628C102.937 165.604 102.985 165.604 103.045 165.628C103.105 165.652 103.129 165.688 103.153 165.736C103.177 165.784 103.189 165.844 103.153 165.892C103.117 165.94 103.093 165.988 103.045 166.012C102.841 166.108 102.65 166.192 102.494 166.276C102.326 166.36 102.159 166.456 101.967 166.564C101.943 166.588 101.907 166.6 101.859 166.6L101.871 166.588Z" fill="#F7EEC1"/>
<path d="M104.543 166.588C104.543 166.588 104.447 166.576 104.411 166.54C104.339 166.48 104.315 166.396 104.351 166.312C104.351 166.312 104.363 166.252 104.399 166.144C104.435 166.036 104.471 165.916 104.519 165.772C104.543 165.688 104.567 165.628 104.579 165.568C104.603 165.508 104.615 165.46 104.627 165.412C104.507 165.46 104.351 165.52 104.172 165.58C103.992 165.652 103.812 165.724 103.609 165.796C103.405 165.868 103.226 165.94 103.046 166.012C102.998 166.036 102.95 166.024 102.89 166.012C102.83 166 102.794 165.94 102.782 165.892C102.77 165.844 102.77 165.784 102.782 165.736C102.806 165.688 102.842 165.64 102.902 165.616C103.106 165.544 103.321 165.46 103.537 165.376C103.753 165.292 103.956 165.22 104.148 165.148C104.339 165.076 104.543 164.992 104.783 164.896C104.807 164.896 104.83 164.896 104.854 164.896C104.878 164.896 104.902 164.896 104.914 164.896C104.974 164.896 105.022 164.944 105.046 165.004C105.07 165.04 105.082 165.088 105.082 165.148C105.082 165.208 105.07 165.292 105.046 165.4C105.034 165.46 105.01 165.532 104.998 165.604C104.974 165.676 104.95 165.76 104.914 165.856C104.914 165.88 104.914 165.892 104.902 165.904C104.89 165.916 104.902 165.94 104.89 165.952C105.07 165.844 105.298 165.736 105.561 165.628C105.609 165.604 105.657 165.604 105.717 165.628C105.777 165.652 105.801 165.688 105.825 165.736C105.849 165.784 105.861 165.844 105.825 165.892C105.789 165.94 105.765 165.988 105.717 166.012C105.513 166.108 105.322 166.192 105.166 166.276C104.998 166.36 104.83 166.456 104.639 166.564C104.615 166.588 104.579 166.6 104.531 166.6L104.543 166.588Z" fill="#F7EEC1"/>
<path d="M108.053 166.516C108.053 166.516 107.993 166.516 107.969 166.504C107.885 166.48 107.825 166.432 107.789 166.348C107.765 166.264 107.765 166.18 107.813 166.084C107.861 165.988 107.909 165.88 107.993 165.748C108.017 165.7 108.041 165.664 108.077 165.616C108.101 165.568 108.125 165.532 108.137 165.496C108.137 165.484 108.149 165.472 108.161 165.46C108.161 165.46 108.161 165.436 108.173 165.424C108.041 165.4 107.873 165.4 107.694 165.412C107.514 165.424 107.31 165.46 107.083 165.52C106.891 165.568 106.675 165.64 106.448 165.724C106.22 165.808 105.981 165.904 105.729 166.012C105.681 166.036 105.633 166.036 105.586 166.012C105.538 165.988 105.502 165.964 105.478 165.904C105.454 165.856 105.442 165.796 105.478 165.736C105.514 165.676 105.538 165.64 105.586 165.616C105.837 165.496 106.089 165.4 106.328 165.304C106.568 165.22 106.783 165.148 106.999 165.1C107.562 164.956 108.017 164.932 108.376 165.028C108.484 165.052 108.556 165.124 108.592 165.232C108.628 165.34 108.628 165.448 108.568 165.58C108.508 165.712 108.436 165.832 108.352 165.976C108.352 165.976 108.352 166 108.328 166.012C108.304 166.024 108.316 166.048 108.304 166.06C108.412 166.036 108.568 165.988 108.771 165.916C108.975 165.844 109.263 165.748 109.622 165.604C109.67 165.58 109.718 165.592 109.778 165.604C109.837 165.616 109.861 165.676 109.885 165.724C109.909 165.772 109.909 165.832 109.885 165.88C109.861 165.928 109.825 165.976 109.766 166C109.55 166.072 109.358 166.144 109.191 166.204C109.011 166.264 108.855 166.312 108.724 166.36C108.544 166.42 108.4 166.456 108.304 166.48C108.209 166.504 108.137 166.516 108.089 166.516H108.053Z" fill="#F7EEC1"/>
<path d="M114.568 166.588C114.568 166.588 114.473 166.576 114.437 166.54C114.365 166.48 114.341 166.396 114.377 166.312C114.377 166.312 114.389 166.252 114.425 166.144C114.461 166.036 114.497 165.916 114.544 165.772C114.568 165.688 114.592 165.628 114.604 165.568C114.628 165.508 114.64 165.46 114.652 165.412C114.533 165.46 114.377 165.52 114.197 165.58C114.017 165.652 113.838 165.724 113.634 165.796C113.431 165.868 113.251 165.94 113.071 166.012C113.023 166.036 112.975 166.024 112.916 166.012C112.856 166 112.82 165.94 112.808 165.892C112.796 165.844 112.796 165.784 112.808 165.736C112.832 165.688 112.868 165.64 112.928 165.616C113.131 165.544 113.347 165.46 113.562 165.376C113.778 165.292 113.982 165.22 114.173 165.148C114.365 165.076 114.568 164.992 114.808 164.896C114.832 164.896 114.856 164.896 114.88 164.896C114.904 164.896 114.928 164.896 114.94 164.896C115 164.896 115.048 164.944 115.071 165.004C115.095 165.04 115.107 165.088 115.107 165.148C115.107 165.208 115.095 165.292 115.071 165.4C115.059 165.46 115.036 165.532 115.024 165.604C115 165.676 114.976 165.76 114.94 165.856C114.94 165.88 114.94 165.892 114.928 165.904C114.916 165.916 114.928 165.94 114.916 165.952C115.095 165.844 115.323 165.736 115.586 165.628C115.634 165.604 115.682 165.604 115.742 165.628C115.802 165.652 115.826 165.688 115.85 165.736C115.874 165.784 115.886 165.844 115.85 165.892C115.814 165.94 115.79 165.988 115.742 166.012C115.539 166.108 115.347 166.192 115.191 166.276C115.024 166.36 114.856 166.456 114.664 166.564C114.64 166.588 114.604 166.6 114.556 166.6L114.568 166.588Z" fill="#F7EEC1"/>
<path d="M116.581 166.372C116.581 166.372 116.545 166.372 116.521 166.372C116.449 166.348 116.401 166.324 116.365 166.288C116.329 166.252 116.317 166.216 116.305 166.192C116.269 166.084 116.281 165.976 116.341 165.868C116.401 165.76 116.461 165.64 116.557 165.52C116.581 165.484 116.605 165.436 116.641 165.4C116.665 165.352 116.688 165.316 116.7 165.28L116.724 165.256C116.724 165.256 116.664 165.28 116.629 165.304C116.593 165.328 116.545 165.352 116.497 165.388C116.413 165.436 116.329 165.508 116.233 165.592C116.138 165.676 116.054 165.76 115.958 165.844C115.934 165.868 115.91 165.88 115.886 165.904C115.862 165.928 115.838 165.952 115.814 165.976C115.778 166.012 115.718 166.036 115.67 166.024C115.611 166.024 115.563 166 115.527 165.952C115.491 165.904 115.467 165.856 115.467 165.796C115.467 165.736 115.491 165.688 115.539 165.652C115.563 165.628 115.587 165.604 115.611 165.58C115.634 165.556 115.658 165.532 115.682 165.52C115.826 165.388 115.97 165.256 116.114 165.148C116.257 165.028 116.389 164.944 116.533 164.884C116.676 164.824 116.808 164.812 116.928 164.848C117.012 164.872 117.06 164.896 117.096 164.944C117.132 164.992 117.144 165.028 117.156 165.064C117.203 165.172 117.191 165.28 117.132 165.388C117.072 165.496 117 165.628 116.904 165.76C116.904 165.76 116.88 165.784 116.868 165.808C116.868 165.832 116.844 165.844 116.832 165.868C116.904 165.844 116.988 165.808 117.096 165.76C117.203 165.712 117.335 165.664 117.491 165.604C117.551 165.58 117.611 165.592 117.659 165.604C117.707 165.616 117.742 165.676 117.766 165.724C117.79 165.772 117.79 165.832 117.766 165.88C117.742 165.928 117.707 165.976 117.659 166C117.515 166.048 117.383 166.096 117.263 166.144C117.144 166.192 117.048 166.228 116.964 166.252C116.916 166.276 116.88 166.288 116.844 166.3L116.748 166.336C116.748 166.336 116.688 166.348 116.665 166.36C116.641 166.36 116.617 166.36 116.593 166.36L116.581 166.372Z" fill="#F7EEC1"/>
<g opacity="0.7">
<path d="M192.001 138.53C192.001 134.26 176.215 130.793 156.752 130.793C137.29 130.793 121.504 134.26 121.504 138.53L124.654 199.578C124.917 204.628 125.241 204.952 130.295 204.952C145.686 204.952 165.04 204.976 183.293 204.988C188.36 204.988 188.695 204.676 188.947 199.614L192.001 138.542V138.53Z" fill="#F7EEC1"/>
</g>
<path d="M126.08 169.18C126.487 176.905 126.871 184.631 127.266 192.368C127.398 194.899 127.565 195.055 130.092 195.055C147.95 195.067 165.029 195.223 183.366 195.235C185.881 195.235 186.049 195.079 186.193 192.572C186.636 184.786 187.091 176.989 187.546 169.18H126.08Z" fill="#F79E4F"/>
<path d="M156.813 174.05C173.785 174.05 187.546 171.866 187.546 169.167C187.546 166.468 173.785 164.297 156.813 164.297C139.842 164.297 126.08 166.48 126.08 169.167C126.08 171.854 139.842 174.05 156.813 174.05Z" fill="#F6CA73"/>
<path opacity="0.6" d="M136.151 172.431L138.379 181.356C138.559 182.004 138.894 182.592 139.361 183.072C139.828 183.552 140.403 183.912 141.038 184.104L149.805 186.683C150.464 186.887 151.159 186.899 151.817 186.743C152.476 186.575 153.087 186.239 153.566 185.759L160.105 179.401C160.597 178.933 160.944 178.333 161.124 177.686C161.303 177.026 161.315 176.342 161.147 175.67L158.92 166.745C158.74 166.098 158.405 165.51 157.938 165.03C157.471 164.55 156.896 164.19 156.261 163.998L147.494 161.419C146.835 161.227 146.14 161.215 145.482 161.371C144.823 161.539 144.212 161.875 143.733 162.343L137.193 168.701C136.714 169.181 136.367 169.768 136.187 170.428C136.008 171.076 135.996 171.772 136.151 172.431Z" fill="white"/>
<path opacity="0.6" d="M156.801 174.41L161.436 179.028C161.891 179.496 162.466 179.832 163.089 180C163.712 180.18 164.371 180.18 165.006 180.024L171.329 178.308C171.976 178.153 172.551 177.829 173.018 177.361C173.485 176.893 173.809 176.305 173.964 175.669L175.641 169.335C175.821 168.712 175.833 168.04 175.653 167.416C175.485 166.78 175.15 166.217 174.671 165.761L170.072 161.154C169.605 160.698 169.042 160.362 168.419 160.195C167.796 160.015 167.137 160.015 166.503 160.159L160.215 161.874C159.568 162.018 158.969 162.354 158.502 162.81C158.023 163.277 157.7 163.865 157.544 164.513L155.867 170.847C155.687 171.471 155.675 172.131 155.831 172.766C155.999 173.39 156.322 173.966 156.789 174.422L156.801 174.41Z" fill="white"/>
<path d="M156.752 146.76C139.445 146.76 124.689 143.989 121.659 140.187C121.491 139.983 121.527 139.671 121.731 139.503C121.934 139.335 122.246 139.371 122.414 139.575C125.228 143.114 139.996 145.789 156.752 145.789C173.508 145.789 188.275 143.114 191.09 139.575C191.258 139.371 191.569 139.335 191.773 139.503C191.976 139.671 192.012 139.971 191.844 140.187C188.814 144.001 174.047 146.76 156.752 146.76Z" fill="#F7EEC1"/>
</g>
<defs>
<clipPath id="clip0_620_3194">
<rect width="144" height="180" fill="white" transform="translate(48 25)"/>
</clipPath>
</defs>
</svg>
