<svg width="240" height="240" viewBox="0 0 240 240" fill="none" xmlns="http://www.w3.org/2000/svg">
<rect width="240" height="240" rx="120" fill="#F6CA73"/>
<g clip-path="url(#clip0_620_3369)">
<path d="M159.628 62.0996H78.8899L73.9296 76.5424C73.6342 77.4017 73.4824 78.3062 73.4824 79.2189V173.876C73.4824 174.785 73.6342 175.689 73.9296 176.553L78.0324 188.5C78.5453 189.992 79.9484 190.996 81.5239 190.996H156.994C158.57 190.996 159.973 189.992 160.486 188.5L164.589 176.553C164.884 175.694 165.036 174.789 165.036 173.876V79.2189C165.036 78.3103 164.884 77.4058 164.589 76.5424L159.628 62.0996Z" fill="#FA6257"/>
<path d="M159.628 62.0996H78.8899L73.9296 76.5424C73.6342 77.4017 73.4824 78.3062 73.4824 79.2189V173.876C73.4824 174.785 73.6342 175.689 73.9296 176.553L78.0324 188.5C78.5453 189.992 79.9484 190.996 81.5239 190.996H156.994C158.57 190.996 159.973 189.992 160.486 188.5L164.589 176.553C164.884 175.694 165.036 174.789 165.036 173.876V79.2189C165.036 78.3103 164.884 77.4058 164.589 76.5424L159.628 62.0996Z" fill="#FA6257"/>
<path d="M119.258 68.4474C141.552 68.4474 159.625 63.5015 159.625 57.4004C159.625 51.2994 141.552 46.3535 119.258 46.3535C96.9637 46.3535 78.8906 51.2994 78.8906 57.4004C78.8906 63.5015 96.9637 68.4474 119.258 68.4474Z" fill="#F7EEC1"/>
<path d="M155.432 57.191C148.827 53.5526 135.111 51.0488 119.258 51.0488C103.405 51.0488 89.6891 53.5485 83.0837 57.191H78.8906V62.0999C78.8906 68.201 96.9634 73.1468 119.258 73.1468C141.552 73.1468 159.625 68.201 159.625 62.0999V57.191H155.432Z" fill="#F7EEC1"/>
<path d="M155.804 58.0167C155.697 58.0167 155.595 57.9879 155.496 57.9345C148.953 54.1275 134.728 51.6689 119.257 51.6689C103.785 51.6689 89.5648 54.1275 83.0168 57.9345C82.7214 58.1071 82.348 58.0044 82.1757 57.7125C82.0034 57.4206 82.1059 57.0423 82.3972 56.8697C89.1176 52.9599 103.584 50.4355 119.252 50.4355C134.921 50.4355 149.392 52.9599 156.108 56.8697C156.403 57.0423 156.502 57.4165 156.329 57.7125C156.214 57.9098 156.009 58.0208 155.796 58.0208L155.804 58.0167Z" fill="#470FF4"/>
<path d="M111.092 61.3508C103.58 60.767 97.3357 62.2964 97.1429 64.7673C97.0895 65.4785 97.545 66.1939 98.3983 66.8599C104.487 67.8671 111.622 68.4468 119.257 68.4468C120.639 68.4468 122.006 68.4263 123.351 68.3893C123.95 67.9411 124.303 67.4355 124.348 66.8804C124.541 64.4096 118.605 61.9346 111.092 61.3508Z" fill="#1E2675"/>
<path d="M128.599 47.024L123.639 44.0146C118.699 41.0134 117.911 41.1737 114.834 45.7989L109.119 54.3955C106.85 57.8037 107.979 62.4042 111.618 64.6161C115.261 66.8279 120.455 66.0673 123.163 62.9222L129.99 54.9998C133.662 50.7365 133.539 50.0252 128.599 47.024ZM126.404 54.0049C125.432 55.2835 123.499 55.6206 122.08 54.7614L118.006 52.2864C116.586 51.4272 116.225 49.6922 117.193 48.4136C118.166 47.135 120.098 46.7979 121.518 47.6571L125.592 50.1321C127.011 50.9914 127.372 52.7263 126.404 54.0049Z" fill="#F79E4F"/>
<path d="M119.618 61.2936C119.019 62.083 117.809 62.2968 116.931 61.7623L112.623 59.1475C111.745 58.6131 111.519 57.5318 112.118 56.7384C113.251 55.246 115.511 54.8513 117.169 55.8585L118.67 56.7712C120.328 57.7785 120.751 59.8012 119.618 61.2936Z" fill="#F6CA73"/>
<path d="M160.487 188.504L161.217 186.383H77.3027L78.033 188.504C78.5459 189.997 79.949 191 81.5245 191H156.995C158.571 191 159.974 189.997 160.487 188.504Z" fill="#470FF4"/>
<path d="M164.892 175.41C164.732 176.244 164.819 175.887 161.216 186.378H153.647C152.404 167.117 140.986 165.185 128.008 158.702C118.699 154.274 111.692 147.486 111.786 136.345C112.242 111.578 149.487 92.9174 139.143 71.7156C141.987 71.2757 144.612 70.7413 146.972 70.1328C162.32 92.7159 130.22 120.927 128.205 135.14C126.289 147.613 160.137 145.537 164.892 175.41Z" fill="#F7EEC1"/>
<path d="M76.5486 174.848H65.3069C64.0199 174.848 62.9766 175.893 62.9766 177.183V188.448C62.9766 189.737 64.0199 190.783 65.3069 190.783H76.5486C77.8356 190.783 78.8789 189.737 78.8789 188.448V177.183C78.8789 175.893 77.8356 174.848 76.5486 174.848Z" fill="#F79E4F"/>
<path d="M68.572 174.848H57.3304C56.0433 174.848 55 175.893 55 177.183V188.448C55 189.737 56.0433 190.783 57.3304 190.783H68.572C69.859 190.783 70.9024 189.737 70.9024 188.448V177.183C70.9024 175.893 69.859 174.848 68.572 174.848Z" fill="#F7EEC1"/>
<path d="M92.4509 174.926H81.2093C79.9223 174.926 78.8789 175.971 78.8789 177.261V188.526C78.8789 189.815 79.9223 190.861 81.2093 190.861H92.4509C93.7379 190.861 94.7813 189.815 94.7813 188.526V177.261C94.7813 175.971 93.7379 174.926 92.4509 174.926Z" fill="#F79E4F"/>
<path d="M84.4743 174.926H73.2327C71.9457 174.926 70.9023 175.971 70.9023 177.261V188.526C70.9023 189.815 71.9457 190.861 73.2327 190.861H84.4743C85.7614 190.861 86.8047 189.815 86.8047 188.526V177.261C86.8047 175.971 85.7614 174.926 84.4743 174.926Z" fill="#F7EEC1"/>
<path d="M84.3767 158.912H73.1351C71.848 158.912 70.8047 159.958 70.8047 161.247V172.512C70.8047 173.802 71.848 174.847 73.1351 174.847H84.3767C85.6637 174.847 86.7071 173.802 86.7071 172.512V161.247C86.7071 159.958 85.6637 158.912 84.3767 158.912Z" fill="#F79E4F"/>
<path d="M76.4001 158.912H65.1585C63.8715 158.912 62.8281 159.958 62.8281 161.247V172.512C62.8281 173.802 63.8715 174.847 65.1585 174.847H76.4001C77.6872 174.847 78.7305 173.802 78.7305 172.512V161.247C78.7305 159.958 77.6872 158.912 76.4001 158.912Z" fill="#F7EEC1"/>
<path d="M192.549 175.064H181.307C180.02 175.064 178.977 176.11 178.977 177.4V188.664C178.977 189.954 180.02 191 181.307 191H192.549C193.836 191 194.879 189.954 194.879 188.664V177.4C194.879 176.11 193.836 175.064 192.549 175.064Z" fill="#F79E4F"/>
<path d="M184.572 175.064H173.33C172.043 175.064 171 176.11 171 177.4V188.664C171 189.954 172.043 191 173.33 191H184.572C185.859 191 186.902 189.954 186.902 188.664V177.4C186.902 176.11 185.859 175.064 184.572 175.064Z" fill="#F7EEC1"/>
</g>
<defs>
<clipPath id="clip0_620_3369">
<rect width="140" height="149" fill="white" transform="translate(55 42)"/>
</clipPath>
</defs>
</svg>
