<svg width="240" height="240" viewBox="0 0 240 240" fill="none" xmlns="http://www.w3.org/2000/svg">
<g clip-path="url(#clip0_620_1906)">
<rect width="240" height="240" rx="120" fill="#F6CA73"/>
<g clip-path="url(#clip1_620_1906)">
<path d="M155.332 188.823H84.6675C80.9269 188.823 78 186.578 78 183.835V102.158C78 94.1128 98.8688 87.1697 104.289 81.2109H135.697C141.21 87.2616 162 94.1259 162 102.158V183.783C162 186.578 159.007 188.823 155.332 188.823Z" fill="#F7EEC1"/>
<path d="M155.766 218.971H84.2344C80.7956 218.971 78 221.766 78 225.218V242.871C78 246.323 80.7956 249.119 84.2344 249.119H155.766C159.204 249.119 162 246.323 162 242.871V225.218C162 221.766 159.204 218.971 155.766 218.971Z" fill="#F7EEC1"/>
<path d="M155.766 188.835H84.2344C80.7956 188.835 78 191.631 78 195.083V212.736C78 216.175 80.7956 218.97 84.2344 218.97H155.766C159.204 218.97 162 216.175 162 212.723V195.07C162 191.618 159.204 188.822 155.766 188.822V188.835Z" fill="#F7EEC1"/>
<path d="M162 113.537H78V165.223H162V113.537Z" fill="#470FF4"/>
<path d="M135.697 75.2129H104.25V81.211H135.697V75.2129Z" fill="#F7EEC1"/>
<path d="M138.086 64.555C138.086 55.6956 137.391 55 128.531 55H111.416C102.557 55 101.861 55.6956 101.861 64.555V73.1256C101.861 75.8162 102.071 76.0263 104.762 76.0263H135.186C137.876 76.0263 138.086 75.8162 138.086 73.1256V64.555Z" fill="#1E2675"/>
</g>
</g>
<defs>
<clipPath id="clip0_620_1906">
<rect width="240" height="240" rx="120" fill="white"/>
</clipPath>
<clipPath id="clip1_620_1906">
<rect width="84" height="234.452" fill="white" transform="translate(78 55)"/>
</clipPath>
</defs>
</svg>
