<svg width="240" height="240" viewBox="0 0 240 240" fill="none" xmlns="http://www.w3.org/2000/svg">
<rect width="240" height="240" rx="120" fill="#F6CA73"/>
<g clip-path="url(#clip0_229_1902)">
<path d="M60.1944 101.607C144.35 132.98 119.304 178.997 84.7434 178.997C52.2681 179 45.5517 150.352 60.1944 101.607Z" fill="#FA6257"/>
<path d="M61.2644 107.507C60.32 107.507 59.5525 106.734 59.5525 105.784V48.7225C59.5525 47.7723 60.32 47 61.2644 47C62.2088 47 62.9763 47.7723 62.9763 48.7225V105.784C62.9763 106.734 62.2088 107.507 61.2644 107.507Z" fill="#1E2675"/>
<path d="M115.846 159.202C106.685 147.191 95.0207 127.792 56.5851 115.028C57.5894 110.742 58.7935 106.266 60.1944 101.607C112.197 120.994 122.334 136.278 115.846 159.202Z" fill="#1E2675"/>
<path d="M184.806 101.607C100.65 132.98 125.696 178.997 160.257 178.997C192.732 178.997 199.448 150.349 184.806 101.607Z" fill="#FA6257"/>
<path d="M183.738 107.507C184.683 107.507 185.45 106.734 185.45 105.784V48.7225C185.45 47.7723 184.683 47 183.738 47C182.794 47 182.026 47.7723 182.026 48.7225V105.784C182.026 106.734 182.794 107.507 183.738 107.507Z" fill="#1E2675"/>
<path d="M129.154 159.202C138.315 147.191 149.979 127.792 188.415 115.028C187.411 110.742 186.207 106.266 184.806 101.607C132.803 120.994 122.666 136.278 129.154 159.202Z" fill="#1E2675"/>
<path d="M133.625 143.168V153.217C132.015 155.352 130.555 157.362 129.154 159.202H115.846C114.16 156.992 112.391 154.531 110.388 151.91V143.168H133.625Z" fill="#1E2675"/>
</g>
<defs>
<clipPath id="clip0_229_1902">
<rect width="141" height="132" fill="white" transform="translate(52 47)"/>
</clipPath>
</defs>
</svg>
