<svg width="240" height="240" viewBox="0 0 240 240" fill="none" xmlns="http://www.w3.org/2000/svg">
<g clip-path="url(#clip0_242_1164)">
<rect width="240" height="240" rx="120" fill="#F6CA73"/>
<g clip-path="url(#clip1_242_1164)">
<path d="M142.606 115.548H98.3866L86.1593 123.795C77.6189 129.558 78 128.825 78 139.471V241.607C78 254.028 78.9256 255 90.7873 255H150.205C162.067 255 162.992 254.028 162.992 241.607V139.471C162.992 128.825 163.373 129.558 154.833 123.795L142.606 115.548Z" fill="#F79E4F"/>
<path d="M142.473 115.548H98.0288L99.3433 94.1701C99.4989 91.6011 99.6544 91.4468 102.128 91.4468H138.382C140.855 91.4468 141.011 91.6011 141.167 94.1701L142.481 115.548H142.473Z" fill="#1E2675"/>
<path d="M138.429 91.6782H102.073L103.046 80.8235C103.271 78.3162 103.404 78.1851 105.823 78.1851H134.68C137.099 78.1851 137.231 78.3162 137.456 80.8235L138.429 91.6782Z" fill="#470FF4"/>
<path d="M133.536 78.185H107.433L108.218 51.8159C108.296 49.1774 108.475 49 111.003 49H129.958C132.486 49 132.665 49.1774 132.743 51.8159L133.528 78.185H133.536Z" fill="#1E2675"/>
<path d="M120.499 219.167C139.372 219.167 154.672 203.993 154.672 185.273C154.672 166.554 139.372 151.379 120.499 151.379C101.626 151.379 86.3268 166.554 86.3268 185.273C86.3268 203.993 101.626 219.167 120.499 219.167Z" fill="#F7E9C1"/>
<path d="M120.499 149.237C111.244 149.237 102.778 152.693 96.3535 158.372C95.2828 159.317 94.2574 160.334 93.3047 161.405C87.6244 167.768 84.1672 176.129 84.1672 185.282C84.1672 205.154 100.473 221.318 120.499 221.318C129.718 221.318 138.148 217.889 144.573 212.255C145.652 211.301 146.669 210.293 147.631 209.231C153.356 202.859 156.841 194.462 156.841 185.282C156.841 165.41 140.535 149.246 120.508 149.246L120.499 149.237ZM141.506 209.213C135.88 214.082 128.539 217.034 120.499 217.034C102.841 217.034 88.4864 202.787 88.4864 185.282C88.4864 177.317 91.4626 170.027 96.3626 164.447C97.3154 163.367 98.3316 162.359 99.4114 161.414C105.046 156.509 112.424 153.53 120.499 153.53C138.157 153.53 152.512 167.777 152.512 185.282C152.512 193.283 149.509 200.609 144.564 206.198C143.611 207.278 142.585 208.286 141.497 209.222L141.506 209.213Z" fill="#FA6257"/>
<path d="M120.499 178.731C121.517 178.731 122.341 177.913 122.341 176.904C122.341 175.895 121.517 175.077 120.499 175.077C119.482 175.077 118.657 175.895 118.657 176.904C118.657 177.913 119.482 178.731 120.499 178.731Z" fill="#262730"/>
<path d="M123.113 181.323C123.113 183.06 122.178 184.896 120.499 184.896C118.821 184.896 117.886 183.051 117.886 181.323C117.886 179.595 118.821 178.182 120.499 178.182C122.178 178.182 123.113 179.586 123.113 181.323Z" fill="#262730"/>
<path d="M122.341 187.767C122.341 190.314 121.915 205.947 120.499 205.947C119.084 205.947 118.657 190.314 118.657 187.767C118.657 185.22 119.084 183.15 120.499 183.15C121.915 183.15 122.341 185.22 122.341 187.767Z" fill="#262730"/>
<path d="M120.209 175.59L120.318 168.3C120.318 168.075 120.681 168.066 120.681 168.3L120.79 175.59C120.79 175.968 120.209 175.968 120.218 175.59H120.209Z" fill="#262730"/>
<path d="M145.035 183.042C145.035 185.031 140.535 185.211 138.529 185.211C136.524 185.211 120.508 184.311 120.508 182.322C120.508 180.333 136.533 179.433 138.529 179.433C140.526 179.433 145.035 181.044 145.035 183.033V183.042Z" fill="#262730"/>
<path d="M95.9633 183.042C95.9633 185.031 100.464 185.211 102.469 185.211C104.475 185.211 120.49 184.311 120.49 182.322C120.49 180.333 104.466 179.433 102.469 179.433C100.473 179.433 95.9633 181.044 95.9633 183.033V183.042Z" fill="#262730"/>
<path d="M136.352 165.122L130.644 168.254C131.116 167.606 125.054 179.162 125.172 179.018L125.127 179.099L125.045 179.126L120.554 180.422C120.336 180.485 120.227 180.143 120.454 180.08L124.936 178.73L124.809 178.838L130.281 167.903L130.317 167.831L130.39 167.795L136.079 164.636C136.397 164.456 136.687 164.951 136.361 165.131L136.352 165.122Z" fill="#262730"/>
<path d="M120.581 180.324L128.43 182.835L128.512 182.862C128.53 182.925 137.949 196.776 137.658 196.497L142.386 198.81C142.476 198.855 142.513 198.963 142.467 199.053C142.422 199.143 142.313 199.179 142.231 199.134L137.477 196.884C137.386 196.893 128.203 183.276 128.14 183.231L128.276 183.33L120.409 180.882C120.064 180.774 120.218 180.225 120.581 180.342V180.324Z" fill="#262730"/>
<path d="M120.717 180.972L127.423 188.883C127.423 188.883 127.468 188.937 127.477 188.991C127.414 188.901 130.245 201.843 130.009 201.285L134.528 205.344C134.7 205.488 134.464 205.767 134.283 205.605L129.728 201.582L129.682 201.537C129.682 201.537 126.987 189.144 126.978 189.09C127.314 189.603 120.218 181.215 120.282 181.332C120.037 181.062 120.481 180.675 120.717 180.963V180.972Z" fill="#262730"/>
<path d="M104.928 164.628L110.618 167.787L110.69 167.823C110.727 167.886 116.162 178.758 116.198 178.83L116.071 178.722L120.554 180.072C120.772 180.135 120.681 180.486 120.454 180.414L115.962 179.118L115.881 179.091L115.835 179.01L110.255 168.129L110.364 168.237L104.656 165.105C104.339 164.934 104.602 164.421 104.937 164.61L104.928 164.628Z" fill="#262730"/>
<path d="M120.581 180.873L112.714 183.321C113.295 182.727 103.458 196.92 103.595 196.803L103.558 196.848L103.504 196.875L98.749 199.125C98.6583 199.17 98.5494 199.125 98.5131 199.044C98.4677 198.954 98.5131 198.846 98.5948 198.81L103.322 196.497L103.241 196.569L112.423 182.943L112.469 182.871L112.551 182.844L120.4 180.333C120.753 180.225 120.944 180.756 120.572 180.873H120.581Z" fill="#262730"/>
<path d="M120.717 181.34L113.966 189.215L114.021 189.107C114.002 189.179 111.326 201.491 111.316 201.554L111.262 201.599L106.707 205.622C106.544 205.775 106.289 205.514 106.462 205.361L110.981 201.302C110.745 201.896 113.576 188.882 113.512 189.008V188.945L113.567 188.9L120.272 180.989C120.508 180.71 120.962 181.07 120.708 181.358L120.717 181.34Z" fill="#262730"/>
<path d="M147.631 209.222C146.669 210.284 145.652 211.301 144.573 212.246L141.506 209.204L96.3626 164.429L94.8291 162.908L93.3047 161.396C94.2665 160.325 95.2828 159.308 96.3535 158.363L147.631 209.222Z" fill="#FA6257"/>
<path d="M120.251 63.5887C122.863 63.5887 124.98 61.385 124.98 58.6667C124.98 55.9483 122.863 53.7446 120.251 53.7446C117.639 53.7446 115.522 55.9483 115.522 58.6667C115.522 61.385 117.639 63.5887 120.251 63.5887Z" fill="#F7E9C1"/>
</g>
</g>
<defs>
<clipPath id="clip0_242_1164">
<rect width="240" height="240" rx="120" fill="white"/>
</clipPath>
<clipPath id="clip1_242_1164">
<rect width="85" height="206" fill="white" transform="translate(78 49)"/>
</clipPath>
</defs>
</svg>
