<svg width="240" height="240" viewBox="0 0 240 240" fill="none" xmlns="http://www.w3.org/2000/svg">
<g clip-path="url(#clip0_567_688)">
<rect width="240" height="240" rx="120" fill="#F6CA73"/>
<g clip-path="url(#clip1_567_688)">
<path d="M203 157.646V177.162C203 182.794 195.405 188.198 186.327 191.583C177.459 194.894 167.172 196.268 161.132 194.048C154.092 191.455 145.151 192.01 136.492 193.521C130.043 194.631 123.748 196.268 118.5 197.506C107.894 200.017 85.1094 202.228 70.5197 200.217C68.2003 199.899 66.09 199.471 64.2618 198.925C55.1023 196.168 43.0504 192.483 37.3291 186.014C35.1916 183.612 33.9273 180.819 34 177.553V158.901C34.5458 170.383 51.9825 175.715 64.2527 179.409C77.5326 183.403 106.193 180.901 118.491 177.999C130.788 175.087 148.825 170.001 161.123 174.532C173.357 179.045 202.991 168.773 202.991 157.646H203Z" fill="#7C3A25"/>
<path d="M34.2458 155.881C36.8836 142.297 50.7638 135.637 74.1855 133.508C97.6071 131.379 101.282 113 124.04 113C151.191 113 166.108 117.258 176.941 124.191C187.774 131.115 202.7 146.3 203 157.482C203.291 168.673 173.43 179.055 161.132 174.533C148.835 170.011 130.798 175.088 118.5 177.999C106.203 180.911 77.5418 183.413 64.2619 179.419C50.973 175.415 31.608 169.465 34.2458 155.881Z" fill="#262730"/>
<path d="M46.3794 172.922C49.1627 165.934 52.7101 159.356 56.403 152.842C60.1777 146.373 64.1253 140.022 68.7824 134.117C65.999 141.105 62.479 147.692 58.7679 154.207C55.0113 160.585 51.0001 167.117 46.3794 172.922Z" fill="#7C3A25"/>
<path d="M105.629 118.186C100.672 128.958 94.6781 139.749 88.8022 150.057C82.8081 160.311 76.4774 170.884 69.6191 180.573C74.5673 169.801 80.5614 159.01 86.4464 148.702C92.4405 138.448 98.7803 127.875 105.629 118.186Z" fill="#7C3A25"/>
<path d="M136.091 113.318C130.634 124.955 124.121 136.638 117.745 147.82C111.251 158.938 104.401 170.411 97.043 180.965C102.491 169.328 109.004 157.637 115.389 146.464C121.884 135.346 128.742 123.873 136.091 113.318Z" fill="#7C3A25"/>
<path d="M161.459 117.267C156.866 127.402 151.263 137.538 145.751 147.219C140.121 156.845 134.172 166.753 127.678 175.806C132.262 165.661 137.874 155.535 143.386 145.854C149.016 136.237 154.974 126.32 161.459 117.267Z" fill="#7C3A25"/>
<path d="M156.739 173.35C160.05 165.443 164.316 157.637 168.545 150.176C172.884 142.779 177.504 135.182 182.707 128.367C179.406 136.283 175.14 144.08 170.901 151.541C166.553 158.938 161.932 166.526 156.739 173.35Z" fill="#7C3A25"/>
<path d="M184.808 172.613C186.473 167.427 189.011 162.541 191.776 157.855L191.594 158.529V158.137L191.776 157.837C194.059 154.052 196.533 150.358 199.544 147.092C198.216 151.323 196.251 155.317 194.122 159.184C194.122 159.184 194.304 158.474 194.304 158.519V158.865L194.122 159.193C191.43 163.924 188.51 168.591 184.808 172.604V172.613Z" fill="#7C3A25"/>
<path d="M197.397 166.234C195.551 163.823 193.813 161.33 192.14 158.801L192.121 158.528L192.231 158.937C190.211 155.935 188.301 152.878 186.418 149.793C180.861 140.486 175.549 131.032 171.31 121.033C177.841 129.704 183.38 139.039 188.656 148.501C192.176 155.016 194.586 159.601 197.397 166.234Z" fill="#7C3A25"/>
<path d="M139.329 113.527C146.097 123.072 152.355 133.517 158.276 143.634C164.079 153.815 169.982 164.451 174.858 175.096C168.081 165.552 161.823 155.107 155.911 144.99C150.108 134.799 144.205 124.163 139.329 113.527Z" fill="#7C3A25"/>
<path d="M112.46 114.893C118.891 123.845 124.794 133.663 130.37 143.189C135.828 152.778 141.376 162.796 145.915 172.84C139.475 163.897 133.572 154.07 128.005 144.553C122.548 134.964 116.999 124.946 112.46 114.893Z" fill="#7C3A25"/>
<path d="M92.0768 127.484C97.7435 135.118 102.855 143.57 107.667 151.768C112.37 160.039 117.127 168.682 120.901 177.426C115.226 169.792 110.123 161.34 105.311 153.133C100.609 144.853 95.8606 136.21 92.0768 127.484Z" fill="#7C3A25"/>
<path d="M95.3604 181.083C89.9847 173.95 85.1731 166.016 80.6434 158.31C76.2319 150.531 71.775 142.415 68.2913 134.181C73.676 141.314 78.4877 149.239 83.0083 156.945C87.4197 164.724 91.8676 172.849 95.3604 181.083Z" fill="#7C3A25"/>
<path d="M67.1633 180.137C62.5609 174.341 58.5496 167.799 54.793 161.431C51.0729 154.934 47.571 148.32 44.7786 141.359C49.4447 147.237 53.3741 153.606 57.1579 160.066C60.7963 166.507 64.4437 173.24 67.1633 180.137Z" fill="#7C3A25"/>
<path d="M85.1003 194.149C85.1003 196.896 71.8295 197.488 70.5197 200.208C68.2003 199.89 66.09 199.462 64.2618 198.916C55.1023 196.159 43.0504 192.474 37.3291 186.006C38.6753 184.686 40.8401 184.277 44.6512 188.135C47.6892 191.192 50.3907 184.086 55.7026 184.604C59.25 184.959 54.2837 192.092 58.5223 191.528C62.3062 191.019 70.0831 186.87 75.0403 187.489C77.6417 187.816 85.1003 190.737 85.1003 194.149Z" fill="#262730"/>
<path d="M48.6988 180.183C54.0289 180.592 48.2167 186.652 46.5704 184.878C44.924 183.104 43.3686 179.774 48.6988 180.183Z" fill="#262730"/>
<path d="M87.7562 196.406C91.5946 196.706 87.4106 201.064 86.219 199.781C85.0275 198.498 83.9178 196.105 87.7562 196.406Z" fill="#262730"/>
<path d="M145.778 179.172C149.253 177.516 147.807 183.385 146.133 182.866C144.459 182.348 142.304 180.828 145.778 179.172Z" fill="#262730"/>
<path d="M43.0139 179.946C45.0241 181.811 41.6859 181.793 40.9765 181.365C40.267 180.938 40.9947 178.072 43.0139 179.946Z" fill="#262730"/>
<path d="M186.327 191.583C177.459 194.895 167.172 196.269 161.132 194.049C154.092 191.456 145.151 192.011 136.491 193.521C133.372 189.691 132.053 186.069 133.926 184.086C137.274 180.538 144.569 187.498 149.435 185.715C154.119 183.995 148.189 177.39 156.166 177.426C163.333 177.453 166.107 185.56 176.058 185.869C181.743 186.051 184.845 188.863 186.327 191.583Z" fill="#262730"/>
</g>
<path opacity="0.44" d="M2.53087 -73.7327C-65.3704 -69.3498 -116.532 -58.0298 -113.646 -21.6515C-108.127 47.9339 49.6444 0.898344 53.0033 43.2434C55.4379 73.9367 15.748 74.8315 17.279 97.4333C20.218 129.809 109.884 90.0877 116.504 140.265C117.468 147.552 114.152 154.168 111.557 161.054C148.279 137.323 173.075 126.444 171.238 103.285C169.253 78.2692 123.341 89.0202 121.718 68.5484C120.001 46.9136 213.519 30.7146 208.652 -30.6359C204.297 -85.4556 139.074 -96.9065 84.2397 -92.5569C78.2265 -92.0799 87.0925 -93.9099 2.53087 -73.7327Z" fill="#262730"/>
</g>
<defs>
<clipPath id="clip0_567_688">
<rect width="240" height="240" rx="120" fill="white"/>
</clipPath>
<clipPath id="clip1_567_688">
<rect width="169" height="88" fill="white" transform="translate(34 113)"/>
</clipPath>
</defs>
</svg>
