<svg width="240" height="240" viewBox="0 0 240 240" fill="none" xmlns="http://www.w3.org/2000/svg">
<rect width="240" height="240" rx="120" fill="#F6CA73"/>
<g clip-path="url(#clip0_620_1929)">
<path d="M170 106.971V229.774C169.999 230.742 169.675 231.682 169.076 232.446C168.478 233.21 167.641 233.753 166.696 233.99C152.135 237.629 137.193 239.55 122.179 239.714C120.899 239.714 119.619 239.714 118.338 239.714C103.132 239.588 87.9949 237.667 73.2454 233.99C72.3047 233.749 71.4712 233.204 70.8766 232.44C70.2821 231.677 69.9599 230.739 69.9609 229.774V106.971H170Z" fill="#1E2675"/>
<path d="M170.001 141.082C164.7 152.529 157.767 151.632 147.128 146.653C132.436 143.41 126.137 161.343 110.639 159.778C92.8932 158.328 87.2659 139.976 70.0391 134.138V106.971H170.039L170.001 141.082Z" fill="#F79E4F"/>
<path d="M170 189.692V230.022C169.999 230.989 169.675 231.93 169.076 232.693C168.478 233.457 167.641 234 166.696 234.238C152.135 237.876 137.193 239.797 122.179 239.961H118.338C103.132 239.836 87.9949 237.915 73.2454 234.238C72.3047 233.997 71.4712 233.452 70.8766 232.689C70.2821 231.925 69.9599 230.987 69.9609 230.022V210.239C71.7516 209.194 73.6278 208.3 75.5691 207.567C89.1278 202.493 95.0618 210.029 108.409 207.835C110.983 207.415 124.925 204.821 133.856 193.469C136.64 189.94 137.927 186.849 142.249 184.082C144.611 182.541 147.271 181.507 150.059 181.048C152.847 180.588 155.701 180.712 158.438 181.412C163.119 182.803 167.192 185.72 170 189.692Z" fill="#FA6257"/>
<path d="M119.99 120.383C147.599 120.383 169.981 114.387 169.981 106.99C169.981 99.5937 147.599 93.5977 119.99 93.5977C92.3815 93.5977 70 99.5937 70 106.99C70 114.387 92.3815 120.383 119.99 120.383Z" fill="#F7EEC1"/>
<path d="M123.965 106.322C122.884 107.218 121.532 107.728 120.124 107.772C118.646 107.81 117.2 107.338 116.033 106.437" stroke="#262730" stroke-width="1.2" stroke-miterlimit="10" stroke-linecap="round"/>
<path d="M120.202 105.502H120.048C119.944 105.497 119.843 105.472 119.749 105.428C119.655 105.384 119.572 105.323 119.502 105.247C119.432 105.17 119.379 105.081 119.344 104.984C119.309 104.887 119.294 104.785 119.299 104.682C119.145 102.431 119.068 100.008 119.068 97.4517C119.068 94.8952 119.165 92.7011 119.299 90.5453C119.297 90.3353 119.372 90.132 119.51 89.9733C119.576 89.896 119.659 89.8336 119.752 89.7907C119.844 89.7479 119.946 89.7251 120.048 89.7246H120.202C120.407 89.7393 120.598 89.8339 120.735 89.9873C120.871 90.1407 120.942 90.3409 120.931 90.5453C120.72 92.6057 120.586 94.8947 120.566 97.3939C120.547 99.8931 120.72 102.507 120.931 104.682C120.931 104.739 120.931 105.025 120.202 105.502Z" fill="#262730"/>
<path d="M121.186 99.6199C128.6 99.6199 134.61 93.6495 134.61 86.2846C134.61 78.9197 128.6 72.9492 121.186 72.9492C113.772 72.9492 107.762 78.9197 107.762 86.2846C107.762 93.6495 113.772 99.6199 121.186 99.6199Z" fill="#F79E4F"/>
<path d="M137.838 82.9272C138.049 91.9319 128.715 98.7619 124.644 99.3343C124.202 99.3343 122.474 99.8496 122.358 99.5634C122.243 99.2773 124.49 98.4567 125.988 96.9878C128.773 94.2596 128.331 89.6049 128.158 87.7162C127.428 80.1805 121.878 73.98 120.476 74.5714C119.9 74.8194 120.476 76.0213 119.977 78.387C119.055 82.4124 116.405 82.5646 114.657 86.59C114.542 86.838 112.141 92.5042 114.657 96.2435C115.694 97.7888 117.423 98.7808 117.231 99.0669C117.039 99.3531 115.041 98.3994 114.849 98.304C112.222 96.9915 109.914 95.1275 108.084 92.8415C106.253 90.5555 104.944 87.9021 104.248 85.0642C103.442 79.998 104.617 74.8177 107.532 70.5845C109.326 68.0588 111.407 65.747 113.735 63.6967C115.656 61.9225 115.08 62.629 119.708 58.5845C123.184 55.5511 123.875 54.7687 124.663 55.0549C126.199 55.5319 125.239 58.8702 126.949 63.3725C128.658 67.8749 130.789 67.9131 133.92 72.9114C136.042 75.8754 137.388 79.3174 137.838 82.9272Z" fill="#FA6257"/>
</g>
<defs>
<clipPath id="clip0_620_1929">
<rect width="100" height="187" fill="white" transform="translate(70 53)"/>
</clipPath>
</defs>
</svg>
