<svg width="240" height="240" viewBox="0 0 240 240" fill="none" xmlns="http://www.w3.org/2000/svg">
<rect width="240" height="240" rx="120" fill="#F6CA73"/>
<path d="M162.472 125.264C172.948 123.421 184.162 144 175.894 154.421C171.969 159.364 162.491 167.114 162.491 167.114C162.491 167.114 162.262 154.74 158.928 147.458C152.742 133.955 156.91 126.237 162.469 125.254L162.472 125.264Z" fill="#FA6257"/>
<path d="M102.511 191.788C103.08 183.276 129.53 188.029 144.612 170.23C156.991 155.63 155.867 135.919 155.867 135.919C157.858 157.159 198.215 188.963 146.562 205.968C121.605 214.183 102.124 195.699 102.501 191.791L102.511 191.788Z" fill="#F79E4F"/>
<path d="M135.351 84.9221C136.441 80.2595 143.829 72.1273 151.476 73.8206C159.856 75.6745 167.908 86.513 175.568 98.3588C173.4 99.8174 166.34 102.401 153.757 101.442C137.836 100.229 133.376 93.3412 135.351 84.9221Z" fill="#FA6257"/>
<path d="M202.884 111.995C189.754 115.457 175.981 99.9605 171.248 93.4921C164.586 84.3834 160.397 78.4907 155.269 75.1351C155.269 75.1351 168.478 80.8247 179.812 81.5C188.818 82.0292 193.913 74.927 201.112 75.4757C219.361 76.8665 219.633 107.583 202.884 111.995Z" fill="#F79E4F"/>
<path d="M91.054 139.98C91.7132 141.599 80.9042 145.955 72.2612 154.364C69.4569 157.415 66.2969 160.068 62.8648 162.261C56.1471 166.335 48.8643 169.292 42.1885 164.998C21.9621 151.983 47.797 113.197 77.8069 128.531C86.6383 132.741 90.0704 138.497 91.054 139.98Z" fill="#F79E4F"/>
<path d="M123.23 144.775C123.23 140.513 118.291 133.974 111.27 133.107C104.971 132.324 95.8149 133.441 86.6278 137.724C66.6317 147.032 59.2129 164.299 59.2129 164.299C59.2129 164.299 75.3793 154.814 92.4142 151.032C105.578 148.107 109.072 155.085 116.69 152.881C119.756 151.993 123.23 149.977 123.23 144.775Z" fill="#FA6257"/>
<path d="M103.796 105.477C96.2625 97.0156 86.2906 87.7605 76.0048 83.018C64.0761 77.4085 29.4727 79.4873 29.4727 79.4873C29.4727 79.4873 45.2519 67.6624 57.5363 67.2028C72.7506 66.6387 88.8647 78.6202 93.7094 86.9352C97.7065 92.5134 101.411 99.0421 103.796 105.477Z" fill="#FA6257"/>
<path d="M112.397 108.215C102.467 111.693 100.238 96.3379 93.1858 87.0932C87.2006 79.7601 81.4665 75.237 72.3003 72.8763C56.3222 68.771 44.9481 74.9863 39.3187 77.2113C35.7296 78.632 24.6799 81.2957 22.5453 78.0784C19.5318 73.8791 29.3363 56.5597 43.8494 49.2579C64.9652 38.5508 95.3832 49.2579 107.594 67.7786C111.309 73.6179 113.799 80.1571 114.898 86.9992C115.599 91.3029 117.995 105.018 112.397 108.225V108.215Z" fill="#F79E4F"/>
</svg>
