<svg width="240" height="240" viewBox="0 0 240 240" fill="none" xmlns="http://www.w3.org/2000/svg">
<rect width="240" height="240" rx="120" fill="#F6CA73"/>
<g clip-path="url(#clip0_239_56)">
<path d="M32.75 79.7633C30.168 84.2353 30.3373 84.8282 34.9066 87.3436L203.857 180.337C204.613 180.753 205.56 180.483 205.97 179.734C206.37 179.006 206.115 178.089 205.403 177.66L40.393 77.8408C35.93 75.1413 35.3319 75.2912 32.75 79.7633Z" fill="#F7E9C1"/>
<path d="M41.3455 90.8869L78.1522 111.147L82.6302 103.391L46.6813 81.645L41.3455 90.8869Z" fill="#FA6257"/>
</g>
<g clip-path="url(#clip1_239_56)">
<path d="M71.7631 32.7503C67.2911 35.3322 67.1412 35.9303 69.8406 40.3934L169.66 205.403C170.106 206.141 171.061 206.381 171.791 205.937C172.501 205.507 172.739 204.585 172.336 203.858L79.3435 34.9069C76.8281 30.3376 76.2351 30.1684 71.7631 32.7503Z" fill="#F7E9C1"/>
<path d="M73.6451 46.6815L95.3907 82.6305L103.147 78.1524L82.887 41.3457L73.6451 46.6815Z" fill="#FA6257"/>
</g>
<defs>
<clipPath id="clip0_239_56">
<rect width="11" height="200" fill="white" transform="matrix(-0.5 0.866025 0.866025 0.5 35.5 75)"/>
</clipPath>
<clipPath id="clip1_239_56">
<rect width="11" height="200" fill="white" transform="matrix(-0.866025 0.5 0.5 0.866025 76.5262 30)"/>
</clipPath>
</defs>
</svg>
