<svg width="240" height="240" viewBox="0 0 240 240" fill="none" xmlns="http://www.w3.org/2000/svg">
<g clip-path="url(#clip0_270_718)">
<rect width="240" height="240" rx="120" fill="#F6CA73"/>
<path d="M74.1327 82.3228V109.208L54.4984 87.9536H48V85.3346L50.2016 83.2967L51.2574 82.3228H74.1327Z" fill="#FA6257"/>
<path d="M107.165 175.24H84.8296L68.4609 82.3311H101.706L107.165 175.24Z" fill="#FA6257"/>
<path d="M200 96.3589L199.132 99.5999L190.973 130.038L183.959 156.219H174.825V150.392L180.276 130.038L188.435 99.5999H163.882V82.3228H186.037L198.838 95.1886L200 96.3589Z" fill="#262730"/>
<path d="M178.688 82.3311L175.643 99.6001H162.246V82.3311H178.688Z" fill="#FA6257"/>
<path d="M168.204 82.3311L151.835 175.24H129.5L134.959 82.3311H168.204Z" fill="#FA6257"/>
<path d="M134.959 82.3311L129.5 175.24H107.165L101.706 82.3311H134.959Z" fill="#F79E4F"/>
<path d="M129.5 187.361H151.835L168.204 280.278H134.959L129.5 187.361Z" fill="#FA6257"/>
<path d="M68.4609 280.278L84.8296 187.361H107.165L101.706 280.278H68.4609Z" fill="#FA6257"/>
<path d="M101.706 280.278L107.165 187.361H129.5L134.959 280.278H101.706Z" fill="#F79E4F"/>
<path d="M148.561 175.248H88.1034V187.369H148.561V175.248Z" fill="#1E2675"/>
<path d="M168.204 82.3233H68.4609L113.033 65.6436H123.484L168.204 82.3233Z" fill="#1E2675"/>
<path d="M113.033 65.6433H123.484L125.94 52H110.578L113.033 65.6433Z" fill="#262730"/>
</g>
<defs>
<clipPath id="clip0_270_718">
<rect width="240" height="240" rx="120" fill="white"/>
</clipPath>
</defs>
</svg>
