<svg width="240" height="240" viewBox="0 0 240 240" fill="none" xmlns="http://www.w3.org/2000/svg">
<rect width="240" height="240" rx="120" fill="#F6CA73"/>
<g clip-path="url(#clip0_229_1895)">
<path d="M91.1257 165.964H121.978V171.875C121.978 173.048 121.028 174 119.857 174H93.2468C92.0757 174 91.1257 173.048 91.1257 171.875V165.964Z" fill="#FA6257"/>
<path d="M68.5432 96.874V157.865L66.6134 166.447C65.1522 172.949 65.99 174 72.6401 174H89.0079C90.9739 174 91.1289 173.845 91.1289 171.874V168.086C91.1289 166.116 91.284 165.961 93.2499 165.961H119.863C121.829 165.961 121.984 166.116 121.984 168.086V171.874C121.984 173.845 122.139 174 124.105 174H140.473C147.123 174 147.961 172.949 146.5 166.447L144.57 157.865V96.874H68.5432Z" fill="#F79E4F"/>
<path d="M142.584 86.3691H70.5225V96.8776H142.584V86.3691Z" fill="#470FF4"/>
<path d="M73.1118 86.369H139.995C139.995 67.4776 138.666 66 121.664 66H91.4423C74.4412 66 73.1118 67.4776 73.1118 86.369Z" fill="#F7E9C1"/>
<path d="M127.335 174H201V146.313C201 138.376 195.699 131.94 189.158 131.94H139.18C132.639 131.94 127.338 138.376 127.338 146.313V174H127.335Z" fill="#470FF4"/>
</g>
<defs>
<clipPath id="clip0_229_1895">
<rect width="135" height="108" fill="white" transform="translate(66 66)"/>
</clipPath>
</defs>
</svg>
