<svg width="240" height="240" viewBox="0 0 240 240" fill="none" xmlns="http://www.w3.org/2000/svg">
<g clip-path="url(#clip0_386_81)">
<rect width="240" height="240" rx="120" fill="#F6CA73"/>
<g clip-path="url(#clip1_386_81)">
<path d="M75.2476 87.6219C75.2476 116.079 16.0674 96.212 16.0674 114.194C16.0674 132.175 56.0326 134.356 56.0326 148.08C56.0326 155.721 39.1778 154.719 39.1778 158.696C39.1778 164.316 51.8996 164.734 51.8996 166.372C51.8996 169.181 27.9184 167.105 27.9184 154.719C27.9184 150.546 36.2987 149.752 36.2987 145.979C36.2987 139.62 -33.0203 136.737 -33.0203 109.298C-33.0203 86.3751 -5.85225 88.459 -5.85225 81.9554C-5.84971 69.7905 -55 80.6196 -55 51.043C-55 21.4639 26.1736 33.4838 26.1736 50.0227C26.1736 64.3276 75.2502 61.7424 75.2502 87.6219H75.2476Z" fill="#262730"/>
<path d="M53.6876 167.429C53.6266 168.078 53.6749 168.129 54.3642 168.131L60.3665 168.172C61.0557 168.177 61.1142 168.126 61.1753 167.48L61.3202 165.945C61.3813 165.297 61.333 165.246 60.6437 165.243L54.6414 165.202C53.9521 165.197 53.8937 165.248 53.8326 165.895L53.6876 167.429Z" fill="#262730"/>
<path d="M89.0148 84.7646C70.4305 84.7646 53.4918 99.8354 51.1799 118.428C48.868 137.02 62.0604 152.091 80.6421 152.091H153.896L162.266 84.7646H89.0123H89.0148Z" fill="#F79E4F"/>
<path d="M188.923 118.428C186.611 137.02 169.672 152.091 151.088 152.091C132.504 152.091 119.314 137.02 121.626 118.428C123.938 99.8354 140.876 84.7646 159.461 84.7646C178.045 84.7646 191.235 99.8354 188.923 118.428Z" fill="#F7E9C1"/>
<path d="M201.545 160.602H197.395C191.764 160.602 186.631 165.169 185.932 170.8C185.232 176.433 189.228 180.998 194.859 180.998H199.01C204.641 180.998 209.773 176.431 210.473 170.8C211.172 165.166 207.176 160.602 201.545 160.602Z" fill="#7C3A25"/>
<path d="M217.329 170.8H174.51L177.03 150.531H213.492C217.004 150.531 219.496 153.378 219.059 156.892L217.329 170.8Z" fill="#FA6257"/>
<path d="M206.589 170.8H146.456L154.453 106.484H193.389C199.582 106.484 204.798 111.494 204.984 117.616L206.586 170.8H206.589Z" fill="#FA6257"/>
<path d="M167.185 160.602H163.034L162.925 161.484C159.166 163.075 156.238 166.647 155.722 170.8C155.206 174.952 157.245 178.525 160.608 180.115L160.498 180.998H164.649C170.28 180.998 175.413 176.431 176.112 170.8C176.811 165.166 172.816 160.602 167.185 160.602Z" fill="#7C3A25"/>
<path d="M59.1177 156.164C59.4102 153.816 59.6162 153.63 61.9662 153.63H149.653L147.52 170.797H59.8324C57.4849 170.797 57.3221 170.614 57.6146 168.263L59.1202 156.162L59.1177 156.164Z" fill="#7C3A25"/>
<path d="M181.412 150.531H173.897L172.905 117.616C172.719 111.494 167.503 106.484 161.31 106.484H155.511C150.793 106.484 150.378 106.853 149.791 111.573L144.946 150.531L142.425 170.8H148.511C149.419 163.493 156.103 157.546 163.408 157.546C170.712 157.546 175.914 163.493 175.006 170.8H185.245L186.975 156.892C187.41 153.394 184.904 150.531 181.407 150.531H181.412Z" fill="#F79E4F"/>
<path d="M201.731 146.228C201.777 147.783 201.576 147.989 200.004 147.989H179.248C177.984 147.989 177.938 147.946 177.9 146.696L177.002 116.998C176.959 115.512 176.689 114.079 176.229 112.728C175.649 111.028 176.008 110.558 177.882 110.558H192.883C197.095 110.558 200.76 114.077 200.884 118.239L201.729 146.228H201.731Z" fill="#262730"/>
<path d="M169.652 146.228C169.698 147.783 169.497 147.989 167.925 147.989H150.864C149.45 147.989 149.351 147.877 149.529 146.462L153.868 111.575V111.57C153.985 110.629 154.069 110.558 155.007 110.558H160.811C165.02 110.558 168.685 114.077 168.81 118.239L169.654 146.228H169.652Z" fill="#262730"/>
<path d="M195.788 160.257C197.47 158.675 197.702 156.187 196.306 154.7C194.909 153.214 192.412 153.291 190.73 154.873C189.047 156.455 188.815 158.943 190.212 160.43C191.608 161.917 194.105 161.839 195.788 160.257Z" fill="#F7E9C1"/>
<path d="M219.972 157.698C219.725 159.686 217.914 161.296 215.928 161.296C213.942 161.296 212.533 159.686 212.779 157.698C213.026 155.711 214.837 154.101 216.823 154.101C218.81 154.101 220.219 155.711 219.972 157.698Z" fill="#F7E9C1"/>
<path d="M219.336 170.996C219.044 173.345 218.838 173.53 216.488 173.53H185.873C183.526 173.53 183.363 173.347 183.655 170.996C183.948 168.645 184.154 168.462 186.504 168.462H217.118C219.466 168.462 219.629 168.645 219.336 170.996Z" fill="#F7E9C1"/>
<path d="M118.108 160.602H113.957L113.848 161.484C110.089 163.075 107.162 166.647 106.645 170.8C106.129 174.955 108.169 178.525 111.531 180.115L111.422 180.998H115.572C121.203 180.998 126.336 176.431 127.035 170.8C127.735 165.166 123.739 160.602 118.108 160.602Z" fill="#7C3A25"/>
<path d="M125.937 170.803H99.4426C100.351 163.495 107.034 157.549 114.339 157.549C121.643 157.549 126.845 163.495 125.937 170.803Z" fill="#262730"/>
<path d="M119.252 177.786C123.619 173.681 124.221 167.226 120.598 163.368C116.974 159.511 110.497 159.711 106.13 163.817C101.764 167.922 101.161 174.377 104.785 178.235C108.408 182.092 114.885 181.892 119.252 177.786Z" fill="#F79E4F"/>
<path d="M116.089 174.419C118.351 172.293 118.664 168.949 116.787 166.951C114.911 164.953 111.555 165.058 109.293 167.184C107.031 169.311 106.718 172.655 108.595 174.653C110.472 176.651 113.827 176.546 116.089 174.419Z" fill="#7C3A25"/>
<path d="M89.0173 160.602H84.8666L84.7572 161.484C80.9982 163.075 78.0708 166.647 77.5544 170.8C77.0381 174.955 79.0779 178.525 82.4402 180.115L82.3309 180.998H86.4816C92.1126 180.998 97.2451 176.431 97.9445 170.8C98.6439 165.166 94.6483 160.602 89.0173 160.602Z" fill="#7C3A25"/>
<path d="M96.8458 170.803H70.3517C71.2597 163.495 77.9436 157.549 85.2481 157.549C92.5526 157.549 97.7538 163.495 96.8458 170.803Z" fill="#262730"/>
<path d="M93.7937 170.8C94.4932 165.167 90.4976 160.6 84.8666 160.6C79.2356 160.6 74.1031 165.167 73.4037 170.8C72.7043 176.434 76.6999 181.001 82.3309 181.001C87.9618 181.001 93.0943 176.434 93.7937 170.8Z" fill="#F79E4F"/>
<path d="M88.88 170.799C89.2437 167.881 87.1734 165.515 84.2562 165.515C81.339 165.515 78.6811 167.881 78.3174 170.799C77.9537 173.718 80.024 176.084 82.9413 176.084C85.8585 176.084 88.5163 173.718 88.88 170.799Z" fill="#7C3A25"/>
<path d="M175.011 170.803H148.517C149.425 163.495 156.108 157.549 163.413 157.549C170.717 157.549 175.919 163.495 175.011 170.803Z" fill="#262730"/>
<path d="M168.326 177.788C172.692 173.683 173.295 167.228 169.671 163.37C166.048 159.513 159.571 159.713 155.204 163.819C150.837 167.924 150.235 174.379 153.858 178.237C157.482 182.094 163.959 181.894 168.326 177.788Z" fill="#F79E4F"/>
<path d="M165.163 174.421C167.425 172.295 167.738 168.951 165.861 166.953C163.984 164.955 160.629 165.06 158.367 167.186C156.105 169.313 155.792 172.657 157.669 174.655C159.545 176.653 162.901 176.548 165.163 174.421Z" fill="#7C3A25"/>
</g>
</g>
<defs>
<clipPath id="clip0_386_81">
<rect width="240" height="240" rx="120" fill="white"/>
</clipPath>
<clipPath id="clip1_386_81">
<rect width="275" height="148" fill="white" transform="translate(-55 33)"/>
</clipPath>
</defs>
</svg>
