<svg width="240" height="240" viewBox="0 0 240 240" fill="none" xmlns="http://www.w3.org/2000/svg">
<rect width="240" height="240" rx="120" fill="#F6CA73"/>
<g clip-path="url(#clip0_620_3156)">
<path d="M115.936 76.7969H112.541V113.971H115.936V76.7969Z" fill="#262730"/>
<path d="M124.813 76.7969H121.418V113.971H124.813V76.7969Z" fill="#262730"/>
<path d="M107.732 135.271L78.918 158.645L81.0526 161.293L109.866 137.919L107.732 135.271Z" fill="#262730"/>
<path d="M128.156 135.982L126.021 138.631L154.839 162L156.973 159.351L128.156 135.982Z" fill="#262730"/>
<path d="M119.653 85.5506C134.118 85.5506 145.844 73.7867 145.844 59.2753C145.844 44.7639 134.118 33 119.653 33C105.187 33 93.4609 44.7639 93.4609 59.2753C93.4609 73.7867 105.187 85.5506 119.653 85.5506Z" fill="#1E2675"/>
<path d="M118.753 156.05C132.177 156.05 143.06 145.132 143.06 131.664C143.06 118.197 132.177 107.279 118.753 107.279C105.328 107.279 94.4453 118.197 94.4453 131.664C94.4453 145.132 105.328 156.05 118.753 156.05Z" fill="#FA6257"/>
<path d="M74.2291 189C83.7445 189 91.4582 181.262 91.4582 171.716C91.4582 162.17 83.7445 154.432 74.2291 154.432C64.7137 154.432 57 162.17 57 171.716C57 181.262 64.7137 189 74.2291 189Z" fill="#F7EEC1"/>
<path d="M164.77 189C174.285 189 181.999 181.262 181.999 171.716C181.999 162.17 174.285 154.432 164.77 154.432C155.255 154.432 147.541 162.17 147.541 171.716C147.541 181.262 155.255 189 164.77 189Z" fill="#F7EEC1"/>
<path d="M125.221 59.2761C125.254 60.4536 125.003 61.6218 124.491 62.6818C124.052 63.5793 123.369 64.3342 122.522 64.8611C121.66 65.3758 120.673 65.6413 119.671 65.6277C118.662 65.6436 117.669 65.378 116.802 64.8611C115.95 64.3278 115.262 63.5672 114.816 62.6643C114.313 61.6018 114.068 60.4345 114.103 59.2586C114.074 58.0832 114.318 56.9172 114.816 55.8529C115.267 54.9583 115.954 54.2049 116.802 53.6735C117.669 53.1567 118.662 52.8911 119.671 52.9069C120.673 52.8933 121.66 53.1589 122.522 53.6735C123.369 54.2004 124.052 54.9554 124.491 55.8529C125.006 56.9182 125.256 58.0928 125.221 59.2761ZM123.371 59.2761C123.402 58.3999 123.24 57.5276 122.896 56.7217C122.626 56.0753 122.163 55.5283 121.572 55.1552C121.003 54.7939 120.343 54.6042 119.671 54.6098C118.992 54.6018 118.326 54.7916 117.752 55.1552C117.173 55.5381 116.719 56.0826 116.445 56.7217C116.087 57.5236 115.918 58.3979 115.953 59.2761C115.92 60.1486 116.089 61.0164 116.445 61.8129C116.723 62.4542 117.176 63.0037 117.752 63.3969C118.327 63.7554 118.994 63.9389 119.671 63.9249C120.342 63.9365 121.002 63.7531 121.572 63.3969C122.157 63.0097 122.618 62.459 122.896 61.8129C123.238 61.0125 123.4 60.1466 123.371 59.2761Z" fill="#F7EEC1"/>
<path d="M124.084 129.486H122.2C122.139 129.109 122 128.749 121.792 128.43C121.601 128.13 121.36 127.865 121.08 127.646C120.79 127.427 120.462 127.266 120.112 127.17C119.756 127.052 119.383 126.995 119.009 126.999C118.33 126.991 117.664 127.18 117.09 127.544C116.509 127.929 116.05 128.472 115.766 129.111C115.421 129.91 115.253 130.777 115.274 131.648C115.248 132.526 115.416 133.398 115.766 134.203C116.045 134.849 116.505 135.399 117.09 135.786C117.664 136.134 118.322 136.317 118.992 136.314C119.372 136.318 119.75 136.26 120.112 136.143C120.451 136.042 120.773 135.888 121.063 135.684C121.348 135.466 121.595 135.201 121.792 134.9C121.993 134.583 122.131 134.231 122.2 133.862H124.084C123.993 134.459 123.798 135.036 123.507 135.564C123.22 136.064 122.847 136.508 122.404 136.876C121.942 137.247 121.419 137.536 120.859 137.727C120.253 137.936 119.616 138.04 118.975 138.034C117.971 138.052 116.983 137.786 116.123 137.267C115.272 136.738 114.589 135.976 114.154 135.071C113.646 134.009 113.396 132.842 113.424 131.665C113.4 130.488 113.65 129.322 114.154 128.259C114.595 127.357 115.284 126.601 116.14 126.08C116.995 125.563 117.977 125.297 118.975 125.313C119.602 125.305 120.226 125.398 120.825 125.586C121.381 125.768 121.898 126.05 122.353 126.42C122.809 126.778 123.19 127.224 123.473 127.731C123.785 128.272 123.992 128.868 124.084 129.486Z" fill="#262730"/>
<path d="M69.3574 177.915V165.535H71.2246V170.916H77.3694V165.535H79.2366V177.915H77.3694V172.517H71.2246V177.915H69.3574Z" fill="#262730"/>
<path d="M159.832 177.915V165.535H161.699V170.916H167.81V165.535H169.677V177.915H167.81V172.517H161.699V177.915H159.832Z" fill="#262730"/>
</g>
<defs>
<clipPath id="clip0_620_3156">
<rect width="125" height="156" fill="white" transform="translate(57 33)"/>
</clipPath>
</defs>
</svg>
