<svg width="240" height="240" viewBox="0 0 240 240" fill="none" xmlns="http://www.w3.org/2000/svg">
<rect width="240" height="240" rx="120" fill="#F6CA73"/>
<g clip-path="url(#clip0_620_3415)">
<path d="M127.24 110.54C122 128.46 103.47 139.48 91.2303 141.83L83.6303 143.2C68.3303 144.23 62.8203 149.49 60.5003 147.93C59.0403 146.95 60.7403 142.02 55.1103 137.28C52.2203 134.37 49.9903 130.86 47.2003 127.98C32.7303 110.93 30.0803 80.8999 44.9603 64.5099C64.1403 43.3599 110.49 48.5999 125.36 83.4999C128.97 92.0499 129.64 101.57 127.25 110.54H127.24Z" fill="#F79E4F"/>
<path d="M58.0801 55.4307C62.6901 62.3907 74.6901 71.2407 85.9801 76.1607C100.33 82.4007 117.56 84.3407 124.22 81.0207C111.27 54.6207 79.5201 46.6807 58.0801 55.4307Z" fill="#F7EEC1"/>
<path d="M74.0809 82.6799C63.8709 95.9099 59.6309 104.6 59.8309 121.62C59.8309 121.79 59.5509 121.83 59.5309 121.64C57.6209 107.59 60.0309 89.6699 73.8909 82.4499C74.0309 82.3799 74.1909 82.5499 74.0809 82.6799Z" fill="#F6CA73"/>
<path d="M95.21 91.109C99.55 105.639 89.88 119.959 79.66 129.459C79.53 129.579 79.32 129.399 79.44 129.249C83.94 123.869 88 117.999 90.5 111.449C91.76 108.209 92.35 104.819 93.12 101.489C93.87 98.139 94.33 94.709 94.91 91.129C94.93 90.979 95.17 90.949 95.21 91.109Z" fill="#F6CA73"/>
<path d="M127.599 139.549C131.979 124.589 147.449 115.389 157.669 113.429L164.009 112.289C176.819 111.429 181.369 107.029 183.319 108.339C184.539 109.159 183.119 113.269 187.819 117.229C190.239 119.659 192.089 122.589 194.419 124.989C206.499 139.219 208.709 164.299 196.289 177.979C184.929 190.509 165.779 189.849 153.669 185.469C135.329 178.699 122.339 159.239 127.589 139.549H127.599Z" fill="#F79E4F"/>
<path d="M185.349 185.56C181.499 179.75 171.479 172.36 162.049 168.26C150.069 163.05 135.679 161.43 130.119 164.2C140.879 186.14 167.109 193.01 185.349 185.57V185.56Z" fill="#F7EEC1"/>
<path d="M172.009 162.819C180.699 152.629 184.359 143.779 183.919 130.279C183.919 130.159 184.109 130.139 184.119 130.269C185.149 139.259 184.379 149.199 178.989 156.809C177.109 159.289 174.799 161.439 172.139 162.969C172.049 163.019 171.939 162.899 172.009 162.819Z" fill="#F6CA73"/>
<path d="M154.37 155.77C151.25 143.63 158.87 131.81 167.35 123.77C167.43 123.69 167.58 123.81 167.5 123.91C161.65 130.47 157.22 138.34 155.85 147.07C155.25 149.9 154.92 152.78 154.58 155.77C154.58 155.88 154.4 155.89 154.38 155.78L154.37 155.77Z" fill="#F6CA73"/>
</g>
<defs>
<clipPath id="clip0_620_3415">
<rect width="169.62" height="136.45" fill="white" transform="translate(35 52)"/>
</clipPath>
</defs>
</svg>
