<svg width="240" height="240" viewBox="0 0 240 240" fill="none" xmlns="http://www.w3.org/2000/svg">
<rect width="240" height="240" rx="120" fill="#F6CA73"/>
<g clip-path="url(#clip0_620_2519)">
<path d="M69.2532 59.278L59.1035 69.4277L170.575 180.899L180.724 170.749L69.2532 59.278Z" fill="#1E2675"/>
<path d="M68.0582 160.742C66.0001 158.185 64.3514 155.319 63.3169 152.206C56.5306 131.79 77.9019 121.308 87.6355 107.201C92.1963 100.589 94.2764 92.6929 98.2275 85.7526C101.952 79.2107 106.975 73.1575 113.369 69.0963C126.222 60.9343 142.788 60.0429 156.352 67.2935C181.701 80.844 181.692 125.523 160.345 154.251C145.991 173.569 120.523 180.522 97.4857 176.36C88.9144 174.812 80.3188 171.521 73.4533 166.069C71.4744 164.498 69.643 162.712 68.0582 160.74V160.742Z" fill="#FA6257"/>
<path d="M120 206C108.393 206 97.1298 203.726 86.5223 199.238C76.2802 194.906 67.0837 188.705 59.1881 180.81C51.2924 172.914 45.0917 163.718 40.7598 153.475C36.2738 142.87 34 131.607 34 120C34 108.393 36.2738 97.1298 40.762 86.5223C45.0939 76.2802 51.2946 67.0837 59.1903 59.1881C67.0859 51.2924 76.2824 45.0917 86.5245 40.7598C97.1298 36.2738 108.393 34 120 34C131.607 34 142.87 36.2738 153.478 40.762C163.72 45.0939 172.916 51.2946 180.812 59.1903C188.708 67.0859 194.908 76.2824 199.24 86.5245C203.726 97.132 206.002 108.395 206.002 120.002C206.002 131.609 203.728 142.872 199.24 153.48C194.908 163.722 188.708 172.918 180.812 180.814C172.916 188.71 163.72 194.91 153.478 199.242C142.87 203.728 131.607 206.004 120 206.004V206ZM120 48.3539C80.4955 48.3539 48.3539 80.4933 48.3539 120C48.3539 159.507 80.4933 191.646 120 191.646C159.507 191.646 191.646 159.507 191.646 120C191.646 80.4933 159.507 48.3539 120 48.3539Z" fill="#1E2675"/>
<path d="M134.719 127.001C145.94 127.001 155.036 117.905 155.036 106.684C155.036 95.4634 145.94 86.3672 134.719 86.3672C123.499 86.3672 114.402 95.4634 114.402 106.684C114.402 117.905 123.499 127.001 134.719 127.001Z" fill="#F6CA73"/>
<path d="M109.765 154.251C107.57 154.251 105.446 153.076 104.332 151.009C101.552 145.847 98.5517 142.697 96.0996 142.367C93.9029 142.074 91.3649 144.185 89.6238 146.01C87.2751 148.473 83.3724 148.566 80.9093 146.215C78.4462 143.864 78.3537 139.963 80.7046 137.5C86.1151 131.828 91.8492 129.356 97.7461 130.148C104.438 131.049 110.306 136.1 115.186 145.163C116.799 148.158 115.679 151.898 112.683 153.512C111.754 154.011 110.753 154.249 109.767 154.249L109.765 154.251Z" fill="#F79E4F"/>
<path d="M111.864 157.719C116.962 157.719 121.094 153.587 121.094 148.489C121.094 143.392 116.962 139.26 111.864 139.26C106.767 139.26 102.635 143.392 102.635 148.489C102.635 153.587 106.767 157.719 111.864 157.719Z" fill="#F79E4F"/>
<path d="M89.6985 145.93L84.7899 150.843C83.8808 151.755 82.406 151.755 81.4947 150.843L72.3202 141.678C71.4089 140.769 71.4089 139.294 72.3202 138.383C75.0298 135.669 79.4278 135.666 82.1418 138.378L89.7007 145.93H89.6985Z" fill="#F79E4F"/>
<path d="M140.435 121.01C153.105 121.01 163.375 110.739 163.375 98.0696C163.375 85.3998 153.105 75.1289 140.435 75.1289C127.765 75.1289 117.494 85.3998 117.494 98.0696C117.494 110.739 127.765 121.01 140.435 121.01Z" fill="#F6CA73"/>
<path d="M122.183 141.738C121.617 141.738 121.051 141.702 120.486 141.63C117.21 141.212 114.298 139.625 112.068 137.036C109.896 134.513 108.483 131.185 107.873 127.139C107.419 124.135 109.486 121.331 112.491 120.875C115.496 120.421 118.3 122.488 118.756 125.493C119.22 128.57 120.389 130.523 121.879 130.712C123.545 130.925 126.055 129.42 127.426 126.213C128.619 123.417 131.853 122.119 134.648 123.314C137.444 124.507 138.742 127.74 137.547 130.536C134.644 137.335 128.496 141.738 122.185 141.738H122.183Z" fill="#F79E4F"/>
<path d="M148.748 148.221C137.817 162.932 109.29 168.683 102.929 158.816C97.6501 150.627 110.344 132.67 114.047 128.948C123.692 119.249 128.167 116.267 135.671 114.519C153.582 110.346 158.05 135.708 148.748 148.223V148.221Z" fill="#F6CA73"/>
<path d="M133.497 148.64C132.932 148.64 132.366 148.605 131.8 148.532C128.525 148.114 125.613 146.527 123.383 143.938C121.211 141.415 119.797 138.087 119.185 134.039C118.732 131.035 120.799 128.23 123.804 127.775C126.808 127.324 129.612 129.388 130.068 132.393C130.533 135.47 131.701 137.423 133.192 137.612C134.858 137.823 137.367 136.32 138.738 133.113C139.932 130.317 143.165 129.018 145.961 130.214C148.756 131.407 150.055 134.64 148.86 137.436C145.956 144.235 139.808 148.638 133.497 148.638V148.64Z" fill="#F7EEC1"/>
<path d="M89.2353 149.406C88.4671 149.406 87.6439 149.335 86.7524 149.186C83.4242 148.627 80.8488 147.002 79.3058 144.484C77.9367 142.252 77.459 139.384 77.9587 136.406C79.4973 127.236 89.0988 124.319 97.5712 121.748C104.23 119.727 110.518 117.817 111.267 113.351C111.676 110.907 109.708 109.27 106.42 106.864C102.942 104.319 98.6123 101.154 99.5786 95.3978C100.14 92.0498 102.557 89.6087 104.894 87.249C106.942 85.1821 108.876 83.2275 109.259 80.9426C109.918 77.0179 105.856 73.0272 103.376 70.9977C102.812 70.5355 102.729 69.7034 103.191 69.1399C103.653 68.5764 104.485 68.4928 105.049 68.955C108.619 71.876 112.7 76.4038 111.863 81.3807C111.342 84.4909 109.017 86.8374 106.77 89.1068C104.628 91.2706 102.605 93.3133 102.18 95.8336C101.485 99.9828 104.637 102.287 107.976 104.731C111.223 107.104 114.577 109.558 113.869 113.786C112.85 119.868 105.799 122.01 98.335 124.275C90.2192 126.738 81.8283 129.287 80.5605 136.842C80.1665 139.19 80.5186 141.413 81.5554 143.102C82.6868 144.948 84.6348 146.153 87.1882 146.58C93.7059 147.671 95.5065 143.628 97.5932 138.946C99.7063 134.205 102.103 128.829 109.909 130.139C111.48 130.403 112.843 131.176 113.999 131.878C114.621 132.256 114.817 133.071 114.439 133.694C114.06 134.317 113.246 134.513 112.623 134.134C111.637 133.533 110.58 132.93 109.471 132.745C103.961 131.823 102.284 134.909 100.006 140.022C98.1215 144.251 95.8234 149.404 89.2331 149.404L89.2353 149.406Z" fill="#F6CA73"/>
<path d="M108.944 157.659C105.72 157.659 103.008 155.15 102.799 151.886C102.35 144.822 101.458 140.73 100.148 139.726C99.8116 139.467 98.306 138.705 93.0958 139.759C89.7588 140.435 86.5076 138.276 85.8341 134.941C85.1605 131.606 87.3177 128.353 90.6525 127.679C95.4202 126.715 102.369 125.901 107.646 129.944C113.571 134.485 114.577 142.889 115.099 151.106C115.314 154.503 112.735 157.433 109.338 157.648C109.206 157.657 109.074 157.662 108.942 157.662L108.944 157.659Z" fill="#F7EEC1"/>
<path d="M110.821 162.738C116.292 162.738 120.727 158.304 120.727 152.833C120.727 147.362 116.292 142.928 110.821 142.928C105.351 142.928 100.916 147.362 100.916 152.833C100.916 158.304 105.351 162.738 110.821 162.738Z" fill="#F7EEC1"/>
<path d="M93.4896 139.699L86.3093 141.693C84.9776 142.063 83.5997 141.283 83.2321 139.952L79.5099 126.54C79.1401 125.208 79.9193 123.83 81.251 123.463C85.2175 122.362 89.3249 124.684 90.4255 128.651L93.4918 139.701L93.4896 139.699Z" fill="#F7EEC1"/>
</g>
<defs>
<clipPath id="clip0_620_2519">
<rect width="172" height="172" fill="white" transform="translate(34 34)"/>
</clipPath>
</defs>
</svg>
