<svg width="240" height="240" viewBox="0 0 240 240" fill="none" xmlns="http://www.w3.org/2000/svg">
<rect width="240" height="240" rx="120" fill="#F6CA73"/>
<g clip-path="url(#clip0_386_76)">
<path d="M42.6906 179H36.5293L40.8452 162.356H51.904L42.6906 179Z" fill="#262730"/>
<path d="M197.309 179H203.471L199.155 162.356H188.096L197.309 179Z" fill="#262730"/>
<path d="M199.436 138.709H40.5638L34.3105 88.1536C33.8694 84.5901 34.9112 80.9998 37.195 78.215C39.4787 75.4303 42.8096 73.6902 46.4166 73.3921C65.5498 71.8104 100.093 69.2109 120.463 69.2109C140.832 69.2109 174.64 71.7996 193.597 73.3813C197.198 73.6821 200.524 75.4276 202.805 78.2097C205.086 80.9944 206.133 84.5821 205.692 88.1429L199.436 138.709Z" fill="#C24545"/>
<path d="M56.6437 109.596L53.8752 109.255C46.0375 108.289 38.8946 113.811 37.9211 121.59L37.5399 124.636C36.5664 132.414 42.131 139.503 49.9688 140.469L52.7372 140.81C60.575 141.777 67.7179 136.254 68.6913 128.476L69.0725 125.43C70.046 117.651 64.4814 110.562 56.6437 109.596Z" fill="#1E2675"/>
<path d="M50.7027 153.016C50.1019 165.468 49.3172 166.252 37.4195 166.252C25.5218 166.252 24.7371 165.468 24.1364 153.016L23.0189 122.9C22.8187 118.764 24.2474 114.725 26.9695 111.726C29.6916 108.726 33.469 107.026 37.4195 107.026C41.3701 107.026 45.1475 108.726 47.8696 111.726C50.5917 114.725 52.0204 118.764 51.8202 122.9L50.7027 153.014V153.016Z" fill="#FA6257"/>
<path d="M215.863 153.016C215.263 165.469 214.478 166.253 202.58 166.253C190.683 166.253 189.898 165.469 189.297 153.016L188.18 122.903C187.979 118.767 189.408 114.728 192.13 111.729C194.852 108.729 198.63 107.029 202.58 107.029C206.531 107.029 210.308 108.729 213.03 111.729C215.753 114.728 217.181 118.767 216.981 122.903L215.863 153.016Z" fill="#FA6257"/>
<path d="M202.583 134.576H37.4196V166.253H202.583V134.576Z" fill="#FA6257"/>
<path d="M104.917 66.0986L112.31 70.5725L92.3325 105.375L82.8944 99.6632L104.917 66.0986Z" fill="#F7E9C1"/>
<path d="M117.023 70.366C118.268 68.3412 112.911 65.9029 110.868 64.6676C108.827 63.4323 106.162 64.0741 104.917 66.0989C103.673 68.1237 104.319 70.7688 106.36 72.0041C108.4 73.2393 115.776 72.3908 117.021 70.366H117.023Z" fill="#F7E9C1"/>
<path d="M80.6567 98.8818C83.1325 94.8377 83.6439 94.7141 87.719 97.1686L92.3487 99.9587C96.4238 102.416 96.5482 102.923 94.0751 106.968L88.1195 116.697C85.8682 120.373 81.0409 121.544 77.3339 119.312C73.6295 117.078 72.4498 112.287 74.6983 108.608L80.654 98.8792L80.6567 98.8818Z" fill="#F79E4F"/>
<path d="M156.867 94.1094L156.803 94.2679L156.029 96.1476L144.518 130.735H110.364L143.373 83.0537L151.548 89.7511L156.867 94.1094Z" fill="#262730"/>
<path d="M150.138 97.7913C154.818 97.7913 158.613 93.6735 158.613 88.5939C158.613 83.5143 154.818 79.3965 150.138 79.3965C145.457 79.3965 141.663 83.5143 141.663 88.5939C141.663 93.6735 145.457 97.7913 150.138 97.7913Z" fill="#262730"/>
<path d="M190.293 62.3041L195.537 75.347C196.557 77.8874 196.492 78.1479 194.636 78.9589L183.114 83.9913L178.861 73.4055L186.759 69.9548L186.029 62.9997C185.82 61.0125 185.807 61.0447 187.192 60.4405C189.048 59.6295 189.273 59.7665 190.293 62.3015V62.3041Z" fill="#F7E9C1"/>
<path d="M181.185 85.1649L154.405 96.8571L147.559 79.829L175.511 71.0479L181.185 85.1649Z" fill="#262730"/>
<path d="M185.087 81.3484C185.991 83.5988 185.934 83.8324 184.289 84.5521L182.673 85.2583C181.028 85.978 180.828 85.8572 179.921 83.6068L175.579 72.8009C174.675 70.5505 174.732 70.3169 176.377 69.5972L177.992 68.8909C179.637 68.1713 179.838 68.2921 180.744 70.5425L185.087 81.3484Z" fill="#1E2675"/>
<path d="M158.204 136.737H100.466V107.993L158.204 117.255V136.737Z" fill="#1E2675"/>
<path d="M128.794 136.778H76.752L72.0952 112.386C109.98 93.0461 128.44 104.134 128.797 113.184C129.127 121.605 128.797 136.778 128.797 136.778H128.794Z" fill="#F6CA73"/>
<path d="M56.3742 93.5165C51.1789 97.0182 49.826 104.035 53.3544 109.191C55.2296 111.93 59.9865 113.815 61.0851 114.272C62.1837 114.728 64.1265 116.176 65.8339 116.729C65.2873 115.717 64.9003 114.803 64.6406 113.984C63.1009 109.132 65.9692 107.54 65.9692 107.54L63.1064 103.353L72.4984 97.0263H72.5011C73.9298 96.0622 75.0068 94.784 75.6886 93.3661C76.9685 90.7183 76.8846 87.5845 75.1772 85.0897C72.558 81.2604 65.6959 78.8006 62.6653 82.6541C60.2517 85.7235 58.6633 89.0587 59.1477 92.1523C58.1871 92.4692 57.2536 92.9257 56.3742 93.5165Z" fill="#262730"/>
<path d="M65.8312 116.729C66.3507 116.898 66.881 117.035 67.4195 117.137C70.6449 117.749 74.1057 117.14 77.0389 115.163C82.9025 111.213 84.4286 103.291 80.4483 97.4722C79.2009 95.6488 77.5476 94.2685 75.6859 93.3662C75.0013 94.7841 73.9271 96.0623 72.4984 97.0237H72.4957L63.1036 103.353L65.9664 107.54C65.9664 107.54 63.0982 109.132 64.6379 113.985C64.8976 114.804 65.2846 115.717 65.8312 116.729Z" fill="#F7E9C1"/>
<path d="M66.5752 112.055C67.4208 111.02 67.0245 109.311 65.6901 108.236C64.3556 107.161 62.5883 107.129 61.7427 108.163C60.8971 109.197 61.2933 110.906 62.6278 111.981C63.9622 113.056 65.7295 113.089 66.5752 112.055Z" fill="#F7E9C1"/>
<path d="M77.4663 174.613H68.8076L67.6116 134.576H78.665L77.4663 174.613Z" fill="#F7E9C1"/>
<path d="M81.0057 133.606C81.0057 138.338 80.6323 138.708 75.8646 138.708H70.4474C65.6797 138.708 65.3063 138.338 65.3063 133.606V122.223C65.3063 117.921 68.8212 114.433 73.156 114.433C77.4908 114.433 81.0057 117.921 81.0057 122.223V133.606Z" fill="#F6CA73"/>
<path d="M73.137 167.939C75.5281 167.939 77.4664 166.015 77.4664 163.642C77.4664 161.269 75.5281 159.346 73.137 159.346C70.746 159.346 68.8076 161.269 68.8076 163.642C68.8076 166.015 70.746 167.939 73.137 167.939Z" fill="#F7E9C1"/>
<path d="M64.8922 177.222C64.8922 179.596 70.745 178.909 73.137 178.909C75.529 178.909 77.4664 176.986 77.4664 174.612C77.4664 172.238 75.529 170.315 73.137 170.315C70.745 170.315 64.8922 174.851 64.8922 177.222Z" fill="#F7E9C1"/>
<path d="M158.204 136.783C163.173 136.783 167.201 132.411 167.201 127.019C167.201 121.626 163.173 117.255 158.204 117.255C153.235 117.255 149.207 121.626 149.207 127.019C149.207 132.411 153.235 136.783 158.204 136.783Z" fill="#1E2675"/>
<path d="M200.14 155.72L191.01 166.923C189.232 169.104 188.967 169.155 187.36 167.613L177.389 158.04L184.797 148.947L191.635 155.51L197.488 151.654C199.16 150.553 199.125 150.553 200.324 151.705C201.931 153.247 201.917 153.539 200.142 155.72H200.14Z" fill="#F7E9C1"/>
<path d="M175.424 156.59L152.249 134.339L164.168 119.712L185.306 144.463L175.424 156.59Z" fill="#1E2675"/>
<path d="M180.685 158.886C179.11 160.819 178.874 160.865 177.448 159.495L176.049 158.153C174.626 156.786 174.637 156.528 176.212 154.592L183.775 145.309C185.349 143.375 185.585 143.329 187.011 144.699L188.41 146.042C189.833 147.409 189.822 147.666 188.247 149.603L180.685 158.886Z" fill="#470FF4"/>
</g>
<defs>
<clipPath id="clip0_386_76">
<rect width="194" height="119" fill="white" transform="translate(23 60)"/>
</clipPath>
</defs>
</svg>
