<svg width="240" height="240" viewBox="0 0 240 240" fill="none" xmlns="http://www.w3.org/2000/svg">
<g clip-path="url(#clip0_264_661)">
<rect width="240" height="240" rx="120" fill="#F6CA73"/>
<g clip-path="url(#clip1_264_661)">
<path d="M114.539 198.668C168.17 204.078 181.866 174.813 165.498 114.502C159.392 92.0148 154.413 60.7441 154.413 60.7441L141.572 99.0416C132.048 66.6127 127.768 46.675 125.973 15C116.954 38.9253 108.821 70.8256 111.082 89.4964C106.133 86.3328 100.074 69.6441 95.1413 50.1728C90.628 66.7915 90.7756 84.7471 88.3674 106.317C88.3674 106.317 79.9078 92.1625 79.1077 78.1167C69.9024 113.904 57.2635 192.893 114.546 198.676L114.539 198.668Z" fill="#FA6257"/>
<path d="M120.318 114.751L105.341 131.657L92.0651 143.021C88.8413 146.247 94.0149 156.663 103.632 166.286C113.249 175.909 123.651 181.086 126.882 177.86L139.397 164.032L155.135 149.59L120.326 114.759L120.318 114.751Z" fill="#F7E9C1"/>
<path d="M155.127 149.589C155.081 149.628 155.042 149.675 155.003 149.714C154.957 149.753 154.91 149.784 154.871 149.815C154.957 149.745 155.05 149.675 155.127 149.589Z" fill="#F7E9C1"/>
<path d="M155.133 149.587C158.358 146.361 153.179 135.947 143.565 126.327C133.951 116.707 123.544 111.525 120.319 114.752C117.094 117.978 122.273 128.392 131.887 138.012C141.501 147.632 151.908 152.814 155.133 149.587Z" fill="#F7E9C1"/>
<path d="M138.729 133.157C138.402 132.831 138.061 132.504 137.734 132.17C137.478 131.913 137.222 131.657 136.965 131.393C138.915 129.519 140.857 127.638 142.799 125.757C144.873 123.861 146.761 121.793 148.602 119.679C148.874 119.943 149.146 120.215 149.418 120.487C149.659 120.728 149.899 120.969 150.14 121.218C148.346 123.363 146.497 125.454 144.446 127.405C142.543 129.325 140.64 131.245 138.729 133.157Z" fill="#F79E4F"/>
<path d="M141.354 134.618C140.345 134.066 139.195 133.18 138.084 132.069C136.973 130.957 136.033 129.729 135.489 128.703" stroke="#262730" stroke-width="2" stroke-miterlimit="10" stroke-linecap="round"/>
<path d="M142.799 125.75C147.686 121.265 151.616 115.839 156.091 111.004C160.565 106.061 165.125 101.226 169.732 96.4223C170.027 96.1114 170.524 96.1036 170.827 96.399C171.138 96.6943 171.146 97.1763 170.858 97.4872C166.368 102.369 161.894 107.289 157.543 112.295C153.084 117.316 149.317 122.757 144.446 127.398C142.543 129.318 140.632 131.245 138.721 133.157L136.958 131.393C138.907 129.52 140.857 127.631 142.799 125.75Z" fill="#262730"/>
<path d="M138.729 133.157C138.402 132.831 138.061 132.505 137.734 132.17C137.478 131.914 137.222 131.657 136.965 131.393C138.915 129.52 140.857 127.639 142.799 125.758C144.873 123.861 146.761 121.793 148.602 119.679C151.103 116.788 153.504 113.803 156.091 111.012C160.565 106.069 165.125 101.234 169.732 96.4301C170.027 96.1192 170.524 96.1114 170.827 96.4068C171.138 96.7021 171.145 97.1841 170.858 97.495C166.368 102.376 161.894 107.297 157.543 112.303C154.964 115.217 152.603 118.264 150.14 121.218C148.346 123.364 146.497 125.454 144.446 127.405C142.543 129.325 140.64 131.245 138.729 133.157Z" fill="#262730"/>
<path d="M26.1829 249.962C33.2053 241.777 40.9891 233.864 47.3202 225.042C49.1146 222.687 50.4275 219.71 52.2375 217.494C53.9387 215.388 56.4012 213.048 58.3821 211.183C68.1157 202.236 78.7737 194.253 88.4762 185.252C90.0143 183.729 91.6378 182.228 92.8808 180.394C95.6462 176.134 99.3051 172.59 102.77 168.929C103.345 168.33 103.927 167.732 104.518 167.149C104.222 166.861 103.935 166.574 103.64 166.278C103.119 165.757 102.607 165.237 102.109 164.716C101.503 165.291 100.89 165.874 100.299 166.465C96.8659 169.947 93.2226 173.219 90.3716 177.269C87.6139 181.094 83.7686 183.915 80.1953 186.962C70.4306 195.054 61.2408 201.194 52.1054 209.986C51.9578 208.159 52.9366 205.92 52.455 204.094C51.2276 198.87 50.6294 194.129 53.123 190.04C53.5115 189.411 54.4126 187.094 53.6668 187.957C52.9211 188.82 50.979 191.284 50.7615 192.559C50.2177 196.29 49.4021 199.935 49.8915 203.798C50.2721 206.364 47.6775 210.444 47.2813 212.667C46.9551 214.541 46.3181 216.243 45.4869 217.829C44.7178 219.041 43.9488 220.238 43.0399 221.42C38.713 227.149 33.788 232.318 28.8629 237.549C22.4774 244.513 15.6026 251.641 8.7277 258.085C1.78292 264.715 -5.24732 271.291 -12.3009 277.821C-13.4428 278.886 -13.1398 281.031 -11.6173 282.578C-10.1102 284.101 -7.98173 284.459 -6.87087 283.378C4.29205 272.372 15.5715 261.513 26.1906 249.97L26.1829 249.962Z" fill="#262730"/>
<path d="M154.933 149.768L139.389 164.031L127.185 177.518C125.95 176.041 121.786 172.659 129.485 169.06C133.167 167.335 127.76 162.57 129.935 157.961C131.388 154.883 136.088 161.692 136.95 157.696C137.727 154.121 128.708 146.791 130.929 144.925C132.436 143.658 139.203 145.221 141.339 145.928H141.347C147.181 149.869 152.284 151.54 154.677 149.947C154.739 149.908 154.801 149.861 154.871 149.815C154.887 149.799 154.91 149.783 154.933 149.768Z" fill="#262730"/>
<path d="M123.767 162.811C125.849 158.147 129.329 165.369 127.224 166.27C125.119 167.172 121.685 167.475 123.767 162.811Z" fill="#262730"/>
<path d="M121.724 167.848C124.024 166.651 122.92 169.652 122.322 170.149C121.724 170.646 119.425 169.045 121.724 167.848Z" fill="#262730"/>
</g>
</g>
<defs>
<clipPath id="clip0_264_661">
<rect width="240" height="240" rx="120" fill="white"/>
</clipPath>
<clipPath id="clip1_264_661">
<rect width="185" height="269" fill="white" transform="translate(-13 15)"/>
</clipPath>
</defs>
</svg>
