<svg width="240" height="240" viewBox="0 0 240 240" fill="none" xmlns="http://www.w3.org/2000/svg">
<rect width="240" height="240" rx="120" fill="#F6CA73"/>
<g clip-path="url(#clip0_351_135)">
<path d="M185.235 131.722C185.235 136.424 184.721 141.238 183.741 146.036C177.581 176.364 153.031 206.365 123.69 206.365C89.6912 206.365 67.6713 162.912 67.6713 128.528C67.6713 94.1444 72.3125 69.1008 123.69 67.0571C131.011 66.7697 138.048 68.4622 144.563 71.0168C163.096 78.2736 177.502 94.783 182.918 114.534C183.045 115.005 183.163 115.476 183.29 115.955C183.29 115.987 183.29 116.019 183.306 116.05C183.369 116.298 183.432 116.537 183.488 116.785C184.626 121.615 185.235 126.62 185.235 131.722Z" fill="#F79E4F"/>
<path d="M111.45 155.073C109.513 155.073 107.892 154.53 106.604 153.436C104.255 151.449 103.243 147.912 103.417 142.324C103.559 137.885 104.429 132.552 105.275 127.403C105.726 124.633 107.023 115.42 107.37 112.754C107.521 111.588 108.58 110.766 109.727 110.917C110.881 111.069 111.687 112.139 111.537 113.304C111.181 116.043 109.885 125.287 109.426 128.097C108.604 133.119 107.758 138.308 107.623 142.459C107.497 146.523 108.058 149.117 109.308 150.171C110.675 151.329 113.34 150.714 115.332 150.004C116.424 149.612 117.633 150.195 118.021 151.297C118.408 152.407 117.839 153.62 116.74 154.011C114.779 154.714 113.016 155.065 111.45 155.065V155.073Z" fill="#262730"/>
<path d="M115.815 174.783C110.169 174.783 104.856 173.889 100.594 172.197C99.5113 171.766 98.9815 170.528 99.4085 169.434C99.8354 168.341 101.053 167.806 102.136 168.237C111.909 172.125 126.884 170.656 132.767 166.856C133.549 166.353 134.862 165.339 134.925 164.229C134.996 163.056 135.992 162.162 137.147 162.234C138.309 162.305 139.195 163.311 139.123 164.485C139.029 166.058 138.246 168.373 135.028 170.448C131.462 172.748 125.658 174.296 119.096 174.695C117.989 174.759 116.89 174.791 115.807 174.791L115.815 174.783Z" fill="#262730"/>
<path d="M67.6713 148.375C68.2247 162.992 91.9209 210.237 123.879 208.976C155.838 207.714 172.648 177.609 172.648 177.609L161.729 139.058C161.729 139.058 129.485 134.556 112.818 134.556C96.1509 134.556 67.6792 148.367 67.6792 148.367L67.6713 148.375Z" fill="#F7E9C1"/>
<path d="M187.694 115.197C187.607 115.405 187.473 115.596 187.307 115.764L187.283 115.788C185.947 115.812 184.666 116.163 183.488 116.786C183.235 116.913 182.982 117.065 182.736 117.225C181.527 118.007 180.451 119.085 179.582 120.386C178.601 121.855 177.882 123.603 177.526 125.519L177.123 125.919L159.017 143.993C158.637 144.376 158.131 144.567 157.633 144.567C157.135 144.567 156.613 144.368 156.226 143.977C155.459 143.194 155.467 141.925 156.241 141.151L177.099 120.338L182.918 114.534L184.065 113.385C183.843 114.319 183.583 115.181 183.29 115.955C183.29 115.987 183.29 116.019 183.306 116.051C184.247 115.58 185.267 115.293 186.334 115.205C186.54 115.173 186.745 115.173 186.959 115.165C187.204 115.165 187.449 115.173 187.694 115.197Z" fill="#F7E9C1"/>
<path d="M170.355 179.606C170.094 179.606 169.825 179.55 169.564 179.438C168.56 178.999 168.101 177.825 168.544 176.811L184.112 140.711C184.547 139.697 185.709 139.234 186.714 139.681C187.718 140.12 188.176 141.294 187.733 142.308L172.165 178.408C171.841 179.158 171.114 179.606 170.355 179.606Z" fill="#F7E9C1"/>
<path d="M75.7914 116.794C77.3964 131.475 92.0395 129.846 90.4424 115.165" stroke="#262730" stroke-width="4" stroke-miterlimit="10" stroke-linecap="round"/>
<path d="M131.193 113.743C128.505 128.265 144.381 131.258 147.07 116.737" stroke="#262730" stroke-width="4" stroke-miterlimit="10" stroke-linecap="round"/>
<path d="M180.811 75.7756C180.332 82.3854 167.501 89.1952 149.897 93.3062C136.832 96.3461 121.158 97.3782 105.902 96.7483C68.6535 95.2226 48.156 85.9521 50.0619 65.7531C51.6543 48.8898 74.1573 39.5073 109.884 42.1946C119.939 42.9466 130.013 45.0161 139.278 47.876C159.619 54.1247 176.085 64.1031 179.962 72.0377C180.117 72.3752 180.257 72.7133 180.397 73.0674C180.742 74.0127 180.881 74.9181 180.819 75.7753L180.811 75.7756Z" fill="#262730"/>
<path d="M184.065 113.385C183.843 114.319 183.582 115.181 183.29 115.955C183.274 115.995 183.258 116.035 183.242 116.083C183.084 116.49 182.918 116.865 182.736 117.225C181.977 118.773 181.044 119.827 179.961 120.266C179.835 120.314 179.708 120.362 179.582 120.386C179.321 120.466 179.052 120.506 178.767 120.522C178.253 120.546 177.692 120.482 177.099 120.338C170.457 118.717 159.301 106.711 152.027 92.1331C150.991 90.0575 150.035 87.9259 149.181 85.7704C147.165 80.6771 145.607 75.6876 144.563 71.0174C142.737 62.9303 142.46 55.8092 144.041 50.8037C162.156 57.1504 176.656 66.7224 179.866 74.0111C179.993 74.3224 180.111 74.6338 180.222 74.9531C185.338 88.7881 186.223 104.499 184.065 113.385Z" fill="#262730"/>
<path d="M197 127.387C197.04 134.165 192.651 147.665 187.133 147.697C185.947 147.705 184.8 147.082 183.741 146.036C179.874 142.228 177.075 132.816 177.044 127.499C177.044 126.956 177.067 126.437 177.123 125.919C177.131 125.775 177.146 125.639 177.162 125.495C177.392 123.675 177.953 121.983 178.767 120.522C179.858 118.55 181.416 116.985 183.243 116.083C183.258 116.067 183.282 116.059 183.306 116.051C184.247 115.58 185.267 115.293 186.334 115.205C186.54 115.173 186.745 115.173 186.959 115.165C187.204 115.165 187.449 115.173 187.694 115.197C192.857 115.628 196.968 120.913 197 127.387Z" fill="#F79E4F"/>
</g>
<defs>
<clipPath id="clip0_351_135">
<rect width="147" height="168" fill="white" transform="translate(50 41)"/>
</clipPath>
</defs>
</svg>
