<svg width="240" height="240" viewBox="0 0 240 240" fill="none" xmlns="http://www.w3.org/2000/svg">
<rect width="240" height="240" rx="120" fill="#F6CA73"/>
<g clip-path="url(#clip0_256_554)">
<path d="M207 151.483C207 161.682 206.196 162.482 195.933 162.482H82.0629C71.8003 162.482 70.9961 161.682 70.9961 151.483V80.9984C70.9961 70.7992 71.8003 70 82.0629 70H195.933C206.196 70 207 70.7992 207 80.9984V151.483Z" fill="#F79E4F"/>
<path d="M165.684 151.483C165.684 161.682 164.88 162.482 154.617 162.482H44.0668C33.8042 162.482 33 161.682 33 151.483V80.9984C33 70.7992 33.8042 70 44.0668 70H154.617C164.88 70 165.684 70.7992 165.684 80.9984V151.483Z" fill="#F7EEC1"/>
<path d="M137.733 149.21C137.733 154.31 137.338 154.709 132.292 154.709H47.0512C42.0084 154.709 41.61 154.31 41.61 149.21V83.2677C41.61 78.1682 42.0047 77.7686 47.0512 77.7686H132.295C137.338 77.7686 137.736 78.1682 137.736 83.2677V149.21H137.733Z" fill="#1E2675"/>
<path d="M41.61 131.862V149.21C41.61 154.31 42.0047 154.71 47.0475 154.71H132.292C137.334 154.71 137.729 154.31 137.729 149.21V131.862H41.61Z" fill="#470FF4"/>
<path d="M159.892 104.869C159.892 109.066 156.469 112.469 152.245 112.469H149.866C145.642 112.469 142.219 109.066 142.219 104.869C142.219 100.671 145.642 97.2651 149.866 97.2651H152.245C156.469 97.2651 159.892 100.671 159.892 104.869Z" fill="#F79E4F"/>
<path d="M149.866 112.468C154.089 112.468 157.513 109.066 157.513 104.868C157.513 100.671 154.089 97.2686 149.866 97.2686C145.642 97.2686 142.219 100.671 142.219 104.868C142.219 109.066 145.642 112.468 149.866 112.468Z" fill="#1E2675"/>
<path d="M159.892 86.0537C159.892 90.2514 156.469 93.6536 152.245 93.6536H149.866C145.642 93.6536 142.219 90.2514 142.219 86.0537C142.219 81.856 145.642 78.4502 149.866 78.4502H152.245C156.469 78.4502 159.892 81.856 159.892 86.0537Z" fill="#F79E4F"/>
<path d="M149.866 93.6534C154.089 93.6534 157.513 90.2508 157.513 86.0535C157.513 81.8562 154.089 78.4536 149.866 78.4536C145.642 78.4536 142.219 81.8562 142.219 86.0535C142.219 90.2508 145.642 93.6534 149.866 93.6534Z" fill="#1E2675"/>
<path d="M156.941 119.328H145.17C143.54 119.328 142.219 120.641 142.219 122.261V151.776C142.219 153.396 143.54 154.709 145.17 154.709H156.941C158.571 154.709 159.892 153.396 159.892 151.776V122.261C159.892 120.641 158.571 119.328 156.941 119.328Z" fill="#1E2675"/>
<path d="M114.05 117.715C114.05 131.906 102.474 143.411 88.1939 143.411C73.914 143.411 62.3381 131.906 62.3381 117.715H114.05Z" fill="#F7EEC1"/>
<path d="M115.315 114.767H61.0802C60.2653 114.767 59.6046 115.424 59.6046 116.234V116.248C59.6046 117.058 60.2653 117.715 61.0802 117.715H115.315C116.13 117.715 116.791 117.058 116.791 116.248V116.234C116.791 115.424 116.13 114.767 115.315 114.767Z" fill="#F79E4F"/>
<path d="M50.2089 167.699C50.0687 168.945 50.006 169.004 48.7407 169.004H44.0336C42.772 169.004 42.7056 168.945 42.5654 167.699L41.9752 162.434H50.7954L50.2052 167.699H50.2089Z" fill="#262730"/>
<path d="M134.929 167.699C134.789 168.945 134.726 169.004 133.461 169.004H128.754C127.492 169.004 127.426 168.945 127.286 167.699L126.695 162.434H135.516L134.925 167.699H134.929Z" fill="#262730"/>
<path d="M193.476 167.699C193.336 168.945 193.273 169.004 192.008 169.004H187.301C186.039 169.004 185.973 168.945 185.833 167.699L185.243 162.434H194.063L193.473 167.699H193.476Z" fill="#262730"/>
</g>
<defs>
<clipPath id="clip0_256_554">
<rect width="174" height="99" fill="white" transform="translate(33 70)"/>
</clipPath>
</defs>
</svg>
