<svg width="240" height="240" viewBox="0 0 240 240" fill="none" xmlns="http://www.w3.org/2000/svg">
<rect width="240" height="240" rx="120" fill="#F6CA73"/>
<g clip-path="url(#clip0_256_554)">
<path d="M207 152.306C207 162.608 206.196 163.416 195.933 163.416H82.0629C71.8003 163.416 70.9961 162.608 70.9961 152.306V81.1095C70.9961 70.8073 71.8003 70 82.0629 70H195.933C206.196 70 207 70.8073 207 81.1095V152.306Z" fill="#F79E4F"/>
<path d="M165.684 152.306C165.684 162.608 164.88 163.416 154.617 163.416H44.0668C33.8042 163.416 33 162.608 33 152.306V81.1095C33 70.8073 33.8042 70 44.0668 70H154.617C164.88 70 165.684 70.8073 165.684 81.1095V152.306Z" fill="#F7E9C1"/>
<path d="M137.733 150.011C137.733 155.162 137.338 155.565 132.292 155.565H47.0512C42.0084 155.565 41.61 155.162 41.61 150.011V83.4019C41.61 78.2508 42.0047 77.8472 47.0512 77.8472H132.295C137.338 77.8472 137.736 78.2508 137.736 83.4019V150.011H137.733Z" fill="#1E2675"/>
<path d="M159.892 105.221C159.892 109.461 156.469 112.898 152.245 112.898H149.866C145.642 112.898 142.219 109.461 142.219 105.221C142.219 100.981 145.642 97.5405 149.866 97.5405H152.245C156.469 97.5405 159.892 100.981 159.892 105.221Z" fill="#F79E4F"/>
<path d="M149.866 112.897C154.089 112.897 157.513 109.46 157.513 105.221C157.513 100.981 154.089 97.5439 149.866 97.5439C145.642 97.5439 142.219 100.981 142.219 105.221C142.219 109.46 145.642 112.897 149.866 112.897Z" fill="#1E2675"/>
<path d="M159.892 86.216C159.892 90.4561 156.469 93.8926 152.245 93.8926H149.866C145.642 93.8926 142.219 90.4561 142.219 86.216C142.219 81.9759 145.642 78.5356 149.866 78.5356H152.245C156.469 78.5356 159.892 81.9759 159.892 86.216Z" fill="#F79E4F"/>
<path d="M149.866 93.8923C154.089 93.8923 157.513 90.4554 157.513 86.2157C157.513 81.976 154.089 78.5391 149.866 78.5391C145.642 78.5391 142.219 81.976 142.219 86.2157C142.219 90.4554 145.642 93.8923 149.866 93.8923Z" fill="#1E2675"/>
<path d="M156.941 119.826H145.17C143.54 119.826 142.219 121.153 142.219 122.789V152.603C142.219 154.239 143.54 155.565 145.17 155.565H156.941C158.571 155.565 159.892 154.239 159.892 152.603V122.789C159.892 121.153 158.571 119.826 156.941 119.826Z" fill="#1E2675"/>
<path d="M111 120C111 132.15 100.703 142 88 142C75.2973 142 65 132.15 65 120H111Z" fill="#F7E9C1"/>
<path d="M111.71 117H64.2902C63.5776 117 63 117.668 63 118.493V118.507C63 119.332 63.5776 120 64.2902 120H111.71C112.422 120 113 119.332 113 118.507V118.493C113 117.668 112.422 117 111.71 117Z" fill="#F79E4F"/>
<path d="M50.1978 168.667C50.0724 169.937 50.0023 170 48.7296 170H44.0521C42.7794 170 42.7093 169.937 42.5839 168.667L41.9789 163.368H50.7991L50.1942 168.667H50.1978Z" fill="#262730"/>
<path d="M134.918 168.667C134.793 169.937 134.723 170 133.45 170H128.772C127.5 170 127.43 169.937 127.304 168.667L126.699 163.368H135.519L134.914 168.667H134.918Z" fill="#262730"/>
<path d="M193.462 168.667C193.336 169.937 193.266 170 191.993 170H187.316C186.043 170 185.973 169.937 185.848 168.667L185.243 163.368H194.063L193.458 168.667H193.462Z" fill="#262730"/>
</g>
<defs>
<clipPath id="clip0_256_554">
<rect width="174" height="100" fill="white" transform="translate(33 70)"/>
</clipPath>
</defs>
</svg>
