<svg width="240" height="240" viewBox="0 0 240 240" fill="none" xmlns="http://www.w3.org/2000/svg">
<g clip-path="url(#clip0_386_77)">
<rect width="240" height="240" rx="120" fill="#F6CA73"/>
<g clip-path="url(#clip1_386_77)">
<path d="M140.861 125.858H97.9497C66.6102 125.858 41.2045 151.41 41.2045 182.931C41.2045 214.451 66.6102 240.003 97.9497 240.003H140.861C172.2 240.003 197.606 214.451 197.606 182.931C197.606 151.41 172.2 125.858 140.861 125.858Z" fill="#1E2675"/>
<path d="M171.142 104.221C199.022 116.591 211.48 145.995 203.74 175.155C203.189 177.21 202.401 179.769 201.686 181.79C200.3 185.631 198.662 189.311 196.849 192.855C194.157 198.118 187.735 200.188 182.503 197.483C177.453 194.872 175.359 188.764 177.638 183.609C178.932 180.719 180.064 177.778 180.954 174.838C181.398 173.353 181.849 171.491 182.176 170.001C182.279 169.402 182.449 168.455 182.557 167.855C184.447 156.539 181.858 144.761 174.058 136.538C170.541 132.815 166.157 129.933 161.36 128.131C154.707 125.632 151.328 118.182 153.814 111.491C156.377 104.508 164.409 101.147 171.144 104.224L171.142 104.221Z" fill="#FA6257"/>
<path d="M187.389 108.162C193.012 112.172 193.14 113.077 188.859 118.508L174.595 136.615C170.314 142.047 169.41 142.129 164.246 137.539L150.514 125.338C143.483 118.118 142.025 106.762 147.273 100.099C152.522 93.4378 163.848 92.2697 172.443 97.5038L187.389 108.16V108.162Z" fill="#F79E4F"/>
<path d="M68.8562 104.222C40.9755 116.591 28.5202 145.996 36.2597 175.153C36.8112 177.208 37.5987 179.767 38.3138 181.788C39.6995 185.629 41.3377 189.309 43.151 192.853C45.8431 198.116 52.2647 200.186 57.4968 197.481C62.5467 194.87 64.6405 188.762 62.3621 183.607C61.0675 180.717 59.9365 177.776 59.0462 174.836C58.6022 173.351 58.1512 171.489 57.824 169.999C57.7212 169.4 57.5506 168.453 57.4431 167.853C55.5526 156.537 58.1418 144.759 65.9421 136.536C69.4591 132.813 73.843 129.932 78.6405 128.129C85.2934 125.63 88.6725 118.18 86.1861 111.489C83.6226 104.506 75.5909 101.145 68.8562 104.222Z" fill="#FA6257"/>
<path d="M52.6105 108.162C46.9881 112.172 46.8596 113.077 51.1406 118.508L65.4047 136.615C69.6857 142.047 70.5901 142.129 75.7545 137.539L89.4857 125.338C96.5172 118.118 97.9754 106.762 92.7269 100.099C87.4783 93.4378 76.1517 92.2697 67.5569 97.5038L52.6105 108.16V108.162Z" fill="#F79E4F"/>
<path d="M180.262 156.84C180.262 164.121 178.998 171.106 176.677 177.584H62.1308C59.8103 171.106 58.5461 164.121 58.5461 156.84C58.5461 139.939 65.3579 124.639 76.3714 113.562C87.3849 102.485 102.598 95.6338 119.404 95.6338C136.211 95.6338 151.423 102.485 162.437 113.562C173.45 124.639 180.262 139.939 180.262 156.84Z" fill="#1E2675"/>
<path d="M118.93 126.123C132.133 126.123 144.083 119.15 152.737 107.878C153.185 107.295 153.62 106.698 154.05 106.092C144.172 99.3208 132.25 95.3652 119.409 95.3652C106.568 95.3652 94.129 99.4994 84.1273 106.541C84.4545 106.992 84.784 107.441 85.1205 107.881C93.7738 119.153 105.724 126.126 118.927 126.126L118.93 126.123Z" fill="#F79E4F"/>
<path d="M147.43 88.9822C147.264 86.2183 146.796 83.3627 146.208 80.5212C142.854 64.3606 132.116 52.7666 118.612 52.7666C105.107 52.7666 94.15 65.4159 91.0163 80.5212C90.3713 83.633 89.8712 86.7612 89.7544 89.7672C87.9854 91.9953 86.9245 94.818 86.9245 97.8922C86.9245 105.091 92.7268 110.927 99.8846 110.927C100.272 110.927 100.656 110.906 101.034 110.873C105.096 116.676 111.807 120.469 119.399 120.469C126.992 120.469 133.668 116.699 137.732 110.922C137.811 110.922 137.888 110.929 137.968 110.929C145.126 110.929 150.928 105.093 150.928 97.8945C150.928 94.4467 149.596 91.3161 147.423 88.9846L147.43 88.9822Z" fill="#FA6257"/>
<path d="M142.261 42.437C137.963 38.1148 132.462 35.0054 126.305 33.6586C126.438 30.7067 125.964 28.1378 124.882 25.7523C123.809 23.3902 121.038 22.349 118.689 23.4255C116.34 24.5019 115.305 27.2894 116.376 29.6514C116.387 29.6749 116.397 29.6984 116.406 29.7219C115.527 28.9863 114.588 28.3658 113.581 27.8417C111.288 26.6501 108.47 27.5526 107.283 29.8582C106.39 31.5974 106.68 33.6375 107.86 35.0477C95.711 39.7247 87.0811 51.5608 87.0811 65.4252L89.0884 81.8467H90.7522C90.8363 81.4048 90.9251 80.9629 91.0163 80.5211C91.7828 76.8217 93.0213 73.2681 94.65 70.0129C95.3791 70.4595 96.2227 70.6992 97.0827 70.6992C97.7463 70.6992 98.4217 70.5582 99.062 70.255C101.754 68.9882 103.892 67.4746 105.589 65.8717C105.794 66.2384 106.054 66.5815 106.365 66.8918C107.276 67.799 108.465 68.2526 109.652 68.2526C110.84 68.2526 112.059 67.7896 112.973 66.8612C116.464 63.3146 118.42 59.5236 119.488 56.118C119.932 58.1463 120.159 60.6964 120.058 63.9774C119.979 66.5721 122.007 68.7391 124.587 68.819C124.636 68.819 124.685 68.819 124.732 68.819C127.246 68.819 129.324 66.8071 129.401 64.2618C129.483 61.5919 129.385 59.1522 129.095 56.9148C130.572 59.5118 131.771 62.3627 131.859 64.9974C131.944 67.5381 134.019 69.5382 136.526 69.5382C136.58 69.5382 136.634 69.5382 136.687 69.5358C138.585 69.47 140.181 68.2761 140.856 66.6168C143.298 70.6264 145.133 75.3387 146.208 80.5187C146.299 80.9606 146.387 81.4025 146.472 81.8443H149.72L151.727 65.4228C151.727 56.4447 148.11 48.3174 142.261 42.4346V42.437Z" fill="#262730"/>
<path d="M147.495 86.1833C149.876 86.1833 151.807 84.2419 151.807 81.847C151.807 79.4522 149.876 77.5107 147.495 77.5107C145.114 77.5107 143.184 79.4522 143.184 81.847C143.184 84.2419 145.114 86.1833 147.495 86.1833Z" fill="#FA6257"/>
<path d="M91.3668 86.1833C93.748 86.1833 95.6783 84.2419 95.6783 81.847C95.6783 79.4522 93.748 77.5107 91.3668 77.5107C88.9857 77.5107 87.0554 79.4522 87.0554 81.847C87.0554 84.2419 88.9857 86.1833 91.3668 86.1833Z" fill="#FA6257"/>
<path d="M193.26 183.483C191.488 183.074 191.002 180.663 188.958 181.932C188.859 181.614 188.754 181.295 188.642 180.975C188.079 179.361 186.35 178.498 184.742 178.996C183.211 176.813 179.835 177.398 179.126 179.983C177.498 178.888 175.21 178.037 172.008 177.917C170.261 177.856 168.802 179.22 168.739 180.97C168.676 182.721 170.034 184.195 171.775 184.259C176.6 184.439 177.042 186.938 177.063 187.699C177.063 187.652 177.063 187.626 177.063 187.626L177.054 187.892C174.016 189.441 168.379 188.891 165.012 188.158C163.308 187.786 161.631 188.874 161.261 190.588C160.892 192.301 161.974 193.989 163.678 194.36C166.648 195.006 169.721 195.359 172.78 195.204C170.742 195.881 168.302 196.247 165.496 196.285C163.755 196.299 162.36 197.747 162.383 199.498C162.406 201.251 163.837 202.652 165.578 202.628C167.153 202.607 168.707 202.499 170.282 202.269C168.538 202.68 167.519 204.41 167.917 206.093C168.267 207.58 169.604 208.572 171.064 208.535C172.011 208.511 176.411 207.308 179.844 205.468C178.968 208.17 182.045 210.417 184.326 208.763C192.855 202.577 203.296 185.8 193.262 183.481L193.26 183.483Z" fill="#FA6257"/>
<path d="M46.7404 183.483C48.5117 183.074 48.9978 180.663 51.0425 181.932C51.1406 181.614 51.2458 181.295 51.358 180.975C51.9211 179.361 53.6504 178.498 55.2581 178.996C56.7887 176.813 60.1655 177.398 60.8735 179.983C62.5023 178.888 64.79 178.037 67.9915 177.917C69.7395 177.856 71.1976 179.22 71.2607 180.97C71.3262 182.721 69.9661 184.195 68.2252 184.259C63.3996 184.439 62.958 186.938 62.9369 187.699C62.9369 187.652 62.9369 187.626 62.9369 187.626L62.9463 187.892C65.9842 189.441 71.6206 188.891 74.988 188.158C76.6915 187.786 78.3694 188.874 78.7386 190.588C79.1078 192.301 78.0259 193.989 76.3223 194.36C73.3522 195.006 70.2793 195.359 67.2204 195.204C69.2581 195.881 71.6977 196.247 74.5043 196.285C76.2452 196.299 77.6403 197.747 77.6169 199.498C77.5935 201.251 76.1634 202.652 74.4225 202.628C72.8474 202.607 71.2934 202.499 69.7184 202.269C71.4617 202.68 72.4806 204.41 72.0833 206.093C71.7328 207.58 70.3961 208.572 68.9356 208.535C67.9892 208.511 63.5889 207.308 60.1561 205.468C61.0324 208.17 57.9548 210.417 55.6741 208.763C47.1446 202.577 36.7037 185.8 46.738 183.481L46.7404 183.483Z" fill="#FA6257"/>
</g>
<g clip-path="url(#clip2_386_77)">
<path d="M176.521 238.701C176.521 244.757 172.005 249.84 165.962 250.615C154.763 252.048 136.375 254.003 119.381 254.003C102.424 254.003 84.0801 252.05 72.8993 250.617C66.87 249.845 62.3424 244.745 62.3424 238.705V220.601H176.521V238.703V238.701Z" fill="#F79E4F"/>
<path d="M193.997 190.505V190.543C193.997 219.889 173.184 244.149 146.555 245.812C136.782 246.421 127.244 246.857 119.893 246.857C112.313 246.857 102.433 246.407 92.3466 245.779C65.7047 244.12 44.8694 219.869 44.8694 190.508C44.8694 159.935 67.3959 135.15 95.183 135.15H143.685C171.472 135.15 193.999 159.935 193.999 190.508L193.997 190.505Z" fill="#1E2675"/>
<path d="M168.763 114.515C195.347 126.168 207.225 153.869 199.845 181.34C199.32 183.275 198.569 185.686 197.887 187.59C196.566 191.208 195.004 194.675 193.275 198.014C190.708 202.971 184.585 204.922 179.596 202.374C174.781 199.914 172.785 194.159 174.957 189.304C176.191 186.58 177.27 183.811 178.119 181.041C178.542 179.641 178.972 177.888 179.284 176.484C179.382 175.919 179.545 175.027 179.647 174.463C181.45 163.802 178.981 152.707 171.544 144.959C168.19 141.452 164.01 138.738 159.436 137.04C153.092 134.686 149.87 127.667 152.241 121.364C154.685 114.786 162.344 111.619 168.765 114.518L168.763 114.515Z" fill="#FA6257"/>
<path d="M184.255 118.228C189.616 122.005 189.739 122.858 185.657 127.975L172.056 145.032C167.974 150.149 167.112 150.227 162.188 145.902L149.095 134.409C142.391 127.607 141 116.909 146.005 110.632C151.009 104.357 161.809 103.256 170.004 108.187L184.255 118.226V118.228Z" fill="#F79E4F"/>
<path d="M71.2349 114.516C44.651 126.169 32.775 153.869 40.1546 181.338C40.6804 183.273 41.4313 185.684 42.1131 187.588C43.4344 191.206 44.9963 194.673 46.7254 198.012C49.2922 202.97 55.4151 204.92 60.4039 202.372C65.2189 199.912 67.2153 194.157 65.0429 189.302C63.8085 186.578 62.7301 183.809 61.8812 181.039C61.4578 179.639 61.0278 177.886 60.7159 176.482C60.6178 175.917 60.4552 175.025 60.3527 174.461C58.5501 163.8 61.0189 152.705 68.4564 144.958C71.8098 141.45 75.9898 138.736 80.5641 137.038C86.9076 134.684 90.1295 127.665 87.7588 121.362C85.3145 114.784 77.6564 111.617 71.2349 114.516Z" fill="#FA6257"/>
<path d="M55.7449 118.228C50.384 122.005 50.2615 122.858 54.3434 127.975L67.944 145.032C72.0259 150.149 72.8882 150.227 77.8124 145.902L90.905 134.409C97.6094 127.607 98.9998 116.909 93.9954 110.632C88.991 104.357 78.1912 103.256 69.9961 108.187L55.7449 118.226V118.228Z" fill="#F79E4F"/>
<path d="M177.459 164.085C177.459 170.944 176.254 177.524 174.041 183.626H64.8223C62.6098 177.524 61.4044 170.944 61.4044 164.085C61.4044 148.163 67.8994 133.749 78.4006 123.314C88.9018 112.879 103.407 106.425 119.432 106.425C135.457 106.425 149.962 112.879 160.463 123.314C170.964 133.749 177.459 148.163 177.459 164.085Z" fill="#1E2675"/>
<path d="M118.98 135.149C131.569 135.149 142.963 128.58 151.214 117.961C151.642 117.412 152.056 116.849 152.466 116.278C143.048 109.899 131.68 106.173 119.436 106.173C107.193 106.173 95.3323 110.067 85.7958 116.701C86.1078 117.126 86.4219 117.549 86.7428 117.963C94.9936 128.582 106.388 135.151 118.977 135.151L118.98 135.149Z" fill="#F79E4F"/>
<path d="M146.154 100.159C145.996 97.5555 145.55 94.8653 144.989 92.1885C141.791 76.9642 131.553 66.042 118.676 66.042C105.8 66.042 95.3523 77.9583 92.3644 92.1885C91.7494 95.1199 91.2726 98.0669 91.1612 100.899C89.4745 102.998 88.4629 105.657 88.4629 108.553C88.4629 115.335 93.9954 120.832 100.82 120.832C101.19 120.832 101.555 120.813 101.916 120.782C105.789 126.248 112.188 129.822 119.427 129.822C126.667 129.822 133.032 126.27 136.907 120.828C136.983 120.828 137.056 120.835 137.132 120.835C143.957 120.835 149.489 115.337 149.489 108.555C149.489 105.307 148.219 102.358 146.147 100.161L146.154 100.159Z" fill="#FA6257"/>
<path d="M141.225 56.3108C137.128 52.2391 131.883 49.3098 126.012 48.0411C126.139 45.2602 125.686 42.8402 124.655 40.5929C123.632 38.3677 120.989 37.3868 118.75 38.4009C116.511 39.4149 115.524 42.0409 116.544 44.2661C116.555 44.2882 116.564 44.3104 116.573 44.3325C115.735 43.6395 114.84 43.0549 113.879 42.5612C111.693 41.4386 109.006 42.2889 107.874 44.4609C107.023 46.0994 107.3 48.0212 108.425 49.3497C96.8407 53.7558 88.6122 64.906 88.6122 77.9671L90.5262 93.4371H92.1126C92.1928 93.0208 92.2775 92.6046 92.3644 92.1883C93.0952 88.7033 94.2761 85.3556 95.8291 82.289C96.5243 82.7097 97.3287 82.9356 98.1486 82.9356C98.7814 82.9356 99.4253 82.8027 100.036 82.5171C102.603 81.3237 104.641 79.8978 106.259 78.3878C106.455 78.7332 106.702 79.0564 106.999 79.3487C107.868 80.2033 109.002 80.6307 110.134 80.6307C111.266 80.6307 112.429 80.1945 113.3 79.3199C116.629 75.9788 118.494 72.4074 119.512 69.1992C119.935 71.11 120.152 73.5123 120.056 76.6032C119.98 79.0476 121.914 81.089 124.374 81.1643C124.421 81.1643 124.467 81.1643 124.512 81.1643C126.909 81.1643 128.89 79.269 128.964 76.8711C129.042 74.3559 128.948 72.0576 128.672 69.9498C130.08 72.3964 131.223 75.0821 131.308 77.5641C131.388 79.9576 133.367 81.8418 135.757 81.8418C135.809 81.8418 135.86 81.8418 135.911 81.8396C137.72 81.7776 139.242 80.6528 139.886 79.0896C142.215 82.8669 143.964 87.3062 144.989 92.1861C145.075 92.6024 145.16 93.0186 145.24 93.4349H148.337L150.251 77.9649C150.251 69.507 146.802 61.8506 141.225 56.3086V56.3108Z" fill="#262730"/>
<path d="M146.216 97.5216C148.487 97.5216 150.327 95.6927 150.327 93.4366C150.327 91.1805 148.487 89.3516 146.216 89.3516C143.946 89.3516 142.105 91.1805 142.105 93.4366C142.105 95.6927 143.946 97.5216 146.216 97.5216Z" fill="#FA6257"/>
<path d="M92.6986 97.5216C94.969 97.5216 96.8095 95.6927 96.8095 93.4366C96.8095 91.1805 94.969 89.3516 92.6986 89.3516C90.4282 89.3516 88.5877 91.1805 88.5877 93.4366C88.5877 95.6927 90.4282 97.5216 92.6986 97.5216Z" fill="#FA6257"/>
<path d="M189.852 189.184C188.163 188.799 187.7 186.527 185.75 187.723C185.657 187.424 185.556 187.123 185.449 186.822C184.912 185.301 183.264 184.488 181.731 184.957C180.271 182.901 177.052 183.452 176.376 185.887C174.823 184.856 172.642 184.054 169.589 183.941C167.923 183.884 166.532 185.168 166.472 186.817C166.412 188.467 167.707 189.855 169.367 189.915C173.968 190.085 174.389 192.439 174.409 193.156C174.409 193.112 174.409 193.088 174.409 193.088L174.4 193.338C171.503 194.797 166.129 194.279 162.918 193.588C161.294 193.238 159.694 194.263 159.342 195.877C158.99 197.492 160.022 199.081 161.646 199.431C164.478 200.04 167.408 200.372 170.325 200.226C168.382 200.864 166.056 201.209 163.38 201.244C161.72 201.258 160.39 202.622 160.412 204.271C160.434 205.923 161.798 207.243 163.458 207.22C164.959 207.2 166.441 207.099 167.943 206.882C166.281 207.269 165.309 208.899 165.688 210.484C166.022 211.886 167.297 212.82 168.689 212.784C169.592 212.762 173.787 211.629 177.06 209.895C176.225 212.441 179.159 214.558 181.334 212.999C189.467 207.172 199.422 191.367 189.854 189.182L189.852 189.184Z" fill="#FA6257"/>
<path d="M50.1478 189.184C51.8367 188.799 52.3002 186.527 54.2498 187.723C54.3434 187.424 54.4436 187.123 54.5506 186.822C55.0876 185.301 56.7364 184.488 58.2694 184.957C59.7288 182.901 62.9485 183.452 63.6236 185.887C65.1766 184.856 67.3579 184.054 70.4105 183.941C72.0771 183.884 73.4675 185.168 73.5277 186.817C73.5901 188.467 72.2933 189.855 70.6333 189.915C66.0322 190.085 65.6111 192.439 65.591 193.156C65.591 193.112 65.591 193.088 65.591 193.088L65.5999 193.338C68.4965 194.797 73.8708 194.279 77.0815 193.588C78.7059 193.238 80.3057 194.263 80.6577 195.877C81.0098 197.492 79.9781 199.081 78.3538 199.431C75.5219 200.04 72.5918 200.372 69.6752 200.226C71.6182 200.864 73.9443 201.209 76.6203 201.244C78.2803 201.258 79.6105 202.622 79.5882 204.271C79.5659 205.923 78.2023 207.243 76.5423 207.22C75.0406 207.2 73.5589 207.099 72.0571 206.882C73.7193 207.269 74.6908 208.899 74.312 210.484C73.9777 211.886 72.7033 212.82 71.3107 212.784C70.4083 212.762 66.2127 211.629 62.9395 209.895C63.7751 212.441 60.8406 214.558 58.666 212.999C50.5333 207.172 40.5779 191.367 50.1456 189.182L50.1478 189.184Z" fill="#FA6257"/>
<path d="M119.075 101.835C118.694 101.835 118.135 101.787 117.542 101.565C114.559 100.456 115.695 96.8558 116.448 94.4734C116.696 93.6896 116.93 92.9478 116.968 92.5028C117.008 92.0157 117.438 91.6526 117.928 91.6924C118.418 91.7323 118.783 92.1596 118.743 92.6467C118.69 93.2888 118.44 94.0837 118.148 95.0048C117.364 97.4868 116.867 99.4241 118.166 99.909C118.748 100.126 119.298 100.055 119.305 100.055C119.791 99.9909 120.241 100.325 120.31 100.808C120.379 101.288 120.049 101.736 119.566 101.809C119.523 101.815 119.343 101.84 119.075 101.84V101.835Z" fill="#262730"/>
</g>
</g>
<defs>
<clipPath id="clip0_386_77">
<rect width="240" height="240" rx="120" fill="white"/>
</clipPath>
<clipPath id="clip1_386_77">
<rect width="172" height="217" fill="white" transform="translate(34 23)"/>
</clipPath>
<clipPath id="clip2_386_77">
<rect width="164" height="216" fill="white" transform="translate(38 38)"/>
</clipPath>
</defs>
</svg>
