<svg width="240" height="240" viewBox="0 0 240 240" fill="none" xmlns="http://www.w3.org/2000/svg">
<rect width="240" height="240" rx="120" fill="#F6CA73"/>
<g clip-path="url(#clip0_620_3324)">
<path d="M114.495 137.428C80.5345 137.428 53 148.069 53 161.191C53 164.719 54.9921 168.055 58.5548 171.064C60.9874 173.121 61.1502 176.841 58.8996 179.09C56.4957 181.494 55.2698 184.099 55.605 186.665C56.5915 194.231 70.7274 198.605 87.181 196.442C97.0934 195.134 105.579 191.751 110.54 187.617C112.58 185.916 115.127 184.964 117.79 184.916C153.187 184.272 175.99 172.698 175.99 161.191C175.99 148.069 148.456 137.428 114.495 137.428Z" fill="#470FF4"/>
<path d="M166.164 158.26C166.164 163.615 165.743 164.028 160.418 164.028L74.6252 164.009C69.3003 164.009 68.8789 163.586 68.8789 158.241V64.3223H166.164V158.26Z" fill="#FA6257"/>
<path d="M117.521 85.6432C144.385 85.6432 166.164 76.0975 166.164 64.3216C166.164 52.5457 144.385 43 117.521 43C90.6573 43 68.8691 52.5457 68.8691 64.3216C68.8691 76.0975 90.6477 85.6432 117.512 85.6432H117.521Z" fill="#F7EEC1"/>
<path d="M161.5 64.321C161.5 66.7146 160.312 69.0025 158.157 71.0885C151.549 77.4908 135.842 81.9897 117.512 81.9897C99.181 81.9897 83.4839 77.4908 76.8756 71.0885C74.7208 69.0025 73.5332 66.7146 73.5332 64.321C73.5332 54.5638 93.2239 46.6523 117.512 46.6523C141.799 46.6523 161.5 54.5638 161.5 64.321Z" fill="#1E2675"/>
<path d="M158.166 71.0885C151.558 77.4907 135.852 81.9896 117.521 81.9896C99.1901 81.9896 83.493 77.4907 76.8848 71.0885C83.493 64.6766 99.1996 60.1777 117.521 60.1777C135.842 60.1777 151.558 64.6766 158.166 71.0885Z" fill="#470FF4"/>
<path d="M81.2239 102.437C83.1106 102.437 84.6334 100.255 84.6334 97.5632C84.6334 94.8716 83.1106 92.6895 81.2239 92.6895C79.3372 92.6895 77.8145 94.8716 77.8145 97.5632C77.8145 100.255 79.3372 102.437 81.2239 102.437Z" fill="#1E2675"/>
<path d="M81.2616 92.6895H78.9727V102.427H81.2616V92.6895Z" fill="#1E2675"/>
<path d="M78.9739 102.437C80.8606 102.437 82.3834 100.255 82.3834 97.5632C82.3834 94.8716 80.8606 92.6895 78.9739 92.6895C77.0872 92.6895 75.5645 94.8716 75.5645 97.5632C75.5645 100.255 77.0872 102.437 78.9739 102.437Z" fill="#F7EEC1"/>
<path d="M78.9739 99.601C79.7592 99.601 80.4009 98.6878 80.4009 97.5534C80.4009 96.4191 79.7592 95.5059 78.9739 95.5059C78.1885 95.5059 77.5469 96.4191 77.5469 97.5534C77.5469 98.6878 78.1885 99.601 78.9739 99.601Z" fill="#1E2675"/>
<path d="M79.3945 97.0918C74.309 101.523 51.0843 122.105 55.8154 131.045C56.821 132.948 59.6559 135.409 68.8979 135.313" stroke="#1E2675" stroke-width="2" stroke-miterlimit="10"/>
<path d="M126.601 77.1738L115.108 85.6236V126.2C115.108 128.267 113.442 129.949 111.383 129.949C109.324 129.949 107.648 128.267 107.648 126.2V95.352C107.648 94.6214 107.351 93.9485 106.872 93.4678C106.393 92.9872 105.723 92.6892 104.995 92.6892C103.52 92.6892 102.332 93.8812 102.332 95.352V164.027H90.8398V82.1534L96.5016 77.2411L126.601 77.1738Z" fill="#470FF4"/>
</g>
<g clip-path="url(#clip1_620_3324)">
<path d="M150.707 134.289L189.678 111.789L193.413 118.258C196.193 123.073 196.032 123.674 191.217 126.454L162.638 142.954C157.823 145.734 157.222 145.573 154.442 140.758L150.707 134.289Z" fill="#F79E4F"/>
<path d="M170.793 79.0801L131.822 101.58L150.707 134.29L189.678 111.79L170.793 79.0801Z" fill="#F7EEC1"/>
<path d="M149.879 135.115L151.369 137.696C151.921 138.652 153.145 138.98 154.101 138.428L191.539 116.813C192.496 116.26 192.824 115.037 192.272 114.081L190.782 111.5C190.229 110.543 189.006 110.216 188.049 110.768L150.611 132.383C149.655 132.935 149.327 134.158 149.879 135.115Z" fill="#262730"/>
<path d="M194.998 152.043C192.737 150.127 189.601 147.376 187.078 143.706C184.078 139.33 183.197 137.044 181.62 131.973L172.302 137.353C175.905 141.254 177.444 143.16 179.734 147.946C181.651 151.966 182.474 156.052 183.003 158.968C183.232 160.245 183.809 161.424 184.687 162.384L184.754 162.461C186.615 164.504 189.711 164.946 192.187 163.516L194.361 162.261C196.829 160.836 198.003 157.929 197.164 155.296L197.132 155.199C196.739 153.959 196.011 152.879 195.015 152.033L194.998 152.043ZM191.351 159.587C190.312 160.187 188.987 159.832 188.387 158.793C187.787 157.754 188.142 156.429 189.181 155.829C190.22 155.229 191.546 155.584 192.146 156.623C192.746 157.662 192.39 158.987 191.351 159.587Z" fill="#F79E4F"/>
<path d="M149.854 98.3505C156.484 109.834 155.994 108.985 156.036 109.077C149.626 97.9744 149.911 98.4681 149.854 98.3505Z" fill="#1E2675"/>
<path d="M149.854 98.3505C156.484 109.834 155.994 108.985 156.036 109.077C149.626 97.9744 149.911 98.4681 149.854 98.3505Z" fill="#1E2675"/>
<path d="M154.333 96.827C163.568 112.823 163.008 111.853 163.059 111.961C154.139 96.5116 154.374 96.9186 154.333 96.827Z" fill="#1E2675"/>
<path d="M154.333 96.827C163.568 112.823 163.008 111.853 163.059 111.961C154.139 96.5116 154.374 96.9186 154.333 96.827Z" fill="#1E2675"/>
<path d="M149.854 98.3505L153.779 105.149L153.771 105.154C150.161 98.9011 149.911 98.4681 149.854 98.3505Z" fill="#1E2675"/>
<path d="M154.333 96.827L157.798 102.829L157.789 102.834C154.974 97.9579 154.374 96.9186 154.333 96.827Z" fill="#1E2675"/>
<path d="M170.777 79.089L186.107 105.641C187.817 108.603 183.336 111.202 181.621 108.231L170.671 89.2654C169.711 87.6026 167.199 89.0526 168.159 90.7154L174.714 102.069C176.819 105.715 171.313 108.917 169.198 105.254L165.083 98.1266C163.553 95.4765 159.48 97.7819 161.03 100.467L167.46 111.604C168.785 113.899 165.324 115.885 164.004 113.599C153.844 96.001 173.758 130.472 153.993 96.2385C152.543 93.727 148.655 95.6719 149.855 98.3507C149.902 98.4732 149.376 97.5416 156.036 109.077C158.111 113.11 152.127 116.346 149.867 112.431L147.692 108.664L146.412 106.447C145.042 104.074 141.425 106.15 142.8 108.532L150.925 122.605C152.925 126.069 147.689 129.08 145.694 125.625L131.814 101.584L170.777 79.089Z" fill="#470FF4"/>
</g>
<defs>
<clipPath id="clip0_620_3324">
<rect width="123" height="154" fill="white" transform="translate(53 43)"/>
</clipPath>
<clipPath id="clip1_620_3324">
<rect width="47.23" height="83.81" fill="white" transform="translate(130.844 102.145) rotate(-30)"/>
</clipPath>
</defs>
</svg>
