<svg width="240" height="240" viewBox="0 0 240 240" fill="none" xmlns="http://www.w3.org/2000/svg">
<g clip-path="url(#clip0_620_2309)">
<rect width="240" height="240" rx="120" fill="#F6CA73"/>
<g clip-path="url(#clip1_620_2309)">
<path d="M162.836 263.066C163.506 278.571 162.134 280 146.627 280H88.3476C72.8398 280 71.4682 278.571 72.1379 263.066L77.447 140.527C77.7374 133.795 78.1973 133.359 84.9265 133.359H150.04C156.777 133.359 157.229 133.795 157.519 140.527L162.828 263.066H162.836Z" fill="#F79E4F"/>
<path d="M142.979 133.361H91.9859L90.9612 109.663C90.7595 104.893 91.1791 104.457 95.9476 104.457H139.001C143.77 104.457 144.197 104.901 143.988 109.663L142.963 133.361H142.979Z" fill="#FA6257"/>
<path d="M126.939 74.3341C136.944 94.7223 149.055 103.585 165.814 108.411C168.492 109.186 169.001 108.799 169.001 106.014V105.368C169.001 102.6 169.114 102.81 166.83 101.244C157.39 94.7626 151.532 87.2644 147.304 74.0273L126.939 74.3341Z" fill="#1E2675"/>
<path d="M131.223 70.2422H104.242V104.675H131.223V70.2422Z" fill="#FA6257"/>
<path d="M109.602 56.4102L113.396 74.2686L85.7339 80.1504C84.8658 80.335 84.0045 79.7755 83.82 78.9071L80.6964 64.2066C80.5119 63.3382 81.0712 62.4766 81.9393 62.292L109.602 56.4102Z" fill="#1E2675"/>
<path d="M157.752 43.2821L160.875 57.9826C161.06 58.851 160.5 59.7126 159.632 59.8972L131.978 65.7774L128.183 47.9189L155.838 42.0388C156.706 41.8542 157.567 42.4137 157.752 43.2821Z" fill="#1E2675"/>
<path d="M147.947 72.3268L141.953 44.1181C141.767 43.246 140.91 42.6893 140.039 42.8747L91.8804 53.1146C91.0086 53.3 90.4522 54.1572 90.6375 55.0292L96.6313 83.238C96.8166 84.1101 97.6735 84.6667 98.5453 84.4814L146.704 74.2414C147.575 74.0561 148.132 73.1989 147.947 72.3268Z" fill="#F7EEC1"/>
<path d="M117.483 223.178C134.38 223.178 148.079 209.475 148.079 192.571C148.079 175.668 134.38 161.965 117.483 161.965C100.585 161.965 86.8867 175.668 86.8867 192.571C86.8867 209.475 100.585 223.178 117.483 223.178Z" fill="#F7EEC1"/>
<path d="M117.483 160.035C99.5792 160.035 84.959 174.596 84.959 192.563C84.959 210.53 99.5469 225.098 117.483 225.098C135.42 225.098 149.999 210.578 149.999 192.563C149.999 174.547 135.412 160.035 117.483 160.035ZM117.483 221.24C101.677 221.24 88.8238 208.383 88.8238 192.571C88.8238 185.387 91.4864 178.801 95.8757 173.765L136.291 214.194C131.248 218.585 124.672 221.248 117.491 221.248L117.483 221.24ZM139.026 211.466L98.6029 171.028C103.646 166.597 110.262 163.909 117.491 163.909C142.141 163.909 155.155 193.087 139.034 211.466H139.026Z" fill="#FA6257"/>
<path d="M126.99 199.129C126.99 204.061 122.683 208.092 117.421 208.092C112.159 208.092 107.852 204.061 107.852 199.129V196.541C107.852 190.627 108.346 190.166 114.658 190.166H120.184C126.496 190.166 126.99 190.627 126.99 196.541V199.129Z" fill="#262730"/>
<path d="M124.1 191.793H110.738V191.447C110.738 185.249 111.226 184.768 117.416 184.768C123.606 184.768 124.093 185.255 124.093 191.447V191.793H124.1Z" fill="#262730"/>
<path d="M121.018 186.652H113.826V183.908C113.826 181.93 115.445 180.311 117.422 180.311C119.4 180.311 121.018 181.93 121.018 183.908V186.652Z" fill="#262730"/>
<path d="M116.135 182.498C115.762 182.498 115.43 182.24 115.342 181.861L114.577 178.42L112.999 179.524C112.633 179.781 112.126 179.693 111.868 179.327C111.611 178.962 111.699 178.453 112.065 178.196L114.631 176.394C114.855 176.238 115.139 176.204 115.39 176.306C115.64 176.408 115.83 176.624 115.891 176.889L116.92 181.516C117.015 181.956 116.744 182.39 116.304 182.484C116.243 182.498 116.189 182.505 116.128 182.505L116.135 182.498Z" fill="#262730"/>
<path d="M111.402 189.361C111.158 189.361 110.921 189.28 110.718 189.118L107.162 186.205C106.912 186.001 106.77 185.69 106.77 185.364V181.293C106.77 180.697 107.257 180.209 107.853 180.209C108.449 180.209 108.937 180.697 108.937 181.293V184.85L112.093 187.437C112.553 187.817 112.621 188.501 112.241 188.962C112.025 189.226 111.72 189.355 111.402 189.355V189.361Z" fill="#262730"/>
<path d="M108.875 195.017C108.516 195.017 108.164 194.841 107.961 194.516L105.868 191.217L103.728 192.944C103.261 193.317 102.584 193.242 102.204 192.782C101.832 192.314 101.9 191.637 102.367 191.258L105.448 188.771C105.685 188.575 105.997 188.493 106.302 188.548C106.606 188.595 106.877 188.778 107.04 189.035L109.783 193.364C110.101 193.866 109.952 194.536 109.451 194.855C109.268 194.97 109.071 195.024 108.875 195.024V195.017Z" fill="#262730"/>
<path d="M105.238 208.898C104.642 208.898 104.154 208.411 104.154 207.814V202.334C104.154 202.029 104.283 201.738 104.513 201.528L107.595 198.743C108.035 198.344 108.726 198.377 109.125 198.825C109.525 199.265 109.491 199.949 109.044 200.356L106.321 202.815V207.814C106.321 208.411 105.834 208.898 105.238 208.898Z" fill="#262730"/>
<path d="M118.831 182.498C118.77 182.498 118.716 182.498 118.655 182.478C118.214 182.383 117.944 181.949 118.038 181.509L119.068 176.882C119.129 176.618 119.312 176.401 119.569 176.299C119.82 176.204 120.104 176.238 120.327 176.387L122.894 178.189C123.26 178.447 123.348 178.955 123.091 179.321C122.833 179.687 122.325 179.775 121.96 179.517L120.382 178.413L119.616 181.854C119.535 182.234 119.196 182.491 118.824 182.491L118.831 182.498Z" fill="#262730"/>
<path d="M123.564 189.361C123.252 189.361 122.941 189.225 122.724 188.968C122.345 188.507 122.413 187.823 122.873 187.443L126.029 184.855V181.299C126.029 180.703 126.517 180.215 127.113 180.215C127.709 180.215 128.196 180.703 128.196 181.299V185.37C128.196 185.695 128.054 186 127.803 186.21L124.248 189.123C124.045 189.286 123.801 189.367 123.564 189.367V189.361Z" fill="#262730"/>
<path d="M126.089 195.018C125.893 195.018 125.69 194.963 125.514 194.848C125.006 194.53 124.857 193.859 125.182 193.358L127.925 189.029C128.087 188.772 128.358 188.589 128.663 188.541C128.968 188.487 129.279 188.575 129.516 188.765L132.597 191.251C133.065 191.624 133.133 192.308 132.76 192.775C132.388 193.243 131.704 193.317 131.236 192.938L129.096 191.21L127.004 194.51C126.8 194.835 126.448 195.011 126.089 195.011V195.018Z" fill="#262730"/>
<path d="M129.726 208.898C129.13 208.898 128.643 208.41 128.643 207.814V202.814L125.92 200.355C125.473 199.955 125.439 199.271 125.839 198.824C126.238 198.384 126.922 198.343 127.369 198.743L130.451 201.527C130.681 201.73 130.81 202.022 130.81 202.333V207.814C130.81 208.41 130.322 208.898 129.726 208.898Z" fill="#262730"/>
<path d="M121.017 190.669H113.825C113.548 190.669 113.324 190.445 113.324 190.167C113.324 189.89 113.548 189.666 113.825 189.666H121.017C121.295 189.666 121.519 189.89 121.519 190.167C121.519 190.445 121.295 190.669 121.017 190.669Z" fill="#F7EEC1"/>
</g>
</g>
<defs>
<clipPath id="clip0_620_2309">
<rect width="240" height="240" rx="120" fill="white"/>
</clipPath>
<clipPath id="clip1_620_2309">
<rect width="97" height="238" fill="white" transform="translate(72 42)"/>
</clipPath>
</defs>
</svg>
