<svg width="240" height="240" viewBox="0 0 240 240" fill="none" xmlns="http://www.w3.org/2000/svg">
<g clip-path="url(#clip0_620_3021)">
<rect width="240" height="240" rx="120" fill="#F6CA73"/>
<g clip-path="url(#clip1_620_3021)">
<path d="M-110.38 236.538L69.9804 62.5742C73.5411 59.1397 79.1884 59.2177 82.5939 62.7484L181.795 165.596C185.2 169.127 185.074 174.773 181.514 178.208L1.15371 352.172C-2.40708 355.607 -8.05439 355.529 -11.4599 351.998L-110.661 249.15C-114.066 245.619 -113.94 239.973 -110.38 236.538Z" fill="#FA6257"/>
<mask id="mask0_620_3021" style="mask-type:luminance" maskUnits="userSpaceOnUse" x="-89" y="84" width="251" height="248">
<path d="M-88.3562 242.017L74.6523 84.7891L161.242 174.562L-1.76667 331.79L-88.3562 242.017Z" fill="white"/>
</mask>
<g mask="url(#mask0_620_3021)">
<path d="M82.3289 105.301C78.8647 108.643 73.3706 108.567 70.0575 105.132C66.7444 101.697 66.8669 96.2038 70.3311 92.8625C73.7952 89.5212 79.2893 89.597 82.6024 93.0319C85.9155 96.4669 85.793 101.96 82.3289 105.301Z" fill="#F6CA73"/>
<path d="M68.1055 103.108L80.6504 91.0078L82.3951 92.8167L69.8502 104.917L68.1055 103.108Z" fill="#F6CA73"/>
<path d="M80.3777 103.278C76.9135 106.619 71.4194 106.543 68.1063 103.109C64.7932 99.6736 64.9157 94.1804 68.3799 90.8391C71.8441 87.4977 77.3381 87.5736 80.6512 91.0085C83.9643 94.4434 83.8419 99.9366 80.3777 103.278Z" fill="#F6CA73"/>
<path d="M57.3386 129.405C53.8745 132.746 48.3804 132.67 45.0673 129.235C41.7542 125.801 41.8767 120.307 45.3408 116.966C48.805 113.625 54.2991 113.701 57.6122 117.135C60.9253 120.57 60.8028 126.064 57.3386 129.405Z" fill="#F6CA73"/>
<path d="M43.1153 127.211L55.6602 115.111L57.4049 116.92L44.86 129.02L43.1153 127.211Z" fill="#F6CA73"/>
<path d="M55.3875 127.381C51.9233 130.723 46.4292 130.647 43.1161 127.212C39.803 123.777 39.9255 118.284 43.3897 114.943C46.8538 111.601 52.3479 111.677 55.661 115.112C58.9741 118.547 58.8516 124.04 55.3875 127.381Z" fill="#F6CA73"/>
<path d="M32.3503 153.508C28.8862 156.85 23.3921 156.774 20.079 153.339C16.7659 149.904 16.8884 144.411 20.3526 141.07C23.8167 137.728 29.3108 137.804 32.6239 141.239C35.937 144.674 35.8145 150.167 32.3503 153.508Z" fill="#F79E4F"/>
<path d="M18.1348 151.307L30.6797 139.207L32.4244 141.016L19.8795 153.116L18.1348 151.307Z" fill="#F79E4F"/>
<path d="M30.3992 151.485C26.935 154.826 21.4409 154.75 18.1278 151.316C14.8147 147.881 14.9372 142.387 18.4014 139.046C21.8656 135.705 27.3596 135.781 30.6727 139.216C33.9858 142.65 33.8633 148.144 30.3992 151.485Z" fill="#F7EEC1"/>
<path d="M7.36011 177.612C3.89594 180.953 -1.59813 180.877 -4.91123 177.443C-8.22432 174.008 -8.10185 168.514 -4.63768 165.173C-1.1735 161.832 4.32056 161.908 7.63366 165.342C10.9468 168.777 10.8243 174.271 7.36011 177.612Z" fill="#F79E4F"/>
<path d="M-6.85543 175.411L5.68945 163.311L7.43415 165.119L-5.11074 177.219L-6.85543 175.411Z" fill="#F79E4F"/>
<path d="M5.40894 175.589C1.94476 178.93 -3.5493 178.854 -6.8624 175.419C-10.1755 171.984 -10.053 166.491 -6.58885 163.15C-3.12467 159.808 2.36939 159.884 5.68249 163.319C8.99559 166.754 8.87311 172.247 5.40894 175.589Z" fill="#F7EEC1"/>
<path d="M106.516 130.378C103.052 133.719 97.5581 133.643 94.245 130.208C90.9319 126.773 91.0544 121.28 94.5186 117.939C97.9827 114.597 103.477 114.673 106.79 118.108C110.103 121.543 109.981 127.036 106.516 130.378Z" fill="#F6CA73"/>
<path d="M92.293 128.184L104.838 116.084L106.583 117.893L94.0377 129.993L92.293 128.184Z" fill="#F6CA73"/>
<path d="M104.565 128.354C101.101 131.695 95.6069 131.62 92.2938 128.185C88.9808 124.75 89.1032 119.257 92.5674 115.915C96.0316 112.574 101.526 112.65 104.839 116.085C108.152 119.52 108.029 125.013 104.565 128.354Z" fill="#F6CA73"/>
<path d="M81.5261 154.481C78.0619 157.822 72.5679 157.747 69.2548 154.312C65.9417 150.877 66.0642 145.384 69.5283 142.042C72.9925 138.701 78.4866 138.777 81.7997 142.212C85.1128 145.647 84.9903 151.14 81.5261 154.481Z" fill="#F79E4F"/>
<path d="M67.3028 152.288L79.8477 140.188L81.5924 141.996L69.0475 154.096L67.3028 152.288Z" fill="#F79E4F"/>
<path d="M79.575 152.458C76.1108 155.799 70.6167 155.723 67.3036 152.288C63.9905 148.853 64.113 143.36 67.5772 140.019C71.0413 136.677 76.5354 136.753 79.8485 140.188C83.1616 143.623 83.0391 149.116 79.575 152.458Z" fill="#F7EEC1"/>
<path d="M56.5359 178.585C53.0717 181.926 47.5777 181.85 44.2646 178.415C40.9515 174.98 41.0739 169.487 44.5381 166.146C48.0023 162.804 53.4963 162.88 56.8094 166.315C60.1225 169.75 60.0001 175.243 56.5359 178.585Z" fill="#F79E4F"/>
<path d="M42.3203 176.383L54.8652 164.283L56.6099 166.092L44.065 178.192L42.3203 176.383Z" fill="#F79E4F"/>
<path d="M54.5847 176.561C51.1205 179.902 45.6265 179.827 42.3134 176.392C39.0003 172.957 39.1228 167.464 42.5869 164.122C46.0511 160.781 51.5452 160.857 54.8583 164.292C58.1714 167.727 58.0489 173.22 54.5847 176.561Z" fill="#F7EEC1"/>
<path d="M31.5476 202.688C28.0834 206.029 22.5894 205.954 19.2763 202.519C15.9632 199.084 16.0856 193.591 19.5498 190.249C23.014 186.908 28.5081 186.984 31.8212 190.419C35.1343 193.854 35.0118 199.347 31.5476 202.688Z" fill="#F79E4F"/>
<path d="M17.3321 200.487L29.877 188.387L31.6217 190.196L19.0768 202.296L17.3321 200.487Z" fill="#F79E4F"/>
<path d="M29.5964 200.665C26.1323 204.006 20.6382 203.93 17.3251 200.495C14.012 197.06 14.1345 191.567 17.5987 188.226C21.0628 184.884 26.5569 184.96 29.87 188.395C33.1831 191.83 33.0606 197.323 29.5964 200.665Z" fill="#F7EEC1"/>
<path d="M6.55737 226.792C3.0932 230.133 -2.40087 230.057 -5.71396 226.622C-9.02706 223.187 -8.90459 217.694 -5.44041 214.353C-1.97624 211.011 3.51783 211.087 6.83092 214.522C10.144 217.957 10.0215 223.45 6.55737 226.792Z" fill="#F79E4F"/>
<path d="M-7.65818 224.59L4.88672 212.49L6.63142 214.299L-5.91349 226.399L-7.65818 224.59Z" fill="#F79E4F"/>
<path d="M4.60621 224.768C1.14203 228.11 -4.35203 228.034 -7.66513 224.599C-10.9782 221.164 -10.8558 215.671 -7.39158 212.329C-3.92741 208.988 1.56666 209.064 4.87976 212.499C8.19285 215.934 8.07038 221.427 4.60621 224.768Z" fill="#F7EEC1"/>
<path d="M130.702 155.454C127.238 158.795 121.744 158.719 118.431 155.284C115.117 151.849 115.24 146.356 118.704 143.015C122.168 139.674 127.662 139.749 130.975 143.184C134.289 146.619 134.166 152.112 130.702 155.454Z" fill="#F6CA73"/>
<path d="M116.479 153.26L129.023 141.16L130.768 142.969L118.223 155.069L116.479 153.26Z" fill="#F6CA73"/>
<path d="M128.751 153.43C125.287 156.772 119.792 156.696 116.479 153.261C113.166 149.826 113.289 144.333 116.753 140.991C120.217 137.65 125.711 137.726 129.024 141.161C132.337 144.596 132.215 150.089 128.751 153.43Z" fill="#F6CA73"/>
<path d="M105.712 179.557C102.247 182.899 96.7534 182.823 93.4403 179.388C90.1272 175.953 90.2497 170.46 93.7139 167.118C97.1781 163.777 102.672 163.853 105.985 167.288C109.298 170.723 109.176 176.216 105.712 179.557Z" fill="#F79E4F"/>
<path d="M91.4883 177.364L104.033 165.264L105.778 167.073L93.233 179.173L91.4883 177.364Z" fill="#F79E4F"/>
<path d="M103.76 177.534C100.296 180.875 94.8023 180.799 91.4892 177.364C88.1761 173.929 88.2985 168.436 91.7627 165.095C95.2269 161.754 100.721 161.829 104.034 165.264C107.347 168.699 107.225 174.192 103.76 177.534Z" fill="#F7EEC1"/>
<path d="M80.7234 203.661C77.2592 207.002 71.7652 206.926 68.4521 203.491C65.139 200.056 65.2614 194.563 68.7256 191.222C72.1898 187.881 77.6838 187.956 80.9969 191.391C84.31 194.826 84.1876 200.319 80.7234 203.661Z" fill="#F79E4F"/>
<path d="M66.5078 201.459L79.0527 189.359L80.7974 191.168L68.2525 203.268L66.5078 201.459Z" fill="#F79E4F"/>
<path d="M78.7722 201.637C75.308 204.979 69.814 204.903 66.5009 201.468C63.1878 198.033 63.3103 192.54 66.7744 189.198C70.2386 185.857 75.7327 185.933 79.0458 189.368C82.3589 192.803 82.2364 198.296 78.7722 201.637Z" fill="#F7EEC1"/>
<path d="M55.7332 227.764C52.269 231.106 46.7749 231.03 43.4618 227.595C40.1487 224.16 40.2712 218.667 43.7354 215.325C47.1995 211.984 52.6936 212.06 56.0067 215.495C59.3198 218.93 59.1973 224.423 55.7332 227.764Z" fill="#F79E4F"/>
<path d="M41.5176 225.563L54.0625 213.463L55.8072 215.272L43.2623 227.372L41.5176 225.563Z" fill="#F79E4F"/>
<path d="M53.782 225.741C50.3178 229.082 44.8237 229.006 41.5106 225.571C38.1975 222.137 38.32 216.643 41.7842 213.302C45.2484 209.961 50.7424 210.036 54.0555 213.471C57.3686 216.906 57.2462 222.4 53.782 225.741Z" fill="#F7EEC1"/>
<path d="M30.7429 251.868C27.2787 255.209 21.7847 255.133 18.4716 251.698C15.1585 248.263 15.281 242.77 18.7451 239.429C22.2093 236.088 27.7034 236.163 31.0165 239.598C34.3296 243.033 34.2071 248.526 30.7429 251.868Z" fill="#F79E4F"/>
<path d="M16.5274 249.666L29.0723 237.566L30.817 239.375L18.2721 251.475L16.5274 249.666Z" fill="#F79E4F"/>
<path d="M28.7917 249.844C25.3276 253.186 19.8335 253.11 16.5204 249.675C13.2073 246.24 13.3298 240.747 16.794 237.405C20.2581 234.064 25.7522 234.14 29.0653 237.575C32.3784 241.01 32.2559 246.503 28.7917 249.844Z" fill="#F7EEC1"/>
<path d="M154.889 180.53C151.425 183.871 145.931 183.795 142.618 180.36C139.305 176.926 139.427 171.432 142.892 168.091C146.356 164.75 151.85 164.826 155.163 168.26C158.476 171.695 158.354 177.189 154.889 180.53Z" fill="#F79E4F"/>
<path d="M140.666 178.336L153.211 166.236L154.956 168.045L142.411 180.145L140.666 178.336Z" fill="#F79E4F"/>
<path d="M152.938 178.506C149.474 181.848 143.98 181.772 140.667 178.337C137.354 174.902 137.476 169.409 140.94 166.068C144.405 162.726 149.899 162.802 153.212 166.237C156.525 169.672 156.402 175.165 152.938 178.506Z" fill="#F7EEC1"/>
<path d="M129.899 204.633C126.435 207.975 120.941 207.899 117.628 204.464C114.315 201.029 114.437 195.536 117.901 192.195C121.366 188.853 126.86 188.929 130.173 192.364C133.486 195.799 133.363 201.292 129.899 204.633Z" fill="#F79E4F"/>
<path d="M115.676 202.44L128.221 190.34L129.965 192.149L117.421 204.249L115.676 202.44Z" fill="#F79E4F"/>
<path d="M127.948 202.61C124.484 205.951 118.99 205.875 115.677 202.441C112.364 199.006 112.486 193.512 115.95 190.171C119.414 186.83 124.908 186.906 128.222 190.341C131.535 193.775 131.412 199.269 127.948 202.61Z" fill="#F7EEC1"/>
<path d="M104.911 228.737C101.447 232.078 95.9527 232.002 92.6396 228.568C89.3265 225.133 89.4489 219.639 92.9131 216.298C96.3773 212.957 101.871 213.033 105.184 216.467C108.498 219.902 108.375 225.396 104.911 228.737Z" fill="#F79E4F"/>
<path d="M90.6953 226.536L103.24 214.436L104.985 216.244L92.44 228.344L90.6953 226.536Z" fill="#F79E4F"/>
<path d="M102.96 226.714C99.4955 230.055 94.0015 229.979 90.6884 226.544C87.3753 223.109 87.4978 217.616 90.9619 214.275C94.4261 210.933 99.9202 211.009 103.233 214.444C106.546 217.879 106.424 223.372 102.96 226.714Z" fill="#F7EEC1"/>
<path d="M79.9207 252.84C76.4565 256.182 70.9624 256.106 67.6493 252.671C64.3362 249.236 64.4587 243.743 67.9229 240.402C71.387 237.06 76.8811 237.136 80.1942 240.571C83.5073 244.006 83.3848 249.499 79.9207 252.84Z" fill="#F79E4F"/>
<path d="M65.7051 250.639L78.25 238.539L79.9947 240.348L67.4498 252.448L65.7051 250.639Z" fill="#F79E4F"/>
<path d="M77.9695 250.817C74.5053 254.158 69.0112 254.083 65.6982 250.648C62.3851 247.213 62.5075 241.719 65.9717 238.378C69.4359 235.037 74.9299 235.113 78.243 238.548C81.5561 241.982 81.4337 247.476 77.9695 250.817Z" fill="#F7EEC1"/>
</g>
</g>
<path d="M144.184 84.8212C139.371 84.8212 135.469 80.9525 135.469 76.1801C135.469 71.4078 139.371 67.5391 144.184 67.5391C148.997 67.5391 152.898 71.4078 152.898 76.1801C152.898 80.9525 148.997 84.8212 144.184 84.8212Z" fill="#F79E4F"/>
<path d="M135.469 73.3672L152.898 73.3672L152.898 75.8803L135.469 75.8803L135.469 73.3672Z" fill="#F79E4F"/>
<path d="M144.184 82.0087C139.371 82.0087 135.469 78.14 135.469 73.3676C135.469 68.5953 139.371 64.7266 144.184 64.7266C148.997 64.7266 152.898 68.5953 152.898 73.3676C152.898 78.14 148.997 82.0087 144.184 82.0087Z" fill="#F7EEC1"/>
<path d="M115.924 56.5615C111.111 56.5615 107.209 52.6927 107.209 47.9204C107.209 43.148 111.111 39.2793 115.924 39.2793C120.737 39.2793 124.639 43.148 124.639 47.9204C124.639 52.6927 120.737 56.5615 115.924 56.5615Z" fill="#F79E4F"/>
<path d="M107.209 45.1074L124.639 45.1074L124.639 47.6206L107.209 47.6206L107.209 45.1074Z" fill="#F79E4F"/>
<path d="M115.924 53.7489C111.111 53.7489 107.209 49.8802 107.209 45.1079C107.209 40.3355 111.111 36.4668 115.924 36.4668C120.737 36.4668 124.639 40.3355 124.639 45.1079C124.639 49.8802 120.737 53.7489 115.924 53.7489Z" fill="#F7EEC1"/>
<path d="M152.559 46.0947C147.746 46.0947 143.844 42.2259 143.844 37.4536C143.844 32.6812 147.746 28.8125 152.559 28.8125C157.372 28.8125 161.273 32.6812 161.273 37.4536C161.273 42.2259 157.372 46.0947 152.559 46.0947Z" fill="#F79E4F"/>
<path d="M143.844 34.6406L161.273 34.6406L161.273 37.1538L143.844 37.1538L143.844 34.6406Z" fill="#F79E4F"/>
<path d="M152.559 43.2822C147.746 43.2822 143.844 39.4134 143.844 34.6411C143.844 29.8687 147.746 26 152.559 26C157.372 26 161.273 29.8687 161.273 34.6411C161.273 39.4134 157.372 43.2822 152.559 43.2822Z" fill="#F7EEC1"/>
<path d="M205.94 149.718C201.127 149.718 197.225 145.849 197.225 141.077C197.225 136.304 201.127 132.436 205.94 132.436C210.753 132.436 214.654 136.304 214.654 141.077C214.654 145.849 210.753 149.718 205.94 149.718Z" fill="#F79E4F"/>
<path d="M197.225 138.264L214.654 138.264L214.654 140.777L197.225 140.777L197.225 138.264Z" fill="#F79E4F"/>
<path d="M205.94 146.905C201.127 146.905 197.225 143.036 197.225 138.264C197.225 133.492 201.127 129.623 205.94 129.623C210.753 129.623 214.654 133.492 214.654 138.264C214.654 143.036 210.753 146.905 205.94 146.905Z" fill="#F7EEC1"/>
</g>
<defs>
<clipPath id="clip0_620_3021">
<rect width="240" height="240" rx="120" fill="white"/>
</clipPath>
<clipPath id="clip1_620_3021">
<rect width="306.253" height="160.657" fill="white" transform="matrix(-0.719753 0.69423 0.69423 0.719753 76.4277 56.3555)"/>
</clipPath>
</defs>
</svg>
