<svg width="240" height="240" viewBox="0 0 240 240" fill="none" xmlns="http://www.w3.org/2000/svg">
<rect width="240" height="240" rx="120" fill="#F6CA73"/>
<g clip-path="url(#clip0_370_383)">
<path d="M115.325 152.887C115.595 154.421 115.613 154.436 117.149 154.572C125.948 155.354 133.021 153.736 140.065 152.074C141.818 151.66 141.909 151.524 141.593 149.732L139.443 137.537C139.124 135.727 138.988 135.628 137.185 135.862C128.076 137.043 119.584 138.459 114.651 141.234C113.389 141.945 113.393 141.932 113.647 143.373L115.325 152.887Z" fill="#470FF4"/>
<path d="M99.192 150.606L211.942 130.725C211.942 130.725 222.449 128.008 221.017 119.884C219.584 111.759 210.113 110.634 207.569 109.788C205.024 108.941 195.952 101.421 187.068 102.987L31.7012 130.383L32.5441 135.163C32.5441 135.163 72.7647 155.266 99.192 150.606Z" fill="#F7EEC1"/>
<path d="M166.929 117.972C166.707 116.716 167.536 115.519 168.779 115.3C170.022 115.081 171.21 115.922 171.431 117.178L171.71 118.761C171.932 120.017 171.103 121.213 169.86 121.433C168.617 121.652 167.429 120.811 167.208 119.555L166.929 117.972Z" fill="#FA6257"/>
<path d="M158.939 119.381C158.717 118.125 159.546 116.929 160.789 116.709C162.032 116.49 163.22 117.331 163.441 118.587L163.72 120.17C163.942 121.427 163.114 122.623 161.87 122.842C160.627 123.061 159.44 122.22 159.218 120.964L158.939 119.381Z" fill="#FA6257"/>
<path d="M150.949 120.789C150.728 119.533 151.556 118.337 152.799 118.118C154.043 117.898 155.23 118.739 155.452 119.995L155.731 121.579C155.952 122.835 155.124 124.031 153.881 124.25C152.637 124.469 151.45 123.629 151.228 122.372L150.949 120.789Z" fill="#FA6257"/>
<path d="M142.96 122.198C142.738 120.942 143.566 119.746 144.81 119.527C146.053 119.308 147.24 120.148 147.462 121.404L147.741 122.988C147.963 124.244 147.134 125.44 145.891 125.659C144.648 125.878 143.46 125.038 143.239 123.782L142.96 122.198Z" fill="#FA6257"/>
<path d="M134.97 123.607C134.748 122.35 135.577 121.154 136.82 120.935C138.063 120.716 139.251 121.556 139.472 122.813L139.751 124.396C139.973 125.652 139.144 126.848 137.901 127.067C136.658 127.287 135.47 126.446 135.249 125.19L134.97 123.607Z" fill="#FA6257"/>
<path d="M126.977 125.017C126.756 123.761 127.584 122.564 128.827 122.345C130.071 122.126 131.258 122.967 131.48 124.223L131.759 125.806C131.98 127.062 131.152 128.258 129.909 128.478C128.665 128.697 127.478 127.856 127.256 126.6L126.977 125.017Z" fill="#FA6257"/>
<path d="M118.988 126.425C118.766 125.169 119.594 123.973 120.838 123.753C122.081 123.534 123.268 124.375 123.49 125.631L123.769 127.214C123.99 128.471 123.162 129.667 121.919 129.886C120.676 130.105 119.488 129.264 119.267 128.008L118.988 126.425Z" fill="#FA6257"/>
<path d="M110.998 127.834C110.776 126.578 111.605 125.382 112.848 125.163C114.091 124.943 115.279 125.784 115.5 127.04L115.779 128.623C116.001 129.88 115.172 131.076 113.929 131.295C112.686 131.514 111.498 130.674 111.277 129.417L110.998 127.834Z" fill="#FA6257"/>
<path d="M103.008 129.242C102.787 127.986 103.615 126.79 104.858 126.571C106.101 126.352 107.289 127.192 107.51 128.448L107.789 130.032C108.011 131.288 107.183 132.484 105.939 132.703C104.696 132.922 103.509 132.082 103.287 130.826L103.008 129.242Z" fill="#FA6257"/>
<path d="M95.0183 130.652C94.7968 129.395 95.6251 128.199 96.8684 127.98C98.1117 127.761 99.2991 128.601 99.5206 129.858L99.7998 131.441C100.021 132.697 99.193 133.893 97.9497 134.112C96.7065 134.332 95.519 133.491 95.2975 132.235L95.0183 130.652Z" fill="#FA6257"/>
<path d="M87.0286 132.061C86.8071 130.804 87.6354 129.608 88.8787 129.389C90.1219 129.17 91.3094 130.011 91.5309 131.267L91.8101 132.85C92.0316 134.106 91.2033 135.302 89.96 135.522C88.7167 135.741 87.5293 134.9 87.3078 133.644L87.0286 132.061Z" fill="#FA6257"/>
<path d="M79.0388 133.469C78.8173 132.213 79.6456 131.017 80.8889 130.797C82.1322 130.578 83.3196 131.419 83.5412 132.675L83.8203 134.258C84.0418 135.514 83.2135 136.711 81.9702 136.93C80.727 137.149 79.5395 136.308 79.318 135.052L79.0388 133.469Z" fill="#FA6257"/>
<path d="M77 112.534L79.1364 124.65L107.624 149.225L155.28 140.822L154.134 134.318L84.016 121.137L81.5195 116.209L79.438 112.104L77 112.534Z" fill="#1E2675"/>
<path d="M122.14 155.492C122.433 157.154 122.45 157.169 124.116 157.318C133.648 158.166 141.313 156.413 148.946 154.611C150.847 154.162 150.943 154.017 150.6 152.073L148.271 138.861C147.925 136.9 147.778 136.792 145.822 137.047C135.954 138.325 126.753 139.861 121.408 142.867C120.04 143.635 120.044 143.626 120.32 145.186L122.137 155.493L122.14 155.492Z" fill="#470FF4"/>
<path d="M24.0393 136.863L67.5286 134.583L66.7961 130.429L23.8667 134.623C23.2662 134.681 22.8208 135.214 22.8688 135.823C22.9169 136.431 23.4343 136.894 24.0388 136.86L24.0393 136.863Z" fill="#1E2675"/>
<path d="M35.341 129.741L73.5129 123.01L34.6599 86.2015C31.4887 83.1962 26.8122 82.4812 22.9187 84.4078C17.5688 87.0525 15.5168 93.6895 18.4154 98.9654L35.3382 129.742L35.341 129.741Z" fill="#1E2675"/>
<path d="M187.597 106.375L196.858 104.742C199.596 106.011 202.526 107.547 204.5 108.939L188.553 111.813C186.549 112.167 186.363 112.035 186.006 110.01L185.817 108.938C185.46 106.913 185.59 106.726 187.594 106.372L187.597 106.375Z" fill="#262730"/>
</g>
<defs>
<clipPath id="clip0_370_383">
<rect width="197.911" height="97.0341" fill="white" transform="matrix(-0.984808 0.173648 0.173648 0.984808 208.904 51.1914)"/>
</clipPath>
</defs>
</svg>
