<svg width="240" height="240" viewBox="0 0 240 240" fill="none" xmlns="http://www.w3.org/2000/svg">
<g clip-path="url(#clip0_370_361)">
<rect width="240" height="240" rx="120" fill="#F6CA73"/>
<g clip-path="url(#clip1_370_361)">
<path d="M104.383 67.4013L88.3381 76.6651C87.2872 77.2718 86.9286 78.6179 87.5369 79.6717L93.8341 90.5786C94.4424 91.6323 95.7875 91.9947 96.8384 91.388L112.884 82.1243C113.935 81.5176 114.293 80.1715 113.685 79.1177L107.388 68.2108C106.779 67.1571 105.434 66.7946 104.383 67.4013Z" fill="#F7E9C1"/>
<path d="M139.851 97.0735C135.47 99.6026 129.577 98.4958 125.6 95.3622L66.1817 48.6679C61.0007 44.5967 53.9391 43.9085 48.0908 46.8958L43.5007 49.2422L107.473 115.776L139.855 97.0806L139.851 97.0735Z" fill="#F79E4F"/>
<path d="M149.544 145.622L133.499 154.886C132.448 155.493 132.089 156.839 132.698 157.892L138.995 168.799C139.603 169.853 140.948 170.215 141.999 169.609L158.045 160.345C159.095 159.738 159.454 158.392 158.846 157.338L152.549 146.432C151.94 145.378 150.595 145.015 149.544 145.622Z" fill="#F7E9C1"/>
<path d="M150.081 114.793C145.701 117.322 143.713 122.979 144.438 127.99L155.167 202.795C156.103 209.317 153.168 215.777 147.657 219.348L143.33 222.15L117.696 133.481L150.077 114.786L150.081 114.793Z" fill="#F79E4F"/>
<path d="M190.818 79.4655C194.316 85.5241 189.335 93.0797 181.71 97.482L84.593 153.553C79.8788 156.274 77.083 161.401 77.3357 166.855L77.6126 173.008C77.8099 177.137 76.0129 181.108 72.7844 183.665L69.245 186.487L63.6817 159.209L53.8707 163.563C52.3644 164.233 50.5794 163.65 49.7491 162.212L48.6188 160.254C47.7885 158.816 48.1801 156.986 49.5137 156.017L58.1903 149.697L37.3443 131.233L41.5578 129.579C45.3905 128.068 49.7236 128.49 53.201 130.726L58.395 134.049C62.9885 136.988 68.826 137.13 73.5402 134.408L170.657 78.338C174.47 76.1368 178.636 74.9086 182.282 74.9772C185.932 75.0529 189.071 76.4397 190.818 79.4655Z" fill="#F7E9C1"/>
<path d="M178.64 79.7852C185.033 78.4957 188.884 85.1666 184.571 90.0584C184.463 88.7729 184.477 87.6163 184.343 86.5641C184.157 83.0452 181.383 81.5523 178.644 79.7923L178.64 79.7852Z" fill="#1E2675"/>
</g>
</g>
<defs>
<clipPath id="clip0_370_361">
<rect width="240" height="240" rx="120" fill="white"/>
</clipPath>
<clipPath id="clip1_370_361">
<rect width="163.543" height="199.674" fill="white" transform="translate(-0.73465 74.7715) rotate(-30)"/>
</clipPath>
</defs>
</svg>
