<svg width="240" height="240" viewBox="0 0 240 240" fill="none" xmlns="http://www.w3.org/2000/svg">
<g clip-path="url(#clip0_287_912)">
<rect width="240" height="240" rx="120" fill="#F6CA73"/>
<path d="M176.703 199.17C187.254 190.112 190.644 194.06 201.198 185.001L194.121 176.758L189.572 171.459L177.946 157.917C167.395 166.976 164.002 163.027 153.45 172.086C142.899 181.144 146.289 185.096 135.737 194.155C125.186 203.213 121.793 199.265 111.242 208.323C100.691 217.382 104.08 221.333 93.5254 230.392C88.7747 234.47 85.4726 235.914 82.317 237.092L93.9432 250.634L98.4924 255.932L105.57 264.176C108.725 262.995 112.024 261.554 116.778 257.476C127.329 248.417 123.94 244.466 134.495 235.407C145.046 226.349 148.435 230.297 158.99 221.239C169.541 212.18 166.152 208.232 176.703 199.17Z" fill="#FA6257"/>
<path d="M152.337 213.49C141.786 222.548 138.393 218.6 127.842 227.659C117.29 236.717 120.68 240.669 110.125 249.727C105.374 253.806 102.072 255.25 98.9164 256.427L94.3673 251.128C97.5232 249.947 100.821 248.507 105.576 244.428C116.127 235.37 112.738 231.418 123.292 222.36C133.844 213.301 137.233 217.249 147.788 208.191C158.339 199.133 154.949 195.185 165.501 186.123C176.052 177.064 179.441 181.012 189.996 171.954L194.545 177.253C183.994 186.311 180.601 182.363 170.05 191.421C159.499 200.48 162.888 204.431 152.337 213.49Z" fill="#F7E9C1"/>
<path d="M138.787 179.607C138.788 165.7 133.583 165.702 133.582 151.791C133.584 145.528 134.639 142.088 135.798 138.925L124.933 138.924L117.947 138.923L100.098 138.925C98.938 142.088 97.8827 145.528 97.8816 151.791C97.8809 165.699 103.087 165.7 103.086 179.608C103.085 193.515 97.8804 193.517 97.8831 207.424C97.8824 221.331 103.088 221.333 103.087 235.24C103.087 249.148 97.8818 249.15 97.8846 263.056L115.735 263.054L122.72 263.056L133.585 263.056C133.586 249.148 138.791 249.146 138.788 235.24C138.789 221.332 133.583 221.331 133.584 207.424C133.585 193.516 138.787 193.518 138.787 179.607Z" fill="#FA6257"/>
<path d="M125.321 207.422C125.32 221.329 130.526 221.33 130.525 235.238C130.525 249.145 125.32 249.147 125.323 263.054L118.337 263.053C118.338 249.145 123.543 249.143 123.54 235.237C123.541 221.329 118.335 221.328 118.335 207.42C118.336 193.513 123.539 193.515 123.538 179.604C123.539 165.697 118.334 165.699 118.334 151.788C118.335 145.525 119.39 142.084 120.55 138.922L127.535 138.923C126.376 142.086 125.321 145.526 125.32 151.789C125.319 165.697 130.525 165.698 130.524 179.606C130.523 193.513 125.318 193.515 125.321 207.422Z" fill="#F7E9C1"/>
<path d="M40.5742 191.128C36.9987 193.47 32.8007 194.148 28.913 193.34C25.0252 192.532 21.4417 190.229 19.099 186.654C14.4008 179.482 16.402 169.869 23.5743 165.171C25.8345 163.692 27.9666 162.064 29.9731 160.321C31.5417 158.956 33.0274 157.519 34.4286 156.016C36.1453 154.179 37.7407 152.243 39.2206 150.219C40.3215 148.726 41.3505 147.175 42.3061 145.587C43.7167 143.264 44.9837 140.853 46.0959 138.363C46.8188 136.775 47.4701 135.155 48.0666 133.516C49.0333 130.865 49.8346 128.148 50.4742 125.394C50.8638 123.719 51.1919 122.024 51.4481 120.324C51.8906 117.531 52.1709 114.712 52.2809 111.874C52.3454 110.116 52.3503 108.346 52.2809 106.575C52.1873 103.859 51.9344 101.14 51.5184 98.4434C51.2303 96.5792 50.872 94.7163 50.4283 92.8762C49.8561 90.4646 49.1522 88.0742 48.3086 85.7282C47.6096 83.7769 46.8153 81.8511 45.9184 79.9634C44.6535 77.2547 43.1877 74.6244 41.5204 72.0835C36.8297 64.9127 38.8308 55.3005 45.9957 50.6008C53.1665 45.9101 62.7787 47.9113 67.4784 55.0761C96.9066 99.9871 84.5871 162.292 40.5784 191.13L40.5742 191.128Z" fill="#FA6257"/>
<path d="M63.1378 81.3883C59.9343 80.9642 56.7612 81.6136 53.8528 82.7382C51.8976 83.5017 50.0493 84.5325 48.3053 85.7291C47.6062 83.7778 46.8119 81.852 45.915 79.9643C51.4061 78.1829 57.4699 77.9075 63.1962 80.8829C63.407 80.9991 63.3746 81.4306 63.1387 81.3916L63.1378 81.3883Z" fill="#262730"/>
<path d="M65.2104 97.8144C62.1587 96.7472 58.9482 96.7442 55.9088 97.2486C54.4099 97.5058 52.9407 97.9135 51.5173 98.4394C51.2292 96.5752 50.871 94.7123 50.4272 92.8722C55.5714 92.5967 60.8505 93.7189 65.3782 97.3361C65.5733 97.4987 65.4335 97.9238 65.2137 97.8135L65.2104 97.8144Z" fill="#262730"/>
<path d="M64.7686 114.14C61.9857 112.472 58.8477 111.819 55.7914 111.708C54.6203 111.677 53.4473 111.73 52.2799 111.87C52.3444 110.113 52.3493 108.343 52.2799 106.571C56.9931 107.422 61.5276 109.579 65.0149 113.718C65.1842 113.916 64.9685 114.294 64.7718 114.139L64.7686 114.14Z" fill="#262730"/>
<path d="M61.8759 130.09C59.4826 127.877 56.5396 126.598 53.5666 125.89C52.5462 125.645 51.5058 125.484 50.4699 125.391C50.8594 123.716 51.1875 122.021 51.4437 120.321C55.7564 122.097 59.6452 125.079 62.1951 129.73C62.3194 129.957 62.0401 130.282 61.8768 130.093L61.8759 130.09Z" fill="#262730"/>
<path d="M56.6261 145.382C54.7144 142.692 52.0846 140.845 49.3213 139.553C48.268 139.067 47.1874 138.677 46.0916 138.361C46.8144 136.772 47.4658 135.153 48.0623 133.513C52.0403 136.104 55.3752 139.872 57.0035 145.094C57.0812 145.345 56.7505 145.609 56.6261 145.382Z" fill="#262730"/>
<path d="M49.1012 159.744C47.0629 155.174 43.3906 152.159 39.2196 150.215C40.3205 148.722 41.3494 147.171 42.3051 145.583C46.0782 149.001 48.9356 153.63 49.5254 159.539C49.5489 159.811 49.1699 160 49.1012 159.744Z" fill="#262730"/>
<path d="M39.8247 172.789C39.7897 173.066 39.3863 173.178 39.3678 172.911C38.1883 167.181 34.4363 163.106 29.9711 160.314C31.5398 158.95 33.0255 157.512 34.4267 156.009C38.1012 160.334 40.5464 166.028 39.8238 172.786L39.8247 172.789Z" fill="#262730"/>
<path d="M46.2416 40.8279C44.7185 40.1931 44.4647 43.1115 44.2114 44.7437C42.6884 44.1089 40.0636 42.8074 39.8128 44.4355C39.5596 46.0676 40.5902 47.9019 42.1132 48.5367L47.63 50.8355L48.5419 44.9292C48.7951 43.297 47.7646 41.4627 46.2416 40.8279Z" fill="#FA6257"/>
<path d="M11.093 189.937C10.762 191.555 13.6766 191.243 15.3257 191.178C14.9946 192.795 14.2224 195.62 15.8715 195.555C17.5207 195.49 19.1239 194.124 19.455 192.506L20.6485 186.651L14.6774 186.891C13.0283 186.956 11.425 188.323 11.0939 189.94L11.093 189.937Z" fill="#FA6257"/>
<path d="M189.415 35.5236L174.731 66.0468C174.693 66.0491 174.654 66.0484 174.616 66.0507C172.9 66.1216 171.176 66.2526 169.468 66.4603C166.659 66.7737 163.869 67.2568 161.102 67.9032C159.392 68.3046 157.679 68.7749 155.992 69.3092C153.4 70.122 150.846 71.0894 148.357 72.2039C146.634 72.9752 144.935 73.8182 143.281 74.7377C141.108 75.9294 138.992 77.2457 136.951 78.6794C135.258 79.8727 133.611 81.1502 132.031 82.5182C129.752 84.4587 127.609 86.5725 125.6 88.852C119.934 95.2787 110.138 95.9049 103.701 90.2488C97.2724 84.5801 96.6463 74.7833 102.307 68.3477C124.611 43.0055 157.932 31.749 189.412 35.5253L189.415 35.5236Z" fill="#FA6257"/>
<path d="M128.83 65.5316C129.275 68.7327 130.741 71.6193 132.596 74.1244C133.85 75.8056 135.334 77.3144 136.951 78.6795C135.257 79.8699 133.609 81.1474 132.029 82.5153C128.854 77.6958 126.978 71.9215 128.32 65.6094C128.378 65.3757 128.801 65.2923 128.825 65.5303L128.83 65.5316Z" fill="#262730"/>
<path d="M144.117 59.1692C143.9 62.3948 144.752 65.4906 146.044 68.2857C146.691 69.6648 147.475 70.9686 148.357 72.204C146.636 72.9736 144.935 73.8183 143.279 74.7349C141.644 69.8473 141.326 64.4628 143.61 59.1356C143.714 58.9068 144.165 58.9255 144.115 59.1663L144.117 59.1692Z" fill="#262730"/>
<path d="M159.971 55.2578C159.102 58.3807 159.305 61.5841 160.012 64.559C160.292 65.6979 160.658 66.8149 161.102 67.9029C159.389 68.306 157.682 68.7729 155.993 69.3119C155.56 64.5396 156.436 59.5973 159.5 55.1366C159.645 54.919 160.067 55.0294 159.971 55.2578Z" fill="#262730"/>
<path d="M176.117 53.8071C174.62 56.6994 174.169 59.8796 174.274 62.9349C174.31 63.9833 174.431 65.0296 174.617 66.0537C172.9 66.1217 171.177 66.2556 169.468 66.4603C170.034 61.8309 171.873 57.2912 175.681 53.5955C175.868 53.4165 176.256 53.5976 176.117 53.8071Z" fill="#262730"/>
<path d="M94.2164 92.6006C94.0097 94.2368 96.8917 93.7085 98.5299 93.5172C98.3232 95.1534 97.764 98.0306 99.4023 97.8392C101.041 97.6479 102.539 96.1659 102.746 94.5297L103.495 88.5993L97.5579 89.2881C95.9197 89.4794 94.4214 90.9614 94.2147 92.5976L94.2164 92.6006Z" fill="#FA6257"/>
<path d="M157.5 131.944C166.613 131.944 174 124.57 174 115.472C174 106.375 166.613 99 157.5 99C148.387 99 141 106.375 141 115.472C141 124.57 148.387 131.944 157.5 131.944Z" fill="#FA6257"/>
<path d="M166.515 112.218C162.608 112.725 164.985 116.87 167.1 116.65C169.911 116.353 170.181 111.743 166.515 112.218Z" fill="#F7E9C1"/>
<path d="M158.214 116.063C159.475 116.063 158.809 117.251 158.379 117.251C157.976 117.251 157.493 116.954 157.5 116.685C157.514 116.231 157.85 116.06 158.214 116.06V116.063Z" fill="#F7E9C1"/>
<path d="M149.161 120.236C149.577 120.939 148.692 120.963 148.548 120.722C148.415 120.498 148.422 120.128 148.573 120.044C148.832 119.901 149.038 120.033 149.161 120.236Z" fill="#F7E9C1"/>
<path d="M156.646 102.715C157.062 103.418 156.177 103.442 156.033 103.201C155.9 102.977 155.907 102.607 156.058 102.523C156.317 102.38 156.523 102.512 156.646 102.715Z" fill="#F7E9C1"/>
<path d="M163.193 110.219C162.457 110.953 162.149 109.873 162.401 109.621C162.636 109.387 163.091 109.279 163.245 109.44C163.504 109.712 163.406 110.009 163.193 110.223V110.219Z" fill="#F7E9C1"/>
<path d="M159.373 124.102C157.759 125.713 157.083 123.34 157.636 122.787C158.151 122.274 159.152 122.036 159.485 122.389C160.052 122.987 159.839 123.637 159.369 124.102H159.373Z" fill="#F7E9C1"/>
<path d="M151.881 112.998C151.191 113.686 150.621 112.393 150.859 112.155C151.079 111.935 151.576 111.904 151.783 112.117C152.133 112.48 152.08 112.799 151.881 112.998Z" fill="#F7E9C1"/>
<path d="M211 154.946C219.837 154.946 227 147.795 227 138.973C227 130.151 219.837 123 211 123C202.163 123 195 130.151 195 138.973C195 147.795 202.163 154.946 211 154.946Z" fill="#FA6257"/>
<path d="M219.538 140.953C216.276 138.018 214.48 143.03 216.201 144.657C218.489 146.819 222.597 143.708 219.538 140.953Z" fill="#F7E9C1"/>
<path d="M213.159 129.745C212.433 129.091 212.035 130.206 212.416 130.568C212.925 131.049 213.838 130.358 213.159 129.745Z" fill="#F7E9C1"/>
<path d="M209.201 134.503C210.423 134.503 209.778 135.655 209.36 135.655C208.97 135.655 208.501 135.367 208.508 135.106C208.522 134.666 208.848 134.5 209.201 134.5V134.503Z" fill="#F7E9C1"/>
<path d="M223.177 138.397C224.4 138.397 223.754 139.549 223.337 139.549C222.947 139.549 222.478 139.261 222.485 139C222.498 138.56 222.824 138.394 223.177 138.394V138.397Z" fill="#F7E9C1"/>
<path d="M201.695 132.395C202.099 133.076 201.24 133.1 201.101 132.866C200.972 132.649 200.978 132.29 201.124 132.209C201.376 132.07 201.576 132.198 201.695 132.395Z" fill="#F7E9C1"/>
<path d="M211.289 149.127C211.693 149.808 210.834 149.832 210.694 149.598C210.565 149.381 210.572 149.022 210.718 148.941C210.969 148.802 211.17 148.93 211.289 149.127Z" fill="#F7E9C1"/>
<path d="M205.13 144.392C202.588 145.467 202.91 142.498 203.783 142.128C204.594 141.786 205.826 141.972 206.04 142.522C206.403 143.45 205.867 144.081 205.13 144.392Z" fill="#F7E9C1"/>
</g>
<defs>
<clipPath id="clip0_287_912">
<rect width="240" height="240" rx="120" fill="white"/>
</clipPath>
</defs>
</svg>
