<svg width="240" height="240" viewBox="0 0 240 240" fill="none" xmlns="http://www.w3.org/2000/svg">
<rect width="240" height="240" rx="120" fill="#F6CA73"/>
<g clip-path="url(#clip0_620_3002)">
<path d="M131.431 36.8958C128.97 32.6281 124.422 30 119.498 30C114.574 30 110.028 32.6281 107.567 36.8958L39.8456 154.313C37.3848 158.58 37.3848 163.836 39.8456 168.104C42.3065 172.372 46.8551 175 51.7768 175H187.221C192.143 175 196.692 172.372 199.152 168.104C201.613 163.836 201.613 158.58 199.152 154.313L131.431 36.8958Z" fill="#F79E4F"/>
<path d="M187.222 165.996H51.7776C50.0746 165.996 48.4863 165.079 47.6347 163.602C46.7832 162.125 46.7832 160.29 47.6347 158.813L115.356 41.3963C116.208 39.9195 117.796 39.002 119.499 39.002C121.202 39.002 122.79 39.9195 123.642 41.3963L191.363 158.813C192.215 160.29 192.215 162.125 191.363 163.602C190.512 165.079 188.923 165.996 187.22 165.996H187.222ZM119.499 40.9175C118.477 40.9175 117.524 41.4672 117.013 42.3541L49.2919 159.771C48.781 160.656 48.781 161.757 49.2919 162.644C49.8028 163.531 50.7558 164.081 51.7776 164.081H187.222C188.244 164.081 189.197 163.531 189.708 162.644C190.219 161.757 190.219 160.656 189.708 159.771L121.985 42.3541C121.474 41.4672 120.521 40.9175 119.499 40.9175Z" fill="#262730"/>
<g clip-path="url(#clip1_620_3002)">
<path d="M118.727 129.691C122.652 129.691 125.833 126.479 125.833 122.518C125.833 118.557 122.652 115.346 118.727 115.346C114.803 115.346 111.621 118.557 111.621 122.518C111.621 126.479 114.803 129.691 118.727 129.691Z" fill="#262730"/>
<path d="M124.945 112.415C124.881 112.478 124.795 112.512 124.706 112.512C124.616 112.512 124.53 112.478 124.466 112.415C123.074 111.761 121.585 111.34 120.059 111.172C117.816 110.951 115.554 111.284 113.466 112.139C113.398 112.195 113.313 112.225 113.226 112.225C113.139 112.225 113.055 112.195 112.987 112.139L100.995 90.3108C100.931 90.2406 100.895 90.1475 100.895 90.0515C100.895 89.9555 100.931 89.8641 100.995 89.7939C106.475 86.6261 112.685 84.9723 119 85.0004C125.12 85.0568 131.122 86.7083 136.424 89.7939C136.46 89.8263 136.489 89.8655 136.509 89.9101C136.529 89.9547 136.539 90.0026 136.539 90.0515C136.539 90.1005 136.529 90.1501 136.509 90.1947C136.489 90.2392 136.46 90.2785 136.424 90.3108L124.945 112.415Z" fill="#262730"/>
<path d="M124.501 132.207C124.436 132.137 124.4 132.046 124.4 131.95C124.4 131.854 124.436 131.761 124.501 131.69C125.811 130.837 126.967 129.765 127.918 128.518C129.266 126.694 130.146 124.561 130.48 122.31C130.496 122.213 130.547 122.126 130.622 122.063C130.697 122 130.792 121.965 130.89 121.967L155.591 122.794C155.641 122.788 155.693 122.795 155.741 122.812C155.789 122.829 155.833 122.857 155.869 122.893C155.905 122.929 155.932 122.974 155.949 123.023C155.966 123.071 155.972 123.121 155.967 123.172C155.877 129.542 154.095 135.77 150.808 141.207C147.603 146.472 143.124 150.828 137.791 153.863C137.747 153.887 137.698 153.9 137.647 153.904C137.597 153.908 137.547 153.903 137.499 153.887C137.451 153.871 137.407 153.845 137.369 153.811C137.331 153.778 137.301 153.736 137.279 153.69C133.008 146.552 128.772 139.38 124.501 132.207Z" fill="#262730"/>
<path d="M107.214 121.861C107.262 121.856 107.31 121.861 107.355 121.876C107.401 121.891 107.443 121.916 107.478 121.949C107.514 121.981 107.542 122.022 107.561 122.067C107.58 122.111 107.59 122.158 107.59 122.206C107.706 123.751 108.075 125.266 108.683 126.688C109.613 128.771 111.018 130.604 112.783 132.034C112.845 132.099 112.881 132.185 112.881 132.275C112.881 132.365 112.845 132.451 112.783 132.516L99.8688 153.793C99.7993 153.859 99.7075 153.894 99.6124 153.894C99.5173 153.894 99.4259 153.859 99.3563 153.793C93.9209 150.54 89.4402 145.886 86.3737 140.31C83.4182 134.906 81.889 128.826 81.9325 122.654C81.9325 122.554 81.9722 122.458 82.0426 122.387C82.1131 122.315 82.2086 122.275 82.3083 122.275L107.214 121.861Z" fill="#262730"/>
</g>
</g>
<defs>
<clipPath id="clip0_620_3002">
<rect width="163" height="145" fill="white" transform="translate(38 30)"/>
</clipPath>
<clipPath id="clip1_620_3002">
<rect width="74" height="69" fill="white" transform="translate(82 85)"/>
</clipPath>
</defs>
</svg>
