<svg width="240" height="240" viewBox="0 0 240 240" fill="none" xmlns="http://www.w3.org/2000/svg">
<g clip-path="url(#clip0_620_1989)">
<rect width="240" height="240" rx="120" fill="#F6CA73"/>
<g clip-path="url(#clip1_620_1989)">
<path d="M156.771 307.999H82.7564C81.0882 308.022 79.4323 307.715 77.8865 307.093C76.3408 306.472 74.9363 305.55 73.7565 304.382C72.5768 303.214 71.6455 301.824 71.0176 300.294C70.3898 298.763 70.0778 297.124 70.1008 295.473L75.2312 111.527C75.3559 108.302 76.7493 105.255 79.114 103.034C81.4787 100.814 84.6277 99.5954 87.8868 99.6419H151.778C155.034 99.604 158.178 100.825 160.54 103.044C162.903 105.263 164.298 108.305 164.432 111.527L169.562 295.473C169.581 297.135 169.261 298.783 168.623 300.32C167.985 301.857 167.043 303.251 165.849 304.42C164.656 305.589 163.237 306.508 161.678 307.123C160.118 307.738 158.449 308.035 156.771 307.999Z" fill="#1E2675"/>
<path d="M154.514 140.812H83.5442C82.4864 140.812 81.6289 141.661 81.6289 142.709V268.319C81.6289 269.366 82.4864 270.215 83.5442 270.215H154.514C155.572 270.215 156.43 269.366 156.43 268.319V142.709C156.43 141.661 155.572 140.812 154.514 140.812Z" fill="#F7EEC1"/>
<path d="M156.43 205.514H81.6289V243.231H156.43V205.514Z" fill="#F79E4F"/>
<path d="M151.161 266.456H86.9984C86.7007 266.46 86.4043 266.406 86.1283 266.295C85.8523 266.185 85.6024 266.021 85.3918 265.812C85.1813 265.604 85.0143 265.355 84.9025 265.082C84.7907 264.809 84.7359 264.517 84.7405 264.222V146.94C84.7359 146.646 84.7907 146.352 84.9025 146.079C85.0143 145.806 85.1813 145.558 85.3918 145.35C85.6024 145.142 85.8523 144.978 86.1283 144.867C86.4043 144.757 86.7007 144.701 86.9984 144.705H151.161C151.76 144.705 152.335 144.941 152.758 145.36C153.181 145.779 153.419 146.348 153.419 146.94V264.358C153.385 264.927 153.131 265.46 152.711 265.851C152.292 266.241 151.737 266.457 151.161 266.456ZM86.9984 145.248C86.7905 145.243 86.5835 145.28 86.3905 145.357C86.1975 145.433 86.0215 145.548 85.8745 145.694C85.7274 145.839 85.6112 146.012 85.5338 146.203C85.4564 146.394 85.4189 146.599 85.4236 146.805V264.222C85.4189 264.428 85.4564 264.633 85.5338 264.824C85.6112 265.015 85.7274 265.188 85.8745 265.333C86.0215 265.479 86.1975 265.594 86.3905 265.67C86.5835 265.747 86.7905 265.784 86.9984 265.779H151.161C151.579 265.779 151.979 265.615 152.274 265.323C152.569 265.031 152.735 264.635 152.735 264.222V146.94C152.735 146.527 152.569 146.131 152.274 145.839C151.979 145.547 151.579 145.383 151.161 145.383L86.9984 145.248Z" fill="#1E2675"/>
<path d="M118.499 191.497C125.526 191.497 131.222 185.221 131.222 177.48C131.222 169.738 125.526 163.463 118.499 163.463C111.472 163.463 105.775 169.738 105.775 177.48C105.775 185.221 111.472 191.497 118.499 191.497Z" fill="#F6CA73"/>
<path d="M108.75 190.955C107.109 192.241 102.252 190.074 99.4815 186.587C94.0091 179.612 97.4283 167.763 103.516 161.025C105.462 158.681 107.897 156.779 110.654 155.453C113.411 154.126 116.426 153.406 119.49 153.34C122.316 153.491 125.08 154.212 127.615 155.458C130.15 156.703 132.4 158.447 134.23 160.584C140.01 166.814 144.32 178.631 138.505 186.012C135.771 189.132 131.948 191.116 127.8 191.565C127.671 191.58 127.54 191.56 127.42 191.51C127.3 191.46 127.195 191.379 127.116 191.277C127.036 191.175 126.985 191.054 126.967 190.927C126.949 190.799 126.966 190.668 127.014 190.548C128.114 187.799 128.95 184.955 129.511 182.051C129.882 180.059 130.122 178.045 130.229 176.023C130.256 175.631 130.19 175.239 130.035 174.877C129.88 174.516 129.641 174.196 129.339 173.942C129.036 173.688 128.677 173.507 128.291 173.416C127.905 173.325 127.503 173.325 127.117 173.416C123.832 174.182 120.386 173.91 117.266 172.637C115.624 171.975 114.118 171.023 112.82 169.827C112.498 169.548 112.11 169.356 111.691 169.267C111.273 169.177 110.837 169.193 110.427 169.315C110.017 169.436 109.646 169.66 109.346 169.963C109.047 170.265 108.829 170.639 108.715 171.047C108.149 173.024 107.805 175.056 107.69 177.108C107.314 184.759 110.563 189.499 108.75 190.955Z" fill="#F79E4F"/>
<path d="M137.516 95.4102H100.611V99.6423H137.516V95.4102Z" fill="#262730"/>
<path d="M132.727 53.0547H105.365V66.9023H132.727V53.0547Z" fill="#262730"/>
<path d="M168.059 52.3438C167.842 52.6879 167.517 52.95 167.134 53.091C166.75 53.232 166.328 53.2436 165.938 53.1224C159.759 51.0405 153.234 50.1553 146.717 50.5153C134.712 51.2941 128.589 56.3053 112.89 57.6935C109.616 57.9856 106.326 58.0763 103.041 57.9646C102.811 57.9602 102.584 57.91 102.374 57.8191C102.164 57.7282 101.975 57.5974 101.816 57.4339C101.658 57.2704 101.532 57.0781 101.449 56.8669C101.366 56.6557 101.326 56.4307 101.33 56.2039V48.1447C101.676 47.7639 102.109 47.4732 102.595 47.2983C105.023 46.4518 107.862 48.8899 108.58 49.3978C113.026 52.7835 123.015 48.5848 129.479 46.4518C142.672 41.852 157.056 41.852 170.248 46.4518C170.392 46.4806 170.526 46.5431 170.641 46.6337C170.755 46.7242 170.846 46.8402 170.906 46.9726C170.966 47.1049 170.994 47.2509 170.986 47.3958C170.979 47.5407 170.936 47.6819 170.863 47.8074L168.059 52.3438Z" fill="#262730"/>
<path d="M97.9423 74.7578H140.182C140.935 74.7578 141.657 75.0539 142.19 75.5809C142.722 76.1079 143.021 76.8227 143.021 77.568V95.4107C143.021 95.6262 142.935 95.8329 142.781 95.9853C142.627 96.1376 142.418 96.2233 142.2 96.2233H95.9244C95.7067 96.2233 95.4979 96.1376 95.3439 95.9853C95.19 95.8329 95.1035 95.6262 95.1035 95.4107V77.568C95.1035 77.1989 95.1769 76.8335 95.3196 76.4926C95.4623 76.1516 95.6714 75.8418 95.935 75.5809C96.1986 75.3199 96.5115 75.1129 96.856 74.9717C97.2004 74.8305 97.5695 74.7578 97.9423 74.7578Z" fill="#262730"/>
<path d="M103.689 66.6992H134.471C134.7 66.6992 134.927 66.7439 135.138 66.8307C135.35 66.9174 135.542 67.0446 135.704 67.205C135.866 67.3653 135.995 67.5557 136.082 67.7651C136.17 67.9746 136.215 68.1992 136.215 68.4259V75.6037C136.215 75.7204 136.168 75.8323 136.085 75.9149C136.002 75.9974 135.889 76.0438 135.771 76.0438H102.423C102.305 76.0438 102.192 75.9974 102.109 75.9149C102.025 75.8323 101.979 75.7204 101.979 75.6037V68.2566C102.02 67.8344 102.218 67.4423 102.533 67.155C102.849 66.8677 103.26 66.7055 103.689 66.6992Z" fill="#262730"/>
</g>
</g>
<defs>
<clipPath id="clip0_620_1989">
<rect width="240" height="240" rx="120" fill="white"/>
</clipPath>
<clipPath id="clip1_620_1989">
<rect width="101" height="265" fill="white" transform="translate(70 43)"/>
</clipPath>
</defs>
</svg>
