<svg width="240" height="240" viewBox="0 0 240 240" fill="none" xmlns="http://www.w3.org/2000/svg">
<g clip-path="url(#clip0_620_3251)">
<rect width="240" height="240" rx="120" fill="#F6CA73"/>
<g clip-path="url(#clip1_620_3251)">
<path d="M151.374 250.358L97.6935 262.954C92.4268 264.195 87.0872 262.307 84.4583 258.337C73.6099 241.977 64.6242 224.475 57.664 206.149C34.4712 144.804 39.924 88.2345 47.4827 52.5604C48.6919 46.7969 53.797 42.0708 60.2796 40.6769L102.99 31.493C106.84 30.6652 110.592 32.6886 111.311 36.0297L156.037 244.034C156.622 246.811 154.556 249.614 151.374 250.358Z" fill="#F7EEC1"/>
<path d="M103.015 31.4982L60.3045 40.6821C53.7985 42.081 48.717 46.8027 47.5078 52.5661C44.1262 68.4374 42.0466 84.5466 41.2894 100.737C60.0971 85.9765 81.2399 74.4 103.852 66.48C108.303 64.9344 112.678 63.5904 116.979 62.448L111.311 36.0887C110.58 32.6898 106.853 30.6729 103.015 31.4982Z" fill="#470FF4"/>
<path d="M91.7149 144.848C98.5005 143.389 102.699 136.15 101.093 128.68C99.4865 121.21 92.6835 116.336 85.8978 117.796C79.1122 119.255 74.9135 126.493 76.5198 133.964C78.1262 141.434 84.9292 146.307 91.7149 144.848Z" fill="#F6CA73"/>
<path d="M82.187 146.318C80.8708 147.883 75.7217 146.825 72.3137 144.014C65.597 138.455 66.45 126.309 70.9128 118.539C71.9194 116.787 76.1182 109.498 84.7703 107.831C92.706 106.306 98.8278 110.578 100.491 111.708C107.379 116.529 113.967 126.954 109.882 135.343C107.727 139.725 103.396 141.903 100.687 142.909C100.564 142.955 100.432 142.968 100.303 142.946C100.174 142.924 100.053 142.869 99.954 142.785C99.8546 142.701 99.7801 142.592 99.738 142.47C99.6959 142.348 99.688 142.216 99.715 142.089C100.22 139.214 100.442 136.298 100.377 133.383C100.325 131.397 100.14 129.416 99.8245 127.454C99.7685 127.074 99.6233 126.713 99.4003 126.399C99.1774 126.086 98.883 125.828 98.5408 125.647C98.1985 125.467 97.8178 125.369 97.4293 125.36C97.0408 125.352 96.6553 125.433 96.3036 125.599C93.285 127.028 89.8939 127.487 86.608 126.91C84.8865 126.598 83.233 125.996 81.7199 125.13C81.3539 124.926 80.9412 124.819 80.5204 124.817C80.0995 124.815 79.6847 124.919 79.3149 125.12C78.9451 125.32 78.6327 125.611 78.4071 125.963C78.1814 126.315 78.05 126.719 78.0252 127.134C77.8789 129.136 77.966 131.146 78.2852 133.126C79.5166 140.675 83.5971 144.563 82.187 146.318Z" fill="#F79E4F"/>
<path d="M151.368 222.429C141.267 225.279 130.559 227.971 119.266 230.399C107.973 232.827 97.3567 234.721 87.0874 236.251C87.03 236.263 86.9703 236.263 86.912 236.25C86.8538 236.236 86.7983 236.21 86.7491 236.172C86.648 236.095 86.5746 235.981 86.5424 235.853L82.6706 217.846C82.6548 217.781 82.6517 217.713 82.6613 217.647C82.6709 217.581 82.6927 217.517 82.7261 217.462C82.7594 217.406 82.8035 217.359 82.855 217.324C82.9066 217.288 82.9645 217.265 83.0256 217.255C93.0605 215.863 103.642 214.078 114.694 211.701C126.273 209.212 137.152 206.408 147.284 203.438L151.368 222.429Z" fill="#262730"/>
<path d="M79.7008 170.47C79.6295 170.486 79.5709 170.491 79.5251 170.486C79.2846 170.478 79.1022 170.427 78.9779 170.335C78.8647 170.225 78.7862 170.137 78.7424 170.072C78.5751 169.78 78.5417 169.451 78.6423 169.087C78.7399 168.708 78.8843 168.303 79.0755 167.874C79.1365 167.742 79.1889 167.604 79.2326 167.46C79.2875 167.299 79.3327 167.163 79.3683 167.051C79.3795 167.033 79.3947 167 79.4141 166.951C79.3346 166.998 79.2369 167.064 79.1208 167.149C79.019 167.23 78.9019 167.345 78.7696 167.493C78.5466 167.705 78.3201 167.97 78.0901 168.288C77.8571 168.592 77.6199 168.911 77.3787 169.246C77.3197 169.319 77.255 169.4 77.1848 169.489C77.1288 169.576 77.0729 169.663 77.0169 169.749C76.9131 169.891 76.7756 169.98 76.6045 170.017C76.4161 170.043 76.2495 169.996 76.1047 169.878C75.9488 169.778 75.8595 169.64 75.837 169.466C75.8114 169.278 75.8505 169.112 75.9543 168.971C76.0103 168.884 76.0734 168.796 76.1436 168.706C76.1996 168.62 76.2571 168.54 76.3161 168.468C76.6835 167.956 77.0515 167.482 77.4199 167.044C77.7853 166.593 78.162 166.228 78.55 165.951C78.9379 165.674 79.3438 165.549 79.7676 165.577C80.0223 165.582 80.2149 165.645 80.3454 165.766C80.487 165.87 80.5757 165.97 80.6115 166.067C80.8073 166.353 80.8508 166.695 80.7421 167.091C80.6303 167.473 80.4763 167.901 80.28 168.376C80.2576 168.411 80.2327 168.469 80.2052 168.549C80.189 168.612 80.1656 168.677 80.1351 168.743C80.3306 168.612 80.5857 168.445 80.9003 168.243C81.2149 168.041 81.5948 167.795 82.0397 167.506C82.2129 167.409 82.3871 167.386 82.5623 167.438C82.7345 167.476 82.8675 167.574 82.9614 167.733C83.0664 167.874 83.0945 168.04 83.0458 168.229C83.0082 168.401 82.9186 168.54 82.7771 168.645C82.3545 168.9 81.9716 169.132 81.6285 169.34C81.2853 169.548 80.9961 169.729 80.7609 169.884C80.6305 169.972 80.5129 170.049 80.408 170.117C80.3144 170.167 80.2278 170.215 80.1484 170.262C80.0547 170.312 79.9753 170.359 79.9101 170.403C79.8418 170.432 79.7721 170.455 79.7008 170.47Z" fill="#262730"/>
<path d="M85.5915 169.204C85.5202 169.219 85.4616 169.224 85.4158 169.219C85.1753 169.211 84.9929 169.161 84.8686 169.068C84.7554 168.958 84.6769 168.871 84.6331 168.805C84.4658 168.513 84.4324 168.185 84.533 167.82C84.6306 167.441 84.7749 167.037 84.9662 166.608C85.0272 166.475 85.0796 166.337 85.1233 166.194C85.1782 166.033 85.2234 165.896 85.259 165.784C85.2702 165.767 85.2854 165.734 85.3047 165.685C85.2253 165.732 85.1276 165.797 85.0115 165.882C84.9097 165.963 84.7926 166.078 84.6603 166.226C84.4373 166.438 84.2108 166.703 83.9808 167.021C83.7477 167.325 83.5106 167.644 83.2694 167.98C83.2104 168.052 83.1457 168.133 83.0755 168.223C83.0195 168.309 82.9636 168.396 82.9076 168.483C82.8038 168.624 82.6663 168.714 82.4952 168.75C82.3067 168.776 82.1401 168.73 81.9954 168.612C81.8395 168.511 81.7502 168.374 81.7277 168.199C81.7021 168.011 81.7412 167.846 81.845 167.704C81.901 167.618 81.9641 167.529 82.0343 167.44C82.0903 167.353 82.1478 167.274 82.2068 167.201C82.5742 166.689 82.9422 166.215 83.3106 165.778C83.676 165.326 84.0527 164.962 84.4407 164.684C84.8286 164.407 85.2345 164.282 85.6583 164.311C85.913 164.315 86.1056 164.379 86.2361 164.5C86.3777 164.603 86.4664 164.704 86.5022 164.8C86.698 165.087 86.7415 165.428 86.6328 165.824C86.521 166.206 86.367 166.635 86.1707 167.11C86.1483 167.144 86.1234 167.202 86.0959 167.282C86.0797 167.346 86.0563 167.41 86.0258 167.477C86.2213 167.345 86.4763 167.178 86.791 166.976C87.1056 166.774 87.4855 166.529 87.9304 166.239C88.1036 166.142 88.2777 166.12 88.453 166.171C88.6252 166.209 88.7582 166.307 88.8521 166.466C88.9571 166.608 88.9852 166.773 88.9365 166.963C88.8989 167.135 88.8093 167.273 88.6678 167.378C88.2452 167.633 87.8623 167.865 87.5191 168.073C87.176 168.281 86.8868 168.463 86.6516 168.618C86.5212 168.705 86.4036 168.783 86.2987 168.85C86.205 168.9 86.1185 168.949 86.0391 168.995C85.9454 169.045 85.8659 169.092 85.8008 169.136C85.7325 169.166 85.6628 169.188 85.5915 169.204Z" fill="#262730"/>
<path d="M91.4822 167.937C91.4109 167.952 91.3523 167.957 91.3064 167.952C91.066 167.944 90.8836 167.894 90.7593 167.801C90.6461 167.692 90.5676 167.604 90.5238 167.539C90.3565 167.247 90.3231 166.918 90.4237 166.553C90.5213 166.174 90.6656 165.77 90.8569 165.341C90.9179 165.209 90.9703 165.071 91.014 164.927C91.0689 164.766 91.1141 164.629 91.1497 164.517C91.1609 164.5 91.1761 164.467 91.1954 164.418C91.116 164.465 91.0183 164.531 90.9022 164.615C90.8004 164.697 90.6833 164.812 90.551 164.959C90.328 165.171 90.1015 165.436 89.8715 165.754C89.6384 166.058 89.4013 166.378 89.1601 166.713C89.1011 166.785 89.0364 166.866 88.9662 166.956C88.9102 167.043 88.8543 167.129 88.7983 167.216C88.6945 167.358 88.557 167.447 88.3859 167.484C88.1974 167.509 88.0308 167.463 87.8861 167.345C87.7302 167.244 87.6409 167.107 87.6184 166.933C87.5928 166.744 87.6319 166.579 87.7357 166.437C87.7917 166.351 87.8548 166.263 87.925 166.173C87.981 166.086 88.0385 166.007 88.0975 165.934C88.4649 165.423 88.8328 164.948 89.2013 164.511C89.5667 164.059 89.9434 163.695 90.3314 163.418C90.7193 163.14 91.1252 163.016 91.549 163.044C91.8037 163.049 91.9963 163.112 92.1268 163.233C92.2684 163.337 92.3571 163.437 92.3929 163.534C92.5887 163.82 92.6322 164.161 92.5235 164.558C92.4117 164.94 92.2576 165.368 92.0614 165.843C92.039 165.878 92.0141 165.935 91.9866 166.016C91.9704 166.079 91.947 166.144 91.9165 166.21C92.112 166.078 92.367 165.912 92.6817 165.71C92.9963 165.508 93.3761 165.262 93.8211 164.972C93.9942 164.875 94.1684 164.853 94.3437 164.905C94.5159 164.942 94.6489 165.04 94.7427 165.199C94.8478 165.341 94.8759 165.506 94.8271 165.696C94.7896 165.868 94.7 166.007 94.5585 166.112C94.1359 166.367 93.753 166.598 93.4098 166.806C93.0667 167.014 92.7775 167.196 92.5423 167.351C92.4119 167.439 92.2943 167.516 92.1894 167.583C92.0957 167.633 92.0092 167.682 91.9298 167.729C91.8361 167.779 91.7566 167.826 91.6915 167.87C91.6232 167.899 91.5535 167.922 91.4822 167.937Z" fill="#262730"/>
<path d="M96.6393 168.775C96.5395 168.797 96.4366 168.804 96.3307 168.797C96.2278 168.804 96.1249 168.811 96.022 168.818C95.75 168.802 95.5395 168.691 95.3907 168.484C95.201 168.226 95.1274 167.884 95.1699 167.457C95.2236 167.013 95.3383 166.436 95.514 165.727C95.5465 165.601 95.576 165.46 95.6023 165.305C95.643 165.148 95.678 164.998 95.7075 164.858C95.5374 164.969 95.3638 165.133 95.1867 165.35C95.0208 165.55 94.8493 165.758 94.6722 165.975C94.5511 166.106 94.4034 166.182 94.2292 166.205C94.0377 166.216 93.8711 166.17 93.7294 166.066C93.5989 165.945 93.5295 165.796 93.5213 165.619C93.4987 165.444 93.5378 165.279 93.6386 165.123C93.8076 164.938 93.9806 164.737 94.1577 164.519C94.3491 164.299 94.5466 164.108 94.7502 163.944C95.2705 163.519 95.7884 163.326 96.3039 163.364C96.5413 163.358 96.743 163.464 96.9093 163.682C97.0724 163.885 97.1266 164.172 97.0718 164.542C97.0313 164.909 96.9314 165.415 96.7719 166.061C96.7374 166.247 96.6957 166.435 96.647 166.625C96.6125 166.811 96.5764 166.991 96.5389 167.163C96.5369 167.223 96.5262 167.278 96.5069 167.326C96.5018 167.372 96.4968 167.418 96.4917 167.464C96.782 167.357 97.1847 167.114 97.6999 166.734C98.2263 166.338 98.8972 165.641 99.7125 164.645C100.151 164.118 100.543 163.616 100.888 163.139C101.23 162.648 101.502 162.247 101.703 161.935C101.905 161.623 102.005 161.467 102.005 161.467C102.134 161.23 102.327 161.122 102.584 161.141C102.702 161.131 102.805 161.161 102.895 161.231C102.981 161.287 103.054 161.346 103.112 161.408C103.255 161.586 103.312 161.82 103.285 162.109C103.269 162.381 103.202 162.836 103.086 163.473C103.04 163.676 102.994 163.88 102.949 164.084C102.917 164.285 102.883 164.471 102.845 164.643C102.843 164.703 102.84 164.756 102.835 164.802C102.841 164.831 102.84 164.861 102.832 164.892C103.093 164.791 103.354 164.616 103.614 164.366C103.884 164.099 104.136 163.814 104.369 163.51C104.617 163.203 104.822 162.943 104.985 162.729C105.1 162.57 105.244 162.479 105.418 162.456C105.593 162.434 105.758 162.473 105.914 162.574C106.058 162.692 106.142 162.838 106.165 163.012C106.201 163.183 106.162 163.348 106.047 163.507C105.688 163.987 105.31 164.449 104.913 164.892C104.53 165.333 104.122 165.689 103.688 165.961C103.265 166.216 102.807 166.337 102.311 166.325C102.062 166.274 101.867 166.166 101.728 166.003C101.599 165.821 101.523 165.606 101.499 165.358C101.49 165.106 101.511 164.788 101.563 164.404C101.437 164.581 101.302 164.751 101.158 164.916C101.029 165.078 100.889 165.258 100.737 165.455C99.1032 167.432 97.7374 168.539 96.6393 168.775Z" fill="#262730"/>
<path d="M113.512 163.647C113.413 163.669 113.317 163.675 113.225 163.664C112.942 163.666 112.714 163.543 112.542 163.297C112.404 163.073 112.367 162.797 112.431 162.47C112.509 162.14 112.623 161.765 112.771 161.345C112.829 161.198 112.88 161.053 112.924 160.91C112.979 160.749 113.022 160.605 113.055 160.478C113.074 160.43 113.088 160.389 113.096 160.358C113.101 160.312 113.108 160.273 113.116 160.242C112.673 160.262 112.17 160.355 111.609 160.521C111.059 160.669 110.455 160.911 109.796 161.246C109.216 161.535 108.598 161.884 107.94 162.294C107.293 162.687 106.615 163.139 105.904 163.65C105.759 163.741 105.603 163.774 105.433 163.751C105.264 163.728 105.127 163.645 105.022 163.504C104.903 163.365 104.86 163.203 104.895 163.016C104.926 162.816 105.014 162.67 105.159 162.579C105.881 162.051 106.578 161.58 107.25 161.167C107.933 160.737 108.586 160.373 109.208 160.075C110.867 159.256 112.285 158.876 113.462 158.936C113.808 158.951 114.079 159.102 114.275 159.388C114.471 159.674 114.517 160.03 114.415 160.455C114.312 160.879 114.177 161.326 114.009 161.795C114.001 161.827 113.987 161.867 113.968 161.916C113.949 161.965 113.931 162.021 113.915 162.084C114.227 161.942 114.682 161.695 115.277 161.343C115.873 160.991 116.69 160.488 117.727 159.832C117.872 159.741 118.032 159.722 118.207 159.773C118.394 159.808 118.534 159.905 118.628 160.063C118.733 160.205 118.768 160.369 118.733 160.555C118.696 160.728 118.592 160.869 118.422 160.98C117.815 161.35 117.261 161.685 116.758 161.987C116.256 162.289 115.805 162.55 115.405 162.771C114.872 163.064 114.463 163.279 114.179 163.415C113.891 163.536 113.669 163.614 113.512 163.647Z" fill="#262730"/>
<path d="M77.8825 182.838C77.8597 182.843 77.8364 182.845 77.8126 182.846C77.7898 182.85 77.7642 182.854 77.7358 182.855C77.6772 182.848 77.6232 182.819 77.574 182.768C77.5479 182.735 77.5279 182.687 77.5142 182.623C77.5005 182.559 77.4984 182.45 77.5081 182.295C77.5178 182.14 77.5373 181.91 77.5668 181.602C77.4743 181.661 77.3672 181.729 77.2457 181.808C77.1288 181.885 77.0072 181.964 76.8812 182.043C76.8349 182.073 76.7842 182.081 76.7291 182.069C76.6685 182.053 76.6209 182.021 76.5863 181.971C76.5573 181.925 76.551 181.873 76.5676 181.817C76.5787 181.758 76.6091 181.711 76.6589 181.676C76.8394 181.561 77.0072 181.453 77.1623 181.353C77.3219 181.252 77.4521 181.169 77.5527 181.104C77.6534 181.04 77.7037 181.007 77.7037 181.007C77.7454 180.979 77.7883 180.968 77.8323 180.973C77.8945 180.974 77.9452 180.998 77.9844 181.047C78.016 181.083 78.0307 181.118 78.0285 181.152C78.0308 181.185 78.0313 181.221 78.03 181.259C78.0248 181.28 78.0224 181.302 78.0227 181.325C78.0221 181.345 78.0201 181.369 78.0169 181.398C78.0017 181.483 77.988 181.586 77.9761 181.708C77.9677 181.824 77.9575 181.943 77.9455 182.065C77.9364 182.134 77.93 182.193 77.9261 182.241C77.9222 182.29 77.9196 182.333 77.9184 182.372C78.0011 182.335 78.1153 182.255 78.2609 182.133C78.3857 182.025 78.5171 181.904 78.6552 181.769C78.7969 181.629 78.9399 181.484 79.0841 181.333C79.1157 181.303 79.1473 181.272 79.1789 181.242C79.2151 181.21 79.2462 181.177 79.2722 181.143C79.3155 181.1 79.3661 181.08 79.4237 181.081C79.485 181.078 79.537 181.098 79.5797 181.141C79.6215 181.18 79.6414 181.228 79.6395 181.286C79.6421 181.342 79.6218 181.392 79.5785 181.435C79.5479 181.47 79.515 181.506 79.4798 181.542C79.4482 181.573 79.4148 181.606 79.3797 181.642C79.2308 181.794 79.0855 181.939 78.9439 182.08C78.8022 182.22 78.6667 182.344 78.5374 182.453C78.2742 182.672 78.0559 182.8 77.8825 182.838ZM80.466 181.645C80.4432 181.65 80.4245 181.651 80.4098 181.65C80.3329 181.647 80.2745 181.631 80.2347 181.602C80.1985 181.566 80.1734 181.538 80.1594 181.518C80.1059 181.424 80.0952 181.319 80.1274 181.202C80.1586 181.081 80.2048 180.952 80.266 180.814C80.2855 180.772 80.3023 180.728 80.3162 180.682C80.3338 180.63 80.3483 180.587 80.3597 180.551C80.3632 180.545 80.3681 180.535 80.3743 180.519C80.3489 180.534 80.3176 180.555 80.2805 180.582C80.2479 180.608 80.2104 180.645 80.1681 180.692C80.0968 180.76 80.0243 180.845 79.9507 180.947C79.8762 181.044 79.8003 181.146 79.7231 181.253C79.7042 181.277 79.6835 181.302 79.6611 181.331C79.6432 181.359 79.6253 181.387 79.6074 181.414C79.5741 181.46 79.5302 181.488 79.4754 181.5C79.4151 181.508 79.3618 181.493 79.3155 181.456C79.2656 181.423 79.2371 181.379 79.2299 181.324C79.2217 181.263 79.2342 181.211 79.2674 181.165C79.2853 181.137 79.3055 181.109 79.328 181.081C79.3459 181.053 79.3643 181.027 79.3831 181.004C79.5007 180.841 79.6184 180.689 79.7363 180.549C79.8532 180.404 79.9737 180.288 80.0978 180.199C80.222 180.11 80.3518 180.07 80.4874 180.079C80.5689 180.081 80.6305 180.101 80.6723 180.14C80.7176 180.173 80.746 180.205 80.7574 180.236C80.82 180.328 80.834 180.437 80.7992 180.564C80.7634 180.686 80.7141 180.823 80.6513 180.975C80.6442 180.986 80.6362 181.005 80.6274 181.03C80.6222 181.05 80.6147 181.071 80.605 181.092C80.6675 181.05 80.7491 180.997 80.8498 180.932C80.9505 180.868 81.072 180.789 81.2144 180.696C81.2697 180.665 81.3255 180.658 81.3815 180.675C81.4366 180.687 81.4792 180.718 81.5092 180.769C81.5428 180.814 81.5518 180.867 81.5362 180.928C81.5242 180.983 81.4955 181.027 81.4503 181.061C81.3151 181.143 81.1926 181.217 81.0828 181.283C80.973 181.35 80.8805 181.408 80.8052 181.457C80.7635 181.486 80.7259 181.51 80.6923 181.532C80.6623 181.548 80.6346 181.563 80.6092 181.578C80.5793 181.594 80.5538 181.609 80.533 181.623C80.5112 181.633 80.4888 181.64 80.466 181.645ZM82.116 181.913C82.0841 181.92 82.0511 181.922 82.0172 181.92C81.9843 181.922 81.9514 181.925 81.9185 181.927C81.8315 181.922 81.7641 181.886 81.7165 181.82C81.6558 181.738 81.6323 181.628 81.6459 181.491C81.663 181.349 81.6997 181.165 81.756 180.938C81.7664 180.898 81.7758 180.853 81.7842 180.803C81.7972 180.752 81.8084 180.705 81.8179 180.66C81.7635 180.695 81.7079 180.748 81.6513 180.817C81.5982 180.881 81.5433 180.948 81.4866 181.017C81.4479 181.059 81.4006 181.084 81.3449 181.091C81.2836 181.094 81.2303 181.08 81.185 181.046C81.1433 181.008 81.1211 180.96 81.1184 180.903C81.1112 180.847 81.1237 180.795 81.156 180.745C81.21 180.685 81.2654 180.621 81.322 180.552C81.3833 180.481 81.4465 180.42 81.5116 180.368C81.6781 180.232 81.8438 180.17 82.0087 180.182C82.0846 180.18 82.1492 180.214 82.2024 180.283C82.2546 180.349 82.2719 180.44 82.2544 180.559C82.2414 180.676 82.2094 180.838 82.1584 181.045C82.1474 181.104 82.1341 181.165 82.1184 181.225C82.1074 181.285 82.0959 181.342 82.0839 181.397C82.0832 181.417 82.0798 181.434 82.0736 181.45C82.072 181.464 82.0704 181.479 82.0688 181.494C82.1616 181.459 82.2905 181.382 82.4553 181.26C82.6237 181.133 82.8384 180.91 83.0992 180.592C83.2396 180.423 83.365 180.263 83.4753 180.11C83.5847 179.953 83.6717 179.824 83.7361 179.725C83.8006 179.625 83.8328 179.575 83.8328 179.575C83.8738 179.499 83.9356 179.465 84.0181 179.471C84.0555 179.467 84.0886 179.477 84.1173 179.499C84.145 179.517 84.1682 179.536 84.1868 179.556C84.2325 179.613 84.2509 179.688 84.2422 179.78C84.237 179.867 84.2158 180.013 84.1785 180.217C84.1638 180.282 84.1492 180.347 84.1346 180.412C84.1245 180.476 84.1135 180.536 84.1015 180.591C84.1008 180.61 84.0997 180.627 84.0981 180.642C84.1 180.651 84.0997 180.661 84.0971 180.671C84.1809 180.639 84.2643 180.582 84.3473 180.502C84.434 180.417 84.5146 180.326 84.5891 180.229C84.6683 180.13 84.7339 180.047 84.786 179.979C84.8228 179.928 84.869 179.899 84.9248 179.891C84.9805 179.884 85.0333 179.897 85.0832 179.929C85.1295 179.967 85.1563 180.013 85.1635 180.069C85.1753 180.124 85.1627 180.177 85.126 180.228C85.011 180.381 84.89 180.529 84.763 180.671C84.6406 180.812 84.5099 180.926 84.3712 181.013C84.236 181.094 84.0891 181.133 83.9307 181.129C83.8509 181.113 83.7886 181.078 83.7439 181.026C83.7028 180.968 83.6785 180.899 83.6709 180.82C83.6679 180.739 83.6747 180.638 83.6912 180.515C83.6509 180.571 83.6077 180.626 83.5618 180.679C83.5204 180.73 83.4755 180.788 83.427 180.851C82.9043 181.483 82.4673 181.838 82.116 181.913ZM85.993 180.456C85.9702 180.461 85.9515 180.463 85.9368 180.461C85.8599 180.459 85.8015 180.443 85.7617 180.413C85.7255 180.378 85.7004 180.35 85.6864 180.329C85.6329 180.236 85.6222 180.13 85.6544 180.014C85.6856 179.893 85.7318 179.763 85.793 179.626C85.8125 179.584 85.8292 179.539 85.8432 179.493C85.8608 179.442 85.8753 179.398 85.8866 179.362C85.8902 179.357 85.8951 179.346 85.9013 179.331C85.8759 179.346 85.8446 179.367 85.8075 179.394C85.7749 179.42 85.7374 179.457 85.6951 179.504C85.6238 179.572 85.5513 179.656 85.4777 179.758C85.4031 179.855 85.3273 179.958 85.2501 180.065C85.2312 180.088 85.2105 180.114 85.1881 180.143C85.1702 180.17 85.1523 180.198 85.1343 180.226C85.1011 180.271 85.0572 180.3 85.0024 180.311C84.9421 180.32 84.8888 180.305 84.8425 180.267C84.7926 180.235 84.7641 180.191 84.7568 180.135C84.7487 180.075 84.7612 180.022 84.7944 179.977C84.8123 179.949 84.8325 179.921 84.8549 179.892C84.8729 179.864 84.8913 179.839 84.9101 179.816C85.0277 179.652 85.1454 179.5 85.2633 179.36C85.3802 179.216 85.5007 179.099 85.6248 179.011C85.7489 178.922 85.8788 178.882 86.0144 178.891C86.0959 178.893 86.1575 178.913 86.1992 178.952C86.2446 178.985 86.273 179.017 86.2844 179.048C86.347 179.139 86.361 179.248 86.3262 179.375C86.2904 179.498 86.2411 179.635 86.1783 179.787C86.1712 179.798 86.1632 179.816 86.1544 179.842C86.1492 179.862 86.1417 179.883 86.132 179.904C86.1945 179.862 86.2761 179.808 86.3768 179.744C86.4775 179.679 86.599 179.601 86.7413 179.508C86.7967 179.477 86.8525 179.47 86.9085 179.486C86.9636 179.498 87.0062 179.53 87.0362 179.581C87.0698 179.626 87.0788 179.679 87.0632 179.739C87.0512 179.795 87.0225 179.839 86.9773 179.873C86.842 179.954 86.7195 180.028 86.6098 180.095C86.5 180.161 86.4074 180.219 86.3322 180.269C86.2905 180.297 86.2529 180.322 86.2193 180.343C86.1893 180.359 86.1616 180.375 86.1362 180.39C86.1062 180.406 86.0808 180.421 86.06 180.435C86.0382 180.444 86.0158 180.452 85.993 180.456ZM87.8777 180.051C87.8549 180.056 87.8361 180.058 87.8215 180.056C87.7445 180.054 87.6862 180.038 87.6464 180.008C87.6102 179.973 87.5851 179.945 87.571 179.924C87.5175 179.83 87.5069 179.725 87.539 179.609C87.5702 179.487 87.6164 179.358 87.6776 179.221C87.6971 179.178 87.7139 179.134 87.7279 179.088C87.7454 179.037 87.7599 178.993 87.7713 178.957C87.7749 178.952 87.7798 178.941 87.7859 178.925C87.7605 178.94 87.7293 178.961 87.6921 178.988C87.6595 179.015 87.6221 179.051 87.5797 179.099C87.5084 179.166 87.436 179.251 87.3624 179.353C87.2878 179.45 87.2119 179.552 87.1348 179.66C87.1159 179.683 87.0952 179.709 87.0727 179.737C87.0548 179.765 87.0369 179.793 87.019 179.821C86.9858 179.866 86.9418 179.894 86.8871 179.906C86.8268 179.914 86.7735 179.9 86.7272 179.862C86.6773 179.83 86.6487 179.786 86.6415 179.73C86.6333 179.67 86.6458 179.617 86.679 179.571C86.6969 179.544 86.7171 179.516 86.7396 179.487C86.7575 179.459 86.7759 179.434 86.7948 179.411C86.9123 179.247 87.0301 179.095 87.1479 178.955C87.2649 178.811 87.3854 178.694 87.5095 178.605C87.6336 178.517 87.7635 178.477 87.8991 178.486C87.9805 178.487 88.0422 178.507 88.0839 178.546C88.1292 178.579 88.1576 178.612 88.169 178.643C88.2317 178.734 88.2456 178.843 88.2108 178.97C88.1751 179.092 88.1258 179.229 88.063 179.381C88.0558 179.392 88.0478 179.411 88.0391 179.437C88.0339 179.457 88.0264 179.477 88.0166 179.499C88.0792 179.457 88.1608 179.403 88.2614 179.339C88.3621 179.274 88.4836 179.195 88.626 179.103C88.6814 179.072 88.7371 179.065 88.7932 179.081C88.8483 179.093 88.8908 179.125 88.9209 179.175C88.9545 179.221 88.9635 179.274 88.9479 179.334C88.9358 179.389 88.9072 179.434 88.8619 179.467C88.7267 179.549 88.6042 179.623 88.4944 179.689C88.3846 179.756 88.2921 179.814 88.2168 179.864C88.1751 179.892 88.1375 179.917 88.104 179.938C88.074 179.954 88.0463 179.97 88.0209 179.985C87.9909 180.001 87.9655 180.016 87.9446 180.03C87.9228 180.039 87.9005 180.046 87.8777 180.051ZM89.7623 179.646C89.7395 179.651 89.7208 179.653 89.7061 179.651C89.6292 179.648 89.5708 179.632 89.5311 179.603C89.4948 179.567 89.4697 179.539 89.4557 179.519C89.4022 179.425 89.3915 179.32 89.4237 179.203C89.4549 179.082 89.5011 178.953 89.5623 178.815C89.5818 178.773 89.5986 178.729 89.6125 178.683C89.6301 178.631 89.6446 178.588 89.656 178.552C89.6595 178.546 89.6644 178.536 89.6706 178.52C89.6452 178.535 89.6139 178.556 89.5768 178.583C89.5442 178.609 89.5067 178.646 89.4644 178.693C89.3931 178.761 89.3206 178.846 89.247 178.948C89.1725 179.045 89.0966 179.147 89.0194 179.254C89.0005 179.278 88.9798 179.303 88.9574 179.332C88.9395 179.36 88.9216 179.388 88.9037 179.415C88.8704 179.461 88.8265 179.489 88.7717 179.501C88.7114 179.509 88.6581 179.494 88.6118 179.457C88.5619 179.424 88.5334 179.38 88.5262 179.325C88.518 179.264 88.5305 179.212 88.5637 179.166C88.5816 179.139 88.6018 179.11 88.6243 179.082C88.6422 179.054 88.6606 179.028 88.6795 179.005C88.797 178.842 88.9147 178.69 89.0326 178.55C89.1495 178.405 89.27 178.289 89.3941 178.2C89.5183 178.111 89.6481 178.071 89.7837 178.081C89.8652 178.082 89.9268 178.102 89.9686 178.141C90.0139 178.174 90.0423 178.206 90.0537 178.237C90.1163 178.329 90.1303 178.438 90.0955 178.565C90.0597 178.687 90.0104 178.824 89.9476 178.976C89.9405 178.987 89.9325 179.006 89.9237 179.031C89.9185 179.052 89.911 179.072 89.9013 179.093C89.9638 179.051 90.0454 178.998 90.1461 178.933C90.2468 178.869 90.3683 178.79 90.5107 178.697C90.566 178.666 90.6218 178.659 90.6778 178.676C90.7329 178.688 90.7755 178.719 90.8055 178.77C90.8391 178.815 90.8481 178.868 90.8325 178.929C90.8205 178.984 90.7918 179.028 90.7466 179.062C90.6114 179.144 90.4889 179.218 90.3791 179.284C90.2693 179.351 90.1768 179.409 90.1015 179.458C90.0598 179.487 90.0222 179.511 89.9886 179.533C89.9586 179.549 89.9309 179.564 89.9055 179.579C89.8756 179.595 89.8501 179.61 89.8293 179.624C89.8075 179.634 89.7851 179.641 89.7623 179.646ZM91.4123 179.914C91.3804 179.921 91.3475 179.923 91.3136 179.921C91.2806 179.923 91.2477 179.926 91.2148 179.928C91.1278 179.923 91.0604 179.887 91.0128 179.821C90.9521 179.739 90.9286 179.629 90.9422 179.493C90.9593 179.35 90.996 179.166 91.0523 178.939C91.0627 178.899 91.0721 178.854 91.0805 178.804C91.0935 178.754 91.1047 178.706 91.1142 178.661C91.0598 178.696 91.0042 178.749 90.9476 178.818C90.8945 178.882 90.8396 178.949 90.7829 179.018C90.7442 179.06 90.6969 179.085 90.6412 179.092C90.5799 179.095 90.5266 179.081 90.4813 179.047C90.4396 179.009 90.4174 178.961 90.4147 178.904C90.4075 178.849 90.42 178.796 90.4523 178.746C90.5063 178.686 90.5617 178.622 90.6183 178.553C90.6796 178.482 90.7428 178.421 90.8079 178.369C90.9744 178.233 91.1401 178.171 91.305 178.183C91.3809 178.181 91.4455 178.215 91.4987 178.285C91.5509 178.35 91.5682 178.441 91.5507 178.56C91.5377 178.677 91.5057 178.839 91.4547 179.046C91.4437 179.105 91.4304 179.166 91.4148 179.226C91.4037 179.286 91.3922 179.343 91.3802 179.398C91.3795 179.418 91.3761 179.435 91.3699 179.451C91.3683 179.465 91.3667 179.48 91.3651 179.495C91.4579 179.46 91.5868 179.383 91.7516 179.261C91.92 179.134 92.1347 178.912 92.3955 178.593C92.5359 178.424 92.6613 178.264 92.7716 178.111C92.881 177.954 92.968 177.825 93.0324 177.726C93.0969 177.626 93.1291 177.576 93.1291 177.576C93.1702 177.5 93.2319 177.466 93.3144 177.472C93.3518 177.468 93.3849 177.478 93.4136 177.5C93.4413 177.518 93.4645 177.537 93.4831 177.557C93.5288 177.614 93.5472 177.689 93.5385 177.781C93.5333 177.869 93.5121 178.014 93.4748 178.218C93.4601 178.283 93.4455 178.348 93.4309 178.413C93.4208 178.477 93.4098 178.537 93.3978 178.592C93.3971 178.611 93.396 178.628 93.3944 178.643C93.3964 178.652 93.396 178.662 93.3934 178.672C93.4772 178.64 93.5606 178.583 93.6436 178.504C93.7303 178.418 93.8109 178.327 93.8854 178.23C93.9646 178.131 94.0302 178.048 94.0823 177.98C94.1191 177.929 94.1653 177.9 94.2211 177.892C94.2768 177.885 94.3296 177.898 94.3795 177.93C94.4258 177.968 94.4526 178.015 94.4598 178.07C94.4716 178.125 94.459 178.178 94.4223 178.229C94.3073 178.382 94.1863 178.53 94.0593 178.672C93.9369 178.813 93.8062 178.927 93.6675 179.014C93.5323 179.095 93.3854 179.134 93.227 179.13C93.1472 179.114 93.0849 179.08 93.0402 179.027C92.9991 178.969 92.9748 178.9 92.9672 178.821C92.9642 178.74 92.971 178.639 92.9875 178.516C92.9472 178.572 92.904 178.627 92.8581 178.68C92.8167 178.731 92.7718 178.789 92.7233 178.852C92.2006 179.484 91.7636 179.839 91.4123 179.914ZM98.6175 177.742C98.5947 177.747 98.576 177.748 98.5613 177.747C98.4844 177.744 98.4261 177.728 98.3863 177.699C98.3501 177.663 98.3249 177.635 98.3109 177.614C98.2574 177.521 98.2467 177.416 98.2789 177.299C98.3101 177.178 98.3563 177.049 98.4175 176.911C98.437 176.869 98.4538 176.825 98.4677 176.779C98.4853 176.727 98.4998 176.684 98.5112 176.648C98.5148 176.642 98.5196 176.632 98.5258 176.616C98.5004 176.631 98.4691 176.652 98.432 176.679C98.3994 176.705 98.362 176.742 98.3196 176.789C98.2483 176.857 98.1758 176.942 98.1022 177.044C98.0277 177.141 97.9518 177.243 97.8746 177.35C97.8557 177.373 97.8351 177.399 97.8126 177.428C97.7947 177.456 97.7768 177.484 97.7589 177.511C97.7257 177.557 97.6817 177.585 97.6269 177.597C97.5666 177.605 97.5133 177.59 97.467 177.553C97.4171 177.52 97.3886 177.476 97.3814 177.421C97.3732 177.36 97.3857 177.307 97.4189 177.262C97.4368 177.234 97.457 177.206 97.4795 177.178C97.4974 177.15 97.5158 177.124 97.5347 177.101C97.6522 176.937 97.7699 176.786 97.8878 176.646C98.0047 176.501 98.1252 176.385 98.2494 176.296C98.3735 176.207 98.5033 176.167 98.6389 176.176C98.7204 176.178 98.782 176.198 98.8238 176.237C98.8691 176.27 98.8975 176.302 98.9089 176.333C98.9716 176.425 98.9855 176.534 98.9507 176.661C98.9149 176.783 98.8657 176.92 98.8029 177.072C98.7957 177.083 98.7877 177.101 98.7789 177.127C98.7737 177.147 98.7663 177.168 98.7565 177.189C98.819 177.147 98.9007 177.094 99.0013 177.029C99.102 176.965 99.2235 176.886 99.3659 176.793C99.4213 176.762 99.477 176.755 99.5331 176.772C99.5882 176.784 99.6307 176.815 99.6607 176.866C99.6943 176.911 99.7033 176.964 99.6877 177.025C99.6757 177.08 99.6471 177.124 99.6018 177.158C99.4666 177.239 99.3441 177.314 99.2343 177.38C99.1245 177.447 99.032 177.505 98.9567 177.554C98.915 177.582 98.8774 177.607 98.8438 177.629C98.8139 177.645 98.7862 177.66 98.7607 177.675C98.7308 177.691 98.7054 177.706 98.6845 177.72C98.6627 177.73 98.6404 177.737 98.6175 177.742ZM100.268 178.01C100.236 178.017 100.203 178.019 100.169 178.017C100.136 178.019 100.103 178.022 100.07 178.024C99.983 178.019 99.9157 177.983 99.868 177.917C99.8073 177.834 99.7838 177.725 99.7974 177.588C99.8146 177.446 99.8513 177.262 99.9075 177.035C99.9179 176.994 99.9273 176.949 99.9357 176.9C99.9487 176.849 99.96 176.802 99.9694 176.757C99.915 176.792 99.8594 176.845 99.8028 176.914C99.7497 176.978 99.6948 177.045 99.6382 177.114C99.5994 177.156 99.5522 177.181 99.4964 177.188C99.4352 177.191 99.3819 177.177 99.3365 177.143C99.2948 177.105 99.2726 177.057 99.2699 177C99.2627 176.944 99.2752 176.892 99.3075 176.842C99.3615 176.782 99.4169 176.718 99.4736 176.648C99.5348 176.578 99.598 176.517 99.6631 176.465C99.8296 176.328 99.9953 176.267 100.16 176.279C100.236 176.277 100.301 176.311 100.354 176.38C100.406 176.446 100.423 176.537 100.406 176.656C100.393 176.773 100.361 176.935 100.31 177.142C100.299 177.201 100.286 177.261 100.27 177.322C100.259 177.382 100.247 177.439 100.235 177.494C100.235 177.513 100.231 177.531 100.225 177.547C100.224 177.561 100.222 177.576 100.22 177.591C100.313 177.556 100.442 177.478 100.607 177.357C100.775 177.23 100.99 177.007 101.251 176.689C101.391 176.52 101.516 176.36 101.627 176.207C101.736 176.05 101.823 175.921 101.888 175.822C101.952 175.722 101.984 175.672 101.984 175.672C102.025 175.596 102.087 175.561 102.17 175.568C102.207 175.564 102.24 175.574 102.269 175.596C102.297 175.614 102.32 175.633 102.338 175.653C102.384 175.71 102.402 175.785 102.394 175.877C102.389 175.964 102.367 176.11 102.33 176.314C102.315 176.379 102.301 176.444 102.286 176.509C102.276 176.573 102.265 176.633 102.253 176.688C102.252 176.707 102.251 176.724 102.25 176.739C102.252 176.748 102.251 176.758 102.249 176.768C102.332 176.735 102.416 176.679 102.499 176.599C102.585 176.514 102.666 176.423 102.741 176.325C102.82 176.227 102.885 176.144 102.938 176.075C102.974 176.025 103.021 175.996 103.076 175.988C103.132 175.981 103.185 175.994 103.235 176.026C103.281 176.064 103.308 176.11 103.315 176.166C103.327 176.221 103.314 176.274 103.277 176.325C103.163 176.478 103.042 176.626 102.915 176.768C102.792 176.909 102.661 177.023 102.523 177.11C102.387 177.191 102.241 177.23 102.082 177.226C102.002 177.21 101.94 177.175 101.895 177.123C101.854 177.065 101.83 176.996 101.822 176.917C101.819 176.836 101.826 176.734 101.843 176.612C101.802 176.668 101.759 176.723 101.713 176.775C101.672 176.827 101.627 176.885 101.578 176.948C101.056 177.58 100.619 177.934 100.268 178.01ZM108.994 175.654C108.962 175.661 108.932 175.663 108.902 175.659C108.812 175.66 108.739 175.62 108.684 175.542C108.64 175.47 108.628 175.382 108.648 175.277C108.673 175.172 108.709 175.052 108.757 174.917C108.775 174.87 108.792 174.824 108.806 174.778C108.823 174.726 108.837 174.68 108.848 174.64C108.854 174.624 108.858 174.611 108.861 174.601C108.862 174.587 108.865 174.574 108.867 174.564C108.725 174.571 108.565 174.601 108.385 174.653C108.209 174.701 108.016 174.778 107.805 174.886C107.62 174.978 107.422 175.09 107.211 175.221C107.004 175.347 106.787 175.491 106.56 175.655C106.514 175.684 106.463 175.694 106.409 175.687C106.355 175.68 106.311 175.653 106.278 175.608C106.24 175.564 106.226 175.512 106.237 175.452C106.247 175.388 106.275 175.341 106.322 175.312C106.552 175.143 106.775 174.992 106.99 174.86C107.209 174.723 107.418 174.606 107.617 174.511C108.148 174.249 108.601 174.127 108.978 174.147C109.089 174.151 109.175 174.2 109.238 174.291C109.301 174.383 109.316 174.496 109.283 174.632C109.25 174.768 109.207 174.911 109.153 175.061C109.15 175.071 109.146 175.084 109.14 175.1C109.134 175.115 109.128 175.133 109.123 175.154C109.223 175.108 109.368 175.029 109.559 174.917C109.749 174.804 110.011 174.643 110.343 174.433C110.389 174.404 110.44 174.398 110.496 174.414C110.556 174.425 110.601 174.456 110.631 174.507C110.664 174.552 110.675 174.605 110.664 174.665C110.652 174.72 110.619 174.765 110.565 174.801C110.371 174.919 110.193 175.026 110.033 175.123C109.872 175.219 109.728 175.303 109.6 175.373C109.429 175.467 109.298 175.536 109.207 175.579C109.115 175.618 109.044 175.643 108.994 175.654ZM111.268 175.645C111.236 175.651 111.203 175.654 111.169 175.652C111.136 175.654 111.103 175.656 111.071 175.658C110.983 175.653 110.916 175.618 110.869 175.552C110.808 175.469 110.784 175.36 110.798 175.223C110.815 175.081 110.852 174.896 110.908 174.669C110.918 174.629 110.928 174.584 110.936 174.535C110.949 174.484 110.96 174.436 110.97 174.391C110.915 174.427 110.86 174.479 110.803 174.549C110.75 174.613 110.695 174.679 110.639 174.749C110.6 174.791 110.553 174.815 110.497 174.822C110.436 174.826 110.382 174.811 110.337 174.778C110.295 174.739 110.273 174.691 110.27 174.635C110.263 174.579 110.276 174.526 110.308 174.476C110.362 174.417 110.417 174.353 110.474 174.283C110.535 174.213 110.598 174.151 110.664 174.099C110.83 173.963 110.996 173.901 111.161 173.913C111.237 173.911 111.301 173.945 111.354 174.015C111.407 174.08 111.424 174.172 111.406 174.29C111.393 174.408 111.361 174.57 111.31 174.776C111.299 174.836 111.286 174.896 111.27 174.957C111.259 175.016 111.248 175.074 111.236 175.129C111.235 175.148 111.232 175.166 111.226 175.181C111.224 175.196 111.222 175.21 111.221 175.225C111.314 175.191 111.443 175.113 111.607 174.992C111.776 174.865 111.99 174.642 112.251 174.323C112.392 174.155 112.517 173.994 112.627 173.842C112.737 173.684 112.824 173.556 112.888 173.456C112.953 173.356 112.985 173.306 112.985 173.306C113.026 173.231 113.088 173.196 113.17 173.202C113.208 173.199 113.241 173.208 113.269 173.231C113.297 173.249 113.32 173.268 113.339 173.288C113.384 173.345 113.403 173.419 113.394 173.512C113.389 173.599 113.368 173.744 113.33 173.948C113.316 174.013 113.301 174.079 113.287 174.144C113.277 174.208 113.266 174.268 113.254 174.323C113.253 174.342 113.252 174.359 113.25 174.374C113.252 174.383 113.252 174.392 113.249 174.402C113.333 174.37 113.416 174.314 113.499 174.234C113.586 174.149 113.667 174.057 113.741 173.96C113.82 173.862 113.886 173.779 113.938 173.71C113.975 173.659 114.021 173.63 114.077 173.623C114.133 173.616 114.185 173.628 114.235 173.66C114.282 173.698 114.308 173.745 114.316 173.801C114.327 173.855 114.315 173.908 114.278 173.959C114.163 174.113 114.042 174.261 113.915 174.402C113.793 174.543 113.662 174.657 113.523 174.744C113.388 174.826 113.241 174.865 113.083 174.861C113.003 174.844 112.941 174.81 112.896 174.758C112.855 174.7 112.83 174.631 112.823 174.551C112.82 174.471 112.827 174.369 112.843 174.246C112.803 174.303 112.76 174.357 112.714 174.41C112.672 174.462 112.628 174.519 112.579 174.582C112.056 175.215 111.619 175.569 111.268 175.645ZM116.666 174.004C116.634 174.011 116.604 174.013 116.574 174.01C116.484 174.01 116.411 173.971 116.356 173.892C116.312 173.82 116.3 173.732 116.32 173.627C116.345 173.522 116.382 173.402 116.429 173.267C116.448 173.221 116.464 173.174 116.478 173.128C116.496 173.077 116.51 173.031 116.52 172.99C116.526 172.975 116.531 172.962 116.533 172.952C116.535 172.937 116.537 172.925 116.539 172.914C116.398 172.921 116.237 172.951 116.057 173.004C115.882 173.051 115.688 173.129 115.477 173.236C115.292 173.328 115.094 173.44 114.884 173.571C114.677 173.697 114.46 173.841 114.232 174.005C114.186 174.034 114.136 174.045 114.082 174.037C114.027 174.03 113.984 174.003 113.95 173.958C113.912 173.914 113.898 173.862 113.909 173.802C113.919 173.738 113.948 173.691 113.994 173.662C114.225 173.493 114.448 173.343 114.663 173.211C114.881 173.073 115.09 172.956 115.289 172.861C115.82 172.599 116.274 172.478 116.65 172.497C116.761 172.502 116.848 172.55 116.91 172.641C116.973 172.733 116.988 172.847 116.955 172.983C116.922 173.119 116.879 173.261 116.825 173.411C116.823 173.422 116.818 173.434 116.812 173.45C116.806 173.466 116.8 173.484 116.795 173.504C116.895 173.458 117.04 173.379 117.231 173.267C117.422 173.154 117.683 172.993 118.015 172.783C118.061 172.754 118.112 172.748 118.168 172.765C118.228 172.776 118.273 172.807 118.303 172.857C118.337 172.903 118.348 172.955 118.337 173.015C118.325 173.07 118.292 173.115 118.237 173.151C118.043 173.269 117.866 173.376 117.705 173.473C117.544 173.569 117.4 173.653 117.272 173.724C117.101 173.818 116.97 173.886 116.879 173.93C116.788 173.968 116.717 173.993 116.666 174.004ZM118.94 173.995C118.908 174.002 118.875 174.004 118.842 174.002C118.809 174.004 118.776 174.006 118.743 174.009C118.656 174.004 118.588 173.968 118.541 173.902C118.48 173.819 118.457 173.71 118.47 173.573C118.487 173.431 118.524 173.247 118.58 173.02C118.591 172.979 118.6 172.934 118.609 172.885C118.622 172.834 118.633 172.787 118.642 172.742C118.588 172.777 118.532 172.83 118.476 172.899C118.422 172.963 118.368 173.03 118.311 173.099C118.272 173.141 118.225 173.165 118.169 173.173C118.108 173.176 118.055 173.161 118.009 173.128C117.968 173.089 117.945 173.042 117.943 172.985C117.936 172.929 117.948 172.876 117.98 172.827C118.034 172.767 118.09 172.703 118.146 172.633C118.208 172.563 118.271 172.502 118.336 172.449C118.502 172.313 118.668 172.251 118.833 172.264C118.909 172.262 118.974 172.296 119.027 172.365C119.079 172.43 119.096 172.522 119.079 172.64C119.066 172.758 119.034 172.92 118.983 173.127C118.972 173.186 118.958 173.246 118.943 173.307C118.932 173.367 118.92 173.424 118.908 173.479C118.908 173.498 118.904 173.516 118.898 173.531C118.896 173.546 118.895 173.561 118.893 173.575C118.986 173.541 119.115 173.463 119.28 173.342C119.448 173.215 119.663 172.992 119.924 172.674C120.064 172.505 120.189 172.344 120.3 172.192C120.409 172.035 120.496 171.906 120.56 171.806C120.625 171.707 120.657 171.657 120.657 171.657C120.698 171.581 120.76 171.546 120.842 171.552C120.88 171.549 120.913 171.559 120.942 171.581C120.969 171.599 120.993 171.618 121.011 171.638C121.057 171.695 121.075 171.77 121.067 171.862C121.061 171.949 121.04 172.095 121.003 172.298C120.988 172.364 120.974 172.429 120.959 172.494C120.949 172.558 120.938 172.618 120.926 172.673C120.925 172.692 120.924 172.709 120.922 172.724C120.924 172.733 120.924 172.743 120.921 172.753C121.005 172.72 121.089 172.664 121.172 172.584C121.258 172.499 121.339 172.407 121.413 172.31C121.493 172.212 121.558 172.129 121.61 172.06C121.647 172.009 121.693 171.98 121.749 171.973C121.805 171.966 121.858 171.979 121.908 172.011C121.954 172.049 121.981 172.095 121.988 172.151C122 172.206 121.987 172.259 121.95 172.309C121.835 172.463 121.714 172.611 121.587 172.753C121.465 172.894 121.334 173.008 121.195 173.095C121.06 173.176 120.913 173.215 120.755 173.211C120.675 173.195 120.613 173.16 120.568 173.108C120.527 173.05 120.503 172.981 120.495 172.902C120.492 172.821 120.499 172.719 120.516 172.596C120.475 172.653 120.432 172.707 120.386 172.76C120.345 172.812 120.3 172.87 120.251 172.933C119.729 173.565 119.292 173.919 118.94 173.995ZM86.6802 187.612C86.6483 187.619 86.6176 187.621 86.5883 187.617C86.4977 187.618 86.4248 187.579 86.3697 187.5C86.3256 187.428 86.3138 187.34 86.3343 187.235C86.3593 187.13 86.3956 187.01 86.4431 186.875C86.4616 186.828 86.4779 186.782 86.4918 186.736C86.5094 186.684 86.5234 186.638 86.5338 186.598C86.54 186.582 86.5444 186.57 86.547 186.559C86.5486 186.545 86.5507 186.532 86.5533 186.522C86.4115 186.529 86.2509 186.559 86.0713 186.612C85.8953 186.659 85.7019 186.736 85.4911 186.844C85.3058 186.936 85.1078 187.048 84.8974 187.179C84.6905 187.305 84.4734 187.449 84.246 187.613C84.1997 187.642 84.1495 187.653 84.0954 187.645C84.0413 187.638 83.9974 187.611 83.9638 187.566C83.9257 187.522 83.9121 187.47 83.9231 187.41C83.9332 187.346 83.9614 187.299 84.0076 187.27C84.2386 187.101 84.4616 186.951 84.6766 186.818C84.8952 186.681 85.1041 186.564 85.3031 186.469C85.8339 186.207 86.2875 186.085 86.664 186.105C86.7748 186.109 86.8615 186.158 86.9242 186.249C86.9868 186.341 87.0017 186.454 86.9689 186.59C86.9361 186.726 86.8928 186.869 86.8392 187.019C86.8366 187.029 86.8322 187.042 86.826 187.058C86.8198 187.074 86.8141 187.091 86.8089 187.112C86.909 187.066 87.0543 186.987 87.2449 186.875C87.4354 186.762 87.6967 186.601 88.0287 186.391C88.075 186.362 88.1261 186.356 88.1822 186.372C88.2419 186.384 88.2867 186.414 88.3167 186.465C88.3503 186.511 88.3616 186.563 88.3506 186.623C88.3386 186.678 88.3053 186.723 88.2509 186.759C88.0568 186.877 87.8794 186.984 87.7187 187.081C87.5581 187.177 87.4138 187.261 87.2858 187.331C87.115 187.425 86.9842 187.494 86.8933 187.537C86.8014 187.576 86.7304 187.601 86.6802 187.612ZM88.9541 187.603C88.9222 187.61 88.8893 187.612 88.8554 187.61C88.8225 187.612 88.7896 187.614 88.7566 187.617C88.6696 187.611 88.6023 187.576 88.5547 187.51C88.494 187.427 88.4704 187.318 88.484 187.181C88.5012 187.039 88.5379 186.854 88.5941 186.628C88.6045 186.587 88.6139 186.542 88.6224 186.493C88.6354 186.442 88.6466 186.394 88.656 186.349C88.6016 186.385 88.5461 186.437 88.4894 186.507C88.4363 186.571 88.3815 186.638 88.3248 186.707C88.286 186.749 88.2388 186.773 88.1831 186.78C88.1218 186.784 88.0685 186.769 88.0232 186.736C87.9814 186.697 87.9592 186.65 87.9566 186.593C87.9494 186.537 87.9619 186.484 87.9941 186.434C88.0482 186.375 88.1035 186.311 88.1602 186.241C88.2214 186.171 88.2846 186.109 88.3497 186.057C88.5162 185.921 88.6819 185.859 88.8468 185.872C88.9228 185.87 88.9873 185.903 89.0405 185.973C89.0927 186.038 89.11 186.13 89.0925 186.248C89.0796 186.366 89.0476 186.528 88.9966 186.734C88.9855 186.794 88.9722 186.854 88.9566 186.915C88.9456 186.974 88.934 187.032 88.922 187.087C88.9214 187.106 88.918 187.124 88.9118 187.139C88.9102 187.154 88.9085 187.169 88.9069 187.183C88.9998 187.149 89.1286 187.071 89.2935 186.95C89.4619 186.823 89.6765 186.6 89.9374 186.281C90.0777 186.113 90.2031 185.952 90.3135 185.8C90.4229 185.642 90.5098 185.514 90.5743 185.414C90.6387 185.314 90.671 185.265 90.671 185.265C90.712 185.189 90.7737 185.154 90.8562 185.16C90.8937 185.157 90.9268 185.167 90.9555 185.189C90.9832 185.207 91.0063 185.226 91.0249 185.246C91.0706 185.303 91.0891 185.377 91.0803 185.47C91.0752 185.557 91.0539 185.702 91.0166 185.906C91.002 185.971 90.9874 186.037 90.9727 186.102C90.9627 186.166 90.9516 186.226 90.9396 186.281C90.939 186.3 90.9379 186.317 90.9362 186.332C90.9382 186.341 90.9379 186.35 90.9353 186.36C91.019 186.328 91.1024 186.272 91.1855 186.192C91.2721 186.107 91.3527 186.015 91.4273 185.918C91.5064 185.82 91.572 185.737 91.6241 185.668C91.6609 185.617 91.7072 185.588 91.7629 185.581C91.8187 185.574 91.8715 185.586 91.9214 185.619C91.9677 185.656 91.9944 185.703 92.0016 185.759C92.0134 185.814 92.0009 185.866 91.9641 185.917C91.8492 186.071 91.7282 186.219 91.6012 186.36C91.4787 186.501 91.3481 186.615 91.2093 186.702C91.0741 186.784 90.9273 186.823 90.7689 186.819C90.689 186.802 90.6267 186.768 90.5821 186.716C90.5409 186.658 90.5166 186.589 90.5091 186.509C90.5061 186.429 90.5128 186.327 90.5294 186.204C90.489 186.261 90.4459 186.315 90.3999 186.368C90.3586 186.42 90.3136 186.477 90.2651 186.54C89.7424 187.173 89.3055 187.527 88.9541 187.603ZM95.9247 186.104C95.8928 186.111 95.8599 186.113 95.826 186.111C95.793 186.113 95.7601 186.115 95.7272 186.118C95.6402 186.113 95.5728 186.077 95.5252 186.011C95.4645 185.928 95.441 185.819 95.4546 185.682C95.4717 185.54 95.5084 185.356 95.5647 185.129C95.5751 185.088 95.5845 185.043 95.5929 184.994C95.6059 184.943 95.6171 184.895 95.6266 184.85C95.5722 184.886 95.5166 184.939 95.46 185.008C95.4069 185.072 95.352 185.139 95.2953 185.208C95.2566 185.25 95.2093 185.274 95.1536 185.282C95.0923 185.285 95.039 185.27 94.9937 185.237C94.952 185.198 94.9298 185.151 94.9271 185.094C94.9199 185.038 94.9324 184.985 94.9647 184.936C95.0187 184.876 95.0741 184.812 95.1307 184.742C95.192 184.672 95.2552 184.611 95.3203 184.558C95.4868 184.422 95.6525 184.36 95.8174 184.373C95.8933 184.371 95.9579 184.405 96.0111 184.474C96.0633 184.539 96.0806 184.631 96.0631 184.749C96.0501 184.867 96.0181 185.029 95.9671 185.236C95.9561 185.295 95.9428 185.355 95.9272 185.416C95.9161 185.476 95.9046 185.533 95.8926 185.588C95.8919 185.607 95.8885 185.625 95.8823 185.64C95.8807 185.655 95.8791 185.67 95.8775 185.684C95.9703 185.65 96.0992 185.572 96.264 185.451C96.4324 185.324 96.6471 185.101 96.9079 184.783C97.0483 184.614 97.1737 184.453 97.284 184.301C97.3934 184.144 97.4804 184.015 97.5448 183.915C97.6093 183.816 97.6415 183.766 97.6415 183.766C97.6826 183.69 97.7443 183.655 97.8268 183.661C97.8642 183.658 97.8973 183.668 97.926 183.69C97.9537 183.708 97.9769 183.727 97.9955 183.747C98.0412 183.804 98.0596 183.879 98.0509 183.971C98.0457 184.058 98.0245 184.204 97.9872 184.407C97.9725 184.473 97.9579 184.538 97.9433 184.603C97.9332 184.667 97.9222 184.727 97.9102 184.782C97.9095 184.801 97.9084 184.818 97.9068 184.833C97.9088 184.842 97.9084 184.851 97.9058 184.862C97.9896 184.829 98.073 184.773 98.156 184.693C98.2427 184.608 98.3233 184.516 98.3978 184.419C98.477 184.321 98.5426 184.238 98.5947 184.169C98.6315 184.118 98.6777 184.089 98.7335 184.082C98.7892 184.075 98.842 184.087 98.8919 184.12C98.9382 184.157 98.965 184.204 98.9722 184.26C98.984 184.315 98.9714 184.368 98.9347 184.418C98.8197 184.572 98.6987 184.72 98.5717 184.862C98.4493 185.002 98.3186 185.117 98.1799 185.204C98.0447 185.285 97.8978 185.324 97.7394 185.32C97.6596 185.304 97.5973 185.269 97.5526 185.217C97.5115 185.159 97.4872 185.09 97.4796 185.011C97.4766 184.93 97.4834 184.828 97.4999 184.705C97.4596 184.762 97.4164 184.816 97.3705 184.869C97.3291 184.921 97.2842 184.979 97.2357 185.041C96.713 185.674 96.276 186.028 95.9247 186.104ZM101.323 184.463C101.291 184.47 101.26 184.472 101.231 184.469C101.141 184.469 101.068 184.43 101.013 184.351C100.968 184.279 100.957 184.191 100.977 184.087C101.002 183.981 101.038 183.861 101.086 183.727C101.104 183.68 101.121 183.633 101.135 183.587C101.152 183.536 101.166 183.49 101.177 183.449C101.183 183.434 101.187 183.421 101.19 183.411C101.191 183.396 101.194 183.384 101.196 183.374C101.054 183.38 100.894 183.41 100.714 183.463C100.538 183.51 100.345 183.588 100.134 183.695C99.9486 183.787 99.7507 183.899 99.5402 184.03C99.3333 184.156 99.1162 184.301 98.8888 184.464C98.8426 184.493 98.7924 184.504 98.7383 184.496C98.6841 184.489 98.6403 184.463 98.6067 184.417C98.5685 184.373 98.555 184.321 98.566 184.261C98.5761 184.197 98.6042 184.151 98.6505 184.122C98.8814 183.953 99.1044 183.802 99.3195 183.67C99.5381 183.532 99.7469 183.416 99.946 183.32C100.477 183.058 100.93 182.937 101.307 182.956C101.418 182.961 101.504 183.009 101.567 183.101C101.63 183.192 101.645 183.306 101.612 183.442C101.579 183.578 101.536 183.721 101.482 183.871C101.479 183.881 101.475 183.894 101.469 183.909C101.463 183.925 101.457 183.943 101.452 183.963C101.552 183.918 101.697 183.839 101.888 183.726C102.078 183.614 102.34 183.452 102.672 183.243C102.718 183.214 102.769 183.207 102.825 183.224C102.885 183.235 102.93 183.266 102.96 183.317C102.993 183.362 103.004 183.414 102.993 183.474C102.981 183.529 102.948 183.574 102.894 183.61C102.7 183.728 102.522 183.836 102.362 183.932C102.201 184.029 102.057 184.112 101.929 184.183C101.758 184.277 101.627 184.345 101.536 184.389C101.444 184.428 101.373 184.453 101.323 184.463ZM103.597 184.454C103.565 184.461 103.532 184.463 103.498 184.461C103.465 184.463 103.432 184.466 103.399 184.468C103.312 184.463 103.245 184.427 103.197 184.361C103.137 184.279 103.113 184.169 103.127 184.032C103.144 183.89 103.181 183.706 103.237 183.479C103.247 183.439 103.257 183.394 103.265 183.344C103.278 183.293 103.289 183.246 103.299 183.201C103.244 183.236 103.189 183.289 103.132 183.358C103.079 183.422 103.024 183.489 102.968 183.558C102.929 183.6 102.882 183.625 102.826 183.632C102.765 183.635 102.711 183.621 102.666 183.587C102.624 183.549 102.602 183.501 102.599 183.444C102.592 183.388 102.605 183.336 102.637 183.286C102.691 183.226 102.746 183.162 102.803 183.093C102.864 183.022 102.927 182.961 102.993 182.909C103.159 182.773 103.325 182.711 103.49 182.723C103.566 182.721 103.63 182.755 103.683 182.825C103.736 182.89 103.753 182.981 103.735 183.1C103.722 183.217 103.69 183.379 103.639 183.586C103.628 183.645 103.615 183.706 103.599 183.766C103.588 183.826 103.577 183.883 103.565 183.938C103.564 183.958 103.561 183.975 103.555 183.991C103.553 184.005 103.551 184.02 103.55 184.035C103.643 184 103.771 183.923 103.936 183.801C104.105 183.674 104.319 183.451 104.58 183.133C104.721 182.964 104.846 182.804 104.956 182.651C105.066 182.494 105.153 182.365 105.217 182.266C105.282 182.166 105.314 182.116 105.314 182.116C105.355 182.04 105.417 182.006 105.499 182.012C105.537 182.008 105.57 182.018 105.598 182.04C105.626 182.058 105.649 182.077 105.668 182.097C105.713 182.154 105.732 182.229 105.723 182.321C105.718 182.408 105.697 182.554 105.659 182.758C105.645 182.823 105.63 182.888 105.616 182.953C105.606 183.017 105.594 183.077 105.582 183.132C105.582 183.151 105.581 183.168 105.579 183.183C105.581 183.192 105.581 183.202 105.578 183.212C105.662 183.18 105.745 183.123 105.828 183.043C105.915 182.958 105.996 182.867 106.07 182.77C106.149 182.671 106.215 182.588 106.267 182.52C106.304 182.469 106.35 182.44 106.406 182.432C106.461 182.425 106.514 182.438 106.564 182.47C106.611 182.508 106.637 182.554 106.644 182.61C106.656 182.665 106.644 182.718 106.607 182.769C106.492 182.922 106.371 183.07 106.244 183.212C106.122 183.353 105.991 183.467 105.852 183.554C105.717 183.635 105.57 183.674 105.412 183.67C105.332 183.654 105.27 183.619 105.225 183.567C105.184 183.509 105.159 183.44 105.152 183.361C105.149 183.28 105.156 183.179 105.172 183.056C105.132 183.112 105.089 183.167 105.043 183.22C105.001 183.271 104.956 183.329 104.908 183.392C104.385 184.024 103.948 184.379 103.597 184.454ZM107.239 183.671C107.207 183.678 107.174 183.68 107.141 183.678C107.108 183.68 107.075 183.682 107.042 183.685C106.955 183.68 106.887 183.644 106.84 183.578C106.779 183.495 106.756 183.386 106.769 183.249C106.786 183.107 106.823 182.923 106.879 182.696C106.89 182.655 106.899 182.61 106.908 182.561C106.921 182.51 106.932 182.463 106.941 182.418C106.887 182.453 106.831 182.506 106.775 182.575C106.722 182.639 106.667 182.706 106.61 182.775C106.571 182.817 106.524 182.841 106.468 182.849C106.407 182.852 106.354 182.837 106.308 182.804C106.267 182.765 106.244 182.718 106.242 182.661C106.235 182.605 106.247 182.552 106.279 182.503C106.333 182.443 106.389 182.379 106.445 182.309C106.507 182.239 106.57 182.178 106.635 182.125C106.801 181.989 106.967 181.927 107.132 181.94C107.208 181.938 107.273 181.972 107.326 182.041C107.378 182.106 107.395 182.198 107.378 182.317C107.365 182.434 107.333 182.596 107.282 182.803C107.271 182.862 107.257 182.922 107.242 182.983C107.231 183.043 107.219 183.1 107.207 183.155C107.207 183.174 107.203 183.192 107.197 183.207C107.195 183.222 107.194 183.237 107.192 183.251C107.285 183.217 107.414 183.139 107.579 183.018C107.747 182.891 107.962 182.668 108.223 182.35C108.363 182.181 108.488 182.02 108.599 181.868C108.708 181.711 108.795 181.582 108.859 181.482C108.924 181.383 108.956 181.333 108.956 181.333C108.997 181.257 109.059 181.222 109.141 181.228C109.179 181.225 109.212 181.235 109.241 181.257C109.268 181.275 109.292 181.294 109.31 181.314C109.356 181.371 109.374 181.446 109.366 181.538C109.36 181.625 109.339 181.771 109.302 181.974C109.287 182.04 109.273 182.105 109.258 182.17C109.248 182.234 109.237 182.294 109.225 182.349C109.224 182.368 109.223 182.385 109.221 182.4C109.223 182.409 109.223 182.419 109.22 182.429C109.304 182.396 109.388 182.34 109.471 182.26C109.557 182.175 109.638 182.084 109.712 181.986C109.792 181.888 109.857 181.805 109.909 181.736C109.946 181.685 109.992 181.656 110.048 181.649C110.104 181.642 110.157 181.655 110.207 181.687C110.253 181.725 110.28 181.771 110.287 181.827C110.299 181.882 110.286 181.935 110.249 181.985C110.134 182.139 110.013 182.287 109.886 182.429C109.764 182.57 109.633 182.684 109.494 182.771C109.359 182.852 109.212 182.891 109.054 182.887C108.974 182.871 108.912 182.836 108.867 182.784C108.826 182.726 108.802 182.657 108.794 182.578C108.791 182.497 108.798 182.395 108.815 182.272C108.774 182.329 108.731 182.384 108.685 182.436C108.644 182.488 108.599 182.546 108.55 182.609C108.028 183.241 107.591 183.595 107.239 183.671ZM110.882 182.888C110.85 182.895 110.817 182.897 110.783 182.895C110.75 182.897 110.717 182.899 110.684 182.902C110.597 182.896 110.53 182.861 110.482 182.795C110.421 182.712 110.398 182.603 110.412 182.466C110.429 182.324 110.465 182.139 110.522 181.913C110.532 181.872 110.541 181.827 110.55 181.778C110.563 181.727 110.574 181.679 110.584 181.634C110.529 181.67 110.474 181.722 110.417 181.792C110.364 181.856 110.309 181.923 110.252 181.992C110.214 182.034 110.166 182.058 110.111 182.065C110.049 182.069 109.996 182.054 109.951 182.021C109.909 181.982 109.887 181.935 109.884 181.878C109.877 181.822 109.889 181.769 109.922 181.719C109.976 181.66 110.031 181.596 110.088 181.526C110.149 181.456 110.212 181.394 110.277 181.342C110.444 181.206 110.609 181.144 110.774 181.157C110.85 181.155 110.915 181.188 110.968 181.258C111.02 181.323 111.038 181.415 111.02 181.533C111.007 181.651 110.975 181.813 110.924 182.019C110.913 182.079 110.9 182.139 110.884 182.2C110.873 182.259 110.862 182.317 110.85 182.372C110.849 182.391 110.845 182.409 110.839 182.424C110.838 182.439 110.836 182.454 110.834 182.468C110.927 182.434 111.056 182.356 111.221 182.235C111.389 182.108 111.604 181.885 111.865 181.566C112.005 181.398 112.131 181.237 112.241 181.085C112.35 180.927 112.437 180.799 112.502 180.699C112.566 180.599 112.598 180.55 112.598 180.55C112.64 180.474 112.701 180.439 112.784 180.445C112.821 180.442 112.854 180.452 112.883 180.474C112.911 180.492 112.934 180.511 112.952 180.531C112.998 180.588 113.017 180.662 113.008 180.755C113.003 180.842 112.981 180.987 112.944 181.191C112.929 181.256 112.915 181.322 112.9 181.387C112.89 181.451 112.879 181.511 112.867 181.566C112.866 181.585 112.865 181.602 112.864 181.617C112.866 181.626 112.865 181.635 112.863 181.645C112.947 181.613 113.03 181.557 113.113 181.477C113.2 181.392 113.28 181.3 113.355 181.203C113.434 181.105 113.5 181.022 113.552 180.953C113.588 180.902 113.635 180.873 113.69 180.866C113.746 180.859 113.799 180.871 113.849 180.904C113.895 180.941 113.922 180.988 113.929 181.044C113.941 181.099 113.928 181.151 113.892 181.202C113.777 181.356 113.656 181.504 113.529 181.645C113.406 181.786 113.276 181.9 113.137 181.987C113.002 182.069 112.855 182.108 112.696 182.104C112.617 182.087 112.554 182.053 112.51 182.001C112.468 181.943 112.444 181.874 112.437 181.794C112.434 181.714 112.44 181.612 112.457 181.489C112.417 181.546 112.373 181.6 112.327 181.653C112.286 181.705 112.241 181.762 112.193 181.825C111.67 182.458 111.233 182.812 110.882 182.888ZM114.524 182.104C114.492 182.111 114.459 182.114 114.425 182.111C114.392 182.114 114.359 182.116 114.326 182.118C114.239 182.113 114.172 182.078 114.124 182.011C114.064 181.929 114.04 181.819 114.054 181.683C114.071 181.541 114.108 181.356 114.164 181.129C114.174 181.089 114.184 181.044 114.192 180.994C114.205 180.944 114.216 180.896 114.226 180.851C114.171 180.887 114.116 180.939 114.059 181.009C114.006 181.073 113.951 181.139 113.895 181.209C113.856 181.251 113.809 181.275 113.753 181.282C113.692 181.286 113.638 181.271 113.593 181.238C113.551 181.199 113.529 181.151 113.526 181.095C113.519 181.039 113.532 180.986 113.564 180.936C113.618 180.877 113.673 180.812 113.73 180.743C113.791 180.673 113.854 180.611 113.92 180.559C114.086 180.423 114.252 180.361 114.417 180.373C114.493 180.371 114.557 180.405 114.61 180.475C114.663 180.54 114.68 180.632 114.662 180.75C114.649 180.867 114.617 181.029 114.566 181.236C114.555 181.296 114.542 181.356 114.526 181.417C114.515 181.476 114.504 181.534 114.492 181.589C114.491 181.608 114.488 181.625 114.482 181.641C114.48 181.656 114.478 181.67 114.477 181.685C114.57 181.651 114.698 181.573 114.863 181.452C115.032 181.325 115.246 181.102 115.507 180.783C115.648 180.615 115.773 180.454 115.883 180.301C115.993 180.144 116.08 180.016 116.144 179.916C116.209 179.816 116.241 179.766 116.241 179.766C116.282 179.691 116.344 179.656 116.426 179.662C116.464 179.659 116.497 179.668 116.525 179.691C116.553 179.709 116.576 179.728 116.595 179.747C116.64 179.804 116.659 179.879 116.65 179.972C116.645 180.059 116.624 180.204 116.586 180.408C116.572 180.473 116.557 180.538 116.543 180.604C116.533 180.668 116.521 180.727 116.509 180.783C116.509 180.802 116.508 180.819 116.506 180.833C116.508 180.843 116.508 180.852 116.505 180.862C116.589 180.83 116.672 180.774 116.755 180.694C116.842 180.608 116.923 180.517 116.997 180.42C117.076 180.322 117.142 180.238 117.194 180.17C117.231 180.119 117.277 180.09 117.333 180.083C117.388 180.076 117.441 180.088 117.491 180.12C117.538 180.158 117.564 180.205 117.571 180.261C117.583 180.315 117.571 180.368 117.534 180.419C117.419 180.573 117.298 180.72 117.171 180.862C117.049 181.003 116.918 181.117 116.779 181.204C116.644 181.286 116.497 181.325 116.339 181.32C116.259 181.304 116.197 181.27 116.152 181.217C116.111 181.159 116.086 181.091 116.079 181.011C116.076 180.931 116.083 180.829 116.099 180.706C116.059 180.762 116.016 180.817 115.97 180.87C115.928 180.922 115.883 180.979 115.835 181.042C115.312 181.675 114.875 182.029 114.524 182.104Z" fill="#1E2675"/>
</g>
<g clip-path="url(#clip2_620_3251)">
<path d="M220.565 133.57C221.188 134.883 221.352 136.367 221.031 137.784C219.411 143.437 214.204 146.491 212.554 147.493C206.597 151.097 199.161 156.811 184.332 168.215C167.307 181.305 168.517 189.042 158.446 191.559C150.595 193.525 141.91 190.8 132.8 184.586C131.715 183.853 130.83 182.86 130.228 181.697C127.663 177.283 125.517 172.638 123.817 167.824C123.671 167.414 123.536 167.022 123.403 166.616C126.195 171.112 130.348 174.6 135.259 176.573C145.722 180.6 155.347 175.41 157.421 174.288C159.495 173.165 160.435 172.367 165.988 167.469C169.253 164.575 170.587 163.802 181.891 153.259C195.933 140.161 211.815 123.732 214.549 120.894C217.805 127.203 219.926 131.952 220.565 133.57Z" fill="#F79E4F"/>
<path d="M210.907 128.846L158.167 174.798C156.304 176.438 154.038 177.553 151.602 178.029C150.134 178.308 148.647 178.475 147.154 178.527C145.5 178.59 131.292 178.93 124.564 169.15L124.524 169.081C123.628 167.786 123.163 166.241 123.195 164.666C123.227 163.091 123.755 161.567 124.703 160.309C129.471 153.996 134.712 148.056 140.382 142.538C151.582 131.643 164.339 122.472 178.234 115.325C181.104 113.864 184.326 113.238 187.534 113.519C205.122 114.956 214.282 117.834 215.016 122.152C215.37 124.085 214 126.317 210.907 128.846Z" fill="#FA6257"/>
<path d="M192.958 120.595C197.145 118.168 198.571 112.806 196.143 108.62C193.716 104.433 188.354 103.008 184.168 105.435C179.982 107.862 178.556 113.224 180.983 117.41C183.41 121.596 188.772 123.022 192.958 120.595Z" fill="#F7EEC1"/>
<path d="M169.966 188.523C174.152 186.095 175.578 180.734 173.151 176.548C170.724 172.361 165.362 170.935 161.176 173.363C156.989 175.79 155.563 181.152 157.991 185.338C160.418 189.524 165.78 190.95 169.966 188.523Z" fill="#F7EEC1"/>
<path d="M214.508 124.47C217.078 122.979 217.954 119.687 216.463 117.116C214.973 114.545 211.681 113.67 209.11 115.16C206.539 116.651 205.663 119.943 207.154 122.514C208.645 125.085 211.937 125.96 214.508 124.47Z" fill="#F7EEC1"/>
<path d="M195.445 105.114C198.016 103.624 198.892 100.331 197.401 97.7607C195.91 95.19 192.618 94.3143 190.047 95.8049C187.477 97.2955 186.601 100.588 188.092 103.159C189.582 105.729 192.874 106.605 195.445 105.114Z" fill="#F7EEC1"/>
<path d="M156.295 182.413C158.866 180.923 159.741 177.63 158.251 175.06C156.76 172.489 153.468 171.613 150.897 173.104C148.326 174.594 147.451 177.887 148.941 180.457C150.432 183.028 153.724 183.904 156.295 182.413Z" fill="#F7EEC1"/>
<path d="M161.057 171.236C162.463 170.42 162.942 168.619 162.127 167.213C161.311 165.806 159.51 165.327 158.103 166.142C156.697 166.958 156.218 168.759 157.033 170.166C157.849 171.572 159.65 172.052 161.057 171.236Z" fill="#F7EEC1"/>
<path d="M148.467 188.722C149.873 187.907 150.353 186.105 149.537 184.699C148.721 183.292 146.92 182.813 145.514 183.629C144.107 184.444 143.628 186.246 144.443 187.652C145.259 189.059 147.06 189.538 148.467 188.722Z" fill="#F7EEC1"/>
<path d="M212.432 113.234C213.838 112.418 214.317 110.617 213.502 109.211C212.686 107.804 210.885 107.325 209.478 108.14C208.072 108.956 207.593 110.757 208.408 112.164C209.224 113.57 211.025 114.05 212.432 113.234Z" fill="#F7EEC1"/>
<path d="M205.352 124.501C208.593 122.622 209.697 118.472 207.818 115.231C205.939 111.99 201.788 110.886 198.548 112.766C195.307 114.645 194.203 118.795 196.082 122.036C197.961 125.277 202.112 126.38 205.352 124.501Z" fill="#F7EEC1"/>
<path d="M203.464 116.148C206.704 114.269 207.808 110.118 205.929 106.878C204.05 103.637 199.9 102.533 196.659 104.412C193.418 106.291 192.314 110.442 194.193 113.682C196.072 116.923 200.223 118.027 203.464 116.148Z" fill="#F7EEC1"/>
<path d="M159.657 194.499C162.898 192.62 164.002 188.47 162.123 185.229C160.243 181.988 156.093 180.885 152.852 182.764C149.612 184.643 148.508 188.793 150.387 192.034C152.266 195.275 156.416 196.378 159.657 194.499Z" fill="#F7EEC1"/>
</g>
</g>
<defs>
<clipPath id="clip0_620_3251">
<rect width="240" height="240" rx="120" fill="white"/>
</clipPath>
<clipPath id="clip1_620_3251">
<rect width="91.0235" height="225.163" fill="white" transform="translate(21 49.1348) rotate(-12.1354)"/>
</clipPath>
<clipPath id="clip2_620_3251">
<rect width="108.408" height="70.1368" fill="white" transform="translate(108 143.379) rotate(-30.1066)"/>
</clipPath>
</defs>
</svg>
