<svg width="240" height="240" viewBox="0 0 240 240" fill="none" xmlns="http://www.w3.org/2000/svg">
<g clip-path="url(#clip0_351_169)">
<rect width="240" height="240" rx="120" fill="#F6CA73"/>
<g clip-path="url(#clip1_351_169)">
<path d="M222.608 175.54C219.081 161.763 209.41 151.159 197.252 145.872C197.68 142.541 197.508 139.078 196.624 135.628C192.872 120.976 177.884 112.121 163.144 115.852C148.409 119.583 139.503 134.485 143.255 149.142C143.954 151.871 145.045 154.402 146.451 156.687C140.731 162.958 136.886 170.785 135.472 179.219C129.607 171.809 121.501 166.461 112.436 163.934C112.454 161.636 112.18 159.302 111.583 156.973C107.831 142.321 92.8433 133.466 78.1033 137.197C63.3678 140.928 54.462 155.83 58.2143 170.486C59.2751 174.626 61.2331 178.304 63.8275 181.363C56.7381 191.541 53.9537 204.598 57.2641 217.536C63.3369 241.245 87.5882 255.567 111.433 249.529C112.184 249.34 112.931 249.129 113.665 248.905C124.21 262.37 142.128 269.107 159.825 264.624C177.57 260.128 190.087 245.622 192.827 228.72C215.222 221.719 228.464 198.441 222.599 175.545L222.608 175.54Z" fill="#1E2675"/>
<path d="M166.105 145.2C172.342 169.555 158.742 199.012 134.248 205.213C109.753 211.414 83.6413 192.016 77.405 167.661C71.1687 143.306 85.9661 118.533 110.461 112.332C134.955 106.131 159.869 120.844 166.105 145.2Z" fill="#FA6257"/>
<path d="M78.4039 163.042C78.4171 163.139 78.4348 163.227 78.4525 163.323L78.4039 163.042Z" fill="#470FF4"/>
<path d="M168.492 146.949L168.541 147.23C168.523 147.134 168.505 147.046 168.488 146.949H168.492Z" fill="#470FF4"/>
<path d="M120.219 177.03C119.813 177.03 119.424 176.929 119.083 176.665C118.319 176.068 118.314 175.035 118.412 174.103C118.721 171.137 118.942 165.657 116.949 162.299C116.639 161.776 116.812 161.104 117.338 160.796C117.864 160.489 118.54 160.66 118.849 161.183C121.046 164.888 121.019 170.377 120.608 174.332C120.591 174.516 120.582 174.657 120.577 174.771C120.688 174.74 120.825 174.697 120.997 174.635L123.172 173.857C123.746 173.651 124.378 173.949 124.586 174.521C124.794 175.092 124.493 175.72 123.919 175.927L121.744 176.705C121.254 176.881 120.723 177.034 120.219 177.034V177.03Z" fill="#262730"/>
<path d="M157.832 112.917L166.291 145.947C164.872 146.431 163.423 146.857 161.946 147.23C140.21 152.733 118.213 145.055 104.498 129.234C101.117 144.787 91.2433 158.481 77.1178 166.554L69.1356 135.378C65.6484 121.768 73.9223 107.925 87.6103 104.457L126.734 94.5518C140.422 91.0844 154.344 99.3112 157.832 112.921V112.917Z" fill="#1E2675"/>
<path d="M126.659 192.166C126.566 192.166 126.478 192.152 126.385 192.13C125.793 191.981 125.439 191.383 125.589 190.794C126.358 187.802 128.851 183.719 132.515 181.812C134.734 180.656 137.081 180.48 139.304 181.302C139.874 181.513 140.166 182.146 139.954 182.713C139.741 183.28 139.105 183.57 138.535 183.359C136.891 182.752 135.211 182.884 133.541 183.754C130.615 185.275 128.405 188.72 127.733 191.335C127.605 191.832 127.154 192.161 126.663 192.161L126.659 192.166Z" fill="#262730"/>
<path d="M170.066 33C167.135 41.6355 163.462 49.9018 159.573 58.1242L156.948 54.525C164.377 52.8155 172.289 51.5894 179.833 50.3589C172.2 63.1034 164.293 75.8215 154.813 87.3091C158.291 78.2737 162.636 69.6426 167.179 61.1126C168.704 58.2912 170.26 55.483 171.851 52.7012L174.759 56.8761C167.555 58.2077 160.059 59.2317 152.753 59.9656L155.162 55.817C159.781 47.9814 164.563 40.2907 170.066 33.0044V33Z" fill="#FA6257"/>
<path d="M37.2735 43.894C46.5638 49.9367 55.2045 56.7308 63.7258 63.7535L68.3312 67.6032C60.6629 69.2644 52.6145 70.8157 44.8887 72.0286C42.9617 72.3406 41.0303 72.6131 39.0988 72.9075L40.7695 67.0275C42.6037 68.6315 46.2456 71.9055 48.0312 73.5623C55.2001 80.2861 62.1833 87.1989 68.3356 94.894C58.3469 89.2424 49.114 82.3428 40.1596 75.2279C37.9188 73.3997 32.9067 69.3127 30.6306 67.4538L38.0469 66.2584C45.7506 64.9708 53.4808 63.8545 61.2507 63.0152L59.7038 68.1569C51.8543 60.4004 44.2214 52.5032 37.2779 43.8896L37.2735 43.894Z" fill="#FA6257"/>
<path d="M17 107.024C23.1214 107.244 29.2649 107.885 35.3421 108.628C32.4648 110.531 29.424 112.478 26.4318 114.178L26.0031 112.1C27.5323 112.311 29.0616 112.539 30.5908 112.781C35.1829 113.537 39.7574 114.372 44.2567 115.576C42.6966 115.598 41.1408 115.55 39.5939 115.488C33.9012 115.255 28.1422 114.635 22.4849 113.941C25.5567 112.069 28.8361 110.091 32.0184 108.43L32.3808 110.263C27.2229 109.336 22.0739 108.342 17 107.02L17 107.024Z" fill="#FA6257"/>
<path d="M105.762 57.2583C105.369 64.2414 104.317 71.2289 103.194 78.1285L101.179 75.439C99.1414 72.6967 97.21 69.8666 95.3449 66.9881L98.2221 66.2937C97.5768 69.7215 96.8564 73.1318 96.0167 76.5157C95.1681 79.9215 94.2399 83.2922 93.0554 86.6014C93.1173 78.2779 94.3769 69.9501 95.7338 61.7496C98.368 65.6037 101.135 69.6732 103.495 73.7075L100.958 74.2876C102.328 68.5482 103.831 62.8263 105.762 57.2539V57.2583Z" fill="#FA6257"/>
<path d="M213.631 74.9736C209.114 78.7311 204.244 82.0402 199.307 85.2088L199.103 82.1018C203.833 83.7146 208.703 85.7933 213.304 87.7796C204.65 92.1611 195.842 96.4371 186.565 99.3727C193.199 94.3277 200.407 90.1352 207.731 86.1844L207.886 89.7353C203.413 87.9774 198.869 85.9031 194.569 83.7454C200.756 80.5373 207.063 77.3643 213.631 74.978V74.9736Z" fill="#FA6257"/>
</g>
</g>
<defs>
<clipPath id="clip0_351_169">
<rect width="240" height="240" rx="120" fill="white"/>
</clipPath>
<clipPath id="clip1_351_169">
<rect width="207" height="233" fill="white" transform="translate(17 33)"/>
</clipPath>
</defs>
</svg>
