<svg width="240" height="240" viewBox="0 0 240 240" fill="none" xmlns="http://www.w3.org/2000/svg">
<g clip-path="url(#clip0_620_1958)">
<rect width="240" height="240" rx="120" fill="#F6CA73"/>
<g clip-path="url(#clip1_620_1958)">
<path d="M17.4518 250.137C17.281 250.048 17.1333 249.92 17.0193 249.764C16.9053 249.608 16.8273 249.429 16.793 249.238C16.7374 249.06 16.72 248.872 16.7409 248.685C16.7619 248.499 16.8214 248.317 16.9153 248.155C17.0092 247.992 17.1354 247.852 17.2862 247.741C17.4371 247.63 17.6087 247.551 17.7909 247.51C18.6138 247.281 19.3842 246.891 20.0571 246.361C20.7301 245.83 21.2928 245.169 21.7102 244.419C22.3539 243.304 21.681 242.175 21.0044 240.669C19.9878 239.004 19.6152 237.018 19.958 235.085C20.3313 233.928 20.9737 232.873 21.8302 232.011C22.6867 231.148 23.7337 230.501 24.8844 230.123C25.6571 229.885 26.3748 229.492 26.9939 228.967C27.613 228.443 28.1202 227.799 28.4853 227.074C29.2483 224.987 28.0472 222.733 26.869 220.566C25.6908 218.399 24.2316 215.699 25.6616 213.477C27.0916 211.256 29.3411 211.439 31.4893 211.416C33.6375 211.393 35.0959 211.417 36.0248 210.318C36.9537 209.219 36.6264 207.619 36.0369 205.197C35.5371 203.924 35.3302 202.552 35.4325 201.182C35.5349 199.813 35.9449 198.479 36.6291 197.286C37.4379 196.339 38.4612 195.605 39.613 195.143C40.7647 194.681 42.0092 194.508 43.2378 194.637C45.2204 194.518 47.1166 194.421 48.4686 192.972C49.1681 191.955 49.6478 190.805 49.878 189.594C50.1083 188.382 50.0834 187.137 49.8047 185.94C49.472 184.512 49.4647 183.025 49.7845 181.588C50.1043 180.151 50.7421 178.802 51.6508 177.642C54.2583 174.911 59.2308 174.586 66.6514 177.161C66.8313 177.21 66.9984 177.297 67.1425 177.415C67.2865 177.534 67.4051 177.68 67.4887 177.847C67.5723 178.015 67.6201 178.198 67.629 178.386C67.6379 178.573 67.6073 178.761 67.54 178.937C67.4192 179.3 67.1648 179.602 66.8278 179.781C66.4907 179.961 66.097 180.004 65.7321 179.9C59.5353 177.883 55.5565 177.889 53.7814 179.689C52.0062 181.489 52.6101 183.249 52.7626 185.79C53.0948 187.379 53.0812 189.023 52.7228 190.612C52.3644 192.201 51.6696 193.696 50.6858 194.996C49.7051 195.884 48.5603 196.571 47.3185 197.015C46.0768 197.459 44.7621 197.652 43.45 197.584C41.3248 197.694 39.9125 197.846 39.0067 199.032C38.1008 200.219 38.5019 202.457 38.967 204.584C39.4889 205.81 39.7025 207.147 39.5873 208.481C39.4722 209.814 39.0316 211.103 38.3065 212.231C37.4107 213.057 36.3477 213.678 35.1916 214.051C34.0355 214.423 32.8143 214.539 31.6138 214.388C30.0682 214.387 28.6655 214.394 28.1918 215.087C27.7182 215.78 28.5844 217.467 29.5049 219.188C30.4184 220.453 31.0495 221.903 31.3562 223.44C31.6629 224.976 31.6383 226.563 31.2831 228.094C30.8004 229.151 30.1079 230.101 29.2509 230.884C28.3938 231.667 27.3897 232.266 26.2975 232.648C24.4347 233.58 23.3021 234.267 22.9253 235.684C22.7927 236.969 23.0834 238.257 23.7508 239.355C24.3108 240.228 24.6739 241.214 24.8156 242.245C24.9572 243.277 24.873 244.33 24.5702 245.33C24.0033 246.528 23.1855 247.59 22.1722 248.442C21.1589 249.295 19.9752 249.916 18.7029 250.265C18.4959 250.33 18.2778 250.352 18.0628 250.33C17.8477 250.309 17.6401 250.243 17.4518 250.137Z" fill="#F7EEC1"/>
<path d="M32.3659 234.888C32.0299 234.668 31.7778 234.34 31.6519 233.957C31.5606 233.585 31.6179 233.191 31.8102 232.858C32.0024 232.525 32.3154 232.278 32.6828 232.171C33.4984 231.932 34.2593 231.536 34.9226 231C35.5858 230.464 36.1374 229.801 36.5453 229.051C37.1568 227.992 36.5729 226.836 35.841 225.299C34.83 223.632 34.4585 221.648 34.7953 219.715C35.1928 218.629 35.827 217.645 36.6516 216.835C37.4763 216.024 38.4705 215.408 39.5599 215.033C41.1342 214.522 42.455 213.423 43.2474 211.961C43.9783 209.93 42.7219 207.644 41.5759 205.422C40.4299 203.199 38.9946 200.584 40.4247 198.362C41.8547 196.14 44.1033 196.326 46.2193 196.358C48.3354 196.39 49.8037 196.27 50.7326 195.171C51.6615 194.072 51.3572 192.559 50.8 190.082C50.2868 188.808 50.0684 187.434 50.1612 186.058C50.2541 184.683 50.6558 183.344 51.336 182.142C52.1612 181.216 53.1878 180.493 54.3351 180.033C55.4825 179.573 56.719 179.387 57.9456 179.49C59.8469 179.669 61.7468 179.083 63.2301 177.859C64.8856 176.139 64.678 173.567 64.4059 171.105C64.0919 169.674 64.0906 168.188 64.3998 166.75C64.709 165.312 65.3228 163.956 66.199 162.773C68.8939 160.018 73.8335 159.75 81.231 162.237C81.5824 162.368 81.8719 162.625 82.0459 162.958C82.2198 163.291 82.2657 163.677 82.1742 164.045C82.1217 164.229 82.0332 164.401 81.9126 164.55C81.7921 164.7 81.6427 164.824 81.4736 164.914C81.3045 165.004 81.119 165.059 80.9288 165.075C80.7386 165.091 80.5474 165.069 80.367 165.008C74.1702 162.991 70.1584 163.055 68.3832 164.854C66.6081 166.654 67.2113 168.414 67.3638 170.955C67.7101 172.541 67.6985 174.189 67.3296 175.777C66.9607 177.364 66.2445 178.851 65.2324 180.13C64.2683 181.014 63.1383 181.698 61.9105 182.139C60.6827 182.579 59.3823 182.766 58.0848 182.692C55.8723 182.827 54.4922 182.922 53.6415 184.141C52.7908 185.359 53.0487 187.589 53.6012 189.692C54.1538 191.795 54.8307 195.085 52.9407 197.339C52.0459 198.183 50.9731 198.814 49.804 199.182C48.6349 199.551 47.3999 199.646 46.1928 199.464C44.7024 199.495 43.2129 199.526 42.8267 200.195C42.4405 200.864 43.1863 202.632 44.1068 204.353C45.0144 205.611 45.6444 207.05 45.9564 208.575C46.2685 210.1 46.254 211.679 45.9157 213.204C45.4238 214.255 44.7312 215.197 43.8754 215.979C43.0195 216.761 42.0178 217.367 40.9307 217.759C39.068 218.691 37.9141 219.285 37.5925 220.735C37.2708 222.185 37.7537 223.134 38.4164 224.408C38.9612 225.293 39.3084 226.288 39.4349 227.323C39.5614 228.358 39.4647 229.409 39.1498 230.406C38.606 231.609 37.7971 232.674 36.7859 233.52C35.7747 234.366 34.588 234.969 33.3139 235.286C33.1359 235.294 32.9588 235.263 32.795 235.194C32.6312 235.125 32.4846 235.02 32.3659 234.888Z" fill="#F7EEC1"/>
<path d="M73.589 191.792L33.121 168.428C32.6232 168.141 32.2614 167.665 32.1146 167.107C31.9678 166.548 32.0477 165.953 32.3379 165.45L98.351 51.1118C101.449 47.0969 105.314 43.7422 109.715 41.2464C112.567 39.6223 126.368 31.9091 136.435 38.3157C144.9 43.7979 145.327 55.9357 145.595 60.6989C145.764 66.1678 144.753 71.6181 142.629 76.6756L76.6157 191.014C76.4694 191.267 76.2742 191.489 76.0415 191.666C75.8089 191.843 75.5427 191.973 75.2605 192.046C74.9782 192.119 74.6854 192.132 74.3982 192.089C74.111 192.046 73.8359 191.945 73.589 191.792Z" fill="#F7EEC1"/>
<path d="M39.3031 171.999L106.699 55.2654C109.421 49.8287 113.612 45.265 118.789 42.1025C121.976 40.1519 130.07 35.3126 135.495 38.6674C140.919 42.0221 140.116 48.7676 140.03 53.2519C139.936 59.759 138.022 66.1232 134.507 71.6175L67.2393 188.128" fill="#F7EEC1"/>
<path d="M67.7926 188.447L66.4124 187.65L133.68 71.1397C137.146 65.7748 139.032 59.5446 139.121 53.1727C139.188 48.9752 139.21 41.9244 135.001 39.2709C130.087 36.434 122.341 41.1804 119.425 42.916C114.384 46.0005 110.292 50.4375 107.616 55.7215L40.1881 172.509L38.8079 171.713L106.204 54.979C109.029 49.4463 113.32 44.7961 118.598 41.5452C121.753 39.6503 130.008 34.5304 135.805 37.8772C140.829 40.7779 140.73 48.6004 140.666 53.1724C140.6 59.9058 138.589 66.4915 134.876 72.1279L67.7926 188.447Z" fill="#F79E4F"/>
<path d="M135.468 39.0957L134.088 38.2988L52.4978 179.617L53.878 180.414L135.468 39.0957Z" fill="#F79E4F"/>
</g>
<g clip-path="url(#clip2_620_1958)">
<path d="M80.7071 245.782C80.5776 245.704 80.4681 245.597 80.3865 245.469C80.305 245.341 80.2528 245.197 80.2355 245.045C80.2009 244.902 80.1967 244.753 80.2226 244.607C80.2484 244.461 80.3043 244.32 80.3862 244.195C80.4681 244.071 80.5742 243.966 80.6982 243.885C80.8222 243.803 80.9609 243.749 81.1059 243.724C81.7632 243.579 82.3875 243.304 82.9423 242.915C83.4972 242.525 83.9722 242.027 84.3376 241.454C84.899 240.602 84.428 239.682 83.973 238.466C83.2593 237.109 83.0671 235.527 83.4338 234.017C83.7851 233.121 84.3425 232.316 85.0582 231.672C85.7739 231.028 86.6282 230.562 87.5503 230.314C88.1687 230.159 88.7518 229.879 89.2641 229.492C89.7763 229.105 90.2069 228.619 90.53 228.062C91.2341 226.449 90.4054 224.62 89.5902 222.86C88.775 221.101 87.7662 218.91 89.0005 217.218C90.2349 215.527 91.9909 215.768 93.6779 215.841C95.3649 215.914 96.5081 215.996 97.2926 215.169C98.077 214.341 97.9009 213.065 97.5606 211.13C97.2327 210.105 97.1395 209.014 97.289 207.938C97.4385 206.862 97.8276 205.828 98.4247 204.916C99.1072 204.204 99.9473 203.668 100.874 203.353C101.802 203.038 102.787 202.954 103.745 203.109C105.306 203.099 106.799 203.103 107.934 202.018C108.534 201.246 108.968 200.359 109.21 199.414C109.452 198.468 109.495 197.485 109.337 196.529C109.148 195.388 109.217 194.215 109.541 193.096C109.864 191.976 110.433 190.939 111.205 190.063C113.389 188.02 117.307 187.976 123.001 190.323C123.139 190.369 123.266 190.445 123.373 190.544C123.48 190.644 123.566 190.765 123.623 190.9C123.68 191.036 123.709 191.182 123.706 191.331C123.704 191.479 123.67 191.626 123.608 191.761C123.495 192.043 123.28 192.27 123.007 192.397C122.733 192.524 122.422 192.542 122.141 192.444C117.38 190.589 114.257 190.425 112.773 191.768C111.289 193.112 111.674 194.526 111.666 196.537C111.846 197.804 111.753 199.1 111.391 200.338C111.03 201.576 110.409 202.726 109.571 203.709C108.757 204.367 107.824 204.861 106.827 205.158C105.83 205.455 104.789 205.551 103.762 205.441C102.089 205.438 100.973 205.497 100.202 206.395C99.4315 207.292 99.6333 209.074 99.891 210.771C100.239 211.761 100.339 212.825 100.181 213.871C100.023 214.918 99.6125 215.916 98.9865 216.774C98.2419 217.388 97.3763 217.832 96.4503 218.077C95.5242 218.322 94.56 218.361 93.6256 218.19C92.4127 218.124 91.3115 218.07 90.9049 218.596C90.4982 219.122 91.0928 220.49 91.7283 221.886C92.3813 222.923 92.8033 224.094 92.9664 225.318C93.1296 226.543 93.0302 227.793 92.6741 228.986C92.2419 229.799 91.6506 230.519 90.9385 231.1C90.2263 231.681 89.4081 232.111 88.5317 232.365C87.0229 233.021 86.0994 233.514 85.7321 234.616C85.5632 235.624 85.7263 236.652 86.1946 237.546C86.59 238.259 86.8252 239.052 86.8843 239.871C86.9434 240.691 86.8241 241.518 86.536 242.294C86.0306 243.215 85.3353 244.017 84.497 244.646C83.6588 245.275 82.6986 245.715 81.6825 245.936C81.5167 245.978 81.3445 245.987 81.1768 245.96C81.0091 245.934 80.8496 245.873 80.7071 245.782Z" fill="#F7EEC1"/>
<path d="M93.1811 234.392C92.9285 234.204 92.7472 233.935 92.6678 233.627C92.6149 233.33 92.6798 233.021 92.8475 232.767C93.0151 232.513 93.2732 232.331 93.5669 232.263C94.219 232.109 94.8362 231.829 95.3837 231.435C95.9312 231.04 96.3976 230.541 96.7555 229.967C97.2889 229.158 96.889 228.221 96.3923 226.977C95.6831 225.619 95.4916 224.039 95.8536 222.529C96.2203 221.689 96.7677 220.94 97.4557 220.336C98.1438 219.732 98.9551 219.289 99.8289 219.039C101.09 218.704 102.182 217.893 102.878 216.774C103.554 215.203 102.683 213.347 101.896 211.545C101.109 209.743 100.115 207.619 101.349 205.928C102.584 204.236 104.339 204.479 105.998 204.594C107.657 204.71 108.815 204.678 109.599 203.85C110.384 203.023 110.222 201.817 109.909 199.839C109.571 198.813 109.469 197.72 109.611 196.639C109.753 195.558 110.136 194.519 110.731 193.6C111.425 192.905 112.267 192.379 113.191 192.065C114.114 191.751 115.094 191.657 116.052 191.791C117.535 192.012 119.055 191.631 120.281 190.73C121.667 189.444 121.634 187.406 121.545 185.453C121.37 184.31 121.444 183.138 121.76 182.018C122.075 180.897 122.625 179.853 123.372 178.958C125.626 176.9 129.516 176.899 135.196 179.176C135.465 179.294 135.679 179.509 135.799 179.779C135.919 180.049 135.935 180.356 135.845 180.641C135.794 180.785 135.716 180.916 135.614 181.029C135.512 181.142 135.388 181.233 135.251 181.297C135.114 181.361 134.965 181.396 134.815 181.401C134.665 181.405 134.516 181.38 134.378 181.324C129.617 179.47 126.465 179.349 124.981 180.692C123.497 182.036 123.882 183.45 123.873 185.46C124.065 186.726 123.973 188.025 123.603 189.262C123.233 190.498 122.596 191.64 121.738 192.605C120.936 193.262 120.015 193.753 119.029 194.048C118.044 194.343 117.014 194.435 115.999 194.322C114.256 194.334 113.168 194.35 112.439 195.275C111.71 196.2 111.8 197.969 112.127 199.651C112.455 201.334 112.82 203.957 111.223 205.654C110.478 206.282 109.604 206.734 108.668 206.975C107.732 207.215 106.758 207.238 105.82 207.043C104.649 207.004 103.479 206.965 103.142 207.476C102.805 207.987 103.301 209.414 103.936 210.81C104.585 211.841 105.007 213.002 105.175 214.219C105.343 215.435 105.251 216.679 104.909 217.868C104.47 218.676 103.879 219.389 103.168 219.969C102.457 220.549 101.64 220.985 100.767 221.248C99.2583 221.903 98.3227 222.323 97.9971 223.453C97.6716 224.582 98.0026 225.351 98.4583 226.385C98.8412 227.105 99.0634 227.905 99.1104 228.727C99.1575 229.548 99.0285 230.373 98.731 231.147C98.2436 232.072 97.555 232.878 96.7188 233.502C95.8825 234.126 94.9208 234.55 93.9049 234.747C93.7649 234.745 93.6275 234.713 93.5024 234.652C93.3774 234.59 93.2675 234.502 93.1811 234.392Z" fill="#F7EEC1"/>
<path d="M127.708 202.159L97.1298 182.007C96.7536 181.759 96.4937 181.369 96.4067 180.922C96.3198 180.475 96.4125 180.009 96.6656 179.625L154.242 92.261C156.876 89.2265 160.078 86.7454 163.658 84.9646C165.978 83.8053 177.198 78.3101 184.774 83.792C191.14 88.4766 190.863 98.0677 190.833 101.836C190.689 106.156 189.621 110.412 187.698 114.31L130.122 201.674C129.994 201.868 129.83 202.034 129.639 202.164C129.447 202.294 129.232 202.385 129.006 202.43C128.781 202.476 128.551 202.474 128.328 202.427C128.104 202.381 127.894 202.29 127.708 202.159Z" fill="#F7EEC1"/>
<path d="M101.8 185.086L160.583 95.8921C162.993 91.7202 166.512 88.2996 170.735 86.026C173.334 84.6234 179.93 81.1517 184.018 84.0287C188.105 86.9058 187.135 92.1916 186.841 95.7247C186.438 100.853 184.615 105.791 181.579 109.974L122.909 198.998" fill="#F7EEC1"/>
<path d="M123.326 199.273L122.284 198.585L180.954 109.562C183.944 105.478 185.739 100.645 186.13 95.6232C186.396 92.3155 186.769 86.7555 183.599 84.4833C179.886 82.0365 173.568 85.4497 171.192 86.6943C167.08 88.9122 163.645 92.2372 161.278 96.2906L102.468 185.526L101.425 184.839L160.208 95.6448C162.704 91.4017 166.306 87.9169 170.612 85.5779C173.184 84.2179 179.921 80.5317 184.301 83.4184C188.097 85.9203 187.624 92.0856 187.343 95.6888C186.952 100.997 185.041 106.105 181.842 110.392L123.326 199.273Z" fill="#F79E4F"/>
<path d="M183.976 84.367L182.934 83.6797L111.771 191.659L112.814 192.346L183.976 84.367Z" fill="#F79E4F"/>
</g>
</g>
<defs>
<clipPath id="clip0_620_1958">
<rect width="240" height="240" rx="120" fill="white"/>
</clipPath>
<clipPath id="clip1_620_1958">
<rect width="51" height="243" fill="white" transform="translate(113.5 25) rotate(30)"/>
</clipPath>
<clipPath id="clip2_620_1958">
<rect width="39.9687" height="192.576" fill="white" transform="translate(167.447 72.3125) rotate(33.3864)"/>
</clipPath>
</defs>
</svg>
