<svg width="240" height="240" viewBox="0 0 240 240" fill="none" xmlns="http://www.w3.org/2000/svg">
<g clip-path="url(#clip0_620_2861)">
<rect width="240" height="240" rx="120" fill="#F6CA73"/>
<g clip-path="url(#clip1_620_2861)">
<path d="M58.6992 126.045L61.2501 126.73L68.4824 95.602L65.9316 94.9219L58.6992 126.045Z" fill="#F79E4F"/>
<path d="M50.9258 155.574L55.1958 156.718L62.2781 126.245C62.5739 124.98 61.8537 123.702 60.6747 123.385C59.4957 123.069 58.3039 123.84 58.0081 125.105L50.9258 155.579V155.574Z" fill="#FA6257"/>
<path d="M100.421 217.998H88.2539V197.203H104.957L100.421 217.998Z" fill="#262730"/>
<path d="M307 171.982H42L45.2111 160.393C47.2646 152.989 47.2989 152.959 54.5013 152.959H294.499C301.701 152.959 301.735 152.989 303.789 160.393L307 171.982Z" fill="#F79E4F"/>
<path d="M42 171.98H307C281.967 204.577 286.126 202.346 246.8 204.265C223.423 205.409 194.099 206.617 174.914 206.617C155.729 206.617 125.818 205.396 102.221 204.252C62.9126 202.346 67.0239 204.564 42 171.985V171.98Z" fill="#1E2675"/>
<path d="M99.4383 117.562H73.6641V147.265H99.4383V117.562Z" fill="#1E2675"/>
<path d="M294.564 152.958H54.4375C59.8221 152.958 64.2722 148.652 64.9538 143.076C65.1296 141.625 65.1939 141.568 66.5572 141.568H282.448C283.807 141.568 283.872 141.629 284.052 143.076C284.733 148.656 289.179 152.958 294.568 152.958H294.564Z" fill="#F7EEC1"/>
<path d="M295.472 66.2383H54.4375C63.1404 74.2271 68.0405 98.9212 67.3889 126.176C67.3117 129.447 67.569 129.728 70.6214 129.728H279.289C282.337 129.728 282.598 129.442 282.521 126.176C281.874 98.9212 286.774 74.2271 295.472 66.2383Z" fill="#F7EEC1"/>
<path d="M297.941 63.3659C297.487 66.1516 297.397 66.2339 294.76 66.2339H55.1484C52.5118 66.2339 52.4175 66.1516 51.9673 63.3659L50.827 56.3606C50.2482 52.7994 50.6383 52.2969 54.008 52.2969H295.9C299.27 52.2969 299.66 52.7994 299.081 56.3606L297.941 63.3659Z" fill="#F79E4F"/>
<path d="M67.4219 52.3014C135.313 37.5586 207.542 39.6121 282.52 52.3014H67.4219Z" fill="#1E2675"/>
<path d="M282.666 77.3417H67.2467C66.4407 77.3417 65.7891 76.6398 65.7891 75.7734C65.7891 74.9069 66.4407 74.2051 67.2467 74.2051H282.666C283.472 74.2051 284.124 74.9069 284.124 75.7734C284.124 76.6398 283.472 77.3417 282.666 77.3417Z" fill="#470FF4"/>
<path d="M279.519 88.4452H70.3889C69.6001 88.4452 68.957 87.7433 68.957 86.8769C68.957 86.0104 69.5958 85.3086 70.3889 85.3086H279.523C280.312 85.3086 280.955 86.0104 280.955 86.8769C280.955 87.7433 280.317 88.4452 279.523 88.4452H279.519Z" fill="#470FF4"/>
<path d="M277.651 99.5487H72.2589C71.4743 99.5487 70.8398 98.8469 70.8398 97.9804C70.8398 97.1139 71.4743 96.4121 72.2589 96.4121H277.651C278.435 96.4121 279.07 97.1139 279.07 97.9804C279.07 98.8469 278.435 99.5487 277.651 99.5487Z" fill="#470FF4"/>
<path d="M276.577 110.652H73.3292C72.5447 110.652 71.9102 109.95 71.9102 109.084C71.9102 108.217 72.5447 107.516 73.3292 107.516H276.577C277.362 107.516 277.996 108.217 277.996 109.084C277.996 109.95 277.362 110.652 276.577 110.652Z" fill="#470FF4"/>
<path d="M276.17 121.762H73.7366C72.9478 121.762 72.3047 121.06 72.3047 120.193C72.3047 119.327 72.9435 118.625 73.7366 118.625H276.166C276.955 118.625 277.598 119.327 277.598 120.193C277.598 121.06 276.959 121.762 276.166 121.762H276.17Z" fill="#470FF4"/>
<path d="M223.469 139.118L204.601 114.805L199.307 118.418L213.643 145.776L223.469 139.118Z" fill="#7C3A25"/>
<path d="M208.604 119.965L200.291 122.885C196.647 124.163 195.443 123.019 196.849 119.618L198.444 115.763L197.633 107.449C197.316 104.217 199.58 103.597 201.17 106.478L208.604 119.961V119.965Z" fill="#7C3A25"/>
<path d="M134.416 121.403C134.257 127.741 133.794 136.917 133.52 143.346C133.404 145.884 131.321 147.908 128.71 148.176C126.926 148.358 125.13 148.462 123.334 148.531C117.966 148.679 112.595 148.77 107.223 148.661C102.807 148.449 102.224 142.696 106.464 141.678C113.452 140.265 120.47 138.844 127.578 138.104L122.729 142.938C122.991 136.479 123.368 127.364 123.733 121C124.363 114.449 134.347 114.817 134.42 121.407L134.416 121.403Z" fill="#7C3A25"/>
<path d="M112.697 144.563C112.697 146.526 111.484 148.224 109.388 148.224C107.291 148.224 97.1094 148.527 97.1094 146.565C97.1094 144.602 105.259 140.863 110.472 140.863C112.564 140.863 112.697 142.596 112.697 144.563Z" fill="#7C3A25"/>
<path d="M142.249 148.194L140.148 146.86C122.91 135.929 123.111 136.393 127.364 117.292L128.213 113.475L142.455 111.564L142.245 148.194H142.249Z" fill="#F79E4F"/>
<path d="M173.66 148.299H136.945L140.499 116.443C140.499 116.443 148.508 128.206 156.173 128.206C163.89 128.206 169.257 126.629 169.257 126.629L173.66 148.303V148.299Z" fill="#F79E4F"/>
<path d="M140.779 111.789L149.203 141.08L132.715 142.436C123.021 135.586 123.755 133.511 127.249 117.82L127.994 114.471C127.999 114.505 128.307 114.397 128.316 114.397C127.446 134.967 136.95 138.052 138.416 112.11L140.783 111.793L140.779 111.789Z" fill="#FA6257"/>
<path d="M149.386 115.688C150.235 121.337 151.02 127.121 151.774 132.792C152.636 138.567 152.726 144.879 145.686 147.192C142.36 148.18 140.04 148.072 136.992 148.219C133.331 148.336 125.944 148.527 122.279 148.587C119.822 148.618 117.37 148.661 114.913 148.665C110.292 148.557 109.799 142.436 114.33 141.669C118.515 141.058 124.65 140.282 128.915 139.75C131.946 139.355 140.263 138.558 141.862 137.947C141.691 138.073 141.408 138.428 141.348 138.593C141.524 136.474 140.855 132.982 140.576 130.639C139.942 126.081 139.342 121.523 138.78 116.957C138.24 110.402 148.143 109.207 149.391 115.688H149.386Z" fill="#F79E4F"/>
<path d="M134.618 118.31L133.82 118.7C131.908 119.64 129.546 118.943 128.543 117.149L127.797 115.811C126.798 114.017 127.535 111.803 129.448 110.863L130.245 110.473C132.157 109.533 134.519 110.231 135.522 112.024L136.268 113.363C137.267 115.156 136.53 117.37 134.618 118.31Z" fill="#7C3A25"/>
<path d="M130.717 114.558C139.908 114.558 147.359 107.571 147.359 98.9526C147.359 90.3342 139.908 83.3477 130.717 83.3477C121.525 83.3477 114.074 90.3342 114.074 98.9526C114.074 107.571 121.525 114.558 130.717 114.558Z" fill="#1E2675"/>
<path d="M144.616 95.1318C148.321 95.1318 151.325 92.3154 151.325 88.8413C151.325 85.3671 148.321 82.5508 144.616 82.5508C140.91 82.5508 137.906 85.3671 137.906 88.8413C137.906 92.3154 140.91 95.1318 144.616 95.1318Z" fill="#1E2675"/>
<path d="M125.932 116.811L123.823 116.283C118.772 115.013 115.771 110.148 117.126 105.413L120.14 94.8594L140.542 99.9802L137.528 110.534C136.178 115.269 130.986 118.081 125.932 116.811Z" fill="#F79E4F"/>
<path d="M121.29 99.5591C124.403 99.5591 126.927 97.1928 126.927 94.2737C126.927 91.3546 124.403 88.9883 121.29 88.9883C118.176 88.9883 115.652 91.3546 115.652 94.2737C115.652 97.1928 118.176 99.5591 121.29 99.5591Z" fill="#1E2675"/>
<path d="M126.279 96.3974C128.822 101.011 133.782 104.009 139.312 104.269L140.688 104.616L142.467 98.3902L127.055 94.5215L126.279 96.4017V96.3974Z" fill="#1E2675"/>
<path d="M117.962 105.361C119.316 105.361 120.414 104.331 120.414 103.06C120.414 101.79 119.316 100.76 117.962 100.76C116.608 100.76 115.51 101.79 115.51 103.06C115.51 104.331 116.608 105.361 117.962 105.361Z" fill="#F79E4F"/>
<path d="M138.875 109.373C140.384 109.373 141.606 108.226 141.606 106.812C141.606 105.398 140.384 104.252 138.875 104.252C137.367 104.252 136.145 105.398 136.145 106.812C136.145 108.226 137.367 109.373 138.875 109.373Z" fill="#F79E4F"/>
<path d="M145.735 104.096L143.562 103.181C141.804 102.441 141.015 100.504 141.804 98.8535L145.478 91.1767C146.267 89.5261 148.333 88.7896 150.091 89.5304L152.265 90.4445C154.022 91.1853 154.811 93.1219 154.022 94.7725L150.348 102.449C149.56 104.1 147.493 104.836 145.735 104.096Z" fill="#1E2675"/>
<path d="M146.279 95.075C146.378 94.828 146.464 94.5811 146.541 94.3211C147.805 89.8892 145.002 85.3316 140.273 84.1446C138.742 83.759 137.203 83.7806 135.771 84.1272C141.139 85.9381 144.985 90.1361 146.284 95.075H146.279Z" fill="#FA6257"/>
<path d="M248.436 148.297H173.66L184.764 128.611L212.596 137.54L248.436 141.526V148.297Z" fill="#F79E4F"/>
<path d="M175.525 148.298C182.723 148.298 188.558 143.129 188.558 136.753C188.558 130.376 182.723 125.207 175.525 125.207C168.327 125.207 162.492 130.376 162.492 136.753C162.492 143.129 168.327 148.298 175.525 148.298Z" fill="#F79E4F"/>
<path d="M167.23 148.298H174.694L174.669 148.177C174.699 148.177 174.729 148.186 174.759 148.186L174.694 148.298H175.192C175.106 141.717 179.796 131.359 186.921 129.301C186.921 129.301 181.661 125.207 175.586 125.207C173.798 125.207 172.692 125.285 167.235 127.109C168.354 132.927 168.049 140.5 167.235 148.298H167.23Z" fill="#FA6257"/>
<path d="M118.969 145.028C118.969 146.99 117.756 148.689 115.659 148.689C113.563 148.689 102.104 149.243 102.104 147.281C102.104 145.318 111.531 141.328 116.744 141.328C118.836 141.328 118.969 143.061 118.969 145.028Z" fill="#F79E4F"/>
<path opacity="0.1" d="M53.1206 66.2402L47.5645 152.96H301.945L294.76 66.2402H53.1206Z" fill="#470FF4"/>
</g>
</g>
<defs>
<clipPath id="clip0_620_2861">
<rect width="240" height="240" rx="120" fill="white"/>
</clipPath>
<clipPath id="clip1_620_2861">
<rect width="265" height="176" fill="white" transform="translate(42 42)"/>
</clipPath>
</defs>
</svg>
