<svg width="240" height="240" viewBox="0 0 240 240" fill="none" xmlns="http://www.w3.org/2000/svg">
<rect width="240" height="240" rx="120" fill="#F6CA73"/>
<g clip-path="url(#clip0_351_156)">
<path d="M68.6925 171.656L49.4681 186.712C48.0648 187.81 47.8947 187.792 46.7536 186.423C45.1058 184.448 45.1235 184.202 47.023 182.472L64.4755 166.6L68.6925 171.656Z" fill="#262730"/>
<path d="M165.587 171.656L184.812 186.712C186.215 187.81 186.385 187.792 187.526 186.423C189.174 184.448 189.156 184.202 187.257 182.472L169.804 166.6L165.587 171.656Z" fill="#262730"/>
<path d="M205 169.013C205 174.305 204.589 174.719 199.33 174.719H39.6699C34.4111 174.719 34 174.305 34 169.013V65.7056C34 60.4137 34.4111 60 39.6699 60H199.33C204.589 60 205 60.4137 205 65.7056V169.013Z" fill="#262730"/>
<path d="M198.976 63.209H40.0243C38.4586 63.209 37.1893 64.4862 37.1893 66.0618V164.02C37.1893 165.596 38.4586 166.873 40.0243 166.873H198.976C200.541 166.873 201.811 165.596 201.811 164.02V66.0618C201.811 64.4862 200.541 63.209 198.976 63.209Z" fill="#F7E9C1"/>
<path d="M177.157 91.5804C183.246 91.5804 188.182 86.6135 188.182 80.4865C188.182 74.3595 183.246 69.3926 177.157 69.3926C171.069 69.3926 166.133 74.3595 166.133 80.4865C166.133 86.6135 171.069 91.5804 177.157 91.5804Z" fill="#F79E4F"/>
<path d="M201.811 130.468V164.02C201.811 166.666 201.605 166.873 198.976 166.873H40.0243C37.3949 166.873 37.1893 166.666 37.1893 164.02V130.468H201.811Z" fill="#FA6257"/>
<path d="M69.419 106.687H66.499V154.236H69.419V106.687Z" fill="#262730"/>
<path d="M82.4379 124.783L80.3732 122.705L67.0225 136.14L69.0872 138.218L82.4379 124.783Z" fill="#262730"/>
<path d="M67.9591 77.9229C77.8601 77.9229 85.8972 86.0106 85.8972 95.9741V113.708C85.8972 117.256 83.0339 120.137 79.5079 120.137H56.4102C52.8843 120.137 50.021 117.256 50.021 113.708V95.9741C50.021 86.0106 58.0581 77.9229 67.9591 77.9229Z" fill="#470FF4"/>
<path d="M85.4223 111.469H85.4187C81.1268 111.469 77.6475 114.97 77.6475 119.289V120.12C77.6475 124.439 81.1268 127.94 85.4187 127.94H85.4223C89.7142 127.94 93.1936 124.439 93.1936 120.12V119.289C93.1936 114.97 89.7142 111.469 85.4223 111.469Z" fill="#1E2675"/>
<path d="M142.735 167.99C137.464 174.152 129.658 178.051 120.948 178.051C112.238 178.051 104.432 174.152 99.1614 167.99H142.735Z" fill="#F79E4F"/>
<path d="M149.684 149.134C149.684 156.341 147.068 162.93 142.735 167.991H99.1612C94.8285 162.93 92.2117 156.341 92.2117 149.134C92.2117 133.162 105.076 120.217 120.948 120.217C136.82 120.217 149.684 133.162 149.684 149.134Z" fill="#1E2675"/>
<path d="M111.4 161.148C111.4 151.735 103.818 144.104 94.4638 144.104C85.11 144.104 77.5272 151.735 77.5272 161.148V162.957C77.5272 172.37 85.11 180 94.4638 180C103.818 180 111.4 172.37 111.4 162.957V161.148Z" fill="#1E2675"/>
<path d="M164.373 161.148C164.373 151.735 156.79 144.104 147.436 144.104C138.082 144.104 130.5 151.735 130.5 161.148V162.957C130.5 172.37 138.082 180 147.436 180C156.79 180 164.373 172.37 164.373 162.957V161.148Z" fill="#1E2675"/>
<path d="M137.445 191.443C137.445 182.312 130.089 174.909 121.015 174.909C111.941 174.909 104.585 182.312 104.585 191.443V195.867C104.585 204.998 111.941 212.401 121.015 212.401C130.089 212.401 137.445 204.998 137.445 195.867V191.443Z" fill="#FA6257"/>
<path d="M125.344 185.144H116.556C107.482 185.144 100.125 192.546 100.125 201.678V206.101C100.125 215.233 107.482 222.635 116.556 222.635H125.344C134.418 222.635 141.775 215.233 141.775 206.101V201.678C141.775 192.546 134.418 185.144 125.344 185.144Z" fill="#FA6257"/>
</g>
<defs>
<clipPath id="clip0_351_156">
<rect width="171" height="163" fill="white" transform="translate(34 60)"/>
</clipPath>
</defs>
</svg>
