<svg width="135" height="108" viewBox="0 0 135 108" fill="none" xmlns="http://www.w3.org/2000/svg">
<g id="a" clip-path="url(#clip0_256_129)">
<path id="Vector" d="M25.1257 99.9641H55.9779V105.874C55.9779 107.048 55.0279 108 53.8568 108H27.2467C26.0757 108 25.1257 107.048 25.1257 105.874V99.9641Z" fill="#470FF4"/>
<path id="Vector_2" d="M2.54325 30.8741V91.8655L0.613548 100.447C-0.847748 106.949 -0.00989433 108 6.64016 108H23.008C24.974 108 25.129 107.845 25.129 105.875V102.086C25.129 100.116 25.284 99.9608 27.25 99.9608H53.8634C55.8294 99.9608 55.9845 100.116 55.9845 102.086V105.875C55.9845 107.845 56.1395 108 58.1055 108H74.4733C81.1234 108 81.9612 106.949 80.4999 100.447L78.5702 91.8655V30.8741H2.54325Z" fill="#F79E4F"/>
<path id="Vector_3" d="M76.5844 20.369H4.52243V30.8775H76.5844V20.369Z" fill="#0000A3"/>
<path id="Vector_4" d="M7.11186 20.369H73.995C73.995 1.47759 72.6657 0 55.6645 0H25.4424C8.44121 0 7.11186 1.47759 7.11186 20.369Z" fill="#F7E9C1"/>
<path id="Vector_5" d="M61.3348 108H135V80.3124C135 72.3757 129.699 65.9398 123.158 65.9398H73.1803C66.6391 65.9398 61.3381 72.3757 61.3381 80.3124V108H61.3348Z" fill="#0000A3"/>
</g>
<defs>
<clipPath id="clip0_256_129">
<rect width="135" height="108" fill="white"/>
</clipPath>
</defs>
</svg>
