<svg width="40" height="40" viewBox="0 0 40 40" fill="none" xmlns="http://www.w3.org/2000/svg">
<g id="vuesax/bulk/award">
<g id="award">
<path id="Vector" d="M29.9167 12.85L29.6833 12.7167L27.3667 11.3833L22.5833 8.61666C21.1167 7.76666 18.8833 7.76666 17.4167 8.61666L12.6333 11.3833L10.3167 12.7333L10.0167 12.9C7.03334 14.9 6.83334 15.2667 6.83334 18.4833V26.1667C6.83334 29.3833 7.03334 29.75 10.0833 31.8L17.4167 36.0333C18.15 36.4667 19.0667 36.6667 20 36.6667C20.9167 36.6667 21.85 36.4667 22.5833 36.0333L29.9833 31.75C32.9667 29.75 33.1667 29.3833 33.1667 26.1667V18.4833C33.1667 15.2667 32.9667 14.9 29.9167 12.85Z" fill="#F6CA73"/>
<path id="Vector_2" d="M10.3167 12.7333L12.6333 11.3833L17.2 8.75001L17.4166 8.61668C18.8833 7.76668 21.1166 7.76668 22.5833 8.61668L22.8 8.75001L27.3666 11.3833L29.6833 12.7167V9.15001C29.6833 5.40001 27.6166 3.33334 23.8666 3.33334H16.1166C12.3667 3.33334 10.3167 5.40001 10.3167 9.15001V12.7333Z" fill="#470FF4"/>
<path id="Vector_3" d="M24.7333 22.2333L23.7 23.5C23.5333 23.6833 23.4167 24.05 23.4333 24.3L23.5333 25.9333C23.6 26.9333 22.8833 27.45 21.95 27.0833L20.4333 26.4833C20.2 26.4 19.8 26.4 19.5667 26.4833L18.05 27.0833C17.1167 27.45 16.4 26.9333 16.4667 25.9333L16.5667 24.3C16.5833 24.05 16.4667 23.6833 16.3 23.5L15.2667 22.2333C14.6167 21.4667 14.9 20.6167 15.8667 20.3667L17.45 19.9667C17.7 19.9 18 19.6667 18.1333 19.45L19.0167 18.0833C19.5667 17.2333 20.4333 17.2333 20.9833 18.0833L21.8667 19.45C22 19.6667 22.3 19.9 22.55 19.9667L24.1333 20.3667C25.1 20.6167 25.3833 21.4667 24.7333 22.2333Z" fill="#470FF4"/>
</g>
</g>
</svg>
