<svg width="379" height="80" viewBox="0 0 379 80" fill="none" xmlns="http://www.w3.org/2000/svg">
<path d="M128.76 56.4472C125.481 59.6273 121.507 61.3167 116.838 61.3167C112.169 61.3167 108.195 59.7267 105.015 56.4472C101.737 53.2671 100.147 49.2919 100.147 44.5217C100.147 39.7515 101.737 35.8758 105.015 32.5962C108.294 29.4161 112.169 27.7267 116.838 27.7267C121.507 27.7267 125.481 29.3167 128.76 32.5962C132.038 35.7764 133.628 39.7515 133.628 44.5217C133.628 49.2919 132.038 53.1677 128.76 56.4472ZM116.838 55.8509C120.017 55.8509 122.7 54.7577 124.885 52.5714C127.071 50.3851 128.164 47.7018 128.164 44.5217C128.164 41.3416 127.071 38.559 124.885 36.472C122.7 34.3851 120.017 33.1925 116.838 33.1925C113.659 33.1925 111.076 34.2857 108.89 36.472C106.704 38.6584 105.611 41.3416 105.611 44.5217C105.611 47.7018 106.704 50.4845 108.89 52.5714C111.076 54.6584 113.758 55.8509 116.838 55.8509Z" fill="#262730"/>
<path d="M152.206 33.9876H144.755V51.1801C144.755 52.7702 145.053 53.8634 145.649 54.559C146.245 55.2547 147.239 55.5528 148.431 55.5528C149.723 55.5528 150.319 55.5528 152.107 55.4534V60.4224C147.239 61.0186 144.755 60.6211 142.47 59.2298C140.185 57.8385 139.092 55.1553 139.092 51.1801V33.9876H134.82V28.6211H139.092V20.3727L144.656 18.6832V28.6211H152.107V33.9876H152.206Z" fill="#262730"/>
<path d="M168.202 33.9876H160.75V51.1801C160.75 52.7702 161.048 53.8634 161.644 54.559C162.241 55.2547 163.234 55.5528 164.426 55.5528C165.718 55.5528 166.314 55.5528 168.102 55.4534V60.4224C163.234 61.0186 160.75 60.6211 158.465 59.2298C156.18 57.8385 155.087 55.1553 155.087 51.1801V33.9876H150.815V28.6211H155.087V20.3727L160.651 18.6832V28.6211H168.102V33.9876H168.202Z" fill="#262730"/>
<path d="M176.447 33.9876C178.236 30.0125 181.614 28.0249 186.382 28.0249V33.7889C183.7 33.6895 181.316 34.3852 179.428 35.9752C177.441 37.5653 176.547 40.0497 176.547 43.528V60.4224H170.983V28.6212H176.547V33.9876H176.447Z" fill="#262730"/>
<path d="M45.8032 36.5715C45.8032 38.8572 44.015 40.646 41.7299 40.646C39.4449 40.646 37.6566 38.7578 37.6566 36.5715C37.6566 34.2857 39.5443 32.4969 41.7299 32.4969C44.015 32.3975 45.8032 34.2857 45.8032 36.5715Z" fill="#262730"/>
<path d="M75.8067 36.5715C75.8067 38.8572 73.919 40.646 71.7334 40.646C69.4483 40.646 67.66 38.7578 67.66 36.5715C67.66 34.2857 69.4483 32.4969 71.7334 32.4969C73.919 32.3975 75.8067 34.2857 75.8067 36.5715Z" fill="#262730"/>
<path d="M44.1143 0C30.6028 0 17.9855 7.0559 10.9317 18.4845H6.9577C3.38113 18.4845 0.5 21.3665 0.5 24.9441C0.5 28.5217 3.38113 31.4037 6.9577 31.4037V27.8261C5.36811 27.8261 4.07657 26.5342 4.07657 24.9441C4.07657 23.354 5.36811 22.0621 6.9577 22.0621H12.9187L13.4154 21.1677C19.6744 10.236 31.3976 3.47826 43.9156 3.47826C63.3881 3.47826 79.1846 19.2795 79.1846 38.7578V54.9565C79.1846 60.323 74.8132 64.795 69.349 64.795C64.5802 64.795 60.7056 61.4161 59.7121 56.9441C63.8848 55.5528 66.9646 50.1863 66.9646 48C66.9646 45.4161 62.792 43.3292 57.7251 43.3292C52.6583 43.3292 48.4857 45.4161 48.4857 48C48.4857 50.1863 51.5655 55.5528 55.7382 56.9441C54.844 61.4161 50.87 64.795 46.1013 64.795C40.7364 64.795 36.2657 60.4224 36.2657 54.9565C36.2657 46.3106 29.2119 39.2547 20.5685 39.2547C14.5082 39.354 9.04403 43.2298 6.5603 48.6957C5.66616 45.5155 5.26876 42.236 5.26876 38.8571H1.69219C1.69219 61.5155 20.1711 80 42.8228 80V76.4224C27.821 76.4224 14.8063 67.5776 8.74599 54.7578C8.94468 48.1988 14.3095 42.9317 20.8666 42.9317C27.523 42.9317 32.9872 48.3975 32.9872 55.0559C32.9872 62.4099 38.9481 68.4721 46.3993 68.4721C51.3668 68.4721 55.6388 65.7888 58.0232 61.7143C60.3082 65.6894 64.6796 68.4721 69.647 68.4721C76.9989 68.4721 83.0592 62.5093 83.0592 55.0559V38.8571C82.8605 17.3913 65.4744 0 44.1143 0ZM52.3603 48.3975C53.0557 47.9006 54.9434 47.0062 57.9238 47.0062C60.9043 47.0062 62.8913 47.9006 63.4874 48.3975C62.9907 50.087 60.4076 53.764 57.9238 53.764C55.4401 53.764 52.857 50.087 52.3603 48.3975Z" fill="#262730"/>
<path d="M210.472 59V28.2H220.504C222.499 28.2 224.259 28.6107 225.784 29.432C227.339 30.2533 228.541 31.3973 229.392 32.864C230.272 34.3307 230.712 36.032 230.712 37.968C230.712 39.8453 230.316 41.5173 229.524 42.984C228.732 44.4507 227.647 45.6093 226.268 46.46C224.889 47.2813 223.291 47.692 221.472 47.692H214.212V59H210.472ZM214.212 44.304H221.472C223.085 44.304 224.405 43.7173 225.432 42.544C226.488 41.3413 227.016 39.816 227.016 37.968C227.016 36.0613 226.4 34.5213 225.168 33.348C223.936 32.1747 222.367 31.588 220.46 31.588H214.212V44.304ZM236.705 47.076C236.705 44.7 237.159 42.7787 238.069 41.312C238.978 39.816 240.137 38.716 241.545 38.012C242.982 37.2787 244.493 36.912 246.077 36.912V40.212C244.786 40.212 243.539 40.432 242.337 40.872C241.163 41.2827 240.195 41.972 239.433 42.94C238.67 43.908 238.289 45.228 238.289 46.9L236.705 47.076ZM234.769 59V37H238.289V59H234.769ZM259.272 59.528C257.13 59.528 255.238 59.044 253.596 58.076C251.953 57.0787 250.662 55.7147 249.724 53.984C248.814 52.2533 248.36 50.2587 248.36 48C248.36 45.7413 248.814 43.7467 249.724 42.016C250.662 40.2853 251.938 38.936 253.552 37.968C255.194 36.9707 257.072 36.472 259.184 36.472C261.237 36.472 263.012 36.9853 264.508 38.012C266.004 39.0093 267.162 40.4173 267.984 42.236C268.805 44.0547 269.216 46.196 269.216 48.66H251.044L251.924 47.912C251.924 49.672 252.232 51.1827 252.848 52.444C253.493 53.7053 254.388 54.6733 255.532 55.348C256.676 55.9933 257.981 56.316 259.448 56.316C261.002 56.316 262.308 55.9493 263.364 55.216C264.449 54.4827 265.285 53.5147 265.872 52.312L268.908 53.852C268.35 54.996 267.602 55.9933 266.664 56.844C265.754 57.6947 264.669 58.3547 263.408 58.824C262.176 59.2933 260.797 59.528 259.272 59.528ZM252.144 46.416L251.22 45.712H266.4L265.476 46.46C265.476 45.052 265.197 43.8347 264.64 42.808C264.082 41.7813 263.334 40.9893 262.396 40.432C261.457 39.8747 260.372 39.596 259.14 39.596C257.937 39.596 256.793 39.8747 255.708 40.432C254.652 40.9893 253.786 41.7813 253.112 42.808C252.466 43.8053 252.144 45.008 252.144 46.416ZM281.355 59.528C279.742 59.528 278.334 59.2933 277.131 58.824C275.929 58.3253 274.917 57.68 274.095 56.888C273.303 56.096 272.731 55.2307 272.379 54.292L275.459 53.016C275.958 54.0133 276.706 54.82 277.703 55.436C278.701 56.052 279.801 56.36 281.003 56.36C282.382 56.36 283.541 56.096 284.479 55.568C285.418 55.0107 285.887 54.2333 285.887 53.236C285.887 52.3267 285.535 51.5933 284.831 51.036C284.157 50.4787 283.145 50.024 281.795 49.672L279.683 49.1C277.689 48.572 276.134 47.78 275.019 46.724C273.905 45.6387 273.347 44.4213 273.347 43.072C273.347 40.9893 274.022 39.376 275.371 38.232C276.75 37.0587 278.789 36.472 281.487 36.472C282.778 36.472 283.951 36.6627 285.007 37.044C286.063 37.4253 286.973 37.968 287.735 38.672C288.498 39.3467 289.055 40.1533 289.407 41.092L286.327 42.456C285.946 41.4587 285.315 40.74 284.435 40.3C283.555 39.86 282.485 39.64 281.223 39.64C279.874 39.64 278.818 39.9333 278.055 40.52C277.293 41.0773 276.911 41.8693 276.911 42.896C276.911 43.4827 277.219 44.04 277.835 44.568C278.481 45.0667 279.419 45.4773 280.651 45.8L282.851 46.372C284.289 46.724 285.491 47.252 286.459 47.956C287.427 48.6307 288.161 49.408 288.659 50.288C289.158 51.168 289.407 52.1067 289.407 53.104C289.407 54.424 289.055 55.568 288.351 56.536C287.647 57.504 286.694 58.252 285.491 58.78C284.289 59.2787 282.91 59.528 281.355 59.528ZM303.787 59.528C301.646 59.528 299.754 59.044 298.111 58.076C296.469 57.0787 295.178 55.7147 294.239 53.984C293.33 52.2533 292.875 50.2587 292.875 48C292.875 45.7413 293.33 43.7467 294.239 42.016C295.178 40.2853 296.454 38.936 298.067 37.968C299.71 36.9707 301.587 36.472 303.699 36.472C305.753 36.472 307.527 36.9853 309.023 38.012C310.519 39.0093 311.678 40.4173 312.499 42.236C313.321 44.0547 313.731 46.196 313.731 48.66H295.559L296.439 47.912C296.439 49.672 296.747 51.1827 297.363 52.444C298.009 53.7053 298.903 54.6733 300.047 55.348C301.191 55.9933 302.497 56.316 303.963 56.316C305.518 56.316 306.823 55.9493 307.879 55.216C308.965 54.4827 309.801 53.5147 310.387 52.312L313.423 53.852C312.866 54.996 312.118 55.9933 311.179 56.844C310.27 57.6947 309.185 58.3547 307.923 58.824C306.691 59.2933 305.313 59.528 303.787 59.528ZM296.659 46.416L295.735 45.712H310.915L309.991 46.46C309.991 45.052 309.713 43.8347 309.155 42.808C308.598 41.7813 307.85 40.9893 306.911 40.432C305.973 39.8747 304.887 39.596 303.655 39.596C302.453 39.596 301.309 39.8747 300.223 40.432C299.167 40.9893 298.302 41.7813 297.627 42.808C296.982 43.8053 296.659 45.008 296.659 46.416ZM318.171 59V37H321.471L321.691 41.048V59H318.171ZM333.615 59V47.736H337.135V59H333.615ZM333.615 47.736C333.615 45.5653 333.366 43.908 332.867 42.764C332.368 41.62 331.679 40.8427 330.799 40.432C329.919 39.992 328.922 39.772 327.807 39.772C325.871 39.772 324.36 40.4613 323.275 41.84C322.219 43.1893 321.691 45.1107 321.691 47.604H319.975C319.975 45.2867 320.312 43.292 320.987 41.62C321.662 39.948 322.644 38.672 323.935 37.792C325.226 36.912 326.78 36.472 328.599 36.472C330.33 36.472 331.826 36.824 333.087 37.528C334.378 38.2027 335.375 39.288 336.079 40.784C336.812 42.28 337.164 44.2453 337.135 46.68V47.736H333.615ZM350.978 59.528C348.837 59.528 347.179 58.9707 346.006 57.856C344.833 56.7413 344.246 55.172 344.246 53.148V30.136H347.766V52.796C347.766 53.9107 348.059 54.776 348.646 55.392C349.262 55.9787 350.113 56.272 351.198 56.272C351.55 56.272 351.887 56.228 352.21 56.14C352.562 56.0227 353.017 55.7587 353.574 55.348L354.938 58.208C354.175 58.7067 353.486 59.044 352.87 59.22C352.254 59.4253 351.623 59.528 350.978 59.528ZM340.418 40.124V37H354.366V40.124H340.418ZM367.035 59.528C365.422 59.528 364.014 59.2933 362.811 58.824C361.608 58.3253 360.596 57.68 359.775 56.888C358.983 56.096 358.411 55.2307 358.059 54.292L361.139 53.016C361.638 54.0133 362.386 54.82 363.383 55.436C364.38 56.052 365.48 56.36 366.683 56.36C368.062 56.36 369.22 56.096 370.159 55.568C371.098 55.0107 371.567 54.2333 371.567 53.236C371.567 52.3267 371.215 51.5933 370.511 51.036C369.836 50.4787 368.824 50.024 367.475 49.672L365.363 49.1C363.368 48.572 361.814 47.78 360.699 46.724C359.584 45.6387 359.027 44.4213 359.027 43.072C359.027 40.9893 359.702 39.376 361.051 38.232C362.43 37.0587 364.468 36.472 367.167 36.472C368.458 36.472 369.631 36.6627 370.687 37.044C371.743 37.4253 372.652 37.968 373.415 38.672C374.178 39.3467 374.735 40.1533 375.087 41.092L372.007 42.456C371.626 41.4587 370.995 40.74 370.115 40.3C369.235 39.86 368.164 39.64 366.903 39.64C365.554 39.64 364.498 39.9333 363.735 40.52C362.972 41.0773 362.591 41.8693 362.591 42.896C362.591 43.4827 362.899 44.04 363.515 44.568C364.16 45.0667 365.099 45.4773 366.331 45.8L368.531 46.372C369.968 46.724 371.171 47.252 372.139 47.956C373.107 48.6307 373.84 49.408 374.339 50.288C374.838 51.168 375.087 52.1067 375.087 53.104C375.087 54.424 374.735 55.568 374.031 56.536C373.327 57.504 372.374 58.252 371.171 58.78C369.968 59.2787 368.59 59.528 367.035 59.528Z" fill="#262730"/>
</svg>
