<svg width="93" height="40" viewBox="0 0 93 40" fill="none" xmlns="http://www.w3.org/2000/svg">
<path d="M64.1299 28.2235C62.4907 29.8136 60.5037 30.6583 58.169 30.6583C55.8343 30.6583 53.8473 29.8633 52.2577 28.2235C50.6184 26.6335 49.8236 24.6459 49.8236 22.2608C49.8236 19.8757 50.6184 17.9378 52.2577 16.2981C53.897 14.708 55.8343 13.8633 58.169 13.8633C60.5037 13.8633 62.4907 14.6583 64.1299 16.2981C65.7692 17.8881 66.564 19.8757 66.564 22.2608C66.564 24.6459 65.7692 26.5838 64.1299 28.2235ZM58.169 27.9254C59.7586 27.9254 61.0998 27.3788 62.1926 26.2856C63.2855 25.1925 63.8319 23.8509 63.8319 22.2608C63.8319 20.6707 63.2855 19.2794 62.1926 18.236C61.0998 17.1925 59.7586 16.5962 58.169 16.5962C56.5794 16.5962 55.2878 17.1428 54.195 18.236C53.1022 19.3291 52.5557 20.6707 52.5557 22.2608C52.5557 23.8509 53.1022 25.2422 54.195 26.2856C55.2878 27.3291 56.6291 27.9254 58.169 27.9254Z" fill="#262730"/>
<path d="M75.8531 16.9937H72.1276V25.59C72.1276 26.385 72.2766 26.9316 72.5746 27.2794C72.8727 27.6273 73.3694 27.7763 73.9655 27.7763C74.6113 27.7763 74.9093 27.7763 75.8035 27.7266V30.2111C73.3694 30.5093 72.1276 30.3105 70.985 29.6148C69.8425 28.9192 69.2961 27.5776 69.2961 25.59V16.9937H67.1601V14.3105H69.2961V10.1863L72.0779 9.34155V14.3105H75.8035V16.9937H75.8531Z" fill="#262730"/>
<path d="M83.8508 16.9937H80.1252V25.59C80.1252 26.385 80.2742 26.9316 80.5722 27.2794C80.8703 27.6273 81.367 27.7763 81.9631 27.7763C82.6089 27.7763 82.9069 27.7763 83.8011 27.7266V30.2111C81.367 30.5093 80.1252 30.3105 78.9826 29.6148C77.8401 28.9192 77.2937 27.5776 77.2937 25.59V16.9937H75.1577V14.3105H77.2937V10.1863L80.0755 9.34155V14.3105H83.8011V16.9937H83.8508Z" fill="#262730"/>
<path d="M87.9737 16.9938C88.8679 15.0062 90.5568 14.0125 92.9412 14.0125V16.8944C91.6 16.8447 90.4078 17.1926 89.464 17.9876C88.4705 18.7826 88.0234 20.0249 88.0234 21.764V30.2112H85.2416V14.3106H88.0234V16.9938H87.9737Z" fill="#262730"/>
<path d="M22.6516 18.2857C22.6516 19.4286 21.7575 20.323 20.615 20.323C19.4725 20.323 18.5783 19.3789 18.5783 18.2857C18.5783 17.1429 19.5221 16.2485 20.615 16.2485C21.7575 16.1988 22.6516 17.1429 22.6516 18.2857Z" fill="#262730"/>
<path d="M37.6533 18.2857C37.6533 19.4286 36.7095 20.323 35.6167 20.323C34.4742 20.323 33.58 19.3789 33.58 18.2857C33.58 17.1429 34.4742 16.2485 35.6167 16.2485C36.7095 16.1988 37.6533 17.1429 37.6533 18.2857Z" fill="#262730"/>
<path d="M21.8072 0C15.0514 0 8.74273 3.52795 5.21583 9.24224H3.22885C1.44056 9.24224 0 10.6832 0 12.472C0 14.2609 1.44056 15.7019 3.22885 15.7019V13.913C2.43406 13.913 1.78829 13.2671 1.78829 12.472C1.78829 11.677 2.43406 11.0311 3.22885 11.0311H6.20933L6.4577 10.5839C9.5872 5.11801 15.4488 1.73913 21.7078 1.73913C31.444 1.73913 39.3423 9.63975 39.3423 19.3789V27.4783C39.3423 30.1615 37.1566 32.3975 34.4245 32.3975C32.0401 32.3975 30.1028 30.7081 29.6061 28.472C31.6924 27.7764 33.2323 25.0932 33.2323 24C33.2323 22.7081 31.146 21.6646 28.6126 21.6646C26.0792 21.6646 23.9928 22.7081 23.9928 24C23.9928 25.0932 25.5327 27.7764 27.6191 28.472C27.172 30.7081 25.185 32.3975 22.8006 32.3975C20.1182 32.3975 17.8829 30.2112 17.8829 27.4783C17.8829 23.1553 14.356 19.6273 10.0343 19.6273C7.00412 19.677 4.27202 21.6149 3.03015 24.3478C2.58308 22.7578 2.38438 21.118 2.38438 19.4286H0.596095C0.596095 30.7578 9.83557 40 21.1614 40V38.2112C13.6605 38.2112 7.15314 33.7888 4.12299 27.3789C4.22234 24.0994 6.90477 21.4658 10.1833 21.4658C13.5115 21.4658 16.2436 24.1988 16.2436 27.528C16.2436 31.205 19.2241 34.236 22.9497 34.236C25.4334 34.236 27.5694 32.8944 28.7616 30.8571C29.9041 32.8447 32.0898 34.236 34.5735 34.236C38.2494 34.236 41.2796 31.2547 41.2796 27.528V19.4286C41.1802 8.69565 32.4872 0 21.8072 0ZM25.9301 24.1988C26.2779 23.9503 27.2217 23.5031 28.7119 23.5031C30.2022 23.5031 31.1957 23.9503 31.4937 24.1988C31.2453 25.0435 29.9538 26.882 28.7119 26.882C27.4701 26.882 26.1785 25.0435 25.9301 24.1988Z" fill="#262730"/>
</svg>
