<svg xmlns="http://www.w3.org/2000/svg" width="200" height="100" viewBox="0 0 200 100" fill="none">
  <path d="M175.916 60.4545C173.187 65.5827 170.635 70.6084 167.615 76.2596C171.381 76.818 174.089 75.1398 175.609 72.8425C180.166 65.9504 184.621 58.8805 188.41 51.4822C190.596 47.26 188.003 44.0109 183.271 44.2456C175.364 44.5308 167.484 45.2741 159.502 45.8396C159.042 45.8668 158.443 45.8564 158.227 46.0991C157.262 46.8921 156.54 47.9006 155.677 48.8715C156.548 49.5555 157.269 50.8004 158.149 50.8861C161.213 51.2562 164.211 51.3083 167.171 51.5005C168.792 51.6343 170.31 51.5902 172.37 52.8935C170.374 54.1616 168.34 55.5698 166.343 56.8378C123.963 81.2402 71.9229 74.8085 36.3797 41.0952C31.8291 36.7208 27.8503 31.8986 23.5154 27.2814C21.9893 25.6705 20.4256 24.1998 18.8995 22.5889C18.4028 22.7563 18.0091 23.1016 17.5125 23.269C17.596 24.6435 17.2857 26.3634 18.0439 27.468C20.3463 31.2401 22.6487 35.0121 25.4854 38.4766C53.5705 73.0461 101.783 87.0164 145.76 72.9577C154.165 70.2518 162.066 66.0584 170.097 62.5011C171.802 61.7561 173.264 60.7957 174.867 59.8729C175.186 59.8081 175.57 60.0612 175.916 60.4545Z" fill="#262730"/>
</svg>
