<svg width="182" height="99" viewBox="0 0 182 99" fill="none" xmlns="http://www.w3.org/2000/svg">
<g clip-path="url(#clip0_722_541)">
<path d="M167.293 59.4547C164.564 64.5829 162.012 69.6086 158.992 75.2599C162.758 75.8182 165.467 74.1401 166.986 71.8427C171.543 64.9507 175.998 57.8808 179.787 50.4824C181.973 46.2602 179.38 43.0112 174.648 43.2459C166.741 43.531 158.861 44.2743 150.879 44.8398C150.42 44.867 149.82 44.8566 149.604 45.0993C148.639 45.8924 147.917 46.9008 147.054 47.8717C147.925 48.5558 148.646 49.8006 149.527 49.8863C152.59 50.2564 155.588 50.3085 158.548 50.5008C160.169 50.6345 161.687 50.5905 163.747 51.8938C161.751 53.1618 159.717 54.57 157.721 55.838C115.34 80.2405 63.3002 73.8087 27.757 40.0955C23.2064 35.721 19.2276 30.8988 14.8927 26.2816C13.3666 24.6707 11.8029 23.2 10.2768 21.5891C9.78013 21.7566 9.38643 22.1018 8.88978 22.2692C8.97326 23.6438 8.66303 25.3636 9.42123 26.4682C11.7236 30.2403 14.026 34.0124 16.8627 37.4769C44.9478 72.0464 93.1605 86.0166 137.137 71.9579C145.542 69.2521 153.443 65.0587 161.474 61.5013C163.18 60.7564 164.642 59.796 166.244 58.8732C166.563 58.8083 166.947 59.0614 167.293 59.4547Z" fill="#262730"/>
</g>
<defs>
<clipPath id="clip0_722_541">
<rect width="172.56" height="55.9442" fill="white" transform="matrix(-0.965926 -0.258819 -0.258819 0.965926 181.537 44.6621)"/>
</clipPath>
</defs>
</svg>
